%
M48
M72
T01C0.01200
T02C0.01378
T03C0.02756
T04C0.03937
T05C0.04000
T06C0.04134
T07C0.04724
T08C0.05118
T09C0.11811
%
T01
X105993Y97099
X139389Y92201
X117570Y73499
X91744Y63703
X97088Y58360
X74379Y65485
X157200Y59696
X160762Y59696
X180800Y65039
X164324Y73054
X180800Y77062
X188815Y81069
X188815Y86412
X209743Y84186
X206626Y74835
X205290Y69492
X191931Y28527
X201728Y18731
X175472Y15636
T02
X55394Y24987
X63268Y64357
X118386Y91916
X161693Y76168
X205000Y60420
X210906Y60420
X205000Y42703
X181378Y32861
X161693Y38766
X165630Y7270
X187283Y99790
X71142Y93885
X71142Y107664
T03
X48150Y116640
X48150Y96955
T04
X242402Y93885
T05
X72795Y21129
X82795Y21129
X92795Y21129
X102795Y21129
X102795Y11129
X92795Y11129
X82795Y11129
X72795Y11129
X121102Y11207
X131102Y11207
X141102Y11207
X151102Y11207
X287047Y63766
X287047Y53766
X287047Y43766
X287047Y73766
X287047Y83766
T06
X23622Y63077
X23622Y43983
T07
X11693Y38865
X11693Y68196
T08
X242402Y64357
T09
X17992Y17113
X17992Y111601
X281772Y111601
X281772Y17113
M30
