G75*
%MOIN*%
%OFA0B0*%
%FSLAX25Y25*%
%IPPOS*%
%LPD*%
%AMOC8*
5,1,8,0,0,1.08239X$1,22.5*
%
%ADD10C,0.00000*%
%ADD11OC8,0.06000*%
%ADD12R,0.10000X0.10000*%
%ADD13C,0.06000*%
%ADD14C,0.05512*%
%ADD15C,0.00600*%
%ADD16C,0.02578*%
%ADD17C,0.02400*%
%ADD18C,0.01969*%
%ADD19C,0.01181*%
D10*
X0002244Y0001365D02*
X0002244Y0127349D01*
X0297520Y0127349D01*
X0297520Y0001365D01*
X0002244Y0001365D01*
X0012086Y0017113D02*
X0012088Y0017266D01*
X0012094Y0017420D01*
X0012104Y0017573D01*
X0012118Y0017725D01*
X0012136Y0017878D01*
X0012158Y0018029D01*
X0012183Y0018180D01*
X0012213Y0018331D01*
X0012247Y0018481D01*
X0012284Y0018629D01*
X0012325Y0018777D01*
X0012370Y0018923D01*
X0012419Y0019069D01*
X0012472Y0019213D01*
X0012528Y0019355D01*
X0012588Y0019496D01*
X0012652Y0019636D01*
X0012719Y0019774D01*
X0012790Y0019910D01*
X0012865Y0020044D01*
X0012942Y0020176D01*
X0013024Y0020306D01*
X0013108Y0020434D01*
X0013196Y0020560D01*
X0013287Y0020683D01*
X0013381Y0020804D01*
X0013479Y0020922D01*
X0013579Y0021038D01*
X0013683Y0021151D01*
X0013789Y0021262D01*
X0013898Y0021370D01*
X0014010Y0021475D01*
X0014124Y0021576D01*
X0014242Y0021675D01*
X0014361Y0021771D01*
X0014483Y0021864D01*
X0014608Y0021953D01*
X0014735Y0022040D01*
X0014864Y0022122D01*
X0014995Y0022202D01*
X0015128Y0022278D01*
X0015263Y0022351D01*
X0015400Y0022420D01*
X0015539Y0022485D01*
X0015679Y0022547D01*
X0015821Y0022605D01*
X0015964Y0022660D01*
X0016109Y0022711D01*
X0016255Y0022758D01*
X0016402Y0022801D01*
X0016550Y0022840D01*
X0016699Y0022876D01*
X0016849Y0022907D01*
X0017000Y0022935D01*
X0017151Y0022959D01*
X0017304Y0022979D01*
X0017456Y0022995D01*
X0017609Y0023007D01*
X0017762Y0023015D01*
X0017915Y0023019D01*
X0018069Y0023019D01*
X0018222Y0023015D01*
X0018375Y0023007D01*
X0018528Y0022995D01*
X0018680Y0022979D01*
X0018833Y0022959D01*
X0018984Y0022935D01*
X0019135Y0022907D01*
X0019285Y0022876D01*
X0019434Y0022840D01*
X0019582Y0022801D01*
X0019729Y0022758D01*
X0019875Y0022711D01*
X0020020Y0022660D01*
X0020163Y0022605D01*
X0020305Y0022547D01*
X0020445Y0022485D01*
X0020584Y0022420D01*
X0020721Y0022351D01*
X0020856Y0022278D01*
X0020989Y0022202D01*
X0021120Y0022122D01*
X0021249Y0022040D01*
X0021376Y0021953D01*
X0021501Y0021864D01*
X0021623Y0021771D01*
X0021742Y0021675D01*
X0021860Y0021576D01*
X0021974Y0021475D01*
X0022086Y0021370D01*
X0022195Y0021262D01*
X0022301Y0021151D01*
X0022405Y0021038D01*
X0022505Y0020922D01*
X0022603Y0020804D01*
X0022697Y0020683D01*
X0022788Y0020560D01*
X0022876Y0020434D01*
X0022960Y0020306D01*
X0023042Y0020176D01*
X0023119Y0020044D01*
X0023194Y0019910D01*
X0023265Y0019774D01*
X0023332Y0019636D01*
X0023396Y0019496D01*
X0023456Y0019355D01*
X0023512Y0019213D01*
X0023565Y0019069D01*
X0023614Y0018923D01*
X0023659Y0018777D01*
X0023700Y0018629D01*
X0023737Y0018481D01*
X0023771Y0018331D01*
X0023801Y0018180D01*
X0023826Y0018029D01*
X0023848Y0017878D01*
X0023866Y0017725D01*
X0023880Y0017573D01*
X0023890Y0017420D01*
X0023896Y0017266D01*
X0023898Y0017113D01*
X0023896Y0016960D01*
X0023890Y0016806D01*
X0023880Y0016653D01*
X0023866Y0016501D01*
X0023848Y0016348D01*
X0023826Y0016197D01*
X0023801Y0016046D01*
X0023771Y0015895D01*
X0023737Y0015745D01*
X0023700Y0015597D01*
X0023659Y0015449D01*
X0023614Y0015303D01*
X0023565Y0015157D01*
X0023512Y0015013D01*
X0023456Y0014871D01*
X0023396Y0014730D01*
X0023332Y0014590D01*
X0023265Y0014452D01*
X0023194Y0014316D01*
X0023119Y0014182D01*
X0023042Y0014050D01*
X0022960Y0013920D01*
X0022876Y0013792D01*
X0022788Y0013666D01*
X0022697Y0013543D01*
X0022603Y0013422D01*
X0022505Y0013304D01*
X0022405Y0013188D01*
X0022301Y0013075D01*
X0022195Y0012964D01*
X0022086Y0012856D01*
X0021974Y0012751D01*
X0021860Y0012650D01*
X0021742Y0012551D01*
X0021623Y0012455D01*
X0021501Y0012362D01*
X0021376Y0012273D01*
X0021249Y0012186D01*
X0021120Y0012104D01*
X0020989Y0012024D01*
X0020856Y0011948D01*
X0020721Y0011875D01*
X0020584Y0011806D01*
X0020445Y0011741D01*
X0020305Y0011679D01*
X0020163Y0011621D01*
X0020020Y0011566D01*
X0019875Y0011515D01*
X0019729Y0011468D01*
X0019582Y0011425D01*
X0019434Y0011386D01*
X0019285Y0011350D01*
X0019135Y0011319D01*
X0018984Y0011291D01*
X0018833Y0011267D01*
X0018680Y0011247D01*
X0018528Y0011231D01*
X0018375Y0011219D01*
X0018222Y0011211D01*
X0018069Y0011207D01*
X0017915Y0011207D01*
X0017762Y0011211D01*
X0017609Y0011219D01*
X0017456Y0011231D01*
X0017304Y0011247D01*
X0017151Y0011267D01*
X0017000Y0011291D01*
X0016849Y0011319D01*
X0016699Y0011350D01*
X0016550Y0011386D01*
X0016402Y0011425D01*
X0016255Y0011468D01*
X0016109Y0011515D01*
X0015964Y0011566D01*
X0015821Y0011621D01*
X0015679Y0011679D01*
X0015539Y0011741D01*
X0015400Y0011806D01*
X0015263Y0011875D01*
X0015128Y0011948D01*
X0014995Y0012024D01*
X0014864Y0012104D01*
X0014735Y0012186D01*
X0014608Y0012273D01*
X0014483Y0012362D01*
X0014361Y0012455D01*
X0014242Y0012551D01*
X0014124Y0012650D01*
X0014010Y0012751D01*
X0013898Y0012856D01*
X0013789Y0012964D01*
X0013683Y0013075D01*
X0013579Y0013188D01*
X0013479Y0013304D01*
X0013381Y0013422D01*
X0013287Y0013543D01*
X0013196Y0013666D01*
X0013108Y0013792D01*
X0013024Y0013920D01*
X0012942Y0014050D01*
X0012865Y0014182D01*
X0012790Y0014316D01*
X0012719Y0014452D01*
X0012652Y0014590D01*
X0012588Y0014730D01*
X0012528Y0014871D01*
X0012472Y0015013D01*
X0012419Y0015157D01*
X0012370Y0015303D01*
X0012325Y0015449D01*
X0012284Y0015597D01*
X0012247Y0015745D01*
X0012213Y0015895D01*
X0012183Y0016046D01*
X0012158Y0016197D01*
X0012136Y0016348D01*
X0012118Y0016501D01*
X0012104Y0016653D01*
X0012094Y0016806D01*
X0012088Y0016960D01*
X0012086Y0017113D01*
X0021555Y0043983D02*
X0021557Y0044074D01*
X0021563Y0044164D01*
X0021573Y0044255D01*
X0021587Y0044344D01*
X0021605Y0044433D01*
X0021626Y0044522D01*
X0021652Y0044609D01*
X0021681Y0044695D01*
X0021715Y0044779D01*
X0021751Y0044862D01*
X0021792Y0044944D01*
X0021836Y0045023D01*
X0021883Y0045101D01*
X0021934Y0045176D01*
X0021988Y0045249D01*
X0022045Y0045319D01*
X0022105Y0045387D01*
X0022168Y0045453D01*
X0022234Y0045515D01*
X0022303Y0045574D01*
X0022374Y0045631D01*
X0022448Y0045684D01*
X0022524Y0045734D01*
X0022602Y0045781D01*
X0022682Y0045824D01*
X0022763Y0045863D01*
X0022847Y0045899D01*
X0022932Y0045931D01*
X0023018Y0045960D01*
X0023105Y0045984D01*
X0023194Y0046005D01*
X0023283Y0046022D01*
X0023373Y0046035D01*
X0023463Y0046044D01*
X0023554Y0046049D01*
X0023645Y0046050D01*
X0023735Y0046047D01*
X0023826Y0046040D01*
X0023916Y0046029D01*
X0024006Y0046014D01*
X0024095Y0045995D01*
X0024183Y0045973D01*
X0024269Y0045946D01*
X0024355Y0045916D01*
X0024439Y0045882D01*
X0024522Y0045844D01*
X0024603Y0045803D01*
X0024682Y0045758D01*
X0024759Y0045709D01*
X0024833Y0045658D01*
X0024906Y0045603D01*
X0024976Y0045545D01*
X0025043Y0045484D01*
X0025107Y0045420D01*
X0025169Y0045354D01*
X0025228Y0045284D01*
X0025283Y0045213D01*
X0025336Y0045138D01*
X0025385Y0045062D01*
X0025431Y0044984D01*
X0025473Y0044903D01*
X0025512Y0044821D01*
X0025547Y0044737D01*
X0025578Y0044652D01*
X0025605Y0044565D01*
X0025629Y0044478D01*
X0025649Y0044389D01*
X0025665Y0044300D01*
X0025677Y0044210D01*
X0025685Y0044119D01*
X0025689Y0044028D01*
X0025689Y0043938D01*
X0025685Y0043847D01*
X0025677Y0043756D01*
X0025665Y0043666D01*
X0025649Y0043577D01*
X0025629Y0043488D01*
X0025605Y0043401D01*
X0025578Y0043314D01*
X0025547Y0043229D01*
X0025512Y0043145D01*
X0025473Y0043063D01*
X0025431Y0042982D01*
X0025385Y0042904D01*
X0025336Y0042828D01*
X0025283Y0042753D01*
X0025228Y0042682D01*
X0025169Y0042612D01*
X0025107Y0042546D01*
X0025043Y0042482D01*
X0024976Y0042421D01*
X0024906Y0042363D01*
X0024833Y0042308D01*
X0024759Y0042257D01*
X0024682Y0042208D01*
X0024603Y0042163D01*
X0024522Y0042122D01*
X0024439Y0042084D01*
X0024355Y0042050D01*
X0024269Y0042020D01*
X0024183Y0041993D01*
X0024095Y0041971D01*
X0024006Y0041952D01*
X0023916Y0041937D01*
X0023826Y0041926D01*
X0023735Y0041919D01*
X0023645Y0041916D01*
X0023554Y0041917D01*
X0023463Y0041922D01*
X0023373Y0041931D01*
X0023283Y0041944D01*
X0023194Y0041961D01*
X0023105Y0041982D01*
X0023018Y0042006D01*
X0022932Y0042035D01*
X0022847Y0042067D01*
X0022763Y0042103D01*
X0022682Y0042142D01*
X0022602Y0042185D01*
X0022524Y0042232D01*
X0022448Y0042282D01*
X0022374Y0042335D01*
X0022303Y0042392D01*
X0022234Y0042451D01*
X0022168Y0042513D01*
X0022105Y0042579D01*
X0022045Y0042647D01*
X0021988Y0042717D01*
X0021934Y0042790D01*
X0021883Y0042865D01*
X0021836Y0042943D01*
X0021792Y0043022D01*
X0021751Y0043104D01*
X0021715Y0043187D01*
X0021681Y0043271D01*
X0021652Y0043357D01*
X0021626Y0043444D01*
X0021605Y0043533D01*
X0021587Y0043622D01*
X0021573Y0043711D01*
X0021563Y0043802D01*
X0021557Y0043892D01*
X0021555Y0043983D01*
X0021555Y0063077D02*
X0021557Y0063168D01*
X0021563Y0063258D01*
X0021573Y0063349D01*
X0021587Y0063438D01*
X0021605Y0063527D01*
X0021626Y0063616D01*
X0021652Y0063703D01*
X0021681Y0063789D01*
X0021715Y0063873D01*
X0021751Y0063956D01*
X0021792Y0064038D01*
X0021836Y0064117D01*
X0021883Y0064195D01*
X0021934Y0064270D01*
X0021988Y0064343D01*
X0022045Y0064413D01*
X0022105Y0064481D01*
X0022168Y0064547D01*
X0022234Y0064609D01*
X0022303Y0064668D01*
X0022374Y0064725D01*
X0022448Y0064778D01*
X0022524Y0064828D01*
X0022602Y0064875D01*
X0022682Y0064918D01*
X0022763Y0064957D01*
X0022847Y0064993D01*
X0022932Y0065025D01*
X0023018Y0065054D01*
X0023105Y0065078D01*
X0023194Y0065099D01*
X0023283Y0065116D01*
X0023373Y0065129D01*
X0023463Y0065138D01*
X0023554Y0065143D01*
X0023645Y0065144D01*
X0023735Y0065141D01*
X0023826Y0065134D01*
X0023916Y0065123D01*
X0024006Y0065108D01*
X0024095Y0065089D01*
X0024183Y0065067D01*
X0024269Y0065040D01*
X0024355Y0065010D01*
X0024439Y0064976D01*
X0024522Y0064938D01*
X0024603Y0064897D01*
X0024682Y0064852D01*
X0024759Y0064803D01*
X0024833Y0064752D01*
X0024906Y0064697D01*
X0024976Y0064639D01*
X0025043Y0064578D01*
X0025107Y0064514D01*
X0025169Y0064448D01*
X0025228Y0064378D01*
X0025283Y0064307D01*
X0025336Y0064232D01*
X0025385Y0064156D01*
X0025431Y0064078D01*
X0025473Y0063997D01*
X0025512Y0063915D01*
X0025547Y0063831D01*
X0025578Y0063746D01*
X0025605Y0063659D01*
X0025629Y0063572D01*
X0025649Y0063483D01*
X0025665Y0063394D01*
X0025677Y0063304D01*
X0025685Y0063213D01*
X0025689Y0063122D01*
X0025689Y0063032D01*
X0025685Y0062941D01*
X0025677Y0062850D01*
X0025665Y0062760D01*
X0025649Y0062671D01*
X0025629Y0062582D01*
X0025605Y0062495D01*
X0025578Y0062408D01*
X0025547Y0062323D01*
X0025512Y0062239D01*
X0025473Y0062157D01*
X0025431Y0062076D01*
X0025385Y0061998D01*
X0025336Y0061922D01*
X0025283Y0061847D01*
X0025228Y0061776D01*
X0025169Y0061706D01*
X0025107Y0061640D01*
X0025043Y0061576D01*
X0024976Y0061515D01*
X0024906Y0061457D01*
X0024833Y0061402D01*
X0024759Y0061351D01*
X0024682Y0061302D01*
X0024603Y0061257D01*
X0024522Y0061216D01*
X0024439Y0061178D01*
X0024355Y0061144D01*
X0024269Y0061114D01*
X0024183Y0061087D01*
X0024095Y0061065D01*
X0024006Y0061046D01*
X0023916Y0061031D01*
X0023826Y0061020D01*
X0023735Y0061013D01*
X0023645Y0061010D01*
X0023554Y0061011D01*
X0023463Y0061016D01*
X0023373Y0061025D01*
X0023283Y0061038D01*
X0023194Y0061055D01*
X0023105Y0061076D01*
X0023018Y0061100D01*
X0022932Y0061129D01*
X0022847Y0061161D01*
X0022763Y0061197D01*
X0022682Y0061236D01*
X0022602Y0061279D01*
X0022524Y0061326D01*
X0022448Y0061376D01*
X0022374Y0061429D01*
X0022303Y0061486D01*
X0022234Y0061545D01*
X0022168Y0061607D01*
X0022105Y0061673D01*
X0022045Y0061741D01*
X0021988Y0061811D01*
X0021934Y0061884D01*
X0021883Y0061959D01*
X0021836Y0062037D01*
X0021792Y0062116D01*
X0021751Y0062198D01*
X0021715Y0062281D01*
X0021681Y0062365D01*
X0021652Y0062451D01*
X0021626Y0062538D01*
X0021605Y0062627D01*
X0021587Y0062716D01*
X0021573Y0062805D01*
X0021563Y0062896D01*
X0021557Y0062986D01*
X0021555Y0063077D01*
X0012086Y0111601D02*
X0012088Y0111754D01*
X0012094Y0111908D01*
X0012104Y0112061D01*
X0012118Y0112213D01*
X0012136Y0112366D01*
X0012158Y0112517D01*
X0012183Y0112668D01*
X0012213Y0112819D01*
X0012247Y0112969D01*
X0012284Y0113117D01*
X0012325Y0113265D01*
X0012370Y0113411D01*
X0012419Y0113557D01*
X0012472Y0113701D01*
X0012528Y0113843D01*
X0012588Y0113984D01*
X0012652Y0114124D01*
X0012719Y0114262D01*
X0012790Y0114398D01*
X0012865Y0114532D01*
X0012942Y0114664D01*
X0013024Y0114794D01*
X0013108Y0114922D01*
X0013196Y0115048D01*
X0013287Y0115171D01*
X0013381Y0115292D01*
X0013479Y0115410D01*
X0013579Y0115526D01*
X0013683Y0115639D01*
X0013789Y0115750D01*
X0013898Y0115858D01*
X0014010Y0115963D01*
X0014124Y0116064D01*
X0014242Y0116163D01*
X0014361Y0116259D01*
X0014483Y0116352D01*
X0014608Y0116441D01*
X0014735Y0116528D01*
X0014864Y0116610D01*
X0014995Y0116690D01*
X0015128Y0116766D01*
X0015263Y0116839D01*
X0015400Y0116908D01*
X0015539Y0116973D01*
X0015679Y0117035D01*
X0015821Y0117093D01*
X0015964Y0117148D01*
X0016109Y0117199D01*
X0016255Y0117246D01*
X0016402Y0117289D01*
X0016550Y0117328D01*
X0016699Y0117364D01*
X0016849Y0117395D01*
X0017000Y0117423D01*
X0017151Y0117447D01*
X0017304Y0117467D01*
X0017456Y0117483D01*
X0017609Y0117495D01*
X0017762Y0117503D01*
X0017915Y0117507D01*
X0018069Y0117507D01*
X0018222Y0117503D01*
X0018375Y0117495D01*
X0018528Y0117483D01*
X0018680Y0117467D01*
X0018833Y0117447D01*
X0018984Y0117423D01*
X0019135Y0117395D01*
X0019285Y0117364D01*
X0019434Y0117328D01*
X0019582Y0117289D01*
X0019729Y0117246D01*
X0019875Y0117199D01*
X0020020Y0117148D01*
X0020163Y0117093D01*
X0020305Y0117035D01*
X0020445Y0116973D01*
X0020584Y0116908D01*
X0020721Y0116839D01*
X0020856Y0116766D01*
X0020989Y0116690D01*
X0021120Y0116610D01*
X0021249Y0116528D01*
X0021376Y0116441D01*
X0021501Y0116352D01*
X0021623Y0116259D01*
X0021742Y0116163D01*
X0021860Y0116064D01*
X0021974Y0115963D01*
X0022086Y0115858D01*
X0022195Y0115750D01*
X0022301Y0115639D01*
X0022405Y0115526D01*
X0022505Y0115410D01*
X0022603Y0115292D01*
X0022697Y0115171D01*
X0022788Y0115048D01*
X0022876Y0114922D01*
X0022960Y0114794D01*
X0023042Y0114664D01*
X0023119Y0114532D01*
X0023194Y0114398D01*
X0023265Y0114262D01*
X0023332Y0114124D01*
X0023396Y0113984D01*
X0023456Y0113843D01*
X0023512Y0113701D01*
X0023565Y0113557D01*
X0023614Y0113411D01*
X0023659Y0113265D01*
X0023700Y0113117D01*
X0023737Y0112969D01*
X0023771Y0112819D01*
X0023801Y0112668D01*
X0023826Y0112517D01*
X0023848Y0112366D01*
X0023866Y0112213D01*
X0023880Y0112061D01*
X0023890Y0111908D01*
X0023896Y0111754D01*
X0023898Y0111601D01*
X0023896Y0111448D01*
X0023890Y0111294D01*
X0023880Y0111141D01*
X0023866Y0110989D01*
X0023848Y0110836D01*
X0023826Y0110685D01*
X0023801Y0110534D01*
X0023771Y0110383D01*
X0023737Y0110233D01*
X0023700Y0110085D01*
X0023659Y0109937D01*
X0023614Y0109791D01*
X0023565Y0109645D01*
X0023512Y0109501D01*
X0023456Y0109359D01*
X0023396Y0109218D01*
X0023332Y0109078D01*
X0023265Y0108940D01*
X0023194Y0108804D01*
X0023119Y0108670D01*
X0023042Y0108538D01*
X0022960Y0108408D01*
X0022876Y0108280D01*
X0022788Y0108154D01*
X0022697Y0108031D01*
X0022603Y0107910D01*
X0022505Y0107792D01*
X0022405Y0107676D01*
X0022301Y0107563D01*
X0022195Y0107452D01*
X0022086Y0107344D01*
X0021974Y0107239D01*
X0021860Y0107138D01*
X0021742Y0107039D01*
X0021623Y0106943D01*
X0021501Y0106850D01*
X0021376Y0106761D01*
X0021249Y0106674D01*
X0021120Y0106592D01*
X0020989Y0106512D01*
X0020856Y0106436D01*
X0020721Y0106363D01*
X0020584Y0106294D01*
X0020445Y0106229D01*
X0020305Y0106167D01*
X0020163Y0106109D01*
X0020020Y0106054D01*
X0019875Y0106003D01*
X0019729Y0105956D01*
X0019582Y0105913D01*
X0019434Y0105874D01*
X0019285Y0105838D01*
X0019135Y0105807D01*
X0018984Y0105779D01*
X0018833Y0105755D01*
X0018680Y0105735D01*
X0018528Y0105719D01*
X0018375Y0105707D01*
X0018222Y0105699D01*
X0018069Y0105695D01*
X0017915Y0105695D01*
X0017762Y0105699D01*
X0017609Y0105707D01*
X0017456Y0105719D01*
X0017304Y0105735D01*
X0017151Y0105755D01*
X0017000Y0105779D01*
X0016849Y0105807D01*
X0016699Y0105838D01*
X0016550Y0105874D01*
X0016402Y0105913D01*
X0016255Y0105956D01*
X0016109Y0106003D01*
X0015964Y0106054D01*
X0015821Y0106109D01*
X0015679Y0106167D01*
X0015539Y0106229D01*
X0015400Y0106294D01*
X0015263Y0106363D01*
X0015128Y0106436D01*
X0014995Y0106512D01*
X0014864Y0106592D01*
X0014735Y0106674D01*
X0014608Y0106761D01*
X0014483Y0106850D01*
X0014361Y0106943D01*
X0014242Y0107039D01*
X0014124Y0107138D01*
X0014010Y0107239D01*
X0013898Y0107344D01*
X0013789Y0107452D01*
X0013683Y0107563D01*
X0013579Y0107676D01*
X0013479Y0107792D01*
X0013381Y0107910D01*
X0013287Y0108031D01*
X0013196Y0108154D01*
X0013108Y0108280D01*
X0013024Y0108408D01*
X0012942Y0108538D01*
X0012865Y0108670D01*
X0012790Y0108804D01*
X0012719Y0108940D01*
X0012652Y0109078D01*
X0012588Y0109218D01*
X0012528Y0109359D01*
X0012472Y0109501D01*
X0012419Y0109645D01*
X0012370Y0109791D01*
X0012325Y0109937D01*
X0012284Y0110085D01*
X0012247Y0110233D01*
X0012213Y0110383D01*
X0012183Y0110534D01*
X0012158Y0110685D01*
X0012136Y0110836D01*
X0012118Y0110989D01*
X0012104Y0111141D01*
X0012094Y0111294D01*
X0012088Y0111448D01*
X0012086Y0111601D01*
X0240433Y0093885D02*
X0240435Y0093973D01*
X0240441Y0094061D01*
X0240451Y0094149D01*
X0240465Y0094237D01*
X0240482Y0094323D01*
X0240504Y0094409D01*
X0240529Y0094493D01*
X0240559Y0094577D01*
X0240591Y0094659D01*
X0240628Y0094739D01*
X0240668Y0094818D01*
X0240712Y0094895D01*
X0240759Y0094970D01*
X0240809Y0095042D01*
X0240863Y0095113D01*
X0240919Y0095180D01*
X0240979Y0095246D01*
X0241041Y0095308D01*
X0241107Y0095368D01*
X0241174Y0095424D01*
X0241245Y0095478D01*
X0241317Y0095528D01*
X0241392Y0095575D01*
X0241469Y0095619D01*
X0241548Y0095659D01*
X0241628Y0095696D01*
X0241710Y0095728D01*
X0241794Y0095758D01*
X0241878Y0095783D01*
X0241964Y0095805D01*
X0242050Y0095822D01*
X0242138Y0095836D01*
X0242226Y0095846D01*
X0242314Y0095852D01*
X0242402Y0095854D01*
X0242490Y0095852D01*
X0242578Y0095846D01*
X0242666Y0095836D01*
X0242754Y0095822D01*
X0242840Y0095805D01*
X0242926Y0095783D01*
X0243010Y0095758D01*
X0243094Y0095728D01*
X0243176Y0095696D01*
X0243256Y0095659D01*
X0243335Y0095619D01*
X0243412Y0095575D01*
X0243487Y0095528D01*
X0243559Y0095478D01*
X0243630Y0095424D01*
X0243697Y0095368D01*
X0243763Y0095308D01*
X0243825Y0095246D01*
X0243885Y0095180D01*
X0243941Y0095113D01*
X0243995Y0095042D01*
X0244045Y0094970D01*
X0244092Y0094895D01*
X0244136Y0094818D01*
X0244176Y0094739D01*
X0244213Y0094659D01*
X0244245Y0094577D01*
X0244275Y0094493D01*
X0244300Y0094409D01*
X0244322Y0094323D01*
X0244339Y0094237D01*
X0244353Y0094149D01*
X0244363Y0094061D01*
X0244369Y0093973D01*
X0244371Y0093885D01*
X0244369Y0093797D01*
X0244363Y0093709D01*
X0244353Y0093621D01*
X0244339Y0093533D01*
X0244322Y0093447D01*
X0244300Y0093361D01*
X0244275Y0093277D01*
X0244245Y0093193D01*
X0244213Y0093111D01*
X0244176Y0093031D01*
X0244136Y0092952D01*
X0244092Y0092875D01*
X0244045Y0092800D01*
X0243995Y0092728D01*
X0243941Y0092657D01*
X0243885Y0092590D01*
X0243825Y0092524D01*
X0243763Y0092462D01*
X0243697Y0092402D01*
X0243630Y0092346D01*
X0243559Y0092292D01*
X0243487Y0092242D01*
X0243412Y0092195D01*
X0243335Y0092151D01*
X0243256Y0092111D01*
X0243176Y0092074D01*
X0243094Y0092042D01*
X0243010Y0092012D01*
X0242926Y0091987D01*
X0242840Y0091965D01*
X0242754Y0091948D01*
X0242666Y0091934D01*
X0242578Y0091924D01*
X0242490Y0091918D01*
X0242402Y0091916D01*
X0242314Y0091918D01*
X0242226Y0091924D01*
X0242138Y0091934D01*
X0242050Y0091948D01*
X0241964Y0091965D01*
X0241878Y0091987D01*
X0241794Y0092012D01*
X0241710Y0092042D01*
X0241628Y0092074D01*
X0241548Y0092111D01*
X0241469Y0092151D01*
X0241392Y0092195D01*
X0241317Y0092242D01*
X0241245Y0092292D01*
X0241174Y0092346D01*
X0241107Y0092402D01*
X0241041Y0092462D01*
X0240979Y0092524D01*
X0240919Y0092590D01*
X0240863Y0092657D01*
X0240809Y0092728D01*
X0240759Y0092800D01*
X0240712Y0092875D01*
X0240668Y0092952D01*
X0240628Y0093031D01*
X0240591Y0093111D01*
X0240559Y0093193D01*
X0240529Y0093277D01*
X0240504Y0093361D01*
X0240482Y0093447D01*
X0240465Y0093533D01*
X0240451Y0093621D01*
X0240441Y0093709D01*
X0240435Y0093797D01*
X0240433Y0093885D01*
X0275866Y0111601D02*
X0275868Y0111754D01*
X0275874Y0111908D01*
X0275884Y0112061D01*
X0275898Y0112213D01*
X0275916Y0112366D01*
X0275938Y0112517D01*
X0275963Y0112668D01*
X0275993Y0112819D01*
X0276027Y0112969D01*
X0276064Y0113117D01*
X0276105Y0113265D01*
X0276150Y0113411D01*
X0276199Y0113557D01*
X0276252Y0113701D01*
X0276308Y0113843D01*
X0276368Y0113984D01*
X0276432Y0114124D01*
X0276499Y0114262D01*
X0276570Y0114398D01*
X0276645Y0114532D01*
X0276722Y0114664D01*
X0276804Y0114794D01*
X0276888Y0114922D01*
X0276976Y0115048D01*
X0277067Y0115171D01*
X0277161Y0115292D01*
X0277259Y0115410D01*
X0277359Y0115526D01*
X0277463Y0115639D01*
X0277569Y0115750D01*
X0277678Y0115858D01*
X0277790Y0115963D01*
X0277904Y0116064D01*
X0278022Y0116163D01*
X0278141Y0116259D01*
X0278263Y0116352D01*
X0278388Y0116441D01*
X0278515Y0116528D01*
X0278644Y0116610D01*
X0278775Y0116690D01*
X0278908Y0116766D01*
X0279043Y0116839D01*
X0279180Y0116908D01*
X0279319Y0116973D01*
X0279459Y0117035D01*
X0279601Y0117093D01*
X0279744Y0117148D01*
X0279889Y0117199D01*
X0280035Y0117246D01*
X0280182Y0117289D01*
X0280330Y0117328D01*
X0280479Y0117364D01*
X0280629Y0117395D01*
X0280780Y0117423D01*
X0280931Y0117447D01*
X0281084Y0117467D01*
X0281236Y0117483D01*
X0281389Y0117495D01*
X0281542Y0117503D01*
X0281695Y0117507D01*
X0281849Y0117507D01*
X0282002Y0117503D01*
X0282155Y0117495D01*
X0282308Y0117483D01*
X0282460Y0117467D01*
X0282613Y0117447D01*
X0282764Y0117423D01*
X0282915Y0117395D01*
X0283065Y0117364D01*
X0283214Y0117328D01*
X0283362Y0117289D01*
X0283509Y0117246D01*
X0283655Y0117199D01*
X0283800Y0117148D01*
X0283943Y0117093D01*
X0284085Y0117035D01*
X0284225Y0116973D01*
X0284364Y0116908D01*
X0284501Y0116839D01*
X0284636Y0116766D01*
X0284769Y0116690D01*
X0284900Y0116610D01*
X0285029Y0116528D01*
X0285156Y0116441D01*
X0285281Y0116352D01*
X0285403Y0116259D01*
X0285522Y0116163D01*
X0285640Y0116064D01*
X0285754Y0115963D01*
X0285866Y0115858D01*
X0285975Y0115750D01*
X0286081Y0115639D01*
X0286185Y0115526D01*
X0286285Y0115410D01*
X0286383Y0115292D01*
X0286477Y0115171D01*
X0286568Y0115048D01*
X0286656Y0114922D01*
X0286740Y0114794D01*
X0286822Y0114664D01*
X0286899Y0114532D01*
X0286974Y0114398D01*
X0287045Y0114262D01*
X0287112Y0114124D01*
X0287176Y0113984D01*
X0287236Y0113843D01*
X0287292Y0113701D01*
X0287345Y0113557D01*
X0287394Y0113411D01*
X0287439Y0113265D01*
X0287480Y0113117D01*
X0287517Y0112969D01*
X0287551Y0112819D01*
X0287581Y0112668D01*
X0287606Y0112517D01*
X0287628Y0112366D01*
X0287646Y0112213D01*
X0287660Y0112061D01*
X0287670Y0111908D01*
X0287676Y0111754D01*
X0287678Y0111601D01*
X0287676Y0111448D01*
X0287670Y0111294D01*
X0287660Y0111141D01*
X0287646Y0110989D01*
X0287628Y0110836D01*
X0287606Y0110685D01*
X0287581Y0110534D01*
X0287551Y0110383D01*
X0287517Y0110233D01*
X0287480Y0110085D01*
X0287439Y0109937D01*
X0287394Y0109791D01*
X0287345Y0109645D01*
X0287292Y0109501D01*
X0287236Y0109359D01*
X0287176Y0109218D01*
X0287112Y0109078D01*
X0287045Y0108940D01*
X0286974Y0108804D01*
X0286899Y0108670D01*
X0286822Y0108538D01*
X0286740Y0108408D01*
X0286656Y0108280D01*
X0286568Y0108154D01*
X0286477Y0108031D01*
X0286383Y0107910D01*
X0286285Y0107792D01*
X0286185Y0107676D01*
X0286081Y0107563D01*
X0285975Y0107452D01*
X0285866Y0107344D01*
X0285754Y0107239D01*
X0285640Y0107138D01*
X0285522Y0107039D01*
X0285403Y0106943D01*
X0285281Y0106850D01*
X0285156Y0106761D01*
X0285029Y0106674D01*
X0284900Y0106592D01*
X0284769Y0106512D01*
X0284636Y0106436D01*
X0284501Y0106363D01*
X0284364Y0106294D01*
X0284225Y0106229D01*
X0284085Y0106167D01*
X0283943Y0106109D01*
X0283800Y0106054D01*
X0283655Y0106003D01*
X0283509Y0105956D01*
X0283362Y0105913D01*
X0283214Y0105874D01*
X0283065Y0105838D01*
X0282915Y0105807D01*
X0282764Y0105779D01*
X0282613Y0105755D01*
X0282460Y0105735D01*
X0282308Y0105719D01*
X0282155Y0105707D01*
X0282002Y0105699D01*
X0281849Y0105695D01*
X0281695Y0105695D01*
X0281542Y0105699D01*
X0281389Y0105707D01*
X0281236Y0105719D01*
X0281084Y0105735D01*
X0280931Y0105755D01*
X0280780Y0105779D01*
X0280629Y0105807D01*
X0280479Y0105838D01*
X0280330Y0105874D01*
X0280182Y0105913D01*
X0280035Y0105956D01*
X0279889Y0106003D01*
X0279744Y0106054D01*
X0279601Y0106109D01*
X0279459Y0106167D01*
X0279319Y0106229D01*
X0279180Y0106294D01*
X0279043Y0106363D01*
X0278908Y0106436D01*
X0278775Y0106512D01*
X0278644Y0106592D01*
X0278515Y0106674D01*
X0278388Y0106761D01*
X0278263Y0106850D01*
X0278141Y0106943D01*
X0278022Y0107039D01*
X0277904Y0107138D01*
X0277790Y0107239D01*
X0277678Y0107344D01*
X0277569Y0107452D01*
X0277463Y0107563D01*
X0277359Y0107676D01*
X0277259Y0107792D01*
X0277161Y0107910D01*
X0277067Y0108031D01*
X0276976Y0108154D01*
X0276888Y0108280D01*
X0276804Y0108408D01*
X0276722Y0108538D01*
X0276645Y0108670D01*
X0276570Y0108804D01*
X0276499Y0108940D01*
X0276432Y0109078D01*
X0276368Y0109218D01*
X0276308Y0109359D01*
X0276252Y0109501D01*
X0276199Y0109645D01*
X0276150Y0109791D01*
X0276105Y0109937D01*
X0276064Y0110085D01*
X0276027Y0110233D01*
X0275993Y0110383D01*
X0275963Y0110534D01*
X0275938Y0110685D01*
X0275916Y0110836D01*
X0275898Y0110989D01*
X0275884Y0111141D01*
X0275874Y0111294D01*
X0275868Y0111448D01*
X0275866Y0111601D01*
X0239843Y0064357D02*
X0239845Y0064458D01*
X0239851Y0064559D01*
X0239861Y0064660D01*
X0239875Y0064760D01*
X0239893Y0064859D01*
X0239915Y0064958D01*
X0239940Y0065056D01*
X0239970Y0065153D01*
X0240003Y0065248D01*
X0240040Y0065342D01*
X0240081Y0065435D01*
X0240125Y0065526D01*
X0240173Y0065615D01*
X0240225Y0065702D01*
X0240280Y0065787D01*
X0240338Y0065869D01*
X0240399Y0065950D01*
X0240464Y0066028D01*
X0240531Y0066103D01*
X0240601Y0066175D01*
X0240675Y0066245D01*
X0240751Y0066312D01*
X0240829Y0066376D01*
X0240910Y0066436D01*
X0240993Y0066493D01*
X0241079Y0066547D01*
X0241167Y0066598D01*
X0241256Y0066645D01*
X0241347Y0066689D01*
X0241440Y0066728D01*
X0241535Y0066765D01*
X0241630Y0066797D01*
X0241727Y0066826D01*
X0241826Y0066850D01*
X0241924Y0066871D01*
X0242024Y0066888D01*
X0242124Y0066901D01*
X0242225Y0066910D01*
X0242326Y0066915D01*
X0242427Y0066916D01*
X0242528Y0066913D01*
X0242629Y0066906D01*
X0242730Y0066895D01*
X0242830Y0066880D01*
X0242929Y0066861D01*
X0243028Y0066838D01*
X0243125Y0066812D01*
X0243222Y0066781D01*
X0243317Y0066747D01*
X0243410Y0066709D01*
X0243503Y0066667D01*
X0243593Y0066622D01*
X0243682Y0066573D01*
X0243768Y0066521D01*
X0243852Y0066465D01*
X0243935Y0066406D01*
X0244014Y0066344D01*
X0244092Y0066279D01*
X0244166Y0066211D01*
X0244238Y0066139D01*
X0244307Y0066066D01*
X0244373Y0065989D01*
X0244436Y0065910D01*
X0244496Y0065828D01*
X0244552Y0065744D01*
X0244605Y0065658D01*
X0244655Y0065570D01*
X0244701Y0065480D01*
X0244744Y0065389D01*
X0244783Y0065295D01*
X0244818Y0065200D01*
X0244849Y0065104D01*
X0244877Y0065007D01*
X0244901Y0064909D01*
X0244921Y0064810D01*
X0244937Y0064710D01*
X0244949Y0064609D01*
X0244957Y0064509D01*
X0244961Y0064408D01*
X0244961Y0064306D01*
X0244957Y0064205D01*
X0244949Y0064105D01*
X0244937Y0064004D01*
X0244921Y0063904D01*
X0244901Y0063805D01*
X0244877Y0063707D01*
X0244849Y0063610D01*
X0244818Y0063514D01*
X0244783Y0063419D01*
X0244744Y0063325D01*
X0244701Y0063234D01*
X0244655Y0063144D01*
X0244605Y0063056D01*
X0244552Y0062970D01*
X0244496Y0062886D01*
X0244436Y0062804D01*
X0244373Y0062725D01*
X0244307Y0062648D01*
X0244238Y0062575D01*
X0244166Y0062503D01*
X0244092Y0062435D01*
X0244014Y0062370D01*
X0243935Y0062308D01*
X0243852Y0062249D01*
X0243768Y0062193D01*
X0243681Y0062141D01*
X0243593Y0062092D01*
X0243503Y0062047D01*
X0243410Y0062005D01*
X0243317Y0061967D01*
X0243222Y0061933D01*
X0243125Y0061902D01*
X0243028Y0061876D01*
X0242929Y0061853D01*
X0242830Y0061834D01*
X0242730Y0061819D01*
X0242629Y0061808D01*
X0242528Y0061801D01*
X0242427Y0061798D01*
X0242326Y0061799D01*
X0242225Y0061804D01*
X0242124Y0061813D01*
X0242024Y0061826D01*
X0241924Y0061843D01*
X0241826Y0061864D01*
X0241727Y0061888D01*
X0241630Y0061917D01*
X0241535Y0061949D01*
X0241440Y0061986D01*
X0241347Y0062025D01*
X0241256Y0062069D01*
X0241167Y0062116D01*
X0241079Y0062167D01*
X0240993Y0062221D01*
X0240910Y0062278D01*
X0240829Y0062338D01*
X0240751Y0062402D01*
X0240675Y0062469D01*
X0240601Y0062539D01*
X0240531Y0062611D01*
X0240464Y0062686D01*
X0240399Y0062764D01*
X0240338Y0062845D01*
X0240280Y0062927D01*
X0240225Y0063012D01*
X0240173Y0063099D01*
X0240125Y0063188D01*
X0240081Y0063279D01*
X0240040Y0063372D01*
X0240003Y0063466D01*
X0239970Y0063561D01*
X0239940Y0063658D01*
X0239915Y0063756D01*
X0239893Y0063855D01*
X0239875Y0063954D01*
X0239861Y0064054D01*
X0239851Y0064155D01*
X0239845Y0064256D01*
X0239843Y0064357D01*
X0275866Y0017113D02*
X0275868Y0017266D01*
X0275874Y0017420D01*
X0275884Y0017573D01*
X0275898Y0017725D01*
X0275916Y0017878D01*
X0275938Y0018029D01*
X0275963Y0018180D01*
X0275993Y0018331D01*
X0276027Y0018481D01*
X0276064Y0018629D01*
X0276105Y0018777D01*
X0276150Y0018923D01*
X0276199Y0019069D01*
X0276252Y0019213D01*
X0276308Y0019355D01*
X0276368Y0019496D01*
X0276432Y0019636D01*
X0276499Y0019774D01*
X0276570Y0019910D01*
X0276645Y0020044D01*
X0276722Y0020176D01*
X0276804Y0020306D01*
X0276888Y0020434D01*
X0276976Y0020560D01*
X0277067Y0020683D01*
X0277161Y0020804D01*
X0277259Y0020922D01*
X0277359Y0021038D01*
X0277463Y0021151D01*
X0277569Y0021262D01*
X0277678Y0021370D01*
X0277790Y0021475D01*
X0277904Y0021576D01*
X0278022Y0021675D01*
X0278141Y0021771D01*
X0278263Y0021864D01*
X0278388Y0021953D01*
X0278515Y0022040D01*
X0278644Y0022122D01*
X0278775Y0022202D01*
X0278908Y0022278D01*
X0279043Y0022351D01*
X0279180Y0022420D01*
X0279319Y0022485D01*
X0279459Y0022547D01*
X0279601Y0022605D01*
X0279744Y0022660D01*
X0279889Y0022711D01*
X0280035Y0022758D01*
X0280182Y0022801D01*
X0280330Y0022840D01*
X0280479Y0022876D01*
X0280629Y0022907D01*
X0280780Y0022935D01*
X0280931Y0022959D01*
X0281084Y0022979D01*
X0281236Y0022995D01*
X0281389Y0023007D01*
X0281542Y0023015D01*
X0281695Y0023019D01*
X0281849Y0023019D01*
X0282002Y0023015D01*
X0282155Y0023007D01*
X0282308Y0022995D01*
X0282460Y0022979D01*
X0282613Y0022959D01*
X0282764Y0022935D01*
X0282915Y0022907D01*
X0283065Y0022876D01*
X0283214Y0022840D01*
X0283362Y0022801D01*
X0283509Y0022758D01*
X0283655Y0022711D01*
X0283800Y0022660D01*
X0283943Y0022605D01*
X0284085Y0022547D01*
X0284225Y0022485D01*
X0284364Y0022420D01*
X0284501Y0022351D01*
X0284636Y0022278D01*
X0284769Y0022202D01*
X0284900Y0022122D01*
X0285029Y0022040D01*
X0285156Y0021953D01*
X0285281Y0021864D01*
X0285403Y0021771D01*
X0285522Y0021675D01*
X0285640Y0021576D01*
X0285754Y0021475D01*
X0285866Y0021370D01*
X0285975Y0021262D01*
X0286081Y0021151D01*
X0286185Y0021038D01*
X0286285Y0020922D01*
X0286383Y0020804D01*
X0286477Y0020683D01*
X0286568Y0020560D01*
X0286656Y0020434D01*
X0286740Y0020306D01*
X0286822Y0020176D01*
X0286899Y0020044D01*
X0286974Y0019910D01*
X0287045Y0019774D01*
X0287112Y0019636D01*
X0287176Y0019496D01*
X0287236Y0019355D01*
X0287292Y0019213D01*
X0287345Y0019069D01*
X0287394Y0018923D01*
X0287439Y0018777D01*
X0287480Y0018629D01*
X0287517Y0018481D01*
X0287551Y0018331D01*
X0287581Y0018180D01*
X0287606Y0018029D01*
X0287628Y0017878D01*
X0287646Y0017725D01*
X0287660Y0017573D01*
X0287670Y0017420D01*
X0287676Y0017266D01*
X0287678Y0017113D01*
X0287676Y0016960D01*
X0287670Y0016806D01*
X0287660Y0016653D01*
X0287646Y0016501D01*
X0287628Y0016348D01*
X0287606Y0016197D01*
X0287581Y0016046D01*
X0287551Y0015895D01*
X0287517Y0015745D01*
X0287480Y0015597D01*
X0287439Y0015449D01*
X0287394Y0015303D01*
X0287345Y0015157D01*
X0287292Y0015013D01*
X0287236Y0014871D01*
X0287176Y0014730D01*
X0287112Y0014590D01*
X0287045Y0014452D01*
X0286974Y0014316D01*
X0286899Y0014182D01*
X0286822Y0014050D01*
X0286740Y0013920D01*
X0286656Y0013792D01*
X0286568Y0013666D01*
X0286477Y0013543D01*
X0286383Y0013422D01*
X0286285Y0013304D01*
X0286185Y0013188D01*
X0286081Y0013075D01*
X0285975Y0012964D01*
X0285866Y0012856D01*
X0285754Y0012751D01*
X0285640Y0012650D01*
X0285522Y0012551D01*
X0285403Y0012455D01*
X0285281Y0012362D01*
X0285156Y0012273D01*
X0285029Y0012186D01*
X0284900Y0012104D01*
X0284769Y0012024D01*
X0284636Y0011948D01*
X0284501Y0011875D01*
X0284364Y0011806D01*
X0284225Y0011741D01*
X0284085Y0011679D01*
X0283943Y0011621D01*
X0283800Y0011566D01*
X0283655Y0011515D01*
X0283509Y0011468D01*
X0283362Y0011425D01*
X0283214Y0011386D01*
X0283065Y0011350D01*
X0282915Y0011319D01*
X0282764Y0011291D01*
X0282613Y0011267D01*
X0282460Y0011247D01*
X0282308Y0011231D01*
X0282155Y0011219D01*
X0282002Y0011211D01*
X0281849Y0011207D01*
X0281695Y0011207D01*
X0281542Y0011211D01*
X0281389Y0011219D01*
X0281236Y0011231D01*
X0281084Y0011247D01*
X0280931Y0011267D01*
X0280780Y0011291D01*
X0280629Y0011319D01*
X0280479Y0011350D01*
X0280330Y0011386D01*
X0280182Y0011425D01*
X0280035Y0011468D01*
X0279889Y0011515D01*
X0279744Y0011566D01*
X0279601Y0011621D01*
X0279459Y0011679D01*
X0279319Y0011741D01*
X0279180Y0011806D01*
X0279043Y0011875D01*
X0278908Y0011948D01*
X0278775Y0012024D01*
X0278644Y0012104D01*
X0278515Y0012186D01*
X0278388Y0012273D01*
X0278263Y0012362D01*
X0278141Y0012455D01*
X0278022Y0012551D01*
X0277904Y0012650D01*
X0277790Y0012751D01*
X0277678Y0012856D01*
X0277569Y0012964D01*
X0277463Y0013075D01*
X0277359Y0013188D01*
X0277259Y0013304D01*
X0277161Y0013422D01*
X0277067Y0013543D01*
X0276976Y0013666D01*
X0276888Y0013792D01*
X0276804Y0013920D01*
X0276722Y0014050D01*
X0276645Y0014182D01*
X0276570Y0014316D01*
X0276499Y0014452D01*
X0276432Y0014590D01*
X0276368Y0014730D01*
X0276308Y0014871D01*
X0276252Y0015013D01*
X0276199Y0015157D01*
X0276150Y0015303D01*
X0276105Y0015449D01*
X0276064Y0015597D01*
X0276027Y0015745D01*
X0275993Y0015895D01*
X0275963Y0016046D01*
X0275938Y0016197D01*
X0275916Y0016348D01*
X0275898Y0016501D01*
X0275884Y0016653D01*
X0275874Y0016806D01*
X0275868Y0016960D01*
X0275866Y0017113D01*
D11*
X0102795Y0021129D03*
X0092795Y0021129D03*
X0082795Y0021129D03*
X0072795Y0021129D03*
X0072795Y0011129D03*
X0082795Y0011129D03*
X0092795Y0011129D03*
X0102795Y0011129D03*
D12*
X0011693Y0038865D03*
X0011693Y0068196D03*
D13*
X0121102Y0014207D02*
X0121102Y0008207D01*
X0131102Y0008207D02*
X0131102Y0014207D01*
X0141102Y0014207D02*
X0141102Y0008207D01*
X0151102Y0008207D02*
X0151102Y0014207D01*
X0284047Y0043766D02*
X0290047Y0043766D01*
X0290047Y0053766D02*
X0284047Y0053766D01*
X0284047Y0063766D02*
X0290047Y0063766D01*
X0290047Y0073766D02*
X0284047Y0073766D01*
X0284047Y0083766D02*
X0290047Y0083766D01*
D14*
X0048150Y0096955D03*
X0048150Y0116640D03*
D15*
X0051513Y0118075D02*
X0104006Y0118075D01*
X0104006Y0118673D02*
X0051265Y0118673D01*
X0051249Y0118711D02*
X0050221Y0119740D01*
X0048877Y0120296D01*
X0047422Y0120296D01*
X0046079Y0119740D01*
X0045050Y0118711D01*
X0044494Y0117368D01*
X0044494Y0115913D01*
X0045050Y0114570D01*
X0046079Y0113541D01*
X0047422Y0112985D01*
X0048877Y0112985D01*
X0050221Y0113541D01*
X0051249Y0114570D01*
X0051805Y0115913D01*
X0051805Y0117368D01*
X0051249Y0118711D01*
X0050689Y0119272D02*
X0104006Y0119272D01*
X0104006Y0119870D02*
X0049906Y0119870D01*
X0046393Y0119870D02*
X0003544Y0119870D01*
X0003544Y0119272D02*
X0045611Y0119272D01*
X0045034Y0118673D02*
X0019748Y0118673D01*
X0019425Y0118807D02*
X0016559Y0118807D01*
X0013911Y0117710D01*
X0011884Y0115683D01*
X0010787Y0113034D01*
X0010787Y0110168D01*
X0011884Y0107519D01*
X0013911Y0105493D01*
X0016559Y0104396D01*
X0019425Y0104396D01*
X0022074Y0105493D01*
X0024101Y0107519D01*
X0025198Y0110168D01*
X0025198Y0113034D01*
X0024101Y0115683D01*
X0022074Y0117710D01*
X0019425Y0118807D01*
X0021193Y0118075D02*
X0044787Y0118075D01*
X0044539Y0117476D02*
X0022307Y0117476D01*
X0022906Y0116878D02*
X0044494Y0116878D01*
X0044494Y0116279D02*
X0023504Y0116279D01*
X0024102Y0115680D02*
X0044590Y0115680D01*
X0044838Y0115082D02*
X0024349Y0115082D01*
X0024597Y0114483D02*
X0045136Y0114483D01*
X0045735Y0113885D02*
X0024845Y0113885D01*
X0025093Y0113286D02*
X0046693Y0113286D01*
X0049606Y0113286D02*
X0104006Y0113286D01*
X0104006Y0112688D02*
X0025198Y0112688D01*
X0025198Y0112089D02*
X0104006Y0112089D01*
X0104006Y0111491D02*
X0025198Y0111491D01*
X0025198Y0110892D02*
X0104006Y0110892D01*
X0104006Y0110294D02*
X0025198Y0110294D01*
X0025002Y0109695D02*
X0104006Y0109695D01*
X0104006Y0109097D02*
X0024754Y0109097D01*
X0024506Y0108498D02*
X0104006Y0108498D01*
X0104006Y0107900D02*
X0024258Y0107900D01*
X0023883Y0107301D02*
X0104006Y0107301D01*
X0104006Y0106703D02*
X0023284Y0106703D01*
X0022686Y0106104D02*
X0104006Y0106104D01*
X0104006Y0105506D02*
X0022087Y0105506D01*
X0020661Y0104907D02*
X0104006Y0104907D01*
X0104006Y0104309D02*
X0003544Y0104309D01*
X0003544Y0104907D02*
X0015323Y0104907D01*
X0013897Y0105506D02*
X0003544Y0105506D01*
X0003544Y0106104D02*
X0013299Y0106104D01*
X0012700Y0106703D02*
X0003544Y0106703D01*
X0003544Y0107301D02*
X0012102Y0107301D01*
X0011726Y0107900D02*
X0003544Y0107900D01*
X0003544Y0108498D02*
X0011478Y0108498D01*
X0011230Y0109097D02*
X0003544Y0109097D01*
X0003544Y0109695D02*
X0010982Y0109695D01*
X0010787Y0110294D02*
X0003544Y0110294D01*
X0003544Y0110892D02*
X0010787Y0110892D01*
X0010787Y0111491D02*
X0003544Y0111491D01*
X0003544Y0112089D02*
X0010787Y0112089D01*
X0010787Y0112688D02*
X0003544Y0112688D01*
X0003544Y0113286D02*
X0010891Y0113286D01*
X0011139Y0113885D02*
X0003544Y0113885D01*
X0003544Y0114483D02*
X0011387Y0114483D01*
X0011635Y0115082D02*
X0003544Y0115082D01*
X0003544Y0115680D02*
X0011883Y0115680D01*
X0012480Y0116279D02*
X0003544Y0116279D01*
X0003544Y0116878D02*
X0013078Y0116878D01*
X0013677Y0117476D02*
X0003544Y0117476D01*
X0003544Y0118075D02*
X0014792Y0118075D01*
X0016237Y0118673D02*
X0003544Y0118673D01*
X0003544Y0120469D02*
X0104006Y0120469D01*
X0104006Y0121067D02*
X0003544Y0121067D01*
X0003544Y0121666D02*
X0104006Y0121666D01*
X0104006Y0122264D02*
X0003544Y0122264D01*
X0003544Y0122863D02*
X0104006Y0122863D01*
X0104006Y0123461D02*
X0003544Y0123461D01*
X0003544Y0124060D02*
X0104006Y0124060D01*
X0104006Y0124658D02*
X0003544Y0124658D01*
X0003544Y0125257D02*
X0104006Y0125257D01*
X0104006Y0125855D02*
X0003544Y0125855D01*
X0003544Y0126049D02*
X0104006Y0126049D01*
X0104006Y0099541D01*
X0104358Y0099190D01*
X0105114Y0099190D01*
X0103893Y0097969D01*
X0103893Y0097664D01*
X0073814Y0067584D01*
X0073509Y0067584D01*
X0072279Y0066354D01*
X0072279Y0064615D01*
X0073509Y0063385D01*
X0075249Y0063385D01*
X0076479Y0064615D01*
X0076479Y0064920D01*
X0106558Y0094999D01*
X0106863Y0094999D01*
X0108093Y0096229D01*
X0108093Y0097969D01*
X0106872Y0099190D01*
X0173752Y0099190D01*
X0174104Y0099541D01*
X0174104Y0126049D01*
X0296220Y0126049D01*
X0296220Y0002665D01*
X0003544Y0002665D01*
X0003544Y0126049D01*
X0050564Y0113885D02*
X0104006Y0113885D01*
X0104006Y0114483D02*
X0051163Y0114483D01*
X0051461Y0115082D02*
X0104006Y0115082D01*
X0104006Y0115680D02*
X0051709Y0115680D01*
X0051805Y0116279D02*
X0104006Y0116279D01*
X0104006Y0116878D02*
X0051805Y0116878D01*
X0051761Y0117476D02*
X0104006Y0117476D01*
X0104006Y0103710D02*
X0003544Y0103710D01*
X0003544Y0103112D02*
X0104006Y0103112D01*
X0104006Y0102513D02*
X0003544Y0102513D01*
X0003544Y0101915D02*
X0104006Y0101915D01*
X0104006Y0101316D02*
X0003544Y0101316D01*
X0003544Y0100718D02*
X0104006Y0100718D01*
X0104006Y0100119D02*
X0050065Y0100119D01*
X0050221Y0100055D02*
X0048877Y0100611D01*
X0047422Y0100611D01*
X0046079Y0100055D01*
X0045050Y0099026D01*
X0044494Y0097683D01*
X0044494Y0096228D01*
X0045050Y0094884D01*
X0046079Y0093856D01*
X0047422Y0093299D01*
X0048877Y0093299D01*
X0050221Y0093856D01*
X0051249Y0094884D01*
X0051805Y0096228D01*
X0051805Y0097683D01*
X0051249Y0099026D01*
X0050221Y0100055D01*
X0050755Y0099521D02*
X0104027Y0099521D01*
X0104847Y0098922D02*
X0051292Y0098922D01*
X0051540Y0098324D02*
X0104248Y0098324D01*
X0103893Y0097725D02*
X0051788Y0097725D01*
X0051805Y0097127D02*
X0103356Y0097127D01*
X0102758Y0096528D02*
X0051805Y0096528D01*
X0051682Y0095930D02*
X0102159Y0095930D01*
X0101561Y0095331D02*
X0051434Y0095331D01*
X0051097Y0094733D02*
X0100962Y0094733D01*
X0100364Y0094134D02*
X0050499Y0094134D01*
X0049447Y0093536D02*
X0099765Y0093536D01*
X0099167Y0092937D02*
X0003544Y0092937D01*
X0003544Y0092339D02*
X0098568Y0092339D01*
X0097970Y0091740D02*
X0003544Y0091740D01*
X0003544Y0091142D02*
X0097371Y0091142D01*
X0096773Y0090543D02*
X0003544Y0090543D01*
X0003544Y0089945D02*
X0096174Y0089945D01*
X0095575Y0089346D02*
X0003544Y0089346D01*
X0003544Y0088747D02*
X0094977Y0088747D01*
X0094378Y0088149D02*
X0003544Y0088149D01*
X0003544Y0087550D02*
X0093780Y0087550D01*
X0093181Y0086952D02*
X0003544Y0086952D01*
X0003544Y0086353D02*
X0092583Y0086353D01*
X0091984Y0085755D02*
X0003544Y0085755D01*
X0003544Y0085156D02*
X0091386Y0085156D01*
X0090787Y0084558D02*
X0003544Y0084558D01*
X0003544Y0083959D02*
X0090189Y0083959D01*
X0089590Y0083361D02*
X0003544Y0083361D01*
X0003544Y0082762D02*
X0088992Y0082762D01*
X0088393Y0082164D02*
X0003544Y0082164D01*
X0003544Y0081565D02*
X0087795Y0081565D01*
X0087196Y0080967D02*
X0003544Y0080967D01*
X0003544Y0080368D02*
X0086598Y0080368D01*
X0085999Y0079770D02*
X0003544Y0079770D01*
X0003544Y0079171D02*
X0085401Y0079171D01*
X0084802Y0078573D02*
X0003544Y0078573D01*
X0003544Y0077974D02*
X0084204Y0077974D01*
X0083605Y0077376D02*
X0003544Y0077376D01*
X0003544Y0076777D02*
X0083007Y0076777D01*
X0082408Y0076179D02*
X0003544Y0076179D01*
X0003544Y0075580D02*
X0081810Y0075580D01*
X0081211Y0074982D02*
X0003544Y0074982D01*
X0003544Y0074383D02*
X0006150Y0074383D01*
X0006191Y0074407D02*
X0005895Y0074236D01*
X0005653Y0073994D01*
X0005482Y0073697D01*
X0005393Y0073367D01*
X0005393Y0068496D01*
X0011393Y0068496D01*
X0011393Y0074496D01*
X0006522Y0074496D01*
X0006191Y0074407D01*
X0005532Y0073785D02*
X0003544Y0073785D01*
X0003544Y0073186D02*
X0005393Y0073186D01*
X0005393Y0072588D02*
X0003544Y0072588D01*
X0003544Y0071989D02*
X0005393Y0071989D01*
X0005393Y0071391D02*
X0003544Y0071391D01*
X0003544Y0070792D02*
X0005393Y0070792D01*
X0005393Y0070194D02*
X0003544Y0070194D01*
X0003544Y0069595D02*
X0005393Y0069595D01*
X0005393Y0068997D02*
X0003544Y0068997D01*
X0003544Y0068398D02*
X0011393Y0068398D01*
X0011393Y0068496D02*
X0011393Y0067896D01*
X0005393Y0067896D01*
X0005393Y0063024D01*
X0005482Y0062694D01*
X0005653Y0062397D01*
X0005895Y0062155D01*
X0006191Y0061984D01*
X0006522Y0061896D01*
X0011393Y0061896D01*
X0011393Y0067895D01*
X0011993Y0067895D01*
X0011993Y0061896D01*
X0016864Y0061896D01*
X0017195Y0061984D01*
X0017491Y0062155D01*
X0017733Y0062397D01*
X0017904Y0062694D01*
X0017993Y0063024D01*
X0017993Y0067896D01*
X0011993Y0067896D01*
X0011993Y0068496D01*
X0011393Y0068496D01*
X0011393Y0068997D02*
X0011993Y0068997D01*
X0011993Y0068496D02*
X0011993Y0074496D01*
X0016864Y0074496D01*
X0017195Y0074407D01*
X0017491Y0074236D01*
X0017733Y0073994D01*
X0017904Y0073697D01*
X0017993Y0073367D01*
X0017993Y0068496D01*
X0011993Y0068496D01*
X0011993Y0068398D02*
X0074628Y0068398D01*
X0075226Y0068997D02*
X0017993Y0068997D01*
X0017993Y0069595D02*
X0075825Y0069595D01*
X0076423Y0070194D02*
X0017993Y0070194D01*
X0017993Y0070792D02*
X0077022Y0070792D01*
X0077620Y0071391D02*
X0017993Y0071391D01*
X0017993Y0071989D02*
X0078219Y0071989D01*
X0078817Y0072588D02*
X0017993Y0072588D01*
X0017993Y0073186D02*
X0079416Y0073186D01*
X0080014Y0073785D02*
X0017854Y0073785D01*
X0017236Y0074383D02*
X0080613Y0074383D01*
X0083548Y0071989D02*
X0112072Y0071989D01*
X0112072Y0071391D02*
X0082950Y0071391D01*
X0082351Y0070792D02*
X0112072Y0070792D01*
X0112072Y0070194D02*
X0081753Y0070194D01*
X0081154Y0069595D02*
X0111558Y0069595D01*
X0112072Y0070109D02*
X0097806Y0055843D01*
X0096470Y0055843D01*
X0095597Y0054970D01*
X0065319Y0024691D01*
X0065319Y0023456D01*
X0065319Y0017567D01*
X0065319Y0016332D01*
X0068901Y0012750D01*
X0068895Y0012744D01*
X0068895Y0009513D01*
X0071180Y0007229D01*
X0074411Y0007229D01*
X0076695Y0009513D01*
X0076695Y0012744D01*
X0074411Y0015029D01*
X0071180Y0015029D01*
X0071009Y0014858D01*
X0068300Y0017567D01*
X0068300Y0023456D01*
X0097705Y0052862D01*
X0099041Y0052862D01*
X0114180Y0068001D01*
X0115054Y0068875D01*
X0115054Y0074218D01*
X0131546Y0090710D01*
X0137910Y0090710D01*
X0138519Y0090101D01*
X0140259Y0090101D01*
X0141489Y0091331D01*
X0141489Y0093071D01*
X0140259Y0094301D01*
X0138519Y0094301D01*
X0137910Y0093692D01*
X0130311Y0093692D01*
X0112072Y0075453D01*
X0112072Y0070109D01*
X0110960Y0068997D02*
X0080556Y0068997D01*
X0079957Y0068398D02*
X0110361Y0068398D01*
X0109763Y0067800D02*
X0079359Y0067800D01*
X0078760Y0067201D02*
X0109164Y0067201D01*
X0108566Y0066603D02*
X0078162Y0066603D01*
X0077563Y0066004D02*
X0107967Y0066004D01*
X0107369Y0065406D02*
X0093012Y0065406D01*
X0092614Y0065803D02*
X0093844Y0064573D01*
X0093844Y0063711D01*
X0097096Y0060460D01*
X0097958Y0060460D01*
X0099188Y0059230D01*
X0099188Y0057490D01*
X0097958Y0056260D01*
X0096218Y0056260D01*
X0094988Y0057490D01*
X0094988Y0058352D01*
X0091737Y0061603D01*
X0090875Y0061603D01*
X0089644Y0062834D01*
X0089644Y0064573D01*
X0090875Y0065803D01*
X0092614Y0065803D01*
X0093611Y0064807D02*
X0106770Y0064807D01*
X0106172Y0064209D02*
X0093844Y0064209D01*
X0093946Y0063610D02*
X0105573Y0063610D01*
X0104975Y0063011D02*
X0094544Y0063011D01*
X0095143Y0062413D02*
X0104376Y0062413D01*
X0103778Y0061814D02*
X0095741Y0061814D01*
X0096340Y0061216D02*
X0103179Y0061216D01*
X0102580Y0060617D02*
X0096938Y0060617D01*
X0098399Y0060019D02*
X0101982Y0060019D01*
X0101383Y0059420D02*
X0098997Y0059420D01*
X0099188Y0058822D02*
X0100785Y0058822D01*
X0100186Y0058223D02*
X0099188Y0058223D01*
X0099188Y0057625D02*
X0099588Y0057625D01*
X0098989Y0057026D02*
X0098724Y0057026D01*
X0098391Y0056428D02*
X0098125Y0056428D01*
X0096457Y0055829D02*
X0003544Y0055829D01*
X0003544Y0055231D02*
X0095858Y0055231D01*
X0095260Y0054632D02*
X0003544Y0054632D01*
X0003544Y0054034D02*
X0094661Y0054034D01*
X0094063Y0053435D02*
X0003544Y0053435D01*
X0003544Y0052837D02*
X0093464Y0052837D01*
X0092866Y0052238D02*
X0003544Y0052238D01*
X0003544Y0051640D02*
X0092267Y0051640D01*
X0091668Y0051041D02*
X0003544Y0051041D01*
X0003544Y0050443D02*
X0091070Y0050443D01*
X0090471Y0049844D02*
X0003544Y0049844D01*
X0003544Y0049246D02*
X0089873Y0049246D01*
X0089274Y0048647D02*
X0003544Y0048647D01*
X0003544Y0048049D02*
X0088676Y0048049D01*
X0088077Y0047450D02*
X0003544Y0047450D01*
X0003544Y0046852D02*
X0021750Y0046852D01*
X0021715Y0046837D02*
X0020768Y0045890D01*
X0020255Y0044653D01*
X0020255Y0043313D01*
X0020768Y0042076D01*
X0021715Y0041129D01*
X0022952Y0040616D01*
X0024292Y0040616D01*
X0025529Y0041129D01*
X0026476Y0042076D01*
X0026989Y0043313D01*
X0026989Y0044653D01*
X0026476Y0045890D01*
X0025529Y0046837D01*
X0024292Y0047350D01*
X0022952Y0047350D01*
X0021715Y0046837D01*
X0021131Y0046253D02*
X0003544Y0046253D01*
X0003544Y0045655D02*
X0020670Y0045655D01*
X0020422Y0045056D02*
X0017229Y0045056D01*
X0017195Y0045076D02*
X0016864Y0045165D01*
X0011993Y0045165D01*
X0011993Y0039165D01*
X0011393Y0039165D01*
X0011393Y0045165D01*
X0006522Y0045165D01*
X0006191Y0045076D01*
X0005895Y0044905D01*
X0005653Y0044663D01*
X0005482Y0044367D01*
X0005393Y0044036D01*
X0005393Y0039165D01*
X0011393Y0039165D01*
X0011393Y0038565D01*
X0005393Y0038565D01*
X0005393Y0033694D01*
X0005482Y0033363D01*
X0005653Y0033067D01*
X0005895Y0032825D01*
X0006191Y0032653D01*
X0006522Y0032565D01*
X0011393Y0032565D01*
X0011393Y0038565D01*
X0011993Y0038565D01*
X0011993Y0039165D01*
X0017993Y0039165D01*
X0017993Y0044036D01*
X0017904Y0044367D01*
X0017733Y0044663D01*
X0017491Y0044905D01*
X0017195Y0045076D01*
X0017852Y0044458D02*
X0020255Y0044458D01*
X0020255Y0043859D02*
X0017993Y0043859D01*
X0017993Y0043261D02*
X0020277Y0043261D01*
X0020525Y0042662D02*
X0017993Y0042662D01*
X0017993Y0042064D02*
X0020780Y0042064D01*
X0021378Y0041465D02*
X0017993Y0041465D01*
X0017993Y0040867D02*
X0022347Y0040867D01*
X0024897Y0040867D02*
X0081494Y0040867D01*
X0082092Y0041465D02*
X0025866Y0041465D01*
X0026464Y0042064D02*
X0082691Y0042064D01*
X0083289Y0042662D02*
X0026719Y0042662D01*
X0026967Y0043261D02*
X0083888Y0043261D01*
X0084486Y0043859D02*
X0026989Y0043859D01*
X0026989Y0044458D02*
X0085085Y0044458D01*
X0085683Y0045056D02*
X0026822Y0045056D01*
X0026574Y0045655D02*
X0086282Y0045655D01*
X0086880Y0046253D02*
X0026113Y0046253D01*
X0025494Y0046852D02*
X0087479Y0046852D01*
X0089899Y0045056D02*
X0116080Y0045056D01*
X0116080Y0044458D02*
X0089301Y0044458D01*
X0088702Y0043859D02*
X0116080Y0043859D01*
X0116080Y0043261D02*
X0088104Y0043261D01*
X0087505Y0042662D02*
X0116080Y0042662D01*
X0116080Y0042064D02*
X0086907Y0042064D01*
X0086308Y0041465D02*
X0116080Y0041465D01*
X0116080Y0040867D02*
X0085710Y0040867D01*
X0085111Y0040268D02*
X0116080Y0040268D01*
X0116080Y0039670D02*
X0084513Y0039670D01*
X0083914Y0039071D02*
X0116080Y0039071D01*
X0116080Y0038473D02*
X0083316Y0038473D01*
X0082717Y0037874D02*
X0116080Y0037874D01*
X0116080Y0037276D02*
X0082119Y0037276D01*
X0081520Y0036677D02*
X0116080Y0036677D01*
X0116080Y0036078D02*
X0080922Y0036078D01*
X0080323Y0035480D02*
X0116080Y0035480D01*
X0116080Y0034881D02*
X0079725Y0034881D01*
X0079126Y0034283D02*
X0116080Y0034283D01*
X0116080Y0033684D02*
X0078528Y0033684D01*
X0077929Y0033086D02*
X0116080Y0033086D01*
X0116080Y0032487D02*
X0077331Y0032487D01*
X0076732Y0031889D02*
X0116080Y0031889D01*
X0116080Y0031290D02*
X0076134Y0031290D01*
X0075535Y0030692D02*
X0116080Y0030692D01*
X0116080Y0030093D02*
X0074936Y0030093D01*
X0074338Y0029495D02*
X0116080Y0029495D01*
X0116080Y0028896D02*
X0073739Y0028896D01*
X0073141Y0028298D02*
X0116080Y0028298D01*
X0116080Y0027699D02*
X0072542Y0027699D01*
X0071944Y0027101D02*
X0116080Y0027101D01*
X0116080Y0026502D02*
X0071345Y0026502D01*
X0070747Y0025904D02*
X0116080Y0025904D01*
X0116080Y0025305D02*
X0074700Y0025305D01*
X0074576Y0025429D02*
X0073095Y0025429D01*
X0073095Y0021429D01*
X0072495Y0021429D01*
X0072495Y0025429D01*
X0071014Y0025429D01*
X0068495Y0022910D01*
X0068495Y0021429D01*
X0072495Y0021429D01*
X0072495Y0020829D01*
X0068495Y0020829D01*
X0068495Y0019347D01*
X0071014Y0016829D01*
X0072495Y0016829D01*
X0072495Y0020829D01*
X0073095Y0020829D01*
X0073095Y0021429D01*
X0077095Y0021429D01*
X0077095Y0022910D01*
X0074576Y0025429D01*
X0075298Y0024707D02*
X0080858Y0024707D01*
X0081180Y0025029D02*
X0078895Y0022744D01*
X0078895Y0019513D01*
X0081180Y0017229D01*
X0084411Y0017229D01*
X0086695Y0019513D01*
X0086695Y0022744D01*
X0084411Y0025029D01*
X0081180Y0025029D01*
X0080260Y0024108D02*
X0075897Y0024108D01*
X0076495Y0023510D02*
X0079661Y0023510D01*
X0079062Y0022911D02*
X0077094Y0022911D01*
X0077095Y0022313D02*
X0078895Y0022313D01*
X0078895Y0021714D02*
X0077095Y0021714D01*
X0077095Y0020829D02*
X0073095Y0020829D01*
X0073095Y0016829D01*
X0074576Y0016829D01*
X0077095Y0019347D01*
X0077095Y0020829D01*
X0077095Y0020517D02*
X0078895Y0020517D01*
X0078895Y0019919D02*
X0077095Y0019919D01*
X0077068Y0019320D02*
X0079088Y0019320D01*
X0079687Y0018722D02*
X0076469Y0018722D01*
X0075871Y0018123D02*
X0080285Y0018123D01*
X0080884Y0017525D02*
X0075272Y0017525D01*
X0074674Y0016926D02*
X0096292Y0016926D01*
X0095694Y0016328D02*
X0069539Y0016328D01*
X0068940Y0016926D02*
X0070917Y0016926D01*
X0070318Y0017525D02*
X0068342Y0017525D01*
X0068300Y0018123D02*
X0069720Y0018123D01*
X0069121Y0018722D02*
X0068300Y0018722D01*
X0068300Y0019320D02*
X0068523Y0019320D01*
X0068495Y0019919D02*
X0068300Y0019919D01*
X0068300Y0020517D02*
X0068495Y0020517D01*
X0068300Y0021116D02*
X0072495Y0021116D01*
X0072495Y0021714D02*
X0073095Y0021714D01*
X0073095Y0021116D02*
X0078895Y0021116D01*
X0073095Y0020517D02*
X0072495Y0020517D01*
X0072495Y0019919D02*
X0073095Y0019919D01*
X0073095Y0019320D02*
X0072495Y0019320D01*
X0072495Y0018722D02*
X0073095Y0018722D01*
X0073095Y0018123D02*
X0072495Y0018123D01*
X0072495Y0017525D02*
X0073095Y0017525D01*
X0073095Y0016926D02*
X0072495Y0016926D01*
X0070137Y0015729D02*
X0095095Y0015729D01*
X0094497Y0015131D02*
X0070736Y0015131D01*
X0068316Y0013335D02*
X0024226Y0013335D01*
X0024101Y0013031D02*
X0025198Y0015680D01*
X0025198Y0018546D01*
X0024101Y0021194D01*
X0022074Y0023221D01*
X0019425Y0024318D01*
X0016559Y0024318D01*
X0013911Y0023221D01*
X0011884Y0021194D01*
X0010787Y0018546D01*
X0010787Y0015680D01*
X0011884Y0013031D01*
X0013911Y0011004D01*
X0016559Y0009907D01*
X0019425Y0009907D01*
X0022074Y0011004D01*
X0024101Y0013031D01*
X0023806Y0012737D02*
X0068895Y0012737D01*
X0068895Y0012138D02*
X0023207Y0012138D01*
X0022609Y0011540D02*
X0068895Y0011540D01*
X0068895Y0010941D02*
X0021921Y0010941D01*
X0020476Y0010342D02*
X0068895Y0010342D01*
X0068895Y0009744D02*
X0003544Y0009744D01*
X0003544Y0010342D02*
X0015508Y0010342D01*
X0014063Y0010941D02*
X0003544Y0010941D01*
X0003544Y0011540D02*
X0013375Y0011540D01*
X0012777Y0012138D02*
X0003544Y0012138D01*
X0003544Y0012737D02*
X0012178Y0012737D01*
X0011758Y0013335D02*
X0003544Y0013335D01*
X0003544Y0013934D02*
X0011510Y0013934D01*
X0011262Y0014532D02*
X0003544Y0014532D01*
X0003544Y0015131D02*
X0011014Y0015131D01*
X0010787Y0015729D02*
X0003544Y0015729D01*
X0003544Y0016328D02*
X0010787Y0016328D01*
X0010787Y0016926D02*
X0003544Y0016926D01*
X0003544Y0017525D02*
X0010787Y0017525D01*
X0010787Y0018123D02*
X0003544Y0018123D01*
X0003544Y0018722D02*
X0010859Y0018722D01*
X0011107Y0019320D02*
X0003544Y0019320D01*
X0003544Y0019919D02*
X0011355Y0019919D01*
X0011603Y0020517D02*
X0003544Y0020517D01*
X0003544Y0021116D02*
X0011851Y0021116D01*
X0012403Y0021714D02*
X0003544Y0021714D01*
X0003544Y0022313D02*
X0013002Y0022313D01*
X0013600Y0022911D02*
X0003544Y0022911D01*
X0003544Y0023510D02*
X0014607Y0023510D01*
X0016052Y0024108D02*
X0003544Y0024108D01*
X0003544Y0024707D02*
X0065334Y0024707D01*
X0065319Y0024108D02*
X0019933Y0024108D01*
X0021378Y0023510D02*
X0065319Y0023510D01*
X0065319Y0022911D02*
X0022384Y0022911D01*
X0022982Y0022313D02*
X0065319Y0022313D01*
X0065319Y0021714D02*
X0023581Y0021714D01*
X0024133Y0021116D02*
X0065319Y0021116D01*
X0065319Y0020517D02*
X0024381Y0020517D01*
X0024629Y0019919D02*
X0065319Y0019919D01*
X0065319Y0019320D02*
X0024877Y0019320D01*
X0025125Y0018722D02*
X0065319Y0018722D01*
X0065319Y0018123D02*
X0025198Y0018123D01*
X0025198Y0017525D02*
X0065319Y0017525D01*
X0065319Y0016926D02*
X0025198Y0016926D01*
X0025198Y0016328D02*
X0065323Y0016328D01*
X0065921Y0015729D02*
X0025198Y0015729D01*
X0024970Y0015131D02*
X0066520Y0015131D01*
X0067118Y0014532D02*
X0024722Y0014532D01*
X0024474Y0013934D02*
X0067717Y0013934D01*
X0069263Y0009145D02*
X0003544Y0009145D01*
X0003544Y0008547D02*
X0069861Y0008547D01*
X0070460Y0007948D02*
X0003544Y0007948D01*
X0003544Y0007350D02*
X0071059Y0007350D01*
X0074532Y0007350D02*
X0081059Y0007350D01*
X0081180Y0007229D02*
X0084411Y0007229D01*
X0086695Y0009513D01*
X0086695Y0012744D01*
X0084411Y0015029D01*
X0081180Y0015029D01*
X0078895Y0012744D01*
X0078895Y0009513D01*
X0081180Y0007229D01*
X0080460Y0007948D02*
X0075131Y0007948D01*
X0075729Y0008547D02*
X0079861Y0008547D01*
X0079263Y0009145D02*
X0076328Y0009145D01*
X0076695Y0009744D02*
X0078895Y0009744D01*
X0078895Y0010342D02*
X0076695Y0010342D01*
X0076695Y0010941D02*
X0078895Y0010941D01*
X0078895Y0011540D02*
X0076695Y0011540D01*
X0076695Y0012138D02*
X0078895Y0012138D01*
X0078895Y0012737D02*
X0076695Y0012737D01*
X0076104Y0013335D02*
X0079486Y0013335D01*
X0080085Y0013934D02*
X0075506Y0013934D01*
X0074907Y0014532D02*
X0080683Y0014532D01*
X0084907Y0014532D02*
X0090683Y0014532D01*
X0091180Y0015029D02*
X0088895Y0012744D01*
X0088895Y0009513D01*
X0091180Y0007229D01*
X0094411Y0007229D01*
X0096695Y0009513D01*
X0096695Y0012744D01*
X0096511Y0012929D01*
X0098150Y0014568D01*
X0099142Y0014568D01*
X0099587Y0014123D01*
X0100274Y0014123D01*
X0098895Y0012744D01*
X0098895Y0009513D01*
X0101180Y0007229D01*
X0104411Y0007229D01*
X0106695Y0009513D01*
X0106695Y0011424D01*
X0113898Y0018627D01*
X0123914Y0018627D01*
X0125412Y0017130D01*
X0127307Y0015235D01*
X0127202Y0014983D01*
X0127202Y0007432D01*
X0127796Y0005998D01*
X0128893Y0004901D01*
X0130327Y0004307D01*
X0131878Y0004307D01*
X0133312Y0004901D01*
X0134409Y0005998D01*
X0135002Y0007432D01*
X0135002Y0013906D01*
X0135039Y0013943D01*
X0135039Y0015504D01*
X0134608Y0015935D01*
X0134472Y0016263D01*
X0135406Y0017197D01*
X0138577Y0017197D01*
X0137796Y0016417D01*
X0137202Y0014983D01*
X0137202Y0007432D01*
X0137796Y0005998D01*
X0138893Y0004901D01*
X0140327Y0004307D01*
X0141878Y0004307D01*
X0143312Y0004901D01*
X0144409Y0005998D01*
X0145002Y0007432D01*
X0145002Y0014983D01*
X0144409Y0016417D01*
X0143628Y0017197D01*
X0148577Y0017197D01*
X0147796Y0016417D01*
X0147202Y0014983D01*
X0147202Y0007432D01*
X0147796Y0005998D01*
X0148893Y0004901D01*
X0150327Y0004307D01*
X0151878Y0004307D01*
X0153312Y0004901D01*
X0154409Y0005998D01*
X0155002Y0007432D01*
X0155002Y0014983D01*
X0154409Y0016417D01*
X0153628Y0017197D01*
X0171247Y0017197D01*
X0173372Y0015072D01*
X0173372Y0014767D01*
X0174603Y0013536D01*
X0176342Y0013536D01*
X0177572Y0014767D01*
X0177572Y0016506D01*
X0176342Y0017736D01*
X0176037Y0017736D01*
X0173912Y0019862D01*
X0172808Y0020966D01*
X0133845Y0020966D01*
X0130987Y0018107D01*
X0130327Y0018107D01*
X0129929Y0017943D01*
X0128144Y0019727D01*
X0128144Y0019862D01*
X0127040Y0020966D01*
X0126906Y0020966D01*
X0126624Y0021248D01*
X0197103Y0021248D01*
X0199628Y0018723D01*
X0199628Y0017861D01*
X0200858Y0016631D01*
X0202597Y0016631D01*
X0203828Y0017861D01*
X0203828Y0019600D01*
X0202597Y0020831D01*
X0201735Y0020831D01*
X0199211Y0023355D01*
X0198337Y0024229D01*
X0119061Y0024229D01*
X0119061Y0072020D01*
X0119670Y0072630D01*
X0119670Y0074369D01*
X0118440Y0075599D01*
X0116701Y0075599D01*
X0115470Y0074369D01*
X0115470Y0072630D01*
X0116080Y0072020D01*
X0116080Y0024229D01*
X0111610Y0024229D01*
X0104485Y0017104D01*
X0100822Y0017104D01*
X0100377Y0017549D01*
X0096916Y0017549D01*
X0094395Y0015029D01*
X0091180Y0015029D01*
X0090085Y0013934D02*
X0085506Y0013934D01*
X0086104Y0013335D02*
X0089486Y0013335D01*
X0088895Y0012737D02*
X0086695Y0012737D01*
X0086695Y0012138D02*
X0088895Y0012138D01*
X0088895Y0011540D02*
X0086695Y0011540D01*
X0086695Y0010941D02*
X0088895Y0010941D01*
X0088895Y0010342D02*
X0086695Y0010342D01*
X0086695Y0009744D02*
X0088895Y0009744D01*
X0089263Y0009145D02*
X0086328Y0009145D01*
X0085729Y0008547D02*
X0089861Y0008547D01*
X0090460Y0007948D02*
X0085131Y0007948D01*
X0084532Y0007350D02*
X0091059Y0007350D01*
X0094532Y0007350D02*
X0101059Y0007350D01*
X0100460Y0007948D02*
X0095131Y0007948D01*
X0095729Y0008547D02*
X0099861Y0008547D01*
X0099263Y0009145D02*
X0096328Y0009145D01*
X0096695Y0009744D02*
X0098895Y0009744D01*
X0098895Y0010342D02*
X0096695Y0010342D01*
X0096695Y0010941D02*
X0098895Y0010941D01*
X0098895Y0011540D02*
X0096695Y0011540D01*
X0096695Y0012138D02*
X0098895Y0012138D01*
X0098895Y0012737D02*
X0096695Y0012737D01*
X0096917Y0013335D02*
X0099486Y0013335D01*
X0100085Y0013934D02*
X0097516Y0013934D01*
X0098114Y0014532D02*
X0099178Y0014532D01*
X0100402Y0017525D02*
X0100884Y0017525D01*
X0101180Y0017229D02*
X0104411Y0017229D01*
X0106695Y0019513D01*
X0106695Y0022744D01*
X0104411Y0025029D01*
X0101180Y0025029D01*
X0098895Y0022744D01*
X0098895Y0019513D01*
X0101180Y0017229D01*
X0100285Y0018123D02*
X0095305Y0018123D01*
X0094707Y0017525D02*
X0096891Y0017525D01*
X0095904Y0018722D02*
X0099687Y0018722D01*
X0099088Y0019320D02*
X0096502Y0019320D01*
X0096695Y0019513D02*
X0094411Y0017229D01*
X0091180Y0017229D01*
X0088895Y0019513D01*
X0088895Y0022744D01*
X0091180Y0025029D01*
X0094411Y0025029D01*
X0096695Y0022744D01*
X0096695Y0019513D01*
X0096695Y0019919D02*
X0098895Y0019919D01*
X0098895Y0020517D02*
X0096695Y0020517D01*
X0096695Y0021116D02*
X0098895Y0021116D01*
X0098895Y0021714D02*
X0096695Y0021714D01*
X0096695Y0022313D02*
X0098895Y0022313D01*
X0099062Y0022911D02*
X0096528Y0022911D01*
X0095930Y0023510D02*
X0099661Y0023510D01*
X0100260Y0024108D02*
X0095331Y0024108D01*
X0094733Y0024707D02*
X0100858Y0024707D01*
X0104733Y0024707D02*
X0116080Y0024707D01*
X0119061Y0024707D02*
X0296220Y0024707D01*
X0296220Y0025305D02*
X0119061Y0025305D01*
X0119061Y0025904D02*
X0296220Y0025904D01*
X0296220Y0026502D02*
X0192877Y0026502D01*
X0192801Y0026427D02*
X0194031Y0027657D01*
X0194031Y0029396D01*
X0192801Y0030627D01*
X0191939Y0030627D01*
X0162862Y0059704D01*
X0162862Y0060566D01*
X0161632Y0061796D01*
X0161408Y0061796D01*
X0170730Y0071118D01*
X0201454Y0071118D01*
X0203406Y0073069D01*
X0203406Y0070578D01*
X0203190Y0070362D01*
X0203190Y0068622D01*
X0204420Y0067392D01*
X0206160Y0067392D01*
X0207390Y0068622D01*
X0207390Y0070362D01*
X0207174Y0070578D01*
X0207174Y0072719D01*
X0207190Y0072735D01*
X0207495Y0072735D01*
X0208726Y0073965D01*
X0208726Y0075705D01*
X0207495Y0076935D01*
X0207271Y0076935D01*
X0209024Y0078688D01*
X0280268Y0078688D01*
X0281981Y0080401D01*
X0283271Y0079866D01*
X0290823Y0079866D01*
X0292256Y0080460D01*
X0293353Y0081557D01*
X0293947Y0082991D01*
X0293947Y0084542D01*
X0293353Y0085976D01*
X0292256Y0087073D01*
X0290823Y0087666D01*
X0283271Y0087666D01*
X0281838Y0087073D01*
X0280741Y0085976D01*
X0280147Y0084542D01*
X0280147Y0082991D01*
X0280208Y0082844D01*
X0279033Y0081669D01*
X0209334Y0081669D01*
X0209750Y0082086D01*
X0210612Y0082086D01*
X0211843Y0083316D01*
X0211843Y0085056D01*
X0210612Y0086286D01*
X0208873Y0086286D01*
X0207643Y0085056D01*
X0207643Y0084194D01*
X0199329Y0075881D01*
X0185289Y0075881D01*
X0188377Y0078969D01*
X0189684Y0078969D01*
X0190915Y0080199D01*
X0190915Y0081939D01*
X0190305Y0082548D01*
X0190305Y0084933D01*
X0190915Y0085543D01*
X0190915Y0087282D01*
X0189684Y0088512D01*
X0187945Y0088512D01*
X0186715Y0087282D01*
X0186715Y0085543D01*
X0187324Y0084933D01*
X0187324Y0082548D01*
X0186715Y0081939D01*
X0186715Y0081522D01*
X0183744Y0078552D01*
X0182279Y0078552D01*
X0181669Y0079162D01*
X0179930Y0079162D01*
X0178700Y0077932D01*
X0178700Y0076192D01*
X0179011Y0075881D01*
X0168605Y0075881D01*
X0167732Y0075007D01*
X0167269Y0074545D01*
X0165804Y0074545D01*
X0165194Y0075154D01*
X0163455Y0075154D01*
X0162224Y0073924D01*
X0162224Y0072184D01*
X0163455Y0070954D01*
X0165194Y0070954D01*
X0165804Y0071564D01*
X0166960Y0071564D01*
X0157192Y0061796D01*
X0156330Y0061796D01*
X0155100Y0060566D01*
X0155100Y0058826D01*
X0156330Y0057596D01*
X0158070Y0057596D01*
X0158981Y0058507D01*
X0159892Y0057596D01*
X0160754Y0057596D01*
X0189831Y0028519D01*
X0189831Y0027657D01*
X0191062Y0026427D01*
X0192801Y0026427D01*
X0193476Y0027101D02*
X0296220Y0027101D01*
X0296220Y0027699D02*
X0194031Y0027699D01*
X0194031Y0028298D02*
X0296220Y0028298D01*
X0296220Y0028896D02*
X0194031Y0028896D01*
X0193933Y0029495D02*
X0296220Y0029495D01*
X0296220Y0030093D02*
X0193335Y0030093D01*
X0191874Y0030692D02*
X0296220Y0030692D01*
X0296220Y0031290D02*
X0191276Y0031290D01*
X0190677Y0031889D02*
X0296220Y0031889D01*
X0296220Y0032487D02*
X0190079Y0032487D01*
X0189480Y0033086D02*
X0296220Y0033086D01*
X0296220Y0033684D02*
X0188882Y0033684D01*
X0188283Y0034283D02*
X0296220Y0034283D01*
X0296220Y0034881D02*
X0187685Y0034881D01*
X0187086Y0035480D02*
X0296220Y0035480D01*
X0296220Y0036078D02*
X0186488Y0036078D01*
X0185889Y0036677D02*
X0296220Y0036677D01*
X0296220Y0037276D02*
X0185291Y0037276D01*
X0184692Y0037874D02*
X0296220Y0037874D01*
X0296220Y0038473D02*
X0184094Y0038473D01*
X0183495Y0039071D02*
X0296220Y0039071D01*
X0296220Y0039670D02*
X0182897Y0039670D01*
X0182298Y0040268D02*
X0282302Y0040268D01*
X0281838Y0040460D02*
X0283271Y0039866D01*
X0290823Y0039866D01*
X0292256Y0040460D01*
X0293353Y0041557D01*
X0293947Y0042991D01*
X0293947Y0044542D01*
X0293353Y0045976D01*
X0292256Y0047073D01*
X0290823Y0047666D01*
X0283271Y0047666D01*
X0281838Y0047073D01*
X0280741Y0045976D01*
X0280147Y0044542D01*
X0280147Y0042991D01*
X0280741Y0041557D01*
X0281838Y0040460D01*
X0281432Y0040867D02*
X0181699Y0040867D01*
X0181101Y0041465D02*
X0280833Y0041465D01*
X0280531Y0042064D02*
X0180502Y0042064D01*
X0179904Y0042662D02*
X0280283Y0042662D01*
X0280147Y0043261D02*
X0179305Y0043261D01*
X0178707Y0043859D02*
X0280147Y0043859D01*
X0280147Y0044458D02*
X0178108Y0044458D01*
X0177510Y0045056D02*
X0280360Y0045056D01*
X0280608Y0045655D02*
X0176911Y0045655D01*
X0176313Y0046253D02*
X0281019Y0046253D01*
X0281617Y0046852D02*
X0175714Y0046852D01*
X0175116Y0047450D02*
X0282750Y0047450D01*
X0283040Y0049572D02*
X0283709Y0049466D01*
X0286747Y0049466D01*
X0286747Y0053466D01*
X0287347Y0053466D01*
X0287347Y0049466D01*
X0290386Y0049466D01*
X0291054Y0049572D01*
X0291698Y0049781D01*
X0292301Y0050089D01*
X0292848Y0050487D01*
X0293327Y0050965D01*
X0293725Y0051513D01*
X0294032Y0052116D01*
X0294241Y0052759D01*
X0294347Y0053428D01*
X0294347Y0053466D01*
X0287347Y0053466D01*
X0287347Y0054066D01*
X0294347Y0054066D01*
X0294347Y0054105D01*
X0294241Y0054773D01*
X0294032Y0055417D01*
X0293725Y0056020D01*
X0293327Y0056568D01*
X0292848Y0057046D01*
X0292301Y0057444D01*
X0291698Y0057751D01*
X0291054Y0057961D01*
X0290386Y0058066D01*
X0287347Y0058066D01*
X0287347Y0054066D01*
X0286747Y0054066D01*
X0286747Y0053466D01*
X0279747Y0053466D01*
X0279747Y0053428D01*
X0279853Y0052759D01*
X0280062Y0052116D01*
X0280370Y0051513D01*
X0280767Y0050965D01*
X0281246Y0050487D01*
X0281794Y0050089D01*
X0282397Y0049781D01*
X0283040Y0049572D01*
X0282273Y0049844D02*
X0172722Y0049844D01*
X0173320Y0049246D02*
X0296220Y0049246D01*
X0296220Y0049844D02*
X0291821Y0049844D01*
X0292788Y0050443D02*
X0296220Y0050443D01*
X0296220Y0051041D02*
X0293382Y0051041D01*
X0293790Y0051640D02*
X0296220Y0051640D01*
X0296220Y0052238D02*
X0294072Y0052238D01*
X0294254Y0052837D02*
X0296220Y0052837D01*
X0296220Y0053435D02*
X0294347Y0053435D01*
X0294264Y0054632D02*
X0296220Y0054632D01*
X0296220Y0054034D02*
X0287347Y0054034D01*
X0287347Y0054632D02*
X0286747Y0054632D01*
X0286747Y0054066D02*
X0286747Y0058066D01*
X0283709Y0058066D01*
X0283040Y0057961D01*
X0282397Y0057751D01*
X0281794Y0057444D01*
X0281246Y0057046D01*
X0280767Y0056568D01*
X0280370Y0056020D01*
X0280062Y0055417D01*
X0279853Y0054773D01*
X0279747Y0054105D01*
X0279747Y0054066D01*
X0286747Y0054066D01*
X0286747Y0054034D02*
X0168532Y0054034D01*
X0167934Y0054632D02*
X0279831Y0054632D01*
X0280002Y0055231D02*
X0167335Y0055231D01*
X0166737Y0055829D02*
X0280272Y0055829D01*
X0280666Y0056428D02*
X0166138Y0056428D01*
X0165540Y0057026D02*
X0281226Y0057026D01*
X0282148Y0057625D02*
X0164941Y0057625D01*
X0164343Y0058223D02*
X0296220Y0058223D01*
X0296220Y0057625D02*
X0291946Y0057625D01*
X0292868Y0057026D02*
X0296220Y0057026D01*
X0296220Y0056428D02*
X0293429Y0056428D01*
X0293822Y0055829D02*
X0296220Y0055829D01*
X0296220Y0055231D02*
X0294093Y0055231D01*
X0287347Y0055231D02*
X0286747Y0055231D01*
X0286747Y0055829D02*
X0287347Y0055829D01*
X0287347Y0056428D02*
X0286747Y0056428D01*
X0286747Y0057026D02*
X0287347Y0057026D01*
X0287347Y0057625D02*
X0286747Y0057625D01*
X0283271Y0059866D02*
X0290823Y0059866D01*
X0292256Y0060460D01*
X0293353Y0061557D01*
X0293947Y0062991D01*
X0293947Y0064542D01*
X0293353Y0065976D01*
X0292256Y0067073D01*
X0290823Y0067666D01*
X0283271Y0067666D01*
X0281838Y0067073D01*
X0280741Y0065976D01*
X0280147Y0064542D01*
X0280147Y0062991D01*
X0280741Y0061557D01*
X0281838Y0060460D01*
X0283271Y0059866D01*
X0282903Y0060019D02*
X0162862Y0060019D01*
X0162811Y0060617D02*
X0241345Y0060617D01*
X0241634Y0060498D02*
X0243169Y0060498D01*
X0244588Y0061085D01*
X0245673Y0062171D01*
X0246261Y0063589D01*
X0246261Y0065125D01*
X0245673Y0066543D01*
X0244588Y0067628D01*
X0243169Y0068216D01*
X0241634Y0068216D01*
X0240216Y0067628D01*
X0239130Y0066543D01*
X0238543Y0065125D01*
X0238543Y0063589D01*
X0239130Y0062171D01*
X0240216Y0061085D01*
X0241634Y0060498D01*
X0240085Y0061216D02*
X0162212Y0061216D01*
X0161426Y0061814D02*
X0239487Y0061814D01*
X0239030Y0062413D02*
X0162025Y0062413D01*
X0162623Y0063011D02*
X0179857Y0063011D01*
X0179930Y0062939D02*
X0181669Y0062939D01*
X0182279Y0063549D01*
X0234506Y0063549D01*
X0235741Y0063549D01*
X0241084Y0068892D01*
X0280268Y0068892D01*
X0281837Y0070461D01*
X0281838Y0070460D01*
X0283271Y0069866D01*
X0290823Y0069866D01*
X0292256Y0070460D01*
X0293353Y0071557D01*
X0293947Y0072991D01*
X0293947Y0074542D01*
X0293353Y0075976D01*
X0292256Y0077073D01*
X0290823Y0077666D01*
X0283271Y0077666D01*
X0281838Y0077073D01*
X0280741Y0075976D01*
X0280147Y0074542D01*
X0280147Y0072991D01*
X0280148Y0072988D01*
X0279033Y0071873D01*
X0239849Y0071873D01*
X0238976Y0071000D01*
X0234506Y0066530D01*
X0182279Y0066530D01*
X0181669Y0067139D01*
X0179930Y0067139D01*
X0178700Y0065909D01*
X0178700Y0064169D01*
X0179930Y0062939D01*
X0179259Y0063610D02*
X0163222Y0063610D01*
X0163821Y0064209D02*
X0178700Y0064209D01*
X0178700Y0064807D02*
X0164419Y0064807D01*
X0165018Y0065406D02*
X0178700Y0065406D01*
X0178795Y0066004D02*
X0165616Y0066004D01*
X0166215Y0066603D02*
X0179393Y0066603D01*
X0182206Y0066603D02*
X0234579Y0066603D01*
X0235177Y0067201D02*
X0166813Y0067201D01*
X0167412Y0067800D02*
X0204012Y0067800D01*
X0203414Y0068398D02*
X0168010Y0068398D01*
X0168609Y0068997D02*
X0203190Y0068997D01*
X0203190Y0069595D02*
X0169207Y0069595D01*
X0169806Y0070194D02*
X0203190Y0070194D01*
X0203406Y0070792D02*
X0170404Y0070792D01*
X0166787Y0071391D02*
X0165631Y0071391D01*
X0166188Y0070792D02*
X0119061Y0070792D01*
X0119061Y0070194D02*
X0165590Y0070194D01*
X0164991Y0069595D02*
X0119061Y0069595D01*
X0119061Y0068997D02*
X0164393Y0068997D01*
X0163794Y0068398D02*
X0119061Y0068398D01*
X0119061Y0067800D02*
X0163196Y0067800D01*
X0162597Y0067201D02*
X0119061Y0067201D01*
X0119061Y0066603D02*
X0161999Y0066603D01*
X0161400Y0066004D02*
X0119061Y0066004D01*
X0119061Y0065406D02*
X0160802Y0065406D01*
X0160203Y0064807D02*
X0119061Y0064807D01*
X0119061Y0064209D02*
X0159605Y0064209D01*
X0159006Y0063610D02*
X0119061Y0063610D01*
X0119061Y0063011D02*
X0158408Y0063011D01*
X0157809Y0062413D02*
X0119061Y0062413D01*
X0119061Y0061814D02*
X0157211Y0061814D01*
X0155750Y0061216D02*
X0119061Y0061216D01*
X0119061Y0060617D02*
X0155152Y0060617D01*
X0155100Y0060019D02*
X0119061Y0060019D01*
X0119061Y0059420D02*
X0155100Y0059420D01*
X0155104Y0058822D02*
X0119061Y0058822D01*
X0119061Y0058223D02*
X0155703Y0058223D01*
X0156301Y0057625D02*
X0119061Y0057625D01*
X0119061Y0057026D02*
X0161324Y0057026D01*
X0161922Y0056428D02*
X0119061Y0056428D01*
X0119061Y0055829D02*
X0162521Y0055829D01*
X0163119Y0055231D02*
X0119061Y0055231D01*
X0119061Y0054632D02*
X0163718Y0054632D01*
X0164316Y0054034D02*
X0119061Y0054034D01*
X0119061Y0053435D02*
X0164915Y0053435D01*
X0165513Y0052837D02*
X0119061Y0052837D01*
X0119061Y0052238D02*
X0166112Y0052238D01*
X0166710Y0051640D02*
X0119061Y0051640D01*
X0119061Y0051041D02*
X0167309Y0051041D01*
X0167907Y0050443D02*
X0119061Y0050443D01*
X0119061Y0049844D02*
X0168506Y0049844D01*
X0169104Y0049246D02*
X0119061Y0049246D01*
X0119061Y0048647D02*
X0169703Y0048647D01*
X0170301Y0048049D02*
X0119061Y0048049D01*
X0119061Y0047450D02*
X0170900Y0047450D01*
X0171498Y0046852D02*
X0119061Y0046852D01*
X0119061Y0046253D02*
X0172097Y0046253D01*
X0172696Y0045655D02*
X0119061Y0045655D01*
X0119061Y0045056D02*
X0173294Y0045056D01*
X0173893Y0044458D02*
X0119061Y0044458D01*
X0119061Y0043859D02*
X0174491Y0043859D01*
X0175090Y0043261D02*
X0119061Y0043261D01*
X0119061Y0042662D02*
X0175688Y0042662D01*
X0176287Y0042064D02*
X0119061Y0042064D01*
X0119061Y0041465D02*
X0176885Y0041465D01*
X0177484Y0040867D02*
X0119061Y0040867D01*
X0119061Y0040268D02*
X0178082Y0040268D01*
X0178681Y0039670D02*
X0119061Y0039670D01*
X0119061Y0039071D02*
X0179279Y0039071D01*
X0179878Y0038473D02*
X0119061Y0038473D01*
X0119061Y0037874D02*
X0180476Y0037874D01*
X0181075Y0037276D02*
X0119061Y0037276D01*
X0119061Y0036677D02*
X0181673Y0036677D01*
X0182272Y0036078D02*
X0119061Y0036078D01*
X0119061Y0035480D02*
X0182870Y0035480D01*
X0183469Y0034881D02*
X0119061Y0034881D01*
X0119061Y0034283D02*
X0184067Y0034283D01*
X0184666Y0033684D02*
X0119061Y0033684D01*
X0119061Y0033086D02*
X0185264Y0033086D01*
X0185863Y0032487D02*
X0119061Y0032487D01*
X0119061Y0031889D02*
X0186461Y0031889D01*
X0187060Y0031290D02*
X0119061Y0031290D01*
X0119061Y0030692D02*
X0187658Y0030692D01*
X0188257Y0030093D02*
X0119061Y0030093D01*
X0119061Y0029495D02*
X0188855Y0029495D01*
X0189454Y0028896D02*
X0119061Y0028896D01*
X0119061Y0028298D02*
X0189831Y0028298D01*
X0189831Y0027699D02*
X0119061Y0027699D01*
X0119061Y0027101D02*
X0190387Y0027101D01*
X0190986Y0026502D02*
X0119061Y0026502D01*
X0111489Y0024108D02*
X0105331Y0024108D01*
X0105930Y0023510D02*
X0110891Y0023510D01*
X0110292Y0022911D02*
X0106528Y0022911D01*
X0106695Y0022313D02*
X0109694Y0022313D01*
X0109095Y0021714D02*
X0106695Y0021714D01*
X0106695Y0021116D02*
X0108497Y0021116D01*
X0107898Y0020517D02*
X0106695Y0020517D01*
X0106695Y0019919D02*
X0107300Y0019919D01*
X0106701Y0019320D02*
X0106502Y0019320D01*
X0106103Y0018722D02*
X0105904Y0018722D01*
X0105504Y0018123D02*
X0105305Y0018123D01*
X0104906Y0017525D02*
X0104707Y0017525D01*
X0109803Y0014532D02*
X0116802Y0014532D01*
X0116802Y0014546D02*
X0116802Y0011507D01*
X0120802Y0011507D01*
X0120802Y0010907D01*
X0116802Y0010907D01*
X0116802Y0007869D01*
X0116908Y0007200D01*
X0117117Y0006557D01*
X0117425Y0005954D01*
X0117823Y0005406D01*
X0118301Y0004927D01*
X0118849Y0004530D01*
X0119452Y0004222D01*
X0120095Y0004013D01*
X0120764Y0003907D01*
X0120802Y0003907D01*
X0120802Y0010907D01*
X0121402Y0010907D01*
X0121402Y0003907D01*
X0121441Y0003907D01*
X0122109Y0004013D01*
X0122753Y0004222D01*
X0123356Y0004530D01*
X0123904Y0004927D01*
X0124382Y0005406D01*
X0124780Y0005954D01*
X0125087Y0006557D01*
X0125296Y0007200D01*
X0125402Y0007869D01*
X0125402Y0010907D01*
X0121402Y0010907D01*
X0121402Y0011507D01*
X0120802Y0011507D01*
X0120802Y0018507D01*
X0120764Y0018507D01*
X0120095Y0018401D01*
X0119452Y0018192D01*
X0118849Y0017885D01*
X0118301Y0017487D01*
X0117823Y0017009D01*
X0117425Y0016461D01*
X0117117Y0015858D01*
X0116908Y0015214D01*
X0116802Y0014546D01*
X0116895Y0015131D02*
X0110401Y0015131D01*
X0111000Y0015729D02*
X0117076Y0015729D01*
X0117357Y0016328D02*
X0111598Y0016328D01*
X0112197Y0016926D02*
X0117763Y0016926D01*
X0118353Y0017525D02*
X0112795Y0017525D01*
X0113394Y0018123D02*
X0119316Y0018123D01*
X0120802Y0018123D02*
X0121402Y0018123D01*
X0121402Y0018507D02*
X0121402Y0011507D01*
X0125402Y0011507D01*
X0125402Y0014546D01*
X0125296Y0015214D01*
X0125087Y0015858D01*
X0124780Y0016461D01*
X0124382Y0017009D01*
X0123904Y0017487D01*
X0123356Y0017885D01*
X0122753Y0018192D01*
X0122109Y0018401D01*
X0121441Y0018507D01*
X0121402Y0018507D01*
X0121402Y0017525D02*
X0120802Y0017525D01*
X0120802Y0016926D02*
X0121402Y0016926D01*
X0121402Y0016328D02*
X0120802Y0016328D01*
X0120802Y0015729D02*
X0121402Y0015729D01*
X0121402Y0015131D02*
X0120802Y0015131D01*
X0120802Y0014532D02*
X0121402Y0014532D01*
X0121402Y0013934D02*
X0120802Y0013934D01*
X0120802Y0013335D02*
X0121402Y0013335D01*
X0121402Y0012737D02*
X0120802Y0012737D01*
X0120802Y0012138D02*
X0121402Y0012138D01*
X0121402Y0011540D02*
X0120802Y0011540D01*
X0120802Y0010941D02*
X0106695Y0010941D01*
X0106695Y0010342D02*
X0116802Y0010342D01*
X0116802Y0009744D02*
X0106695Y0009744D01*
X0106328Y0009145D02*
X0116802Y0009145D01*
X0116802Y0008547D02*
X0105729Y0008547D01*
X0105131Y0007948D02*
X0116802Y0007948D01*
X0116885Y0007350D02*
X0104532Y0007350D01*
X0106810Y0011540D02*
X0116802Y0011540D01*
X0116802Y0012138D02*
X0107409Y0012138D01*
X0108007Y0012737D02*
X0116802Y0012737D01*
X0116802Y0013335D02*
X0108606Y0013335D01*
X0109204Y0013934D02*
X0116802Y0013934D01*
X0120802Y0010342D02*
X0121402Y0010342D01*
X0121402Y0009744D02*
X0120802Y0009744D01*
X0120802Y0009145D02*
X0121402Y0009145D01*
X0121402Y0008547D02*
X0120802Y0008547D01*
X0120802Y0007948D02*
X0121402Y0007948D01*
X0121402Y0007350D02*
X0120802Y0007350D01*
X0120802Y0006751D02*
X0121402Y0006751D01*
X0121402Y0006153D02*
X0120802Y0006153D01*
X0120802Y0005554D02*
X0121402Y0005554D01*
X0121402Y0004956D02*
X0120802Y0004956D01*
X0120802Y0004357D02*
X0121402Y0004357D01*
X0123018Y0004357D02*
X0130206Y0004357D01*
X0128838Y0004956D02*
X0123932Y0004956D01*
X0124490Y0005554D02*
X0128240Y0005554D01*
X0127732Y0006153D02*
X0124882Y0006153D01*
X0125151Y0006751D02*
X0127484Y0006751D01*
X0127236Y0007350D02*
X0125320Y0007350D01*
X0125402Y0007948D02*
X0127202Y0007948D01*
X0127202Y0008547D02*
X0125402Y0008547D01*
X0125402Y0009145D02*
X0127202Y0009145D01*
X0127202Y0009744D02*
X0125402Y0009744D01*
X0125402Y0010342D02*
X0127202Y0010342D01*
X0127202Y0010941D02*
X0121402Y0010941D01*
X0125402Y0011540D02*
X0127202Y0011540D01*
X0127202Y0012138D02*
X0125402Y0012138D01*
X0125402Y0012737D02*
X0127202Y0012737D01*
X0127202Y0013335D02*
X0125402Y0013335D01*
X0125402Y0013934D02*
X0127202Y0013934D01*
X0127202Y0014532D02*
X0125402Y0014532D01*
X0125310Y0015131D02*
X0127263Y0015131D01*
X0126813Y0015729D02*
X0125129Y0015729D01*
X0124848Y0016328D02*
X0126214Y0016328D01*
X0125616Y0016926D02*
X0124442Y0016926D01*
X0125017Y0017525D02*
X0123852Y0017525D01*
X0124419Y0018123D02*
X0122889Y0018123D01*
X0127489Y0020517D02*
X0133397Y0020517D01*
X0132799Y0019919D02*
X0128087Y0019919D01*
X0128551Y0019320D02*
X0132200Y0019320D01*
X0131602Y0018722D02*
X0129150Y0018722D01*
X0129748Y0018123D02*
X0131003Y0018123D01*
X0134537Y0016328D02*
X0137759Y0016328D01*
X0137511Y0015729D02*
X0134814Y0015729D01*
X0135039Y0015131D02*
X0137263Y0015131D01*
X0137202Y0014532D02*
X0135039Y0014532D01*
X0135030Y0013934D02*
X0137202Y0013934D01*
X0137202Y0013335D02*
X0135002Y0013335D01*
X0135002Y0012737D02*
X0137202Y0012737D01*
X0137202Y0012138D02*
X0135002Y0012138D01*
X0135002Y0011540D02*
X0137202Y0011540D01*
X0137202Y0010941D02*
X0135002Y0010941D01*
X0135002Y0010342D02*
X0137202Y0010342D01*
X0137202Y0009744D02*
X0135002Y0009744D01*
X0135002Y0009145D02*
X0137202Y0009145D01*
X0137202Y0008547D02*
X0135002Y0008547D01*
X0135002Y0007948D02*
X0137202Y0007948D01*
X0137236Y0007350D02*
X0134969Y0007350D01*
X0134721Y0006751D02*
X0137484Y0006751D01*
X0137732Y0006153D02*
X0134473Y0006153D01*
X0133965Y0005554D02*
X0138240Y0005554D01*
X0138838Y0004956D02*
X0133366Y0004956D01*
X0131999Y0004357D02*
X0140206Y0004357D01*
X0141999Y0004357D02*
X0150206Y0004357D01*
X0148838Y0004956D02*
X0143366Y0004956D01*
X0143965Y0005554D02*
X0148240Y0005554D01*
X0147732Y0006153D02*
X0144473Y0006153D01*
X0144721Y0006751D02*
X0147484Y0006751D01*
X0147236Y0007350D02*
X0144969Y0007350D01*
X0145002Y0007948D02*
X0147202Y0007948D01*
X0147202Y0008547D02*
X0145002Y0008547D01*
X0145002Y0009145D02*
X0147202Y0009145D01*
X0147202Y0009744D02*
X0145002Y0009744D01*
X0145002Y0010342D02*
X0147202Y0010342D01*
X0147202Y0010941D02*
X0145002Y0010941D01*
X0145002Y0011540D02*
X0147202Y0011540D01*
X0147202Y0012138D02*
X0145002Y0012138D01*
X0145002Y0012737D02*
X0147202Y0012737D01*
X0147202Y0013335D02*
X0145002Y0013335D01*
X0145002Y0013934D02*
X0147202Y0013934D01*
X0147202Y0014532D02*
X0145002Y0014532D01*
X0144941Y0015131D02*
X0147263Y0015131D01*
X0147511Y0015729D02*
X0144693Y0015729D01*
X0144445Y0016328D02*
X0147759Y0016328D01*
X0148306Y0016926D02*
X0143899Y0016926D01*
X0138306Y0016926D02*
X0135135Y0016926D01*
X0126756Y0021116D02*
X0197234Y0021116D01*
X0197833Y0020517D02*
X0173256Y0020517D01*
X0173855Y0019919D02*
X0198431Y0019919D01*
X0199030Y0019320D02*
X0174453Y0019320D01*
X0175052Y0018722D02*
X0199628Y0018722D01*
X0199628Y0018123D02*
X0175650Y0018123D01*
X0176554Y0017525D02*
X0199964Y0017525D01*
X0200562Y0016926D02*
X0177153Y0016926D01*
X0177572Y0016328D02*
X0274566Y0016328D01*
X0274566Y0016926D02*
X0202893Y0016926D01*
X0203491Y0017525D02*
X0274566Y0017525D01*
X0274566Y0018123D02*
X0203828Y0018123D01*
X0203828Y0018722D02*
X0274639Y0018722D01*
X0274566Y0018546D02*
X0274566Y0015680D01*
X0275663Y0013031D01*
X0277690Y0011004D01*
X0280338Y0009907D01*
X0283205Y0009907D01*
X0285853Y0011004D01*
X0287880Y0013031D01*
X0288977Y0015680D01*
X0288977Y0018546D01*
X0287880Y0021194D01*
X0285853Y0023221D01*
X0283205Y0024318D01*
X0280338Y0024318D01*
X0277690Y0023221D01*
X0275663Y0021194D01*
X0274566Y0018546D01*
X0274887Y0019320D02*
X0203828Y0019320D01*
X0203509Y0019919D02*
X0275135Y0019919D01*
X0275383Y0020517D02*
X0202911Y0020517D01*
X0201450Y0021116D02*
X0275631Y0021116D01*
X0276183Y0021714D02*
X0200852Y0021714D01*
X0200253Y0022313D02*
X0276781Y0022313D01*
X0277380Y0022911D02*
X0199655Y0022911D01*
X0199056Y0023510D02*
X0278386Y0023510D01*
X0279831Y0024108D02*
X0198458Y0024108D01*
X0177572Y0015729D02*
X0274566Y0015729D01*
X0274794Y0015131D02*
X0177572Y0015131D01*
X0177338Y0014532D02*
X0275041Y0014532D01*
X0275289Y0013934D02*
X0176739Y0013934D01*
X0174205Y0013934D02*
X0155002Y0013934D01*
X0155002Y0014532D02*
X0173607Y0014532D01*
X0173314Y0015131D02*
X0154941Y0015131D01*
X0154693Y0015729D02*
X0172715Y0015729D01*
X0172117Y0016328D02*
X0154445Y0016328D01*
X0153899Y0016926D02*
X0171518Y0016926D01*
X0155002Y0013335D02*
X0275537Y0013335D01*
X0275958Y0012737D02*
X0155002Y0012737D01*
X0155002Y0012138D02*
X0276556Y0012138D01*
X0277155Y0011540D02*
X0155002Y0011540D01*
X0155002Y0010941D02*
X0277843Y0010941D01*
X0279288Y0010342D02*
X0155002Y0010342D01*
X0155002Y0009744D02*
X0296220Y0009744D01*
X0296220Y0010342D02*
X0284255Y0010342D01*
X0285700Y0010941D02*
X0296220Y0010941D01*
X0296220Y0011540D02*
X0286388Y0011540D01*
X0286987Y0012138D02*
X0296220Y0012138D01*
X0296220Y0012737D02*
X0287585Y0012737D01*
X0288006Y0013335D02*
X0296220Y0013335D01*
X0296220Y0013934D02*
X0288254Y0013934D01*
X0288502Y0014532D02*
X0296220Y0014532D01*
X0296220Y0015131D02*
X0288750Y0015131D01*
X0288977Y0015729D02*
X0296220Y0015729D01*
X0296220Y0016328D02*
X0288977Y0016328D01*
X0288977Y0016926D02*
X0296220Y0016926D01*
X0296220Y0017525D02*
X0288977Y0017525D01*
X0288977Y0018123D02*
X0296220Y0018123D01*
X0296220Y0018722D02*
X0288904Y0018722D01*
X0288657Y0019320D02*
X0296220Y0019320D01*
X0296220Y0019919D02*
X0288409Y0019919D01*
X0288161Y0020517D02*
X0296220Y0020517D01*
X0296220Y0021116D02*
X0287913Y0021116D01*
X0287360Y0021714D02*
X0296220Y0021714D01*
X0296220Y0022313D02*
X0286762Y0022313D01*
X0286163Y0022911D02*
X0296220Y0022911D01*
X0296220Y0023510D02*
X0285157Y0023510D01*
X0283712Y0024108D02*
X0296220Y0024108D01*
X0296220Y0009145D02*
X0155002Y0009145D01*
X0155002Y0008547D02*
X0296220Y0008547D01*
X0296220Y0007948D02*
X0155002Y0007948D01*
X0154969Y0007350D02*
X0296220Y0007350D01*
X0296220Y0006751D02*
X0154721Y0006751D01*
X0154473Y0006153D02*
X0296220Y0006153D01*
X0296220Y0005554D02*
X0153965Y0005554D01*
X0153366Y0004956D02*
X0296220Y0004956D01*
X0296220Y0004357D02*
X0151999Y0004357D01*
X0119187Y0004357D02*
X0003544Y0004357D01*
X0003544Y0003759D02*
X0296220Y0003759D01*
X0296220Y0003160D02*
X0003544Y0003160D01*
X0003544Y0004956D02*
X0118273Y0004956D01*
X0117715Y0005554D02*
X0003544Y0005554D01*
X0003544Y0006153D02*
X0117323Y0006153D01*
X0117054Y0006751D02*
X0003544Y0006751D01*
X0003544Y0025305D02*
X0065933Y0025305D01*
X0066531Y0025904D02*
X0003544Y0025904D01*
X0003544Y0026502D02*
X0067130Y0026502D01*
X0067728Y0027101D02*
X0003544Y0027101D01*
X0003544Y0027699D02*
X0068327Y0027699D01*
X0068925Y0028298D02*
X0003544Y0028298D01*
X0003544Y0028896D02*
X0069524Y0028896D01*
X0070122Y0029495D02*
X0003544Y0029495D01*
X0003544Y0030093D02*
X0070721Y0030093D01*
X0071319Y0030692D02*
X0003544Y0030692D01*
X0003544Y0031290D02*
X0071918Y0031290D01*
X0072516Y0031889D02*
X0003544Y0031889D01*
X0003544Y0032487D02*
X0073115Y0032487D01*
X0073713Y0033086D02*
X0017744Y0033086D01*
X0017733Y0033067D02*
X0017904Y0033363D01*
X0017993Y0033694D01*
X0017993Y0038565D01*
X0011993Y0038565D01*
X0011993Y0032565D01*
X0016864Y0032565D01*
X0017195Y0032653D01*
X0017491Y0032825D01*
X0017733Y0033067D01*
X0017990Y0033684D02*
X0074312Y0033684D01*
X0074910Y0034283D02*
X0017993Y0034283D01*
X0017993Y0034881D02*
X0075509Y0034881D01*
X0076107Y0035480D02*
X0017993Y0035480D01*
X0017993Y0036078D02*
X0076706Y0036078D01*
X0077304Y0036677D02*
X0017993Y0036677D01*
X0017993Y0037276D02*
X0077903Y0037276D01*
X0078501Y0037874D02*
X0017993Y0037874D01*
X0017993Y0038473D02*
X0079100Y0038473D01*
X0079698Y0039071D02*
X0011993Y0039071D01*
X0011993Y0038473D02*
X0011393Y0038473D01*
X0011393Y0039071D02*
X0003544Y0039071D01*
X0003544Y0038473D02*
X0005393Y0038473D01*
X0005393Y0037874D02*
X0003544Y0037874D01*
X0003544Y0037276D02*
X0005393Y0037276D01*
X0005393Y0036677D02*
X0003544Y0036677D01*
X0003544Y0036078D02*
X0005393Y0036078D01*
X0005393Y0035480D02*
X0003544Y0035480D01*
X0003544Y0034881D02*
X0005393Y0034881D01*
X0005393Y0034283D02*
X0003544Y0034283D01*
X0003544Y0033684D02*
X0005395Y0033684D01*
X0005641Y0033086D02*
X0003544Y0033086D01*
X0011393Y0033086D02*
X0011993Y0033086D01*
X0011993Y0033684D02*
X0011393Y0033684D01*
X0011393Y0034283D02*
X0011993Y0034283D01*
X0011993Y0034881D02*
X0011393Y0034881D01*
X0011393Y0035480D02*
X0011993Y0035480D01*
X0011993Y0036078D02*
X0011393Y0036078D01*
X0011393Y0036677D02*
X0011993Y0036677D01*
X0011993Y0037276D02*
X0011393Y0037276D01*
X0011393Y0037874D02*
X0011993Y0037874D01*
X0011993Y0039670D02*
X0011393Y0039670D01*
X0011393Y0040268D02*
X0011993Y0040268D01*
X0011993Y0040867D02*
X0011393Y0040867D01*
X0011393Y0041465D02*
X0011993Y0041465D01*
X0011993Y0042064D02*
X0011393Y0042064D01*
X0011393Y0042662D02*
X0011993Y0042662D01*
X0011993Y0043261D02*
X0011393Y0043261D01*
X0011393Y0043859D02*
X0011993Y0043859D01*
X0011993Y0044458D02*
X0011393Y0044458D01*
X0011393Y0045056D02*
X0011993Y0045056D01*
X0006156Y0045056D02*
X0003544Y0045056D01*
X0003544Y0044458D02*
X0005534Y0044458D01*
X0005393Y0043859D02*
X0003544Y0043859D01*
X0003544Y0043261D02*
X0005393Y0043261D01*
X0005393Y0042662D02*
X0003544Y0042662D01*
X0003544Y0042064D02*
X0005393Y0042064D01*
X0005393Y0041465D02*
X0003544Y0041465D01*
X0003544Y0040867D02*
X0005393Y0040867D01*
X0005393Y0040268D02*
X0003544Y0040268D01*
X0003544Y0039670D02*
X0005393Y0039670D01*
X0017993Y0039670D02*
X0080297Y0039670D01*
X0080895Y0040268D02*
X0017993Y0040268D01*
X0003544Y0056428D02*
X0096050Y0056428D01*
X0095452Y0057026D02*
X0003544Y0057026D01*
X0003544Y0057625D02*
X0094988Y0057625D01*
X0094988Y0058223D02*
X0003544Y0058223D01*
X0003544Y0058822D02*
X0094518Y0058822D01*
X0093920Y0059420D02*
X0003544Y0059420D01*
X0003544Y0060019D02*
X0022208Y0060019D01*
X0021715Y0060223D02*
X0022952Y0059710D01*
X0024292Y0059710D01*
X0025529Y0060223D01*
X0026476Y0061170D01*
X0026989Y0062408D01*
X0026989Y0063747D01*
X0026476Y0064985D01*
X0025529Y0065932D01*
X0024292Y0066444D01*
X0022952Y0066444D01*
X0021715Y0065932D01*
X0020768Y0064985D01*
X0020255Y0063747D01*
X0020255Y0062408D01*
X0020768Y0061170D01*
X0021715Y0060223D01*
X0021320Y0060617D02*
X0003544Y0060617D01*
X0003544Y0061216D02*
X0020749Y0061216D01*
X0020501Y0061814D02*
X0003544Y0061814D01*
X0003544Y0062413D02*
X0005644Y0062413D01*
X0005396Y0063011D02*
X0003544Y0063011D01*
X0003544Y0063610D02*
X0005393Y0063610D01*
X0005393Y0064209D02*
X0003544Y0064209D01*
X0003544Y0064807D02*
X0005393Y0064807D01*
X0005393Y0065406D02*
X0003544Y0065406D01*
X0003544Y0066004D02*
X0005393Y0066004D01*
X0005393Y0066603D02*
X0003544Y0066603D01*
X0003544Y0067201D02*
X0005393Y0067201D01*
X0005393Y0067800D02*
X0003544Y0067800D01*
X0011393Y0067800D02*
X0011993Y0067800D01*
X0011993Y0067201D02*
X0011393Y0067201D01*
X0011393Y0066603D02*
X0011993Y0066603D01*
X0011993Y0066004D02*
X0011393Y0066004D01*
X0011393Y0065406D02*
X0011993Y0065406D01*
X0011993Y0064807D02*
X0011393Y0064807D01*
X0011393Y0064209D02*
X0011993Y0064209D01*
X0011993Y0063610D02*
X0011393Y0063610D01*
X0011393Y0063011D02*
X0011993Y0063011D01*
X0011993Y0062413D02*
X0011393Y0062413D01*
X0017742Y0062413D02*
X0020255Y0062413D01*
X0020255Y0063011D02*
X0017989Y0063011D01*
X0017993Y0063610D02*
X0020255Y0063610D01*
X0020446Y0064209D02*
X0017993Y0064209D01*
X0017993Y0064807D02*
X0020694Y0064807D01*
X0021189Y0065406D02*
X0017993Y0065406D01*
X0017993Y0066004D02*
X0021889Y0066004D01*
X0025355Y0066004D02*
X0072279Y0066004D01*
X0072279Y0065406D02*
X0026055Y0065406D01*
X0026550Y0064807D02*
X0072279Y0064807D01*
X0072685Y0064209D02*
X0026798Y0064209D01*
X0026989Y0063610D02*
X0073283Y0063610D01*
X0075474Y0063610D02*
X0089644Y0063610D01*
X0089644Y0064209D02*
X0076073Y0064209D01*
X0076479Y0064807D02*
X0089878Y0064807D01*
X0090477Y0065406D02*
X0076964Y0065406D01*
X0072527Y0066603D02*
X0017993Y0066603D01*
X0017993Y0067201D02*
X0073125Y0067201D01*
X0074029Y0067800D02*
X0017993Y0067800D01*
X0011993Y0069595D02*
X0011393Y0069595D01*
X0011393Y0070194D02*
X0011993Y0070194D01*
X0011993Y0070792D02*
X0011393Y0070792D01*
X0011393Y0071391D02*
X0011993Y0071391D01*
X0011993Y0071989D02*
X0011393Y0071989D01*
X0011393Y0072588D02*
X0011993Y0072588D01*
X0011993Y0073186D02*
X0011393Y0073186D01*
X0011393Y0073785D02*
X0011993Y0073785D01*
X0011993Y0074383D02*
X0011393Y0074383D01*
X0026989Y0063011D02*
X0089644Y0063011D01*
X0090065Y0062413D02*
X0026989Y0062413D01*
X0026743Y0061814D02*
X0090664Y0061814D01*
X0092124Y0061216D02*
X0026495Y0061216D01*
X0025924Y0060617D02*
X0092723Y0060617D01*
X0093321Y0060019D02*
X0025036Y0060019D01*
X0084147Y0072588D02*
X0112072Y0072588D01*
X0112072Y0073186D02*
X0084745Y0073186D01*
X0085344Y0073785D02*
X0112072Y0073785D01*
X0112072Y0074383D02*
X0085942Y0074383D01*
X0086541Y0074982D02*
X0112072Y0074982D01*
X0112200Y0075580D02*
X0087139Y0075580D01*
X0087738Y0076179D02*
X0112798Y0076179D01*
X0113397Y0076777D02*
X0088336Y0076777D01*
X0088935Y0077376D02*
X0113996Y0077376D01*
X0114594Y0077974D02*
X0089533Y0077974D01*
X0090132Y0078573D02*
X0115193Y0078573D01*
X0115791Y0079171D02*
X0090730Y0079171D01*
X0091329Y0079770D02*
X0116390Y0079770D01*
X0116988Y0080368D02*
X0091927Y0080368D01*
X0092526Y0080967D02*
X0117587Y0080967D01*
X0118185Y0081565D02*
X0093124Y0081565D01*
X0093723Y0082164D02*
X0118784Y0082164D01*
X0119382Y0082762D02*
X0094321Y0082762D01*
X0094920Y0083361D02*
X0119981Y0083361D01*
X0120579Y0083959D02*
X0095518Y0083959D01*
X0096117Y0084558D02*
X0121178Y0084558D01*
X0121776Y0085156D02*
X0096715Y0085156D01*
X0097314Y0085755D02*
X0122375Y0085755D01*
X0122973Y0086353D02*
X0097912Y0086353D01*
X0098511Y0086952D02*
X0123572Y0086952D01*
X0124170Y0087550D02*
X0099109Y0087550D01*
X0099708Y0088149D02*
X0124769Y0088149D01*
X0125367Y0088747D02*
X0100306Y0088747D01*
X0100905Y0089346D02*
X0125966Y0089346D01*
X0126564Y0089945D02*
X0101503Y0089945D01*
X0102102Y0090543D02*
X0127163Y0090543D01*
X0127761Y0091142D02*
X0102700Y0091142D01*
X0103299Y0091740D02*
X0128360Y0091740D01*
X0128958Y0092339D02*
X0103898Y0092339D01*
X0104496Y0092937D02*
X0129557Y0092937D01*
X0130155Y0093536D02*
X0105095Y0093536D01*
X0105693Y0094134D02*
X0138352Y0094134D01*
X0140426Y0094134D02*
X0239133Y0094134D01*
X0239133Y0094535D02*
X0239133Y0093234D01*
X0239631Y0092033D01*
X0240550Y0091114D01*
X0241751Y0090616D01*
X0243052Y0090616D01*
X0244253Y0091114D01*
X0245172Y0092033D01*
X0245670Y0093234D01*
X0245670Y0094535D01*
X0245172Y0095736D01*
X0244253Y0096655D01*
X0243052Y0097153D01*
X0241751Y0097153D01*
X0240550Y0096655D01*
X0239631Y0095736D01*
X0239133Y0094535D01*
X0239215Y0094733D02*
X0106292Y0094733D01*
X0107195Y0095331D02*
X0239463Y0095331D01*
X0239824Y0095930D02*
X0107794Y0095930D01*
X0108093Y0096528D02*
X0240423Y0096528D01*
X0241688Y0097127D02*
X0108093Y0097127D01*
X0108093Y0097725D02*
X0296220Y0097725D01*
X0296220Y0097127D02*
X0243115Y0097127D01*
X0244380Y0096528D02*
X0296220Y0096528D01*
X0296220Y0095930D02*
X0244979Y0095930D01*
X0245340Y0095331D02*
X0296220Y0095331D01*
X0296220Y0094733D02*
X0245588Y0094733D01*
X0245670Y0094134D02*
X0296220Y0094134D01*
X0296220Y0093536D02*
X0245670Y0093536D01*
X0245547Y0092937D02*
X0296220Y0092937D01*
X0296220Y0092339D02*
X0245299Y0092339D01*
X0244879Y0091740D02*
X0296220Y0091740D01*
X0296220Y0091142D02*
X0244281Y0091142D01*
X0240522Y0091142D02*
X0141299Y0091142D01*
X0141489Y0091740D02*
X0239924Y0091740D01*
X0239504Y0092339D02*
X0141489Y0092339D01*
X0141489Y0092937D02*
X0239256Y0092937D01*
X0239133Y0093536D02*
X0141024Y0093536D01*
X0140701Y0090543D02*
X0296220Y0090543D01*
X0296220Y0089945D02*
X0130780Y0089945D01*
X0131379Y0090543D02*
X0138077Y0090543D01*
X0130182Y0089346D02*
X0296220Y0089346D01*
X0296220Y0088747D02*
X0129583Y0088747D01*
X0128985Y0088149D02*
X0187581Y0088149D01*
X0186983Y0087550D02*
X0128386Y0087550D01*
X0127788Y0086952D02*
X0186715Y0086952D01*
X0186715Y0086353D02*
X0127189Y0086353D01*
X0126591Y0085755D02*
X0186715Y0085755D01*
X0187101Y0085156D02*
X0125992Y0085156D01*
X0125394Y0084558D02*
X0187324Y0084558D01*
X0187324Y0083959D02*
X0124795Y0083959D01*
X0124197Y0083361D02*
X0187324Y0083361D01*
X0187324Y0082762D02*
X0123598Y0082762D01*
X0122999Y0082164D02*
X0186939Y0082164D01*
X0186715Y0081565D02*
X0122401Y0081565D01*
X0121802Y0080967D02*
X0186159Y0080967D01*
X0185561Y0080368D02*
X0121204Y0080368D01*
X0120605Y0079770D02*
X0184962Y0079770D01*
X0184363Y0079171D02*
X0120007Y0079171D01*
X0119408Y0078573D02*
X0179341Y0078573D01*
X0178742Y0077974D02*
X0118810Y0077974D01*
X0118211Y0077376D02*
X0178700Y0077376D01*
X0178700Y0076777D02*
X0117613Y0076777D01*
X0117014Y0076179D02*
X0178713Y0076179D01*
X0182258Y0078573D02*
X0183765Y0078573D01*
X0186784Y0077376D02*
X0200824Y0077376D01*
X0200226Y0076777D02*
X0186185Y0076777D01*
X0185587Y0076179D02*
X0199627Y0076179D01*
X0201423Y0077974D02*
X0187382Y0077974D01*
X0187981Y0078573D02*
X0202021Y0078573D01*
X0202620Y0079171D02*
X0189887Y0079171D01*
X0190485Y0079770D02*
X0203218Y0079770D01*
X0203817Y0080368D02*
X0190915Y0080368D01*
X0190915Y0080967D02*
X0204415Y0080967D01*
X0205014Y0081565D02*
X0190915Y0081565D01*
X0190690Y0082164D02*
X0205612Y0082164D01*
X0206211Y0082762D02*
X0190305Y0082762D01*
X0190305Y0083361D02*
X0206809Y0083361D01*
X0207408Y0083959D02*
X0190305Y0083959D01*
X0190305Y0084558D02*
X0207643Y0084558D01*
X0207743Y0085156D02*
X0190528Y0085156D01*
X0190915Y0085755D02*
X0208342Y0085755D01*
X0211144Y0085755D02*
X0280650Y0085755D01*
X0280402Y0085156D02*
X0211742Y0085156D01*
X0211843Y0084558D02*
X0280154Y0084558D01*
X0280147Y0083959D02*
X0211843Y0083959D01*
X0211843Y0083361D02*
X0280147Y0083361D01*
X0280127Y0082762D02*
X0211289Y0082762D01*
X0210690Y0082164D02*
X0279528Y0082164D01*
X0281350Y0079770D02*
X0296220Y0079770D01*
X0296220Y0080368D02*
X0292035Y0080368D01*
X0292763Y0080967D02*
X0296220Y0080967D01*
X0296220Y0081565D02*
X0293357Y0081565D01*
X0293605Y0082164D02*
X0296220Y0082164D01*
X0296220Y0082762D02*
X0293853Y0082762D01*
X0293947Y0083361D02*
X0296220Y0083361D01*
X0296220Y0083959D02*
X0293947Y0083959D01*
X0293941Y0084558D02*
X0296220Y0084558D01*
X0296220Y0085156D02*
X0293693Y0085156D01*
X0293445Y0085755D02*
X0296220Y0085755D01*
X0296220Y0086353D02*
X0292976Y0086353D01*
X0292377Y0086952D02*
X0296220Y0086952D01*
X0296220Y0087550D02*
X0291103Y0087550D01*
X0296220Y0088149D02*
X0190048Y0088149D01*
X0190646Y0087550D02*
X0282992Y0087550D01*
X0281717Y0086952D02*
X0190915Y0086952D01*
X0190915Y0086353D02*
X0281119Y0086353D01*
X0281948Y0080368D02*
X0282060Y0080368D01*
X0280751Y0079171D02*
X0296220Y0079171D01*
X0296220Y0078573D02*
X0208909Y0078573D01*
X0208310Y0077974D02*
X0296220Y0077974D01*
X0296220Y0077376D02*
X0291525Y0077376D01*
X0292552Y0076777D02*
X0296220Y0076777D01*
X0296220Y0076179D02*
X0293150Y0076179D01*
X0293517Y0075580D02*
X0296220Y0075580D01*
X0296220Y0074982D02*
X0293765Y0074982D01*
X0293947Y0074383D02*
X0296220Y0074383D01*
X0296220Y0073785D02*
X0293947Y0073785D01*
X0293947Y0073186D02*
X0296220Y0073186D01*
X0296220Y0072588D02*
X0293780Y0072588D01*
X0293532Y0071989D02*
X0296220Y0071989D01*
X0296220Y0071391D02*
X0293187Y0071391D01*
X0292588Y0070792D02*
X0296220Y0070792D01*
X0296220Y0070194D02*
X0291613Y0070194D01*
X0291946Y0067201D02*
X0296220Y0067201D01*
X0296220Y0066603D02*
X0292727Y0066603D01*
X0293325Y0066004D02*
X0296220Y0066004D01*
X0296220Y0065406D02*
X0293590Y0065406D01*
X0293838Y0064807D02*
X0296220Y0064807D01*
X0296220Y0064209D02*
X0293947Y0064209D01*
X0293947Y0063610D02*
X0296220Y0063610D01*
X0296220Y0063011D02*
X0293947Y0063011D01*
X0293708Y0062413D02*
X0296220Y0062413D01*
X0296220Y0061814D02*
X0293460Y0061814D01*
X0293012Y0061216D02*
X0296220Y0061216D01*
X0296220Y0060617D02*
X0292414Y0060617D01*
X0291191Y0060019D02*
X0296220Y0060019D01*
X0296220Y0059420D02*
X0163146Y0059420D01*
X0163744Y0058822D02*
X0296220Y0058822D01*
X0287347Y0053435D02*
X0286747Y0053435D01*
X0286747Y0052837D02*
X0287347Y0052837D01*
X0287347Y0052238D02*
X0286747Y0052238D01*
X0286747Y0051640D02*
X0287347Y0051640D01*
X0287347Y0051041D02*
X0286747Y0051041D01*
X0286747Y0050443D02*
X0287347Y0050443D01*
X0287347Y0049844D02*
X0286747Y0049844D01*
X0281306Y0050443D02*
X0172123Y0050443D01*
X0171525Y0051041D02*
X0280712Y0051041D01*
X0280305Y0051640D02*
X0170926Y0051640D01*
X0170328Y0052238D02*
X0280022Y0052238D01*
X0279841Y0052837D02*
X0169729Y0052837D01*
X0169131Y0053435D02*
X0279747Y0053435D01*
X0291345Y0047450D02*
X0296220Y0047450D01*
X0296220Y0046852D02*
X0292477Y0046852D01*
X0293076Y0046253D02*
X0296220Y0046253D01*
X0296220Y0045655D02*
X0293486Y0045655D01*
X0293734Y0045056D02*
X0296220Y0045056D01*
X0296220Y0044458D02*
X0293947Y0044458D01*
X0293947Y0043859D02*
X0296220Y0043859D01*
X0296220Y0043261D02*
X0293947Y0043261D01*
X0293811Y0042662D02*
X0296220Y0042662D01*
X0296220Y0042064D02*
X0293563Y0042064D01*
X0293261Y0041465D02*
X0296220Y0041465D01*
X0296220Y0040867D02*
X0292663Y0040867D01*
X0291793Y0040268D02*
X0296220Y0040268D01*
X0296220Y0048049D02*
X0174517Y0048049D01*
X0173919Y0048647D02*
X0296220Y0048647D01*
X0281681Y0060617D02*
X0243458Y0060617D01*
X0244718Y0061216D02*
X0281082Y0061216D01*
X0280634Y0061814D02*
X0245317Y0061814D01*
X0245773Y0062413D02*
X0280387Y0062413D01*
X0280147Y0063011D02*
X0246021Y0063011D01*
X0246261Y0063610D02*
X0280147Y0063610D01*
X0280147Y0064209D02*
X0246261Y0064209D01*
X0246261Y0064807D02*
X0280257Y0064807D01*
X0280505Y0065406D02*
X0246144Y0065406D01*
X0245896Y0066004D02*
X0280769Y0066004D01*
X0281368Y0066603D02*
X0245613Y0066603D01*
X0245015Y0067201D02*
X0282148Y0067201D01*
X0280373Y0068997D02*
X0296220Y0068997D01*
X0296220Y0069595D02*
X0280971Y0069595D01*
X0281570Y0070194D02*
X0282481Y0070194D01*
X0279149Y0071989D02*
X0207174Y0071989D01*
X0207174Y0071391D02*
X0239367Y0071391D01*
X0238768Y0070792D02*
X0207174Y0070792D01*
X0207390Y0070194D02*
X0238170Y0070194D01*
X0237571Y0069595D02*
X0207390Y0069595D01*
X0207390Y0068997D02*
X0236973Y0068997D01*
X0236374Y0068398D02*
X0207166Y0068398D01*
X0206567Y0067800D02*
X0235776Y0067800D01*
X0238196Y0066004D02*
X0238907Y0066004D01*
X0238795Y0066603D02*
X0239190Y0066603D01*
X0239393Y0067201D02*
X0239788Y0067201D01*
X0239992Y0067800D02*
X0240629Y0067800D01*
X0240590Y0068398D02*
X0296220Y0068398D01*
X0296220Y0067800D02*
X0244175Y0067800D01*
X0238659Y0065406D02*
X0237597Y0065406D01*
X0236999Y0064807D02*
X0238543Y0064807D01*
X0238543Y0064209D02*
X0236400Y0064209D01*
X0235802Y0063610D02*
X0238543Y0063610D01*
X0238782Y0063011D02*
X0181742Y0063011D01*
X0163018Y0071391D02*
X0119061Y0071391D01*
X0119061Y0071989D02*
X0162420Y0071989D01*
X0162224Y0072588D02*
X0119629Y0072588D01*
X0119670Y0073186D02*
X0162224Y0073186D01*
X0162224Y0073785D02*
X0119670Y0073785D01*
X0119657Y0074383D02*
X0162684Y0074383D01*
X0163282Y0074982D02*
X0119058Y0074982D01*
X0118460Y0075580D02*
X0168305Y0075580D01*
X0167706Y0074982D02*
X0165367Y0074982D01*
X0201727Y0071391D02*
X0203406Y0071391D01*
X0203406Y0071989D02*
X0202325Y0071989D01*
X0202924Y0072588D02*
X0203406Y0072588D01*
X0207174Y0072588D02*
X0279748Y0072588D01*
X0280147Y0073186D02*
X0207946Y0073186D01*
X0208545Y0073785D02*
X0280147Y0073785D01*
X0280147Y0074383D02*
X0208726Y0074383D01*
X0208726Y0074982D02*
X0280329Y0074982D01*
X0280577Y0075580D02*
X0208726Y0075580D01*
X0208252Y0076179D02*
X0280944Y0076179D01*
X0281543Y0076777D02*
X0207653Y0076777D01*
X0207712Y0077376D02*
X0282570Y0077376D01*
X0296220Y0098324D02*
X0107739Y0098324D01*
X0107140Y0098922D02*
X0296220Y0098922D01*
X0296220Y0099521D02*
X0174083Y0099521D01*
X0174104Y0100119D02*
X0296220Y0100119D01*
X0296220Y0100718D02*
X0174104Y0100718D01*
X0174104Y0101316D02*
X0296220Y0101316D01*
X0296220Y0101915D02*
X0174104Y0101915D01*
X0174104Y0102513D02*
X0296220Y0102513D01*
X0296220Y0103112D02*
X0174104Y0103112D01*
X0174104Y0103710D02*
X0296220Y0103710D01*
X0296220Y0104309D02*
X0174104Y0104309D01*
X0174104Y0104907D02*
X0279103Y0104907D01*
X0280338Y0104396D02*
X0283205Y0104396D01*
X0285853Y0105493D01*
X0287880Y0107519D01*
X0288977Y0110168D01*
X0288977Y0113034D01*
X0287880Y0115683D01*
X0285853Y0117710D01*
X0283205Y0118807D01*
X0280338Y0118807D01*
X0277690Y0117710D01*
X0275663Y0115683D01*
X0274566Y0113034D01*
X0274566Y0110168D01*
X0275663Y0107519D01*
X0277690Y0105493D01*
X0280338Y0104396D01*
X0277677Y0105506D02*
X0174104Y0105506D01*
X0174104Y0106104D02*
X0277078Y0106104D01*
X0276480Y0106703D02*
X0174104Y0106703D01*
X0174104Y0107301D02*
X0275881Y0107301D01*
X0275506Y0107900D02*
X0174104Y0107900D01*
X0174104Y0108498D02*
X0275258Y0108498D01*
X0275010Y0109097D02*
X0174104Y0109097D01*
X0174104Y0109695D02*
X0274762Y0109695D01*
X0274566Y0110294D02*
X0174104Y0110294D01*
X0174104Y0110892D02*
X0274566Y0110892D01*
X0274566Y0111491D02*
X0174104Y0111491D01*
X0174104Y0112089D02*
X0274566Y0112089D01*
X0274566Y0112688D02*
X0174104Y0112688D01*
X0174104Y0113286D02*
X0274671Y0113286D01*
X0274918Y0113885D02*
X0174104Y0113885D01*
X0174104Y0114483D02*
X0275166Y0114483D01*
X0275414Y0115082D02*
X0174104Y0115082D01*
X0174104Y0115680D02*
X0275662Y0115680D01*
X0276259Y0116279D02*
X0174104Y0116279D01*
X0174104Y0116878D02*
X0276858Y0116878D01*
X0277457Y0117476D02*
X0174104Y0117476D01*
X0174104Y0118075D02*
X0278571Y0118075D01*
X0280016Y0118673D02*
X0174104Y0118673D01*
X0174104Y0119272D02*
X0296220Y0119272D01*
X0296220Y0119870D02*
X0174104Y0119870D01*
X0174104Y0120469D02*
X0296220Y0120469D01*
X0296220Y0121067D02*
X0174104Y0121067D01*
X0174104Y0121666D02*
X0296220Y0121666D01*
X0296220Y0122264D02*
X0174104Y0122264D01*
X0174104Y0122863D02*
X0296220Y0122863D01*
X0296220Y0123461D02*
X0174104Y0123461D01*
X0174104Y0124060D02*
X0296220Y0124060D01*
X0296220Y0124658D02*
X0174104Y0124658D01*
X0174104Y0125257D02*
X0296220Y0125257D01*
X0296220Y0125855D02*
X0174104Y0125855D01*
X0283527Y0118673D02*
X0296220Y0118673D01*
X0296220Y0118075D02*
X0284972Y0118075D01*
X0286087Y0117476D02*
X0296220Y0117476D01*
X0296220Y0116878D02*
X0286685Y0116878D01*
X0287284Y0116279D02*
X0296220Y0116279D01*
X0296220Y0115680D02*
X0287881Y0115680D01*
X0288129Y0115082D02*
X0296220Y0115082D01*
X0296220Y0114483D02*
X0288377Y0114483D01*
X0288625Y0113885D02*
X0296220Y0113885D01*
X0296220Y0113286D02*
X0288873Y0113286D01*
X0288977Y0112688D02*
X0296220Y0112688D01*
X0296220Y0112089D02*
X0288977Y0112089D01*
X0288977Y0111491D02*
X0296220Y0111491D01*
X0296220Y0110892D02*
X0288977Y0110892D01*
X0288977Y0110294D02*
X0296220Y0110294D01*
X0296220Y0109695D02*
X0288781Y0109695D01*
X0288534Y0109097D02*
X0296220Y0109097D01*
X0296220Y0108498D02*
X0288286Y0108498D01*
X0288038Y0107900D02*
X0296220Y0107900D01*
X0296220Y0107301D02*
X0287662Y0107301D01*
X0287064Y0106703D02*
X0296220Y0106703D01*
X0296220Y0106104D02*
X0286465Y0106104D01*
X0285867Y0105506D02*
X0296220Y0105506D01*
X0296220Y0104907D02*
X0284440Y0104907D01*
X0159863Y0057625D02*
X0158099Y0057625D01*
X0158697Y0058223D02*
X0159265Y0058223D01*
X0116681Y0075580D02*
X0116416Y0075580D01*
X0116083Y0074982D02*
X0115817Y0074982D01*
X0115484Y0074383D02*
X0115219Y0074383D01*
X0115054Y0073785D02*
X0115470Y0073785D01*
X0115470Y0073186D02*
X0115054Y0073186D01*
X0115054Y0072588D02*
X0115512Y0072588D01*
X0115054Y0071989D02*
X0116080Y0071989D01*
X0116080Y0071391D02*
X0115054Y0071391D01*
X0115054Y0070792D02*
X0116080Y0070792D01*
X0116080Y0070194D02*
X0115054Y0070194D01*
X0115054Y0069595D02*
X0116080Y0069595D01*
X0116080Y0068997D02*
X0115054Y0068997D01*
X0114577Y0068398D02*
X0116080Y0068398D01*
X0116080Y0067800D02*
X0113979Y0067800D01*
X0113380Y0067201D02*
X0116080Y0067201D01*
X0116080Y0066603D02*
X0112782Y0066603D01*
X0112183Y0066004D02*
X0116080Y0066004D01*
X0116080Y0065406D02*
X0111584Y0065406D01*
X0110986Y0064807D02*
X0116080Y0064807D01*
X0116080Y0064209D02*
X0110387Y0064209D01*
X0109789Y0063610D02*
X0116080Y0063610D01*
X0116080Y0063011D02*
X0109190Y0063011D01*
X0108592Y0062413D02*
X0116080Y0062413D01*
X0116080Y0061814D02*
X0107993Y0061814D01*
X0107395Y0061216D02*
X0116080Y0061216D01*
X0116080Y0060617D02*
X0106796Y0060617D01*
X0106198Y0060019D02*
X0116080Y0060019D01*
X0116080Y0059420D02*
X0105599Y0059420D01*
X0105001Y0058822D02*
X0116080Y0058822D01*
X0116080Y0058223D02*
X0104402Y0058223D01*
X0103804Y0057625D02*
X0116080Y0057625D01*
X0116080Y0057026D02*
X0103205Y0057026D01*
X0102607Y0056428D02*
X0116080Y0056428D01*
X0116080Y0055829D02*
X0102008Y0055829D01*
X0101410Y0055231D02*
X0116080Y0055231D01*
X0116080Y0054632D02*
X0100811Y0054632D01*
X0100213Y0054034D02*
X0116080Y0054034D01*
X0116080Y0053435D02*
X0099614Y0053435D01*
X0097680Y0052837D02*
X0116080Y0052837D01*
X0116080Y0052238D02*
X0097081Y0052238D01*
X0096483Y0051640D02*
X0116080Y0051640D01*
X0116080Y0051041D02*
X0095884Y0051041D01*
X0095286Y0050443D02*
X0116080Y0050443D01*
X0116080Y0049844D02*
X0094687Y0049844D01*
X0094089Y0049246D02*
X0116080Y0049246D01*
X0116080Y0048647D02*
X0093490Y0048647D01*
X0092892Y0048049D02*
X0116080Y0048049D01*
X0116080Y0047450D02*
X0092293Y0047450D01*
X0091695Y0046852D02*
X0116080Y0046852D01*
X0116080Y0046253D02*
X0091096Y0046253D01*
X0090498Y0045655D02*
X0116080Y0045655D01*
X0090858Y0024707D02*
X0084733Y0024707D01*
X0085331Y0024108D02*
X0090260Y0024108D01*
X0089661Y0023510D02*
X0085930Y0023510D01*
X0086528Y0022911D02*
X0089062Y0022911D01*
X0088895Y0022313D02*
X0086695Y0022313D01*
X0086695Y0021714D02*
X0088895Y0021714D01*
X0088895Y0021116D02*
X0086695Y0021116D01*
X0086695Y0020517D02*
X0088895Y0020517D01*
X0088895Y0019919D02*
X0086695Y0019919D01*
X0086502Y0019320D02*
X0089088Y0019320D01*
X0089687Y0018722D02*
X0085904Y0018722D01*
X0085305Y0018123D02*
X0090285Y0018123D01*
X0090884Y0017525D02*
X0084707Y0017525D01*
X0073095Y0022313D02*
X0072495Y0022313D01*
X0072495Y0022911D02*
X0073095Y0022911D01*
X0073095Y0023510D02*
X0072495Y0023510D01*
X0072495Y0024108D02*
X0073095Y0024108D01*
X0073095Y0024707D02*
X0072495Y0024707D01*
X0072495Y0025305D02*
X0073095Y0025305D01*
X0070891Y0025305D02*
X0070148Y0025305D01*
X0070292Y0024707D02*
X0069550Y0024707D01*
X0069694Y0024108D02*
X0068951Y0024108D01*
X0069095Y0023510D02*
X0068353Y0023510D01*
X0068300Y0022911D02*
X0068497Y0022911D01*
X0068495Y0022313D02*
X0068300Y0022313D01*
X0068300Y0021714D02*
X0068495Y0021714D01*
X0046852Y0093536D02*
X0003544Y0093536D01*
X0003544Y0094134D02*
X0045801Y0094134D01*
X0045202Y0094733D02*
X0003544Y0094733D01*
X0003544Y0095331D02*
X0044865Y0095331D01*
X0044617Y0095930D02*
X0003544Y0095930D01*
X0003544Y0096528D02*
X0044494Y0096528D01*
X0044494Y0097127D02*
X0003544Y0097127D01*
X0003544Y0097725D02*
X0044511Y0097725D01*
X0044759Y0098324D02*
X0003544Y0098324D01*
X0003544Y0098922D02*
X0045007Y0098922D01*
X0045545Y0099521D02*
X0003544Y0099521D01*
X0003544Y0100119D02*
X0046234Y0100119D01*
D16*
X0071142Y0093885D03*
X0071142Y0107664D03*
X0118386Y0091916D03*
X0161693Y0076168D03*
X0205000Y0060420D03*
X0210906Y0060420D03*
X0205000Y0042703D03*
X0181378Y0032861D03*
X0161693Y0038766D03*
X0165630Y0007270D03*
X0055394Y0024987D03*
X0063268Y0064357D03*
X0187283Y0099790D03*
D17*
X0188815Y0086412D03*
X0188815Y0081069D03*
X0180800Y0077062D03*
X0164324Y0073054D03*
X0180800Y0065039D03*
X0160762Y0059696D03*
X0157200Y0059696D03*
X0117570Y0073499D03*
X0091744Y0063703D03*
X0097088Y0058360D03*
X0074379Y0065485D03*
X0139389Y0092201D03*
X0105993Y0097099D03*
X0205290Y0069492D03*
X0206626Y0074835D03*
X0209743Y0084186D03*
X0191931Y0028527D03*
X0201728Y0018731D03*
X0175472Y0015636D03*
D18*
X0172028Y0019081D01*
X0134626Y0019081D01*
X0130689Y0015144D01*
X0131102Y0011207D01*
X0131819Y0014723D01*
X0133155Y0014723D01*
X0130929Y0014278D02*
X0130929Y0011606D01*
X0131102Y0011207D01*
X0130929Y0014278D02*
X0126193Y0019014D01*
X0126260Y0019081D01*
X0126193Y0019014D02*
X0124695Y0020512D01*
X0113118Y0020512D01*
X0103767Y0011161D01*
X0102876Y0011161D01*
X0102795Y0011129D01*
X0074379Y0065485D02*
X0105993Y0097099D01*
X0205290Y0073499D02*
X0205290Y0069492D01*
X0205290Y0073499D02*
X0206626Y0074835D01*
D19*
X0208407Y0080179D02*
X0200837Y0072609D01*
X0170113Y0072609D01*
X0157200Y0059696D01*
X0160762Y0059696D02*
X0191931Y0028527D01*
X0197720Y0022738D02*
X0117570Y0022738D01*
X0117570Y0073499D01*
X0113563Y0074835D02*
X0130929Y0092201D01*
X0139389Y0092201D01*
X0113563Y0074835D02*
X0113563Y0069492D01*
X0098424Y0054353D01*
X0097088Y0054353D01*
X0066809Y0024074D01*
X0066809Y0016949D01*
X0072598Y0011161D01*
X0072795Y0011129D01*
X0092635Y0011161D02*
X0092795Y0011129D01*
X0092635Y0011161D02*
X0097533Y0016059D01*
X0099759Y0016059D01*
X0100205Y0015614D01*
X0105103Y0015614D01*
X0112227Y0022738D01*
X0117570Y0022738D01*
X0141170Y0013387D02*
X0141170Y0011606D01*
X0141102Y0011207D01*
X0197720Y0022738D02*
X0201728Y0018731D01*
X0097088Y0058360D02*
X0091744Y0063703D01*
X0164324Y0073054D02*
X0167887Y0073054D01*
X0169222Y0074390D01*
X0199946Y0074390D01*
X0209743Y0084186D01*
X0208407Y0080179D02*
X0279651Y0080179D01*
X0283213Y0083741D01*
X0286775Y0083741D01*
X0287047Y0083766D01*
X0287047Y0073766D02*
X0286775Y0073499D01*
X0282768Y0073499D01*
X0279651Y0070383D01*
X0240467Y0070383D01*
X0235123Y0065039D01*
X0180800Y0065039D01*
X0180800Y0077062D02*
X0184362Y0077062D01*
X0188369Y0081069D01*
X0188815Y0081069D01*
X0188815Y0086412D01*
M02*
