G75*
%MOIN*%
%OFA0B0*%
%FSLAX25Y25*%
%IPPOS*%
%LPD*%
%AMOC8*
5,1,8,0,0,1.08239X$1,22.5*
%
%ADD10C,0.00000*%
%ADD11C,0.12211*%
%ADD12OC8,0.06400*%
%ADD13R,0.10400X0.10400*%
%ADD14C,0.04534*%
%ADD15C,0.06400*%
%ADD16C,0.05912*%
%ADD17C,0.05518*%
%ADD18C,0.04337*%
D10*
X0002244Y0001365D02*
X0002244Y0127349D01*
X0297520Y0127349D01*
X0297520Y0001365D01*
X0002244Y0001365D01*
X0012086Y0017113D02*
X0012088Y0017266D01*
X0012094Y0017420D01*
X0012104Y0017573D01*
X0012118Y0017725D01*
X0012136Y0017878D01*
X0012158Y0018029D01*
X0012183Y0018180D01*
X0012213Y0018331D01*
X0012247Y0018481D01*
X0012284Y0018629D01*
X0012325Y0018777D01*
X0012370Y0018923D01*
X0012419Y0019069D01*
X0012472Y0019213D01*
X0012528Y0019355D01*
X0012588Y0019496D01*
X0012652Y0019636D01*
X0012719Y0019774D01*
X0012790Y0019910D01*
X0012865Y0020044D01*
X0012942Y0020176D01*
X0013024Y0020306D01*
X0013108Y0020434D01*
X0013196Y0020560D01*
X0013287Y0020683D01*
X0013381Y0020804D01*
X0013479Y0020922D01*
X0013579Y0021038D01*
X0013683Y0021151D01*
X0013789Y0021262D01*
X0013898Y0021370D01*
X0014010Y0021475D01*
X0014124Y0021576D01*
X0014242Y0021675D01*
X0014361Y0021771D01*
X0014483Y0021864D01*
X0014608Y0021953D01*
X0014735Y0022040D01*
X0014864Y0022122D01*
X0014995Y0022202D01*
X0015128Y0022278D01*
X0015263Y0022351D01*
X0015400Y0022420D01*
X0015539Y0022485D01*
X0015679Y0022547D01*
X0015821Y0022605D01*
X0015964Y0022660D01*
X0016109Y0022711D01*
X0016255Y0022758D01*
X0016402Y0022801D01*
X0016550Y0022840D01*
X0016699Y0022876D01*
X0016849Y0022907D01*
X0017000Y0022935D01*
X0017151Y0022959D01*
X0017304Y0022979D01*
X0017456Y0022995D01*
X0017609Y0023007D01*
X0017762Y0023015D01*
X0017915Y0023019D01*
X0018069Y0023019D01*
X0018222Y0023015D01*
X0018375Y0023007D01*
X0018528Y0022995D01*
X0018680Y0022979D01*
X0018833Y0022959D01*
X0018984Y0022935D01*
X0019135Y0022907D01*
X0019285Y0022876D01*
X0019434Y0022840D01*
X0019582Y0022801D01*
X0019729Y0022758D01*
X0019875Y0022711D01*
X0020020Y0022660D01*
X0020163Y0022605D01*
X0020305Y0022547D01*
X0020445Y0022485D01*
X0020584Y0022420D01*
X0020721Y0022351D01*
X0020856Y0022278D01*
X0020989Y0022202D01*
X0021120Y0022122D01*
X0021249Y0022040D01*
X0021376Y0021953D01*
X0021501Y0021864D01*
X0021623Y0021771D01*
X0021742Y0021675D01*
X0021860Y0021576D01*
X0021974Y0021475D01*
X0022086Y0021370D01*
X0022195Y0021262D01*
X0022301Y0021151D01*
X0022405Y0021038D01*
X0022505Y0020922D01*
X0022603Y0020804D01*
X0022697Y0020683D01*
X0022788Y0020560D01*
X0022876Y0020434D01*
X0022960Y0020306D01*
X0023042Y0020176D01*
X0023119Y0020044D01*
X0023194Y0019910D01*
X0023265Y0019774D01*
X0023332Y0019636D01*
X0023396Y0019496D01*
X0023456Y0019355D01*
X0023512Y0019213D01*
X0023565Y0019069D01*
X0023614Y0018923D01*
X0023659Y0018777D01*
X0023700Y0018629D01*
X0023737Y0018481D01*
X0023771Y0018331D01*
X0023801Y0018180D01*
X0023826Y0018029D01*
X0023848Y0017878D01*
X0023866Y0017725D01*
X0023880Y0017573D01*
X0023890Y0017420D01*
X0023896Y0017266D01*
X0023898Y0017113D01*
X0023896Y0016960D01*
X0023890Y0016806D01*
X0023880Y0016653D01*
X0023866Y0016501D01*
X0023848Y0016348D01*
X0023826Y0016197D01*
X0023801Y0016046D01*
X0023771Y0015895D01*
X0023737Y0015745D01*
X0023700Y0015597D01*
X0023659Y0015449D01*
X0023614Y0015303D01*
X0023565Y0015157D01*
X0023512Y0015013D01*
X0023456Y0014871D01*
X0023396Y0014730D01*
X0023332Y0014590D01*
X0023265Y0014452D01*
X0023194Y0014316D01*
X0023119Y0014182D01*
X0023042Y0014050D01*
X0022960Y0013920D01*
X0022876Y0013792D01*
X0022788Y0013666D01*
X0022697Y0013543D01*
X0022603Y0013422D01*
X0022505Y0013304D01*
X0022405Y0013188D01*
X0022301Y0013075D01*
X0022195Y0012964D01*
X0022086Y0012856D01*
X0021974Y0012751D01*
X0021860Y0012650D01*
X0021742Y0012551D01*
X0021623Y0012455D01*
X0021501Y0012362D01*
X0021376Y0012273D01*
X0021249Y0012186D01*
X0021120Y0012104D01*
X0020989Y0012024D01*
X0020856Y0011948D01*
X0020721Y0011875D01*
X0020584Y0011806D01*
X0020445Y0011741D01*
X0020305Y0011679D01*
X0020163Y0011621D01*
X0020020Y0011566D01*
X0019875Y0011515D01*
X0019729Y0011468D01*
X0019582Y0011425D01*
X0019434Y0011386D01*
X0019285Y0011350D01*
X0019135Y0011319D01*
X0018984Y0011291D01*
X0018833Y0011267D01*
X0018680Y0011247D01*
X0018528Y0011231D01*
X0018375Y0011219D01*
X0018222Y0011211D01*
X0018069Y0011207D01*
X0017915Y0011207D01*
X0017762Y0011211D01*
X0017609Y0011219D01*
X0017456Y0011231D01*
X0017304Y0011247D01*
X0017151Y0011267D01*
X0017000Y0011291D01*
X0016849Y0011319D01*
X0016699Y0011350D01*
X0016550Y0011386D01*
X0016402Y0011425D01*
X0016255Y0011468D01*
X0016109Y0011515D01*
X0015964Y0011566D01*
X0015821Y0011621D01*
X0015679Y0011679D01*
X0015539Y0011741D01*
X0015400Y0011806D01*
X0015263Y0011875D01*
X0015128Y0011948D01*
X0014995Y0012024D01*
X0014864Y0012104D01*
X0014735Y0012186D01*
X0014608Y0012273D01*
X0014483Y0012362D01*
X0014361Y0012455D01*
X0014242Y0012551D01*
X0014124Y0012650D01*
X0014010Y0012751D01*
X0013898Y0012856D01*
X0013789Y0012964D01*
X0013683Y0013075D01*
X0013579Y0013188D01*
X0013479Y0013304D01*
X0013381Y0013422D01*
X0013287Y0013543D01*
X0013196Y0013666D01*
X0013108Y0013792D01*
X0013024Y0013920D01*
X0012942Y0014050D01*
X0012865Y0014182D01*
X0012790Y0014316D01*
X0012719Y0014452D01*
X0012652Y0014590D01*
X0012588Y0014730D01*
X0012528Y0014871D01*
X0012472Y0015013D01*
X0012419Y0015157D01*
X0012370Y0015303D01*
X0012325Y0015449D01*
X0012284Y0015597D01*
X0012247Y0015745D01*
X0012213Y0015895D01*
X0012183Y0016046D01*
X0012158Y0016197D01*
X0012136Y0016348D01*
X0012118Y0016501D01*
X0012104Y0016653D01*
X0012094Y0016806D01*
X0012088Y0016960D01*
X0012086Y0017113D01*
X0021555Y0043983D02*
X0021557Y0044074D01*
X0021563Y0044164D01*
X0021573Y0044255D01*
X0021587Y0044344D01*
X0021605Y0044433D01*
X0021626Y0044522D01*
X0021652Y0044609D01*
X0021681Y0044695D01*
X0021715Y0044779D01*
X0021751Y0044862D01*
X0021792Y0044944D01*
X0021836Y0045023D01*
X0021883Y0045101D01*
X0021934Y0045176D01*
X0021988Y0045249D01*
X0022045Y0045319D01*
X0022105Y0045387D01*
X0022168Y0045453D01*
X0022234Y0045515D01*
X0022303Y0045574D01*
X0022374Y0045631D01*
X0022448Y0045684D01*
X0022524Y0045734D01*
X0022602Y0045781D01*
X0022682Y0045824D01*
X0022763Y0045863D01*
X0022847Y0045899D01*
X0022932Y0045931D01*
X0023018Y0045960D01*
X0023105Y0045984D01*
X0023194Y0046005D01*
X0023283Y0046022D01*
X0023373Y0046035D01*
X0023463Y0046044D01*
X0023554Y0046049D01*
X0023645Y0046050D01*
X0023735Y0046047D01*
X0023826Y0046040D01*
X0023916Y0046029D01*
X0024006Y0046014D01*
X0024095Y0045995D01*
X0024183Y0045973D01*
X0024269Y0045946D01*
X0024355Y0045916D01*
X0024439Y0045882D01*
X0024522Y0045844D01*
X0024603Y0045803D01*
X0024682Y0045758D01*
X0024759Y0045709D01*
X0024833Y0045658D01*
X0024906Y0045603D01*
X0024976Y0045545D01*
X0025043Y0045484D01*
X0025107Y0045420D01*
X0025169Y0045354D01*
X0025228Y0045284D01*
X0025283Y0045213D01*
X0025336Y0045138D01*
X0025385Y0045062D01*
X0025431Y0044984D01*
X0025473Y0044903D01*
X0025512Y0044821D01*
X0025547Y0044737D01*
X0025578Y0044652D01*
X0025605Y0044565D01*
X0025629Y0044478D01*
X0025649Y0044389D01*
X0025665Y0044300D01*
X0025677Y0044210D01*
X0025685Y0044119D01*
X0025689Y0044028D01*
X0025689Y0043938D01*
X0025685Y0043847D01*
X0025677Y0043756D01*
X0025665Y0043666D01*
X0025649Y0043577D01*
X0025629Y0043488D01*
X0025605Y0043401D01*
X0025578Y0043314D01*
X0025547Y0043229D01*
X0025512Y0043145D01*
X0025473Y0043063D01*
X0025431Y0042982D01*
X0025385Y0042904D01*
X0025336Y0042828D01*
X0025283Y0042753D01*
X0025228Y0042682D01*
X0025169Y0042612D01*
X0025107Y0042546D01*
X0025043Y0042482D01*
X0024976Y0042421D01*
X0024906Y0042363D01*
X0024833Y0042308D01*
X0024759Y0042257D01*
X0024682Y0042208D01*
X0024603Y0042163D01*
X0024522Y0042122D01*
X0024439Y0042084D01*
X0024355Y0042050D01*
X0024269Y0042020D01*
X0024183Y0041993D01*
X0024095Y0041971D01*
X0024006Y0041952D01*
X0023916Y0041937D01*
X0023826Y0041926D01*
X0023735Y0041919D01*
X0023645Y0041916D01*
X0023554Y0041917D01*
X0023463Y0041922D01*
X0023373Y0041931D01*
X0023283Y0041944D01*
X0023194Y0041961D01*
X0023105Y0041982D01*
X0023018Y0042006D01*
X0022932Y0042035D01*
X0022847Y0042067D01*
X0022763Y0042103D01*
X0022682Y0042142D01*
X0022602Y0042185D01*
X0022524Y0042232D01*
X0022448Y0042282D01*
X0022374Y0042335D01*
X0022303Y0042392D01*
X0022234Y0042451D01*
X0022168Y0042513D01*
X0022105Y0042579D01*
X0022045Y0042647D01*
X0021988Y0042717D01*
X0021934Y0042790D01*
X0021883Y0042865D01*
X0021836Y0042943D01*
X0021792Y0043022D01*
X0021751Y0043104D01*
X0021715Y0043187D01*
X0021681Y0043271D01*
X0021652Y0043357D01*
X0021626Y0043444D01*
X0021605Y0043533D01*
X0021587Y0043622D01*
X0021573Y0043711D01*
X0021563Y0043802D01*
X0021557Y0043892D01*
X0021555Y0043983D01*
X0021555Y0063077D02*
X0021557Y0063168D01*
X0021563Y0063258D01*
X0021573Y0063349D01*
X0021587Y0063438D01*
X0021605Y0063527D01*
X0021626Y0063616D01*
X0021652Y0063703D01*
X0021681Y0063789D01*
X0021715Y0063873D01*
X0021751Y0063956D01*
X0021792Y0064038D01*
X0021836Y0064117D01*
X0021883Y0064195D01*
X0021934Y0064270D01*
X0021988Y0064343D01*
X0022045Y0064413D01*
X0022105Y0064481D01*
X0022168Y0064547D01*
X0022234Y0064609D01*
X0022303Y0064668D01*
X0022374Y0064725D01*
X0022448Y0064778D01*
X0022524Y0064828D01*
X0022602Y0064875D01*
X0022682Y0064918D01*
X0022763Y0064957D01*
X0022847Y0064993D01*
X0022932Y0065025D01*
X0023018Y0065054D01*
X0023105Y0065078D01*
X0023194Y0065099D01*
X0023283Y0065116D01*
X0023373Y0065129D01*
X0023463Y0065138D01*
X0023554Y0065143D01*
X0023645Y0065144D01*
X0023735Y0065141D01*
X0023826Y0065134D01*
X0023916Y0065123D01*
X0024006Y0065108D01*
X0024095Y0065089D01*
X0024183Y0065067D01*
X0024269Y0065040D01*
X0024355Y0065010D01*
X0024439Y0064976D01*
X0024522Y0064938D01*
X0024603Y0064897D01*
X0024682Y0064852D01*
X0024759Y0064803D01*
X0024833Y0064752D01*
X0024906Y0064697D01*
X0024976Y0064639D01*
X0025043Y0064578D01*
X0025107Y0064514D01*
X0025169Y0064448D01*
X0025228Y0064378D01*
X0025283Y0064307D01*
X0025336Y0064232D01*
X0025385Y0064156D01*
X0025431Y0064078D01*
X0025473Y0063997D01*
X0025512Y0063915D01*
X0025547Y0063831D01*
X0025578Y0063746D01*
X0025605Y0063659D01*
X0025629Y0063572D01*
X0025649Y0063483D01*
X0025665Y0063394D01*
X0025677Y0063304D01*
X0025685Y0063213D01*
X0025689Y0063122D01*
X0025689Y0063032D01*
X0025685Y0062941D01*
X0025677Y0062850D01*
X0025665Y0062760D01*
X0025649Y0062671D01*
X0025629Y0062582D01*
X0025605Y0062495D01*
X0025578Y0062408D01*
X0025547Y0062323D01*
X0025512Y0062239D01*
X0025473Y0062157D01*
X0025431Y0062076D01*
X0025385Y0061998D01*
X0025336Y0061922D01*
X0025283Y0061847D01*
X0025228Y0061776D01*
X0025169Y0061706D01*
X0025107Y0061640D01*
X0025043Y0061576D01*
X0024976Y0061515D01*
X0024906Y0061457D01*
X0024833Y0061402D01*
X0024759Y0061351D01*
X0024682Y0061302D01*
X0024603Y0061257D01*
X0024522Y0061216D01*
X0024439Y0061178D01*
X0024355Y0061144D01*
X0024269Y0061114D01*
X0024183Y0061087D01*
X0024095Y0061065D01*
X0024006Y0061046D01*
X0023916Y0061031D01*
X0023826Y0061020D01*
X0023735Y0061013D01*
X0023645Y0061010D01*
X0023554Y0061011D01*
X0023463Y0061016D01*
X0023373Y0061025D01*
X0023283Y0061038D01*
X0023194Y0061055D01*
X0023105Y0061076D01*
X0023018Y0061100D01*
X0022932Y0061129D01*
X0022847Y0061161D01*
X0022763Y0061197D01*
X0022682Y0061236D01*
X0022602Y0061279D01*
X0022524Y0061326D01*
X0022448Y0061376D01*
X0022374Y0061429D01*
X0022303Y0061486D01*
X0022234Y0061545D01*
X0022168Y0061607D01*
X0022105Y0061673D01*
X0022045Y0061741D01*
X0021988Y0061811D01*
X0021934Y0061884D01*
X0021883Y0061959D01*
X0021836Y0062037D01*
X0021792Y0062116D01*
X0021751Y0062198D01*
X0021715Y0062281D01*
X0021681Y0062365D01*
X0021652Y0062451D01*
X0021626Y0062538D01*
X0021605Y0062627D01*
X0021587Y0062716D01*
X0021573Y0062805D01*
X0021563Y0062896D01*
X0021557Y0062986D01*
X0021555Y0063077D01*
X0012086Y0111601D02*
X0012088Y0111754D01*
X0012094Y0111908D01*
X0012104Y0112061D01*
X0012118Y0112213D01*
X0012136Y0112366D01*
X0012158Y0112517D01*
X0012183Y0112668D01*
X0012213Y0112819D01*
X0012247Y0112969D01*
X0012284Y0113117D01*
X0012325Y0113265D01*
X0012370Y0113411D01*
X0012419Y0113557D01*
X0012472Y0113701D01*
X0012528Y0113843D01*
X0012588Y0113984D01*
X0012652Y0114124D01*
X0012719Y0114262D01*
X0012790Y0114398D01*
X0012865Y0114532D01*
X0012942Y0114664D01*
X0013024Y0114794D01*
X0013108Y0114922D01*
X0013196Y0115048D01*
X0013287Y0115171D01*
X0013381Y0115292D01*
X0013479Y0115410D01*
X0013579Y0115526D01*
X0013683Y0115639D01*
X0013789Y0115750D01*
X0013898Y0115858D01*
X0014010Y0115963D01*
X0014124Y0116064D01*
X0014242Y0116163D01*
X0014361Y0116259D01*
X0014483Y0116352D01*
X0014608Y0116441D01*
X0014735Y0116528D01*
X0014864Y0116610D01*
X0014995Y0116690D01*
X0015128Y0116766D01*
X0015263Y0116839D01*
X0015400Y0116908D01*
X0015539Y0116973D01*
X0015679Y0117035D01*
X0015821Y0117093D01*
X0015964Y0117148D01*
X0016109Y0117199D01*
X0016255Y0117246D01*
X0016402Y0117289D01*
X0016550Y0117328D01*
X0016699Y0117364D01*
X0016849Y0117395D01*
X0017000Y0117423D01*
X0017151Y0117447D01*
X0017304Y0117467D01*
X0017456Y0117483D01*
X0017609Y0117495D01*
X0017762Y0117503D01*
X0017915Y0117507D01*
X0018069Y0117507D01*
X0018222Y0117503D01*
X0018375Y0117495D01*
X0018528Y0117483D01*
X0018680Y0117467D01*
X0018833Y0117447D01*
X0018984Y0117423D01*
X0019135Y0117395D01*
X0019285Y0117364D01*
X0019434Y0117328D01*
X0019582Y0117289D01*
X0019729Y0117246D01*
X0019875Y0117199D01*
X0020020Y0117148D01*
X0020163Y0117093D01*
X0020305Y0117035D01*
X0020445Y0116973D01*
X0020584Y0116908D01*
X0020721Y0116839D01*
X0020856Y0116766D01*
X0020989Y0116690D01*
X0021120Y0116610D01*
X0021249Y0116528D01*
X0021376Y0116441D01*
X0021501Y0116352D01*
X0021623Y0116259D01*
X0021742Y0116163D01*
X0021860Y0116064D01*
X0021974Y0115963D01*
X0022086Y0115858D01*
X0022195Y0115750D01*
X0022301Y0115639D01*
X0022405Y0115526D01*
X0022505Y0115410D01*
X0022603Y0115292D01*
X0022697Y0115171D01*
X0022788Y0115048D01*
X0022876Y0114922D01*
X0022960Y0114794D01*
X0023042Y0114664D01*
X0023119Y0114532D01*
X0023194Y0114398D01*
X0023265Y0114262D01*
X0023332Y0114124D01*
X0023396Y0113984D01*
X0023456Y0113843D01*
X0023512Y0113701D01*
X0023565Y0113557D01*
X0023614Y0113411D01*
X0023659Y0113265D01*
X0023700Y0113117D01*
X0023737Y0112969D01*
X0023771Y0112819D01*
X0023801Y0112668D01*
X0023826Y0112517D01*
X0023848Y0112366D01*
X0023866Y0112213D01*
X0023880Y0112061D01*
X0023890Y0111908D01*
X0023896Y0111754D01*
X0023898Y0111601D01*
X0023896Y0111448D01*
X0023890Y0111294D01*
X0023880Y0111141D01*
X0023866Y0110989D01*
X0023848Y0110836D01*
X0023826Y0110685D01*
X0023801Y0110534D01*
X0023771Y0110383D01*
X0023737Y0110233D01*
X0023700Y0110085D01*
X0023659Y0109937D01*
X0023614Y0109791D01*
X0023565Y0109645D01*
X0023512Y0109501D01*
X0023456Y0109359D01*
X0023396Y0109218D01*
X0023332Y0109078D01*
X0023265Y0108940D01*
X0023194Y0108804D01*
X0023119Y0108670D01*
X0023042Y0108538D01*
X0022960Y0108408D01*
X0022876Y0108280D01*
X0022788Y0108154D01*
X0022697Y0108031D01*
X0022603Y0107910D01*
X0022505Y0107792D01*
X0022405Y0107676D01*
X0022301Y0107563D01*
X0022195Y0107452D01*
X0022086Y0107344D01*
X0021974Y0107239D01*
X0021860Y0107138D01*
X0021742Y0107039D01*
X0021623Y0106943D01*
X0021501Y0106850D01*
X0021376Y0106761D01*
X0021249Y0106674D01*
X0021120Y0106592D01*
X0020989Y0106512D01*
X0020856Y0106436D01*
X0020721Y0106363D01*
X0020584Y0106294D01*
X0020445Y0106229D01*
X0020305Y0106167D01*
X0020163Y0106109D01*
X0020020Y0106054D01*
X0019875Y0106003D01*
X0019729Y0105956D01*
X0019582Y0105913D01*
X0019434Y0105874D01*
X0019285Y0105838D01*
X0019135Y0105807D01*
X0018984Y0105779D01*
X0018833Y0105755D01*
X0018680Y0105735D01*
X0018528Y0105719D01*
X0018375Y0105707D01*
X0018222Y0105699D01*
X0018069Y0105695D01*
X0017915Y0105695D01*
X0017762Y0105699D01*
X0017609Y0105707D01*
X0017456Y0105719D01*
X0017304Y0105735D01*
X0017151Y0105755D01*
X0017000Y0105779D01*
X0016849Y0105807D01*
X0016699Y0105838D01*
X0016550Y0105874D01*
X0016402Y0105913D01*
X0016255Y0105956D01*
X0016109Y0106003D01*
X0015964Y0106054D01*
X0015821Y0106109D01*
X0015679Y0106167D01*
X0015539Y0106229D01*
X0015400Y0106294D01*
X0015263Y0106363D01*
X0015128Y0106436D01*
X0014995Y0106512D01*
X0014864Y0106592D01*
X0014735Y0106674D01*
X0014608Y0106761D01*
X0014483Y0106850D01*
X0014361Y0106943D01*
X0014242Y0107039D01*
X0014124Y0107138D01*
X0014010Y0107239D01*
X0013898Y0107344D01*
X0013789Y0107452D01*
X0013683Y0107563D01*
X0013579Y0107676D01*
X0013479Y0107792D01*
X0013381Y0107910D01*
X0013287Y0108031D01*
X0013196Y0108154D01*
X0013108Y0108280D01*
X0013024Y0108408D01*
X0012942Y0108538D01*
X0012865Y0108670D01*
X0012790Y0108804D01*
X0012719Y0108940D01*
X0012652Y0109078D01*
X0012588Y0109218D01*
X0012528Y0109359D01*
X0012472Y0109501D01*
X0012419Y0109645D01*
X0012370Y0109791D01*
X0012325Y0109937D01*
X0012284Y0110085D01*
X0012247Y0110233D01*
X0012213Y0110383D01*
X0012183Y0110534D01*
X0012158Y0110685D01*
X0012136Y0110836D01*
X0012118Y0110989D01*
X0012104Y0111141D01*
X0012094Y0111294D01*
X0012088Y0111448D01*
X0012086Y0111601D01*
X0240433Y0093885D02*
X0240435Y0093973D01*
X0240441Y0094061D01*
X0240451Y0094149D01*
X0240465Y0094237D01*
X0240482Y0094323D01*
X0240504Y0094409D01*
X0240529Y0094493D01*
X0240559Y0094577D01*
X0240591Y0094659D01*
X0240628Y0094739D01*
X0240668Y0094818D01*
X0240712Y0094895D01*
X0240759Y0094970D01*
X0240809Y0095042D01*
X0240863Y0095113D01*
X0240919Y0095180D01*
X0240979Y0095246D01*
X0241041Y0095308D01*
X0241107Y0095368D01*
X0241174Y0095424D01*
X0241245Y0095478D01*
X0241317Y0095528D01*
X0241392Y0095575D01*
X0241469Y0095619D01*
X0241548Y0095659D01*
X0241628Y0095696D01*
X0241710Y0095728D01*
X0241794Y0095758D01*
X0241878Y0095783D01*
X0241964Y0095805D01*
X0242050Y0095822D01*
X0242138Y0095836D01*
X0242226Y0095846D01*
X0242314Y0095852D01*
X0242402Y0095854D01*
X0242490Y0095852D01*
X0242578Y0095846D01*
X0242666Y0095836D01*
X0242754Y0095822D01*
X0242840Y0095805D01*
X0242926Y0095783D01*
X0243010Y0095758D01*
X0243094Y0095728D01*
X0243176Y0095696D01*
X0243256Y0095659D01*
X0243335Y0095619D01*
X0243412Y0095575D01*
X0243487Y0095528D01*
X0243559Y0095478D01*
X0243630Y0095424D01*
X0243697Y0095368D01*
X0243763Y0095308D01*
X0243825Y0095246D01*
X0243885Y0095180D01*
X0243941Y0095113D01*
X0243995Y0095042D01*
X0244045Y0094970D01*
X0244092Y0094895D01*
X0244136Y0094818D01*
X0244176Y0094739D01*
X0244213Y0094659D01*
X0244245Y0094577D01*
X0244275Y0094493D01*
X0244300Y0094409D01*
X0244322Y0094323D01*
X0244339Y0094237D01*
X0244353Y0094149D01*
X0244363Y0094061D01*
X0244369Y0093973D01*
X0244371Y0093885D01*
X0244369Y0093797D01*
X0244363Y0093709D01*
X0244353Y0093621D01*
X0244339Y0093533D01*
X0244322Y0093447D01*
X0244300Y0093361D01*
X0244275Y0093277D01*
X0244245Y0093193D01*
X0244213Y0093111D01*
X0244176Y0093031D01*
X0244136Y0092952D01*
X0244092Y0092875D01*
X0244045Y0092800D01*
X0243995Y0092728D01*
X0243941Y0092657D01*
X0243885Y0092590D01*
X0243825Y0092524D01*
X0243763Y0092462D01*
X0243697Y0092402D01*
X0243630Y0092346D01*
X0243559Y0092292D01*
X0243487Y0092242D01*
X0243412Y0092195D01*
X0243335Y0092151D01*
X0243256Y0092111D01*
X0243176Y0092074D01*
X0243094Y0092042D01*
X0243010Y0092012D01*
X0242926Y0091987D01*
X0242840Y0091965D01*
X0242754Y0091948D01*
X0242666Y0091934D01*
X0242578Y0091924D01*
X0242490Y0091918D01*
X0242402Y0091916D01*
X0242314Y0091918D01*
X0242226Y0091924D01*
X0242138Y0091934D01*
X0242050Y0091948D01*
X0241964Y0091965D01*
X0241878Y0091987D01*
X0241794Y0092012D01*
X0241710Y0092042D01*
X0241628Y0092074D01*
X0241548Y0092111D01*
X0241469Y0092151D01*
X0241392Y0092195D01*
X0241317Y0092242D01*
X0241245Y0092292D01*
X0241174Y0092346D01*
X0241107Y0092402D01*
X0241041Y0092462D01*
X0240979Y0092524D01*
X0240919Y0092590D01*
X0240863Y0092657D01*
X0240809Y0092728D01*
X0240759Y0092800D01*
X0240712Y0092875D01*
X0240668Y0092952D01*
X0240628Y0093031D01*
X0240591Y0093111D01*
X0240559Y0093193D01*
X0240529Y0093277D01*
X0240504Y0093361D01*
X0240482Y0093447D01*
X0240465Y0093533D01*
X0240451Y0093621D01*
X0240441Y0093709D01*
X0240435Y0093797D01*
X0240433Y0093885D01*
X0275866Y0111601D02*
X0275868Y0111754D01*
X0275874Y0111908D01*
X0275884Y0112061D01*
X0275898Y0112213D01*
X0275916Y0112366D01*
X0275938Y0112517D01*
X0275963Y0112668D01*
X0275993Y0112819D01*
X0276027Y0112969D01*
X0276064Y0113117D01*
X0276105Y0113265D01*
X0276150Y0113411D01*
X0276199Y0113557D01*
X0276252Y0113701D01*
X0276308Y0113843D01*
X0276368Y0113984D01*
X0276432Y0114124D01*
X0276499Y0114262D01*
X0276570Y0114398D01*
X0276645Y0114532D01*
X0276722Y0114664D01*
X0276804Y0114794D01*
X0276888Y0114922D01*
X0276976Y0115048D01*
X0277067Y0115171D01*
X0277161Y0115292D01*
X0277259Y0115410D01*
X0277359Y0115526D01*
X0277463Y0115639D01*
X0277569Y0115750D01*
X0277678Y0115858D01*
X0277790Y0115963D01*
X0277904Y0116064D01*
X0278022Y0116163D01*
X0278141Y0116259D01*
X0278263Y0116352D01*
X0278388Y0116441D01*
X0278515Y0116528D01*
X0278644Y0116610D01*
X0278775Y0116690D01*
X0278908Y0116766D01*
X0279043Y0116839D01*
X0279180Y0116908D01*
X0279319Y0116973D01*
X0279459Y0117035D01*
X0279601Y0117093D01*
X0279744Y0117148D01*
X0279889Y0117199D01*
X0280035Y0117246D01*
X0280182Y0117289D01*
X0280330Y0117328D01*
X0280479Y0117364D01*
X0280629Y0117395D01*
X0280780Y0117423D01*
X0280931Y0117447D01*
X0281084Y0117467D01*
X0281236Y0117483D01*
X0281389Y0117495D01*
X0281542Y0117503D01*
X0281695Y0117507D01*
X0281849Y0117507D01*
X0282002Y0117503D01*
X0282155Y0117495D01*
X0282308Y0117483D01*
X0282460Y0117467D01*
X0282613Y0117447D01*
X0282764Y0117423D01*
X0282915Y0117395D01*
X0283065Y0117364D01*
X0283214Y0117328D01*
X0283362Y0117289D01*
X0283509Y0117246D01*
X0283655Y0117199D01*
X0283800Y0117148D01*
X0283943Y0117093D01*
X0284085Y0117035D01*
X0284225Y0116973D01*
X0284364Y0116908D01*
X0284501Y0116839D01*
X0284636Y0116766D01*
X0284769Y0116690D01*
X0284900Y0116610D01*
X0285029Y0116528D01*
X0285156Y0116441D01*
X0285281Y0116352D01*
X0285403Y0116259D01*
X0285522Y0116163D01*
X0285640Y0116064D01*
X0285754Y0115963D01*
X0285866Y0115858D01*
X0285975Y0115750D01*
X0286081Y0115639D01*
X0286185Y0115526D01*
X0286285Y0115410D01*
X0286383Y0115292D01*
X0286477Y0115171D01*
X0286568Y0115048D01*
X0286656Y0114922D01*
X0286740Y0114794D01*
X0286822Y0114664D01*
X0286899Y0114532D01*
X0286974Y0114398D01*
X0287045Y0114262D01*
X0287112Y0114124D01*
X0287176Y0113984D01*
X0287236Y0113843D01*
X0287292Y0113701D01*
X0287345Y0113557D01*
X0287394Y0113411D01*
X0287439Y0113265D01*
X0287480Y0113117D01*
X0287517Y0112969D01*
X0287551Y0112819D01*
X0287581Y0112668D01*
X0287606Y0112517D01*
X0287628Y0112366D01*
X0287646Y0112213D01*
X0287660Y0112061D01*
X0287670Y0111908D01*
X0287676Y0111754D01*
X0287678Y0111601D01*
X0287676Y0111448D01*
X0287670Y0111294D01*
X0287660Y0111141D01*
X0287646Y0110989D01*
X0287628Y0110836D01*
X0287606Y0110685D01*
X0287581Y0110534D01*
X0287551Y0110383D01*
X0287517Y0110233D01*
X0287480Y0110085D01*
X0287439Y0109937D01*
X0287394Y0109791D01*
X0287345Y0109645D01*
X0287292Y0109501D01*
X0287236Y0109359D01*
X0287176Y0109218D01*
X0287112Y0109078D01*
X0287045Y0108940D01*
X0286974Y0108804D01*
X0286899Y0108670D01*
X0286822Y0108538D01*
X0286740Y0108408D01*
X0286656Y0108280D01*
X0286568Y0108154D01*
X0286477Y0108031D01*
X0286383Y0107910D01*
X0286285Y0107792D01*
X0286185Y0107676D01*
X0286081Y0107563D01*
X0285975Y0107452D01*
X0285866Y0107344D01*
X0285754Y0107239D01*
X0285640Y0107138D01*
X0285522Y0107039D01*
X0285403Y0106943D01*
X0285281Y0106850D01*
X0285156Y0106761D01*
X0285029Y0106674D01*
X0284900Y0106592D01*
X0284769Y0106512D01*
X0284636Y0106436D01*
X0284501Y0106363D01*
X0284364Y0106294D01*
X0284225Y0106229D01*
X0284085Y0106167D01*
X0283943Y0106109D01*
X0283800Y0106054D01*
X0283655Y0106003D01*
X0283509Y0105956D01*
X0283362Y0105913D01*
X0283214Y0105874D01*
X0283065Y0105838D01*
X0282915Y0105807D01*
X0282764Y0105779D01*
X0282613Y0105755D01*
X0282460Y0105735D01*
X0282308Y0105719D01*
X0282155Y0105707D01*
X0282002Y0105699D01*
X0281849Y0105695D01*
X0281695Y0105695D01*
X0281542Y0105699D01*
X0281389Y0105707D01*
X0281236Y0105719D01*
X0281084Y0105735D01*
X0280931Y0105755D01*
X0280780Y0105779D01*
X0280629Y0105807D01*
X0280479Y0105838D01*
X0280330Y0105874D01*
X0280182Y0105913D01*
X0280035Y0105956D01*
X0279889Y0106003D01*
X0279744Y0106054D01*
X0279601Y0106109D01*
X0279459Y0106167D01*
X0279319Y0106229D01*
X0279180Y0106294D01*
X0279043Y0106363D01*
X0278908Y0106436D01*
X0278775Y0106512D01*
X0278644Y0106592D01*
X0278515Y0106674D01*
X0278388Y0106761D01*
X0278263Y0106850D01*
X0278141Y0106943D01*
X0278022Y0107039D01*
X0277904Y0107138D01*
X0277790Y0107239D01*
X0277678Y0107344D01*
X0277569Y0107452D01*
X0277463Y0107563D01*
X0277359Y0107676D01*
X0277259Y0107792D01*
X0277161Y0107910D01*
X0277067Y0108031D01*
X0276976Y0108154D01*
X0276888Y0108280D01*
X0276804Y0108408D01*
X0276722Y0108538D01*
X0276645Y0108670D01*
X0276570Y0108804D01*
X0276499Y0108940D01*
X0276432Y0109078D01*
X0276368Y0109218D01*
X0276308Y0109359D01*
X0276252Y0109501D01*
X0276199Y0109645D01*
X0276150Y0109791D01*
X0276105Y0109937D01*
X0276064Y0110085D01*
X0276027Y0110233D01*
X0275993Y0110383D01*
X0275963Y0110534D01*
X0275938Y0110685D01*
X0275916Y0110836D01*
X0275898Y0110989D01*
X0275884Y0111141D01*
X0275874Y0111294D01*
X0275868Y0111448D01*
X0275866Y0111601D01*
X0239843Y0064357D02*
X0239845Y0064458D01*
X0239851Y0064559D01*
X0239861Y0064660D01*
X0239875Y0064760D01*
X0239893Y0064859D01*
X0239915Y0064958D01*
X0239940Y0065056D01*
X0239970Y0065153D01*
X0240003Y0065248D01*
X0240040Y0065342D01*
X0240081Y0065435D01*
X0240125Y0065526D01*
X0240173Y0065615D01*
X0240225Y0065702D01*
X0240280Y0065787D01*
X0240338Y0065869D01*
X0240399Y0065950D01*
X0240464Y0066028D01*
X0240531Y0066103D01*
X0240601Y0066175D01*
X0240675Y0066245D01*
X0240751Y0066312D01*
X0240829Y0066376D01*
X0240910Y0066436D01*
X0240993Y0066493D01*
X0241079Y0066547D01*
X0241167Y0066598D01*
X0241256Y0066645D01*
X0241347Y0066689D01*
X0241440Y0066728D01*
X0241535Y0066765D01*
X0241630Y0066797D01*
X0241727Y0066826D01*
X0241826Y0066850D01*
X0241924Y0066871D01*
X0242024Y0066888D01*
X0242124Y0066901D01*
X0242225Y0066910D01*
X0242326Y0066915D01*
X0242427Y0066916D01*
X0242528Y0066913D01*
X0242629Y0066906D01*
X0242730Y0066895D01*
X0242830Y0066880D01*
X0242929Y0066861D01*
X0243028Y0066838D01*
X0243125Y0066812D01*
X0243222Y0066781D01*
X0243317Y0066747D01*
X0243410Y0066709D01*
X0243503Y0066667D01*
X0243593Y0066622D01*
X0243682Y0066573D01*
X0243768Y0066521D01*
X0243852Y0066465D01*
X0243935Y0066406D01*
X0244014Y0066344D01*
X0244092Y0066279D01*
X0244166Y0066211D01*
X0244238Y0066139D01*
X0244307Y0066066D01*
X0244373Y0065989D01*
X0244436Y0065910D01*
X0244496Y0065828D01*
X0244552Y0065744D01*
X0244605Y0065658D01*
X0244655Y0065570D01*
X0244701Y0065480D01*
X0244744Y0065389D01*
X0244783Y0065295D01*
X0244818Y0065200D01*
X0244849Y0065104D01*
X0244877Y0065007D01*
X0244901Y0064909D01*
X0244921Y0064810D01*
X0244937Y0064710D01*
X0244949Y0064609D01*
X0244957Y0064509D01*
X0244961Y0064408D01*
X0244961Y0064306D01*
X0244957Y0064205D01*
X0244949Y0064105D01*
X0244937Y0064004D01*
X0244921Y0063904D01*
X0244901Y0063805D01*
X0244877Y0063707D01*
X0244849Y0063610D01*
X0244818Y0063514D01*
X0244783Y0063419D01*
X0244744Y0063325D01*
X0244701Y0063234D01*
X0244655Y0063144D01*
X0244605Y0063056D01*
X0244552Y0062970D01*
X0244496Y0062886D01*
X0244436Y0062804D01*
X0244373Y0062725D01*
X0244307Y0062648D01*
X0244238Y0062575D01*
X0244166Y0062503D01*
X0244092Y0062435D01*
X0244014Y0062370D01*
X0243935Y0062308D01*
X0243852Y0062249D01*
X0243768Y0062193D01*
X0243681Y0062141D01*
X0243593Y0062092D01*
X0243503Y0062047D01*
X0243410Y0062005D01*
X0243317Y0061967D01*
X0243222Y0061933D01*
X0243125Y0061902D01*
X0243028Y0061876D01*
X0242929Y0061853D01*
X0242830Y0061834D01*
X0242730Y0061819D01*
X0242629Y0061808D01*
X0242528Y0061801D01*
X0242427Y0061798D01*
X0242326Y0061799D01*
X0242225Y0061804D01*
X0242124Y0061813D01*
X0242024Y0061826D01*
X0241924Y0061843D01*
X0241826Y0061864D01*
X0241727Y0061888D01*
X0241630Y0061917D01*
X0241535Y0061949D01*
X0241440Y0061986D01*
X0241347Y0062025D01*
X0241256Y0062069D01*
X0241167Y0062116D01*
X0241079Y0062167D01*
X0240993Y0062221D01*
X0240910Y0062278D01*
X0240829Y0062338D01*
X0240751Y0062402D01*
X0240675Y0062469D01*
X0240601Y0062539D01*
X0240531Y0062611D01*
X0240464Y0062686D01*
X0240399Y0062764D01*
X0240338Y0062845D01*
X0240280Y0062927D01*
X0240225Y0063012D01*
X0240173Y0063099D01*
X0240125Y0063188D01*
X0240081Y0063279D01*
X0240040Y0063372D01*
X0240003Y0063466D01*
X0239970Y0063561D01*
X0239940Y0063658D01*
X0239915Y0063756D01*
X0239893Y0063855D01*
X0239875Y0063954D01*
X0239861Y0064054D01*
X0239851Y0064155D01*
X0239845Y0064256D01*
X0239843Y0064357D01*
X0275866Y0017113D02*
X0275868Y0017266D01*
X0275874Y0017420D01*
X0275884Y0017573D01*
X0275898Y0017725D01*
X0275916Y0017878D01*
X0275938Y0018029D01*
X0275963Y0018180D01*
X0275993Y0018331D01*
X0276027Y0018481D01*
X0276064Y0018629D01*
X0276105Y0018777D01*
X0276150Y0018923D01*
X0276199Y0019069D01*
X0276252Y0019213D01*
X0276308Y0019355D01*
X0276368Y0019496D01*
X0276432Y0019636D01*
X0276499Y0019774D01*
X0276570Y0019910D01*
X0276645Y0020044D01*
X0276722Y0020176D01*
X0276804Y0020306D01*
X0276888Y0020434D01*
X0276976Y0020560D01*
X0277067Y0020683D01*
X0277161Y0020804D01*
X0277259Y0020922D01*
X0277359Y0021038D01*
X0277463Y0021151D01*
X0277569Y0021262D01*
X0277678Y0021370D01*
X0277790Y0021475D01*
X0277904Y0021576D01*
X0278022Y0021675D01*
X0278141Y0021771D01*
X0278263Y0021864D01*
X0278388Y0021953D01*
X0278515Y0022040D01*
X0278644Y0022122D01*
X0278775Y0022202D01*
X0278908Y0022278D01*
X0279043Y0022351D01*
X0279180Y0022420D01*
X0279319Y0022485D01*
X0279459Y0022547D01*
X0279601Y0022605D01*
X0279744Y0022660D01*
X0279889Y0022711D01*
X0280035Y0022758D01*
X0280182Y0022801D01*
X0280330Y0022840D01*
X0280479Y0022876D01*
X0280629Y0022907D01*
X0280780Y0022935D01*
X0280931Y0022959D01*
X0281084Y0022979D01*
X0281236Y0022995D01*
X0281389Y0023007D01*
X0281542Y0023015D01*
X0281695Y0023019D01*
X0281849Y0023019D01*
X0282002Y0023015D01*
X0282155Y0023007D01*
X0282308Y0022995D01*
X0282460Y0022979D01*
X0282613Y0022959D01*
X0282764Y0022935D01*
X0282915Y0022907D01*
X0283065Y0022876D01*
X0283214Y0022840D01*
X0283362Y0022801D01*
X0283509Y0022758D01*
X0283655Y0022711D01*
X0283800Y0022660D01*
X0283943Y0022605D01*
X0284085Y0022547D01*
X0284225Y0022485D01*
X0284364Y0022420D01*
X0284501Y0022351D01*
X0284636Y0022278D01*
X0284769Y0022202D01*
X0284900Y0022122D01*
X0285029Y0022040D01*
X0285156Y0021953D01*
X0285281Y0021864D01*
X0285403Y0021771D01*
X0285522Y0021675D01*
X0285640Y0021576D01*
X0285754Y0021475D01*
X0285866Y0021370D01*
X0285975Y0021262D01*
X0286081Y0021151D01*
X0286185Y0021038D01*
X0286285Y0020922D01*
X0286383Y0020804D01*
X0286477Y0020683D01*
X0286568Y0020560D01*
X0286656Y0020434D01*
X0286740Y0020306D01*
X0286822Y0020176D01*
X0286899Y0020044D01*
X0286974Y0019910D01*
X0287045Y0019774D01*
X0287112Y0019636D01*
X0287176Y0019496D01*
X0287236Y0019355D01*
X0287292Y0019213D01*
X0287345Y0019069D01*
X0287394Y0018923D01*
X0287439Y0018777D01*
X0287480Y0018629D01*
X0287517Y0018481D01*
X0287551Y0018331D01*
X0287581Y0018180D01*
X0287606Y0018029D01*
X0287628Y0017878D01*
X0287646Y0017725D01*
X0287660Y0017573D01*
X0287670Y0017420D01*
X0287676Y0017266D01*
X0287678Y0017113D01*
X0287676Y0016960D01*
X0287670Y0016806D01*
X0287660Y0016653D01*
X0287646Y0016501D01*
X0287628Y0016348D01*
X0287606Y0016197D01*
X0287581Y0016046D01*
X0287551Y0015895D01*
X0287517Y0015745D01*
X0287480Y0015597D01*
X0287439Y0015449D01*
X0287394Y0015303D01*
X0287345Y0015157D01*
X0287292Y0015013D01*
X0287236Y0014871D01*
X0287176Y0014730D01*
X0287112Y0014590D01*
X0287045Y0014452D01*
X0286974Y0014316D01*
X0286899Y0014182D01*
X0286822Y0014050D01*
X0286740Y0013920D01*
X0286656Y0013792D01*
X0286568Y0013666D01*
X0286477Y0013543D01*
X0286383Y0013422D01*
X0286285Y0013304D01*
X0286185Y0013188D01*
X0286081Y0013075D01*
X0285975Y0012964D01*
X0285866Y0012856D01*
X0285754Y0012751D01*
X0285640Y0012650D01*
X0285522Y0012551D01*
X0285403Y0012455D01*
X0285281Y0012362D01*
X0285156Y0012273D01*
X0285029Y0012186D01*
X0284900Y0012104D01*
X0284769Y0012024D01*
X0284636Y0011948D01*
X0284501Y0011875D01*
X0284364Y0011806D01*
X0284225Y0011741D01*
X0284085Y0011679D01*
X0283943Y0011621D01*
X0283800Y0011566D01*
X0283655Y0011515D01*
X0283509Y0011468D01*
X0283362Y0011425D01*
X0283214Y0011386D01*
X0283065Y0011350D01*
X0282915Y0011319D01*
X0282764Y0011291D01*
X0282613Y0011267D01*
X0282460Y0011247D01*
X0282308Y0011231D01*
X0282155Y0011219D01*
X0282002Y0011211D01*
X0281849Y0011207D01*
X0281695Y0011207D01*
X0281542Y0011211D01*
X0281389Y0011219D01*
X0281236Y0011231D01*
X0281084Y0011247D01*
X0280931Y0011267D01*
X0280780Y0011291D01*
X0280629Y0011319D01*
X0280479Y0011350D01*
X0280330Y0011386D01*
X0280182Y0011425D01*
X0280035Y0011468D01*
X0279889Y0011515D01*
X0279744Y0011566D01*
X0279601Y0011621D01*
X0279459Y0011679D01*
X0279319Y0011741D01*
X0279180Y0011806D01*
X0279043Y0011875D01*
X0278908Y0011948D01*
X0278775Y0012024D01*
X0278644Y0012104D01*
X0278515Y0012186D01*
X0278388Y0012273D01*
X0278263Y0012362D01*
X0278141Y0012455D01*
X0278022Y0012551D01*
X0277904Y0012650D01*
X0277790Y0012751D01*
X0277678Y0012856D01*
X0277569Y0012964D01*
X0277463Y0013075D01*
X0277359Y0013188D01*
X0277259Y0013304D01*
X0277161Y0013422D01*
X0277067Y0013543D01*
X0276976Y0013666D01*
X0276888Y0013792D01*
X0276804Y0013920D01*
X0276722Y0014050D01*
X0276645Y0014182D01*
X0276570Y0014316D01*
X0276499Y0014452D01*
X0276432Y0014590D01*
X0276368Y0014730D01*
X0276308Y0014871D01*
X0276252Y0015013D01*
X0276199Y0015157D01*
X0276150Y0015303D01*
X0276105Y0015449D01*
X0276064Y0015597D01*
X0276027Y0015745D01*
X0275993Y0015895D01*
X0275963Y0016046D01*
X0275938Y0016197D01*
X0275916Y0016348D01*
X0275898Y0016501D01*
X0275884Y0016653D01*
X0275874Y0016806D01*
X0275868Y0016960D01*
X0275866Y0017113D01*
D11*
X0281772Y0017113D03*
X0281772Y0111601D03*
X0017992Y0111601D03*
X0017992Y0017113D03*
D12*
X0072795Y0021129D03*
X0082795Y0021129D03*
X0092795Y0021129D03*
X0102795Y0021129D03*
X0102795Y0011129D03*
X0092795Y0011129D03*
X0082795Y0011129D03*
X0072795Y0011129D03*
D13*
X0011693Y0038865D03*
X0011693Y0068196D03*
D14*
X0023622Y0063077D03*
X0023622Y0043983D03*
D15*
X0121102Y0014207D02*
X0121102Y0008207D01*
X0131102Y0008207D02*
X0131102Y0014207D01*
X0141102Y0014207D02*
X0141102Y0008207D01*
X0151102Y0008207D02*
X0151102Y0014207D01*
X0284047Y0043766D02*
X0290047Y0043766D01*
X0290047Y0053766D02*
X0284047Y0053766D01*
X0284047Y0063766D02*
X0290047Y0063766D01*
X0290047Y0073766D02*
X0284047Y0073766D01*
X0284047Y0083766D02*
X0290047Y0083766D01*
D16*
X0048150Y0096955D03*
X0048150Y0116640D03*
D17*
X0242402Y0064357D03*
D18*
X0242402Y0093885D03*
M02*
