G75*
%MOIN*%
%OFA0B0*%
%FSLAX25Y25*%
%IPPOS*%
%LPD*%
%AMOC8*
5,1,8,0,0,1.08239X$1,22.5*
%
%ADD10C,0.00000*%
%ADD11OC8,0.06000*%
%ADD12R,0.06890X0.01575*%
%ADD13R,0.10000X0.10000*%
%ADD14R,0.11811X0.04724*%
%ADD15R,0.04724X0.11811*%
%ADD16C,0.06000*%
%ADD17C,0.05512*%
%ADD18R,0.05118X0.05906*%
%ADD19R,0.05118X0.06299*%
%ADD20R,0.08799X0.04799*%
%ADD21R,0.08661X0.14173*%
%ADD22R,0.08465X0.07087*%
%ADD23R,0.02600X0.08000*%
%ADD24R,0.09055X0.16929*%
%ADD25R,0.09055X0.14409*%
%ADD26R,0.04724X0.04724*%
%ADD27R,0.02362X0.01969*%
%ADD28R,0.01969X0.02362*%
%ADD29C,0.00600*%
%ADD30C,0.02578*%
%ADD31C,0.01969*%
%ADD32C,0.02400*%
%ADD33C,0.01181*%
D10*
X0002244Y0001365D02*
X0002244Y0127349D01*
X0297520Y0127349D01*
X0297520Y0001365D01*
X0002244Y0001365D01*
X0012086Y0017113D02*
X0012088Y0017266D01*
X0012094Y0017420D01*
X0012104Y0017573D01*
X0012118Y0017725D01*
X0012136Y0017878D01*
X0012158Y0018029D01*
X0012183Y0018180D01*
X0012213Y0018331D01*
X0012247Y0018481D01*
X0012284Y0018629D01*
X0012325Y0018777D01*
X0012370Y0018923D01*
X0012419Y0019069D01*
X0012472Y0019213D01*
X0012528Y0019355D01*
X0012588Y0019496D01*
X0012652Y0019636D01*
X0012719Y0019774D01*
X0012790Y0019910D01*
X0012865Y0020044D01*
X0012942Y0020176D01*
X0013024Y0020306D01*
X0013108Y0020434D01*
X0013196Y0020560D01*
X0013287Y0020683D01*
X0013381Y0020804D01*
X0013479Y0020922D01*
X0013579Y0021038D01*
X0013683Y0021151D01*
X0013789Y0021262D01*
X0013898Y0021370D01*
X0014010Y0021475D01*
X0014124Y0021576D01*
X0014242Y0021675D01*
X0014361Y0021771D01*
X0014483Y0021864D01*
X0014608Y0021953D01*
X0014735Y0022040D01*
X0014864Y0022122D01*
X0014995Y0022202D01*
X0015128Y0022278D01*
X0015263Y0022351D01*
X0015400Y0022420D01*
X0015539Y0022485D01*
X0015679Y0022547D01*
X0015821Y0022605D01*
X0015964Y0022660D01*
X0016109Y0022711D01*
X0016255Y0022758D01*
X0016402Y0022801D01*
X0016550Y0022840D01*
X0016699Y0022876D01*
X0016849Y0022907D01*
X0017000Y0022935D01*
X0017151Y0022959D01*
X0017304Y0022979D01*
X0017456Y0022995D01*
X0017609Y0023007D01*
X0017762Y0023015D01*
X0017915Y0023019D01*
X0018069Y0023019D01*
X0018222Y0023015D01*
X0018375Y0023007D01*
X0018528Y0022995D01*
X0018680Y0022979D01*
X0018833Y0022959D01*
X0018984Y0022935D01*
X0019135Y0022907D01*
X0019285Y0022876D01*
X0019434Y0022840D01*
X0019582Y0022801D01*
X0019729Y0022758D01*
X0019875Y0022711D01*
X0020020Y0022660D01*
X0020163Y0022605D01*
X0020305Y0022547D01*
X0020445Y0022485D01*
X0020584Y0022420D01*
X0020721Y0022351D01*
X0020856Y0022278D01*
X0020989Y0022202D01*
X0021120Y0022122D01*
X0021249Y0022040D01*
X0021376Y0021953D01*
X0021501Y0021864D01*
X0021623Y0021771D01*
X0021742Y0021675D01*
X0021860Y0021576D01*
X0021974Y0021475D01*
X0022086Y0021370D01*
X0022195Y0021262D01*
X0022301Y0021151D01*
X0022405Y0021038D01*
X0022505Y0020922D01*
X0022603Y0020804D01*
X0022697Y0020683D01*
X0022788Y0020560D01*
X0022876Y0020434D01*
X0022960Y0020306D01*
X0023042Y0020176D01*
X0023119Y0020044D01*
X0023194Y0019910D01*
X0023265Y0019774D01*
X0023332Y0019636D01*
X0023396Y0019496D01*
X0023456Y0019355D01*
X0023512Y0019213D01*
X0023565Y0019069D01*
X0023614Y0018923D01*
X0023659Y0018777D01*
X0023700Y0018629D01*
X0023737Y0018481D01*
X0023771Y0018331D01*
X0023801Y0018180D01*
X0023826Y0018029D01*
X0023848Y0017878D01*
X0023866Y0017725D01*
X0023880Y0017573D01*
X0023890Y0017420D01*
X0023896Y0017266D01*
X0023898Y0017113D01*
X0023896Y0016960D01*
X0023890Y0016806D01*
X0023880Y0016653D01*
X0023866Y0016501D01*
X0023848Y0016348D01*
X0023826Y0016197D01*
X0023801Y0016046D01*
X0023771Y0015895D01*
X0023737Y0015745D01*
X0023700Y0015597D01*
X0023659Y0015449D01*
X0023614Y0015303D01*
X0023565Y0015157D01*
X0023512Y0015013D01*
X0023456Y0014871D01*
X0023396Y0014730D01*
X0023332Y0014590D01*
X0023265Y0014452D01*
X0023194Y0014316D01*
X0023119Y0014182D01*
X0023042Y0014050D01*
X0022960Y0013920D01*
X0022876Y0013792D01*
X0022788Y0013666D01*
X0022697Y0013543D01*
X0022603Y0013422D01*
X0022505Y0013304D01*
X0022405Y0013188D01*
X0022301Y0013075D01*
X0022195Y0012964D01*
X0022086Y0012856D01*
X0021974Y0012751D01*
X0021860Y0012650D01*
X0021742Y0012551D01*
X0021623Y0012455D01*
X0021501Y0012362D01*
X0021376Y0012273D01*
X0021249Y0012186D01*
X0021120Y0012104D01*
X0020989Y0012024D01*
X0020856Y0011948D01*
X0020721Y0011875D01*
X0020584Y0011806D01*
X0020445Y0011741D01*
X0020305Y0011679D01*
X0020163Y0011621D01*
X0020020Y0011566D01*
X0019875Y0011515D01*
X0019729Y0011468D01*
X0019582Y0011425D01*
X0019434Y0011386D01*
X0019285Y0011350D01*
X0019135Y0011319D01*
X0018984Y0011291D01*
X0018833Y0011267D01*
X0018680Y0011247D01*
X0018528Y0011231D01*
X0018375Y0011219D01*
X0018222Y0011211D01*
X0018069Y0011207D01*
X0017915Y0011207D01*
X0017762Y0011211D01*
X0017609Y0011219D01*
X0017456Y0011231D01*
X0017304Y0011247D01*
X0017151Y0011267D01*
X0017000Y0011291D01*
X0016849Y0011319D01*
X0016699Y0011350D01*
X0016550Y0011386D01*
X0016402Y0011425D01*
X0016255Y0011468D01*
X0016109Y0011515D01*
X0015964Y0011566D01*
X0015821Y0011621D01*
X0015679Y0011679D01*
X0015539Y0011741D01*
X0015400Y0011806D01*
X0015263Y0011875D01*
X0015128Y0011948D01*
X0014995Y0012024D01*
X0014864Y0012104D01*
X0014735Y0012186D01*
X0014608Y0012273D01*
X0014483Y0012362D01*
X0014361Y0012455D01*
X0014242Y0012551D01*
X0014124Y0012650D01*
X0014010Y0012751D01*
X0013898Y0012856D01*
X0013789Y0012964D01*
X0013683Y0013075D01*
X0013579Y0013188D01*
X0013479Y0013304D01*
X0013381Y0013422D01*
X0013287Y0013543D01*
X0013196Y0013666D01*
X0013108Y0013792D01*
X0013024Y0013920D01*
X0012942Y0014050D01*
X0012865Y0014182D01*
X0012790Y0014316D01*
X0012719Y0014452D01*
X0012652Y0014590D01*
X0012588Y0014730D01*
X0012528Y0014871D01*
X0012472Y0015013D01*
X0012419Y0015157D01*
X0012370Y0015303D01*
X0012325Y0015449D01*
X0012284Y0015597D01*
X0012247Y0015745D01*
X0012213Y0015895D01*
X0012183Y0016046D01*
X0012158Y0016197D01*
X0012136Y0016348D01*
X0012118Y0016501D01*
X0012104Y0016653D01*
X0012094Y0016806D01*
X0012088Y0016960D01*
X0012086Y0017113D01*
X0021555Y0043983D02*
X0021557Y0044074D01*
X0021563Y0044164D01*
X0021573Y0044255D01*
X0021587Y0044344D01*
X0021605Y0044433D01*
X0021626Y0044522D01*
X0021652Y0044609D01*
X0021681Y0044695D01*
X0021715Y0044779D01*
X0021751Y0044862D01*
X0021792Y0044944D01*
X0021836Y0045023D01*
X0021883Y0045101D01*
X0021934Y0045176D01*
X0021988Y0045249D01*
X0022045Y0045319D01*
X0022105Y0045387D01*
X0022168Y0045453D01*
X0022234Y0045515D01*
X0022303Y0045574D01*
X0022374Y0045631D01*
X0022448Y0045684D01*
X0022524Y0045734D01*
X0022602Y0045781D01*
X0022682Y0045824D01*
X0022763Y0045863D01*
X0022847Y0045899D01*
X0022932Y0045931D01*
X0023018Y0045960D01*
X0023105Y0045984D01*
X0023194Y0046005D01*
X0023283Y0046022D01*
X0023373Y0046035D01*
X0023463Y0046044D01*
X0023554Y0046049D01*
X0023645Y0046050D01*
X0023735Y0046047D01*
X0023826Y0046040D01*
X0023916Y0046029D01*
X0024006Y0046014D01*
X0024095Y0045995D01*
X0024183Y0045973D01*
X0024269Y0045946D01*
X0024355Y0045916D01*
X0024439Y0045882D01*
X0024522Y0045844D01*
X0024603Y0045803D01*
X0024682Y0045758D01*
X0024759Y0045709D01*
X0024833Y0045658D01*
X0024906Y0045603D01*
X0024976Y0045545D01*
X0025043Y0045484D01*
X0025107Y0045420D01*
X0025169Y0045354D01*
X0025228Y0045284D01*
X0025283Y0045213D01*
X0025336Y0045138D01*
X0025385Y0045062D01*
X0025431Y0044984D01*
X0025473Y0044903D01*
X0025512Y0044821D01*
X0025547Y0044737D01*
X0025578Y0044652D01*
X0025605Y0044565D01*
X0025629Y0044478D01*
X0025649Y0044389D01*
X0025665Y0044300D01*
X0025677Y0044210D01*
X0025685Y0044119D01*
X0025689Y0044028D01*
X0025689Y0043938D01*
X0025685Y0043847D01*
X0025677Y0043756D01*
X0025665Y0043666D01*
X0025649Y0043577D01*
X0025629Y0043488D01*
X0025605Y0043401D01*
X0025578Y0043314D01*
X0025547Y0043229D01*
X0025512Y0043145D01*
X0025473Y0043063D01*
X0025431Y0042982D01*
X0025385Y0042904D01*
X0025336Y0042828D01*
X0025283Y0042753D01*
X0025228Y0042682D01*
X0025169Y0042612D01*
X0025107Y0042546D01*
X0025043Y0042482D01*
X0024976Y0042421D01*
X0024906Y0042363D01*
X0024833Y0042308D01*
X0024759Y0042257D01*
X0024682Y0042208D01*
X0024603Y0042163D01*
X0024522Y0042122D01*
X0024439Y0042084D01*
X0024355Y0042050D01*
X0024269Y0042020D01*
X0024183Y0041993D01*
X0024095Y0041971D01*
X0024006Y0041952D01*
X0023916Y0041937D01*
X0023826Y0041926D01*
X0023735Y0041919D01*
X0023645Y0041916D01*
X0023554Y0041917D01*
X0023463Y0041922D01*
X0023373Y0041931D01*
X0023283Y0041944D01*
X0023194Y0041961D01*
X0023105Y0041982D01*
X0023018Y0042006D01*
X0022932Y0042035D01*
X0022847Y0042067D01*
X0022763Y0042103D01*
X0022682Y0042142D01*
X0022602Y0042185D01*
X0022524Y0042232D01*
X0022448Y0042282D01*
X0022374Y0042335D01*
X0022303Y0042392D01*
X0022234Y0042451D01*
X0022168Y0042513D01*
X0022105Y0042579D01*
X0022045Y0042647D01*
X0021988Y0042717D01*
X0021934Y0042790D01*
X0021883Y0042865D01*
X0021836Y0042943D01*
X0021792Y0043022D01*
X0021751Y0043104D01*
X0021715Y0043187D01*
X0021681Y0043271D01*
X0021652Y0043357D01*
X0021626Y0043444D01*
X0021605Y0043533D01*
X0021587Y0043622D01*
X0021573Y0043711D01*
X0021563Y0043802D01*
X0021557Y0043892D01*
X0021555Y0043983D01*
X0021555Y0063077D02*
X0021557Y0063168D01*
X0021563Y0063258D01*
X0021573Y0063349D01*
X0021587Y0063438D01*
X0021605Y0063527D01*
X0021626Y0063616D01*
X0021652Y0063703D01*
X0021681Y0063789D01*
X0021715Y0063873D01*
X0021751Y0063956D01*
X0021792Y0064038D01*
X0021836Y0064117D01*
X0021883Y0064195D01*
X0021934Y0064270D01*
X0021988Y0064343D01*
X0022045Y0064413D01*
X0022105Y0064481D01*
X0022168Y0064547D01*
X0022234Y0064609D01*
X0022303Y0064668D01*
X0022374Y0064725D01*
X0022448Y0064778D01*
X0022524Y0064828D01*
X0022602Y0064875D01*
X0022682Y0064918D01*
X0022763Y0064957D01*
X0022847Y0064993D01*
X0022932Y0065025D01*
X0023018Y0065054D01*
X0023105Y0065078D01*
X0023194Y0065099D01*
X0023283Y0065116D01*
X0023373Y0065129D01*
X0023463Y0065138D01*
X0023554Y0065143D01*
X0023645Y0065144D01*
X0023735Y0065141D01*
X0023826Y0065134D01*
X0023916Y0065123D01*
X0024006Y0065108D01*
X0024095Y0065089D01*
X0024183Y0065067D01*
X0024269Y0065040D01*
X0024355Y0065010D01*
X0024439Y0064976D01*
X0024522Y0064938D01*
X0024603Y0064897D01*
X0024682Y0064852D01*
X0024759Y0064803D01*
X0024833Y0064752D01*
X0024906Y0064697D01*
X0024976Y0064639D01*
X0025043Y0064578D01*
X0025107Y0064514D01*
X0025169Y0064448D01*
X0025228Y0064378D01*
X0025283Y0064307D01*
X0025336Y0064232D01*
X0025385Y0064156D01*
X0025431Y0064078D01*
X0025473Y0063997D01*
X0025512Y0063915D01*
X0025547Y0063831D01*
X0025578Y0063746D01*
X0025605Y0063659D01*
X0025629Y0063572D01*
X0025649Y0063483D01*
X0025665Y0063394D01*
X0025677Y0063304D01*
X0025685Y0063213D01*
X0025689Y0063122D01*
X0025689Y0063032D01*
X0025685Y0062941D01*
X0025677Y0062850D01*
X0025665Y0062760D01*
X0025649Y0062671D01*
X0025629Y0062582D01*
X0025605Y0062495D01*
X0025578Y0062408D01*
X0025547Y0062323D01*
X0025512Y0062239D01*
X0025473Y0062157D01*
X0025431Y0062076D01*
X0025385Y0061998D01*
X0025336Y0061922D01*
X0025283Y0061847D01*
X0025228Y0061776D01*
X0025169Y0061706D01*
X0025107Y0061640D01*
X0025043Y0061576D01*
X0024976Y0061515D01*
X0024906Y0061457D01*
X0024833Y0061402D01*
X0024759Y0061351D01*
X0024682Y0061302D01*
X0024603Y0061257D01*
X0024522Y0061216D01*
X0024439Y0061178D01*
X0024355Y0061144D01*
X0024269Y0061114D01*
X0024183Y0061087D01*
X0024095Y0061065D01*
X0024006Y0061046D01*
X0023916Y0061031D01*
X0023826Y0061020D01*
X0023735Y0061013D01*
X0023645Y0061010D01*
X0023554Y0061011D01*
X0023463Y0061016D01*
X0023373Y0061025D01*
X0023283Y0061038D01*
X0023194Y0061055D01*
X0023105Y0061076D01*
X0023018Y0061100D01*
X0022932Y0061129D01*
X0022847Y0061161D01*
X0022763Y0061197D01*
X0022682Y0061236D01*
X0022602Y0061279D01*
X0022524Y0061326D01*
X0022448Y0061376D01*
X0022374Y0061429D01*
X0022303Y0061486D01*
X0022234Y0061545D01*
X0022168Y0061607D01*
X0022105Y0061673D01*
X0022045Y0061741D01*
X0021988Y0061811D01*
X0021934Y0061884D01*
X0021883Y0061959D01*
X0021836Y0062037D01*
X0021792Y0062116D01*
X0021751Y0062198D01*
X0021715Y0062281D01*
X0021681Y0062365D01*
X0021652Y0062451D01*
X0021626Y0062538D01*
X0021605Y0062627D01*
X0021587Y0062716D01*
X0021573Y0062805D01*
X0021563Y0062896D01*
X0021557Y0062986D01*
X0021555Y0063077D01*
X0012086Y0111601D02*
X0012088Y0111754D01*
X0012094Y0111908D01*
X0012104Y0112061D01*
X0012118Y0112213D01*
X0012136Y0112366D01*
X0012158Y0112517D01*
X0012183Y0112668D01*
X0012213Y0112819D01*
X0012247Y0112969D01*
X0012284Y0113117D01*
X0012325Y0113265D01*
X0012370Y0113411D01*
X0012419Y0113557D01*
X0012472Y0113701D01*
X0012528Y0113843D01*
X0012588Y0113984D01*
X0012652Y0114124D01*
X0012719Y0114262D01*
X0012790Y0114398D01*
X0012865Y0114532D01*
X0012942Y0114664D01*
X0013024Y0114794D01*
X0013108Y0114922D01*
X0013196Y0115048D01*
X0013287Y0115171D01*
X0013381Y0115292D01*
X0013479Y0115410D01*
X0013579Y0115526D01*
X0013683Y0115639D01*
X0013789Y0115750D01*
X0013898Y0115858D01*
X0014010Y0115963D01*
X0014124Y0116064D01*
X0014242Y0116163D01*
X0014361Y0116259D01*
X0014483Y0116352D01*
X0014608Y0116441D01*
X0014735Y0116528D01*
X0014864Y0116610D01*
X0014995Y0116690D01*
X0015128Y0116766D01*
X0015263Y0116839D01*
X0015400Y0116908D01*
X0015539Y0116973D01*
X0015679Y0117035D01*
X0015821Y0117093D01*
X0015964Y0117148D01*
X0016109Y0117199D01*
X0016255Y0117246D01*
X0016402Y0117289D01*
X0016550Y0117328D01*
X0016699Y0117364D01*
X0016849Y0117395D01*
X0017000Y0117423D01*
X0017151Y0117447D01*
X0017304Y0117467D01*
X0017456Y0117483D01*
X0017609Y0117495D01*
X0017762Y0117503D01*
X0017915Y0117507D01*
X0018069Y0117507D01*
X0018222Y0117503D01*
X0018375Y0117495D01*
X0018528Y0117483D01*
X0018680Y0117467D01*
X0018833Y0117447D01*
X0018984Y0117423D01*
X0019135Y0117395D01*
X0019285Y0117364D01*
X0019434Y0117328D01*
X0019582Y0117289D01*
X0019729Y0117246D01*
X0019875Y0117199D01*
X0020020Y0117148D01*
X0020163Y0117093D01*
X0020305Y0117035D01*
X0020445Y0116973D01*
X0020584Y0116908D01*
X0020721Y0116839D01*
X0020856Y0116766D01*
X0020989Y0116690D01*
X0021120Y0116610D01*
X0021249Y0116528D01*
X0021376Y0116441D01*
X0021501Y0116352D01*
X0021623Y0116259D01*
X0021742Y0116163D01*
X0021860Y0116064D01*
X0021974Y0115963D01*
X0022086Y0115858D01*
X0022195Y0115750D01*
X0022301Y0115639D01*
X0022405Y0115526D01*
X0022505Y0115410D01*
X0022603Y0115292D01*
X0022697Y0115171D01*
X0022788Y0115048D01*
X0022876Y0114922D01*
X0022960Y0114794D01*
X0023042Y0114664D01*
X0023119Y0114532D01*
X0023194Y0114398D01*
X0023265Y0114262D01*
X0023332Y0114124D01*
X0023396Y0113984D01*
X0023456Y0113843D01*
X0023512Y0113701D01*
X0023565Y0113557D01*
X0023614Y0113411D01*
X0023659Y0113265D01*
X0023700Y0113117D01*
X0023737Y0112969D01*
X0023771Y0112819D01*
X0023801Y0112668D01*
X0023826Y0112517D01*
X0023848Y0112366D01*
X0023866Y0112213D01*
X0023880Y0112061D01*
X0023890Y0111908D01*
X0023896Y0111754D01*
X0023898Y0111601D01*
X0023896Y0111448D01*
X0023890Y0111294D01*
X0023880Y0111141D01*
X0023866Y0110989D01*
X0023848Y0110836D01*
X0023826Y0110685D01*
X0023801Y0110534D01*
X0023771Y0110383D01*
X0023737Y0110233D01*
X0023700Y0110085D01*
X0023659Y0109937D01*
X0023614Y0109791D01*
X0023565Y0109645D01*
X0023512Y0109501D01*
X0023456Y0109359D01*
X0023396Y0109218D01*
X0023332Y0109078D01*
X0023265Y0108940D01*
X0023194Y0108804D01*
X0023119Y0108670D01*
X0023042Y0108538D01*
X0022960Y0108408D01*
X0022876Y0108280D01*
X0022788Y0108154D01*
X0022697Y0108031D01*
X0022603Y0107910D01*
X0022505Y0107792D01*
X0022405Y0107676D01*
X0022301Y0107563D01*
X0022195Y0107452D01*
X0022086Y0107344D01*
X0021974Y0107239D01*
X0021860Y0107138D01*
X0021742Y0107039D01*
X0021623Y0106943D01*
X0021501Y0106850D01*
X0021376Y0106761D01*
X0021249Y0106674D01*
X0021120Y0106592D01*
X0020989Y0106512D01*
X0020856Y0106436D01*
X0020721Y0106363D01*
X0020584Y0106294D01*
X0020445Y0106229D01*
X0020305Y0106167D01*
X0020163Y0106109D01*
X0020020Y0106054D01*
X0019875Y0106003D01*
X0019729Y0105956D01*
X0019582Y0105913D01*
X0019434Y0105874D01*
X0019285Y0105838D01*
X0019135Y0105807D01*
X0018984Y0105779D01*
X0018833Y0105755D01*
X0018680Y0105735D01*
X0018528Y0105719D01*
X0018375Y0105707D01*
X0018222Y0105699D01*
X0018069Y0105695D01*
X0017915Y0105695D01*
X0017762Y0105699D01*
X0017609Y0105707D01*
X0017456Y0105719D01*
X0017304Y0105735D01*
X0017151Y0105755D01*
X0017000Y0105779D01*
X0016849Y0105807D01*
X0016699Y0105838D01*
X0016550Y0105874D01*
X0016402Y0105913D01*
X0016255Y0105956D01*
X0016109Y0106003D01*
X0015964Y0106054D01*
X0015821Y0106109D01*
X0015679Y0106167D01*
X0015539Y0106229D01*
X0015400Y0106294D01*
X0015263Y0106363D01*
X0015128Y0106436D01*
X0014995Y0106512D01*
X0014864Y0106592D01*
X0014735Y0106674D01*
X0014608Y0106761D01*
X0014483Y0106850D01*
X0014361Y0106943D01*
X0014242Y0107039D01*
X0014124Y0107138D01*
X0014010Y0107239D01*
X0013898Y0107344D01*
X0013789Y0107452D01*
X0013683Y0107563D01*
X0013579Y0107676D01*
X0013479Y0107792D01*
X0013381Y0107910D01*
X0013287Y0108031D01*
X0013196Y0108154D01*
X0013108Y0108280D01*
X0013024Y0108408D01*
X0012942Y0108538D01*
X0012865Y0108670D01*
X0012790Y0108804D01*
X0012719Y0108940D01*
X0012652Y0109078D01*
X0012588Y0109218D01*
X0012528Y0109359D01*
X0012472Y0109501D01*
X0012419Y0109645D01*
X0012370Y0109791D01*
X0012325Y0109937D01*
X0012284Y0110085D01*
X0012247Y0110233D01*
X0012213Y0110383D01*
X0012183Y0110534D01*
X0012158Y0110685D01*
X0012136Y0110836D01*
X0012118Y0110989D01*
X0012104Y0111141D01*
X0012094Y0111294D01*
X0012088Y0111448D01*
X0012086Y0111601D01*
X0240433Y0093885D02*
X0240435Y0093973D01*
X0240441Y0094061D01*
X0240451Y0094149D01*
X0240465Y0094237D01*
X0240482Y0094323D01*
X0240504Y0094409D01*
X0240529Y0094493D01*
X0240559Y0094577D01*
X0240591Y0094659D01*
X0240628Y0094739D01*
X0240668Y0094818D01*
X0240712Y0094895D01*
X0240759Y0094970D01*
X0240809Y0095042D01*
X0240863Y0095113D01*
X0240919Y0095180D01*
X0240979Y0095246D01*
X0241041Y0095308D01*
X0241107Y0095368D01*
X0241174Y0095424D01*
X0241245Y0095478D01*
X0241317Y0095528D01*
X0241392Y0095575D01*
X0241469Y0095619D01*
X0241548Y0095659D01*
X0241628Y0095696D01*
X0241710Y0095728D01*
X0241794Y0095758D01*
X0241878Y0095783D01*
X0241964Y0095805D01*
X0242050Y0095822D01*
X0242138Y0095836D01*
X0242226Y0095846D01*
X0242314Y0095852D01*
X0242402Y0095854D01*
X0242490Y0095852D01*
X0242578Y0095846D01*
X0242666Y0095836D01*
X0242754Y0095822D01*
X0242840Y0095805D01*
X0242926Y0095783D01*
X0243010Y0095758D01*
X0243094Y0095728D01*
X0243176Y0095696D01*
X0243256Y0095659D01*
X0243335Y0095619D01*
X0243412Y0095575D01*
X0243487Y0095528D01*
X0243559Y0095478D01*
X0243630Y0095424D01*
X0243697Y0095368D01*
X0243763Y0095308D01*
X0243825Y0095246D01*
X0243885Y0095180D01*
X0243941Y0095113D01*
X0243995Y0095042D01*
X0244045Y0094970D01*
X0244092Y0094895D01*
X0244136Y0094818D01*
X0244176Y0094739D01*
X0244213Y0094659D01*
X0244245Y0094577D01*
X0244275Y0094493D01*
X0244300Y0094409D01*
X0244322Y0094323D01*
X0244339Y0094237D01*
X0244353Y0094149D01*
X0244363Y0094061D01*
X0244369Y0093973D01*
X0244371Y0093885D01*
X0244369Y0093797D01*
X0244363Y0093709D01*
X0244353Y0093621D01*
X0244339Y0093533D01*
X0244322Y0093447D01*
X0244300Y0093361D01*
X0244275Y0093277D01*
X0244245Y0093193D01*
X0244213Y0093111D01*
X0244176Y0093031D01*
X0244136Y0092952D01*
X0244092Y0092875D01*
X0244045Y0092800D01*
X0243995Y0092728D01*
X0243941Y0092657D01*
X0243885Y0092590D01*
X0243825Y0092524D01*
X0243763Y0092462D01*
X0243697Y0092402D01*
X0243630Y0092346D01*
X0243559Y0092292D01*
X0243487Y0092242D01*
X0243412Y0092195D01*
X0243335Y0092151D01*
X0243256Y0092111D01*
X0243176Y0092074D01*
X0243094Y0092042D01*
X0243010Y0092012D01*
X0242926Y0091987D01*
X0242840Y0091965D01*
X0242754Y0091948D01*
X0242666Y0091934D01*
X0242578Y0091924D01*
X0242490Y0091918D01*
X0242402Y0091916D01*
X0242314Y0091918D01*
X0242226Y0091924D01*
X0242138Y0091934D01*
X0242050Y0091948D01*
X0241964Y0091965D01*
X0241878Y0091987D01*
X0241794Y0092012D01*
X0241710Y0092042D01*
X0241628Y0092074D01*
X0241548Y0092111D01*
X0241469Y0092151D01*
X0241392Y0092195D01*
X0241317Y0092242D01*
X0241245Y0092292D01*
X0241174Y0092346D01*
X0241107Y0092402D01*
X0241041Y0092462D01*
X0240979Y0092524D01*
X0240919Y0092590D01*
X0240863Y0092657D01*
X0240809Y0092728D01*
X0240759Y0092800D01*
X0240712Y0092875D01*
X0240668Y0092952D01*
X0240628Y0093031D01*
X0240591Y0093111D01*
X0240559Y0093193D01*
X0240529Y0093277D01*
X0240504Y0093361D01*
X0240482Y0093447D01*
X0240465Y0093533D01*
X0240451Y0093621D01*
X0240441Y0093709D01*
X0240435Y0093797D01*
X0240433Y0093885D01*
X0275866Y0111601D02*
X0275868Y0111754D01*
X0275874Y0111908D01*
X0275884Y0112061D01*
X0275898Y0112213D01*
X0275916Y0112366D01*
X0275938Y0112517D01*
X0275963Y0112668D01*
X0275993Y0112819D01*
X0276027Y0112969D01*
X0276064Y0113117D01*
X0276105Y0113265D01*
X0276150Y0113411D01*
X0276199Y0113557D01*
X0276252Y0113701D01*
X0276308Y0113843D01*
X0276368Y0113984D01*
X0276432Y0114124D01*
X0276499Y0114262D01*
X0276570Y0114398D01*
X0276645Y0114532D01*
X0276722Y0114664D01*
X0276804Y0114794D01*
X0276888Y0114922D01*
X0276976Y0115048D01*
X0277067Y0115171D01*
X0277161Y0115292D01*
X0277259Y0115410D01*
X0277359Y0115526D01*
X0277463Y0115639D01*
X0277569Y0115750D01*
X0277678Y0115858D01*
X0277790Y0115963D01*
X0277904Y0116064D01*
X0278022Y0116163D01*
X0278141Y0116259D01*
X0278263Y0116352D01*
X0278388Y0116441D01*
X0278515Y0116528D01*
X0278644Y0116610D01*
X0278775Y0116690D01*
X0278908Y0116766D01*
X0279043Y0116839D01*
X0279180Y0116908D01*
X0279319Y0116973D01*
X0279459Y0117035D01*
X0279601Y0117093D01*
X0279744Y0117148D01*
X0279889Y0117199D01*
X0280035Y0117246D01*
X0280182Y0117289D01*
X0280330Y0117328D01*
X0280479Y0117364D01*
X0280629Y0117395D01*
X0280780Y0117423D01*
X0280931Y0117447D01*
X0281084Y0117467D01*
X0281236Y0117483D01*
X0281389Y0117495D01*
X0281542Y0117503D01*
X0281695Y0117507D01*
X0281849Y0117507D01*
X0282002Y0117503D01*
X0282155Y0117495D01*
X0282308Y0117483D01*
X0282460Y0117467D01*
X0282613Y0117447D01*
X0282764Y0117423D01*
X0282915Y0117395D01*
X0283065Y0117364D01*
X0283214Y0117328D01*
X0283362Y0117289D01*
X0283509Y0117246D01*
X0283655Y0117199D01*
X0283800Y0117148D01*
X0283943Y0117093D01*
X0284085Y0117035D01*
X0284225Y0116973D01*
X0284364Y0116908D01*
X0284501Y0116839D01*
X0284636Y0116766D01*
X0284769Y0116690D01*
X0284900Y0116610D01*
X0285029Y0116528D01*
X0285156Y0116441D01*
X0285281Y0116352D01*
X0285403Y0116259D01*
X0285522Y0116163D01*
X0285640Y0116064D01*
X0285754Y0115963D01*
X0285866Y0115858D01*
X0285975Y0115750D01*
X0286081Y0115639D01*
X0286185Y0115526D01*
X0286285Y0115410D01*
X0286383Y0115292D01*
X0286477Y0115171D01*
X0286568Y0115048D01*
X0286656Y0114922D01*
X0286740Y0114794D01*
X0286822Y0114664D01*
X0286899Y0114532D01*
X0286974Y0114398D01*
X0287045Y0114262D01*
X0287112Y0114124D01*
X0287176Y0113984D01*
X0287236Y0113843D01*
X0287292Y0113701D01*
X0287345Y0113557D01*
X0287394Y0113411D01*
X0287439Y0113265D01*
X0287480Y0113117D01*
X0287517Y0112969D01*
X0287551Y0112819D01*
X0287581Y0112668D01*
X0287606Y0112517D01*
X0287628Y0112366D01*
X0287646Y0112213D01*
X0287660Y0112061D01*
X0287670Y0111908D01*
X0287676Y0111754D01*
X0287678Y0111601D01*
X0287676Y0111448D01*
X0287670Y0111294D01*
X0287660Y0111141D01*
X0287646Y0110989D01*
X0287628Y0110836D01*
X0287606Y0110685D01*
X0287581Y0110534D01*
X0287551Y0110383D01*
X0287517Y0110233D01*
X0287480Y0110085D01*
X0287439Y0109937D01*
X0287394Y0109791D01*
X0287345Y0109645D01*
X0287292Y0109501D01*
X0287236Y0109359D01*
X0287176Y0109218D01*
X0287112Y0109078D01*
X0287045Y0108940D01*
X0286974Y0108804D01*
X0286899Y0108670D01*
X0286822Y0108538D01*
X0286740Y0108408D01*
X0286656Y0108280D01*
X0286568Y0108154D01*
X0286477Y0108031D01*
X0286383Y0107910D01*
X0286285Y0107792D01*
X0286185Y0107676D01*
X0286081Y0107563D01*
X0285975Y0107452D01*
X0285866Y0107344D01*
X0285754Y0107239D01*
X0285640Y0107138D01*
X0285522Y0107039D01*
X0285403Y0106943D01*
X0285281Y0106850D01*
X0285156Y0106761D01*
X0285029Y0106674D01*
X0284900Y0106592D01*
X0284769Y0106512D01*
X0284636Y0106436D01*
X0284501Y0106363D01*
X0284364Y0106294D01*
X0284225Y0106229D01*
X0284085Y0106167D01*
X0283943Y0106109D01*
X0283800Y0106054D01*
X0283655Y0106003D01*
X0283509Y0105956D01*
X0283362Y0105913D01*
X0283214Y0105874D01*
X0283065Y0105838D01*
X0282915Y0105807D01*
X0282764Y0105779D01*
X0282613Y0105755D01*
X0282460Y0105735D01*
X0282308Y0105719D01*
X0282155Y0105707D01*
X0282002Y0105699D01*
X0281849Y0105695D01*
X0281695Y0105695D01*
X0281542Y0105699D01*
X0281389Y0105707D01*
X0281236Y0105719D01*
X0281084Y0105735D01*
X0280931Y0105755D01*
X0280780Y0105779D01*
X0280629Y0105807D01*
X0280479Y0105838D01*
X0280330Y0105874D01*
X0280182Y0105913D01*
X0280035Y0105956D01*
X0279889Y0106003D01*
X0279744Y0106054D01*
X0279601Y0106109D01*
X0279459Y0106167D01*
X0279319Y0106229D01*
X0279180Y0106294D01*
X0279043Y0106363D01*
X0278908Y0106436D01*
X0278775Y0106512D01*
X0278644Y0106592D01*
X0278515Y0106674D01*
X0278388Y0106761D01*
X0278263Y0106850D01*
X0278141Y0106943D01*
X0278022Y0107039D01*
X0277904Y0107138D01*
X0277790Y0107239D01*
X0277678Y0107344D01*
X0277569Y0107452D01*
X0277463Y0107563D01*
X0277359Y0107676D01*
X0277259Y0107792D01*
X0277161Y0107910D01*
X0277067Y0108031D01*
X0276976Y0108154D01*
X0276888Y0108280D01*
X0276804Y0108408D01*
X0276722Y0108538D01*
X0276645Y0108670D01*
X0276570Y0108804D01*
X0276499Y0108940D01*
X0276432Y0109078D01*
X0276368Y0109218D01*
X0276308Y0109359D01*
X0276252Y0109501D01*
X0276199Y0109645D01*
X0276150Y0109791D01*
X0276105Y0109937D01*
X0276064Y0110085D01*
X0276027Y0110233D01*
X0275993Y0110383D01*
X0275963Y0110534D01*
X0275938Y0110685D01*
X0275916Y0110836D01*
X0275898Y0110989D01*
X0275884Y0111141D01*
X0275874Y0111294D01*
X0275868Y0111448D01*
X0275866Y0111601D01*
X0239843Y0064357D02*
X0239845Y0064458D01*
X0239851Y0064559D01*
X0239861Y0064660D01*
X0239875Y0064760D01*
X0239893Y0064859D01*
X0239915Y0064958D01*
X0239940Y0065056D01*
X0239970Y0065153D01*
X0240003Y0065248D01*
X0240040Y0065342D01*
X0240081Y0065435D01*
X0240125Y0065526D01*
X0240173Y0065615D01*
X0240225Y0065702D01*
X0240280Y0065787D01*
X0240338Y0065869D01*
X0240399Y0065950D01*
X0240464Y0066028D01*
X0240531Y0066103D01*
X0240601Y0066175D01*
X0240675Y0066245D01*
X0240751Y0066312D01*
X0240829Y0066376D01*
X0240910Y0066436D01*
X0240993Y0066493D01*
X0241079Y0066547D01*
X0241167Y0066598D01*
X0241256Y0066645D01*
X0241347Y0066689D01*
X0241440Y0066728D01*
X0241535Y0066765D01*
X0241630Y0066797D01*
X0241727Y0066826D01*
X0241826Y0066850D01*
X0241924Y0066871D01*
X0242024Y0066888D01*
X0242124Y0066901D01*
X0242225Y0066910D01*
X0242326Y0066915D01*
X0242427Y0066916D01*
X0242528Y0066913D01*
X0242629Y0066906D01*
X0242730Y0066895D01*
X0242830Y0066880D01*
X0242929Y0066861D01*
X0243028Y0066838D01*
X0243125Y0066812D01*
X0243222Y0066781D01*
X0243317Y0066747D01*
X0243410Y0066709D01*
X0243503Y0066667D01*
X0243593Y0066622D01*
X0243682Y0066573D01*
X0243768Y0066521D01*
X0243852Y0066465D01*
X0243935Y0066406D01*
X0244014Y0066344D01*
X0244092Y0066279D01*
X0244166Y0066211D01*
X0244238Y0066139D01*
X0244307Y0066066D01*
X0244373Y0065989D01*
X0244436Y0065910D01*
X0244496Y0065828D01*
X0244552Y0065744D01*
X0244605Y0065658D01*
X0244655Y0065570D01*
X0244701Y0065480D01*
X0244744Y0065389D01*
X0244783Y0065295D01*
X0244818Y0065200D01*
X0244849Y0065104D01*
X0244877Y0065007D01*
X0244901Y0064909D01*
X0244921Y0064810D01*
X0244937Y0064710D01*
X0244949Y0064609D01*
X0244957Y0064509D01*
X0244961Y0064408D01*
X0244961Y0064306D01*
X0244957Y0064205D01*
X0244949Y0064105D01*
X0244937Y0064004D01*
X0244921Y0063904D01*
X0244901Y0063805D01*
X0244877Y0063707D01*
X0244849Y0063610D01*
X0244818Y0063514D01*
X0244783Y0063419D01*
X0244744Y0063325D01*
X0244701Y0063234D01*
X0244655Y0063144D01*
X0244605Y0063056D01*
X0244552Y0062970D01*
X0244496Y0062886D01*
X0244436Y0062804D01*
X0244373Y0062725D01*
X0244307Y0062648D01*
X0244238Y0062575D01*
X0244166Y0062503D01*
X0244092Y0062435D01*
X0244014Y0062370D01*
X0243935Y0062308D01*
X0243852Y0062249D01*
X0243768Y0062193D01*
X0243681Y0062141D01*
X0243593Y0062092D01*
X0243503Y0062047D01*
X0243410Y0062005D01*
X0243317Y0061967D01*
X0243222Y0061933D01*
X0243125Y0061902D01*
X0243028Y0061876D01*
X0242929Y0061853D01*
X0242830Y0061834D01*
X0242730Y0061819D01*
X0242629Y0061808D01*
X0242528Y0061801D01*
X0242427Y0061798D01*
X0242326Y0061799D01*
X0242225Y0061804D01*
X0242124Y0061813D01*
X0242024Y0061826D01*
X0241924Y0061843D01*
X0241826Y0061864D01*
X0241727Y0061888D01*
X0241630Y0061917D01*
X0241535Y0061949D01*
X0241440Y0061986D01*
X0241347Y0062025D01*
X0241256Y0062069D01*
X0241167Y0062116D01*
X0241079Y0062167D01*
X0240993Y0062221D01*
X0240910Y0062278D01*
X0240829Y0062338D01*
X0240751Y0062402D01*
X0240675Y0062469D01*
X0240601Y0062539D01*
X0240531Y0062611D01*
X0240464Y0062686D01*
X0240399Y0062764D01*
X0240338Y0062845D01*
X0240280Y0062927D01*
X0240225Y0063012D01*
X0240173Y0063099D01*
X0240125Y0063188D01*
X0240081Y0063279D01*
X0240040Y0063372D01*
X0240003Y0063466D01*
X0239970Y0063561D01*
X0239940Y0063658D01*
X0239915Y0063756D01*
X0239893Y0063855D01*
X0239875Y0063954D01*
X0239861Y0064054D01*
X0239851Y0064155D01*
X0239845Y0064256D01*
X0239843Y0064357D01*
X0275866Y0017113D02*
X0275868Y0017266D01*
X0275874Y0017420D01*
X0275884Y0017573D01*
X0275898Y0017725D01*
X0275916Y0017878D01*
X0275938Y0018029D01*
X0275963Y0018180D01*
X0275993Y0018331D01*
X0276027Y0018481D01*
X0276064Y0018629D01*
X0276105Y0018777D01*
X0276150Y0018923D01*
X0276199Y0019069D01*
X0276252Y0019213D01*
X0276308Y0019355D01*
X0276368Y0019496D01*
X0276432Y0019636D01*
X0276499Y0019774D01*
X0276570Y0019910D01*
X0276645Y0020044D01*
X0276722Y0020176D01*
X0276804Y0020306D01*
X0276888Y0020434D01*
X0276976Y0020560D01*
X0277067Y0020683D01*
X0277161Y0020804D01*
X0277259Y0020922D01*
X0277359Y0021038D01*
X0277463Y0021151D01*
X0277569Y0021262D01*
X0277678Y0021370D01*
X0277790Y0021475D01*
X0277904Y0021576D01*
X0278022Y0021675D01*
X0278141Y0021771D01*
X0278263Y0021864D01*
X0278388Y0021953D01*
X0278515Y0022040D01*
X0278644Y0022122D01*
X0278775Y0022202D01*
X0278908Y0022278D01*
X0279043Y0022351D01*
X0279180Y0022420D01*
X0279319Y0022485D01*
X0279459Y0022547D01*
X0279601Y0022605D01*
X0279744Y0022660D01*
X0279889Y0022711D01*
X0280035Y0022758D01*
X0280182Y0022801D01*
X0280330Y0022840D01*
X0280479Y0022876D01*
X0280629Y0022907D01*
X0280780Y0022935D01*
X0280931Y0022959D01*
X0281084Y0022979D01*
X0281236Y0022995D01*
X0281389Y0023007D01*
X0281542Y0023015D01*
X0281695Y0023019D01*
X0281849Y0023019D01*
X0282002Y0023015D01*
X0282155Y0023007D01*
X0282308Y0022995D01*
X0282460Y0022979D01*
X0282613Y0022959D01*
X0282764Y0022935D01*
X0282915Y0022907D01*
X0283065Y0022876D01*
X0283214Y0022840D01*
X0283362Y0022801D01*
X0283509Y0022758D01*
X0283655Y0022711D01*
X0283800Y0022660D01*
X0283943Y0022605D01*
X0284085Y0022547D01*
X0284225Y0022485D01*
X0284364Y0022420D01*
X0284501Y0022351D01*
X0284636Y0022278D01*
X0284769Y0022202D01*
X0284900Y0022122D01*
X0285029Y0022040D01*
X0285156Y0021953D01*
X0285281Y0021864D01*
X0285403Y0021771D01*
X0285522Y0021675D01*
X0285640Y0021576D01*
X0285754Y0021475D01*
X0285866Y0021370D01*
X0285975Y0021262D01*
X0286081Y0021151D01*
X0286185Y0021038D01*
X0286285Y0020922D01*
X0286383Y0020804D01*
X0286477Y0020683D01*
X0286568Y0020560D01*
X0286656Y0020434D01*
X0286740Y0020306D01*
X0286822Y0020176D01*
X0286899Y0020044D01*
X0286974Y0019910D01*
X0287045Y0019774D01*
X0287112Y0019636D01*
X0287176Y0019496D01*
X0287236Y0019355D01*
X0287292Y0019213D01*
X0287345Y0019069D01*
X0287394Y0018923D01*
X0287439Y0018777D01*
X0287480Y0018629D01*
X0287517Y0018481D01*
X0287551Y0018331D01*
X0287581Y0018180D01*
X0287606Y0018029D01*
X0287628Y0017878D01*
X0287646Y0017725D01*
X0287660Y0017573D01*
X0287670Y0017420D01*
X0287676Y0017266D01*
X0287678Y0017113D01*
X0287676Y0016960D01*
X0287670Y0016806D01*
X0287660Y0016653D01*
X0287646Y0016501D01*
X0287628Y0016348D01*
X0287606Y0016197D01*
X0287581Y0016046D01*
X0287551Y0015895D01*
X0287517Y0015745D01*
X0287480Y0015597D01*
X0287439Y0015449D01*
X0287394Y0015303D01*
X0287345Y0015157D01*
X0287292Y0015013D01*
X0287236Y0014871D01*
X0287176Y0014730D01*
X0287112Y0014590D01*
X0287045Y0014452D01*
X0286974Y0014316D01*
X0286899Y0014182D01*
X0286822Y0014050D01*
X0286740Y0013920D01*
X0286656Y0013792D01*
X0286568Y0013666D01*
X0286477Y0013543D01*
X0286383Y0013422D01*
X0286285Y0013304D01*
X0286185Y0013188D01*
X0286081Y0013075D01*
X0285975Y0012964D01*
X0285866Y0012856D01*
X0285754Y0012751D01*
X0285640Y0012650D01*
X0285522Y0012551D01*
X0285403Y0012455D01*
X0285281Y0012362D01*
X0285156Y0012273D01*
X0285029Y0012186D01*
X0284900Y0012104D01*
X0284769Y0012024D01*
X0284636Y0011948D01*
X0284501Y0011875D01*
X0284364Y0011806D01*
X0284225Y0011741D01*
X0284085Y0011679D01*
X0283943Y0011621D01*
X0283800Y0011566D01*
X0283655Y0011515D01*
X0283509Y0011468D01*
X0283362Y0011425D01*
X0283214Y0011386D01*
X0283065Y0011350D01*
X0282915Y0011319D01*
X0282764Y0011291D01*
X0282613Y0011267D01*
X0282460Y0011247D01*
X0282308Y0011231D01*
X0282155Y0011219D01*
X0282002Y0011211D01*
X0281849Y0011207D01*
X0281695Y0011207D01*
X0281542Y0011211D01*
X0281389Y0011219D01*
X0281236Y0011231D01*
X0281084Y0011247D01*
X0280931Y0011267D01*
X0280780Y0011291D01*
X0280629Y0011319D01*
X0280479Y0011350D01*
X0280330Y0011386D01*
X0280182Y0011425D01*
X0280035Y0011468D01*
X0279889Y0011515D01*
X0279744Y0011566D01*
X0279601Y0011621D01*
X0279459Y0011679D01*
X0279319Y0011741D01*
X0279180Y0011806D01*
X0279043Y0011875D01*
X0278908Y0011948D01*
X0278775Y0012024D01*
X0278644Y0012104D01*
X0278515Y0012186D01*
X0278388Y0012273D01*
X0278263Y0012362D01*
X0278141Y0012455D01*
X0278022Y0012551D01*
X0277904Y0012650D01*
X0277790Y0012751D01*
X0277678Y0012856D01*
X0277569Y0012964D01*
X0277463Y0013075D01*
X0277359Y0013188D01*
X0277259Y0013304D01*
X0277161Y0013422D01*
X0277067Y0013543D01*
X0276976Y0013666D01*
X0276888Y0013792D01*
X0276804Y0013920D01*
X0276722Y0014050D01*
X0276645Y0014182D01*
X0276570Y0014316D01*
X0276499Y0014452D01*
X0276432Y0014590D01*
X0276368Y0014730D01*
X0276308Y0014871D01*
X0276252Y0015013D01*
X0276199Y0015157D01*
X0276150Y0015303D01*
X0276105Y0015449D01*
X0276064Y0015597D01*
X0276027Y0015745D01*
X0275993Y0015895D01*
X0275963Y0016046D01*
X0275938Y0016197D01*
X0275916Y0016348D01*
X0275898Y0016501D01*
X0275884Y0016653D01*
X0275874Y0016806D01*
X0275868Y0016960D01*
X0275866Y0017113D01*
D11*
X0102795Y0021129D03*
X0092795Y0021129D03*
X0082795Y0021129D03*
X0072795Y0021129D03*
X0072795Y0011129D03*
X0082795Y0011129D03*
X0092795Y0011129D03*
X0102795Y0011129D03*
D12*
X0022815Y0048412D03*
X0022815Y0050971D03*
X0022815Y0053530D03*
X0022815Y0056089D03*
X0022815Y0058648D03*
D13*
X0011693Y0068196D03*
X0011693Y0038865D03*
D14*
X0106693Y0037625D03*
X0106693Y0045499D03*
X0106693Y0053373D03*
X0106693Y0061247D03*
X0106693Y0069121D03*
X0106693Y0076995D03*
X0106693Y0084869D03*
X0106693Y0092743D03*
X0171260Y0092743D03*
X0171260Y0084869D03*
X0171260Y0076995D03*
X0171260Y0069121D03*
X0171260Y0061247D03*
X0171260Y0053373D03*
X0171260Y0045499D03*
X0171260Y0037625D03*
D15*
X0159843Y0029357D03*
X0151969Y0029357D03*
X0144094Y0029357D03*
X0136220Y0029357D03*
X0128346Y0029357D03*
X0120472Y0029357D03*
D16*
X0121102Y0014207D02*
X0121102Y0008207D01*
X0131102Y0008207D02*
X0131102Y0014207D01*
X0141102Y0014207D02*
X0141102Y0008207D01*
X0151102Y0008207D02*
X0151102Y0014207D01*
X0284047Y0043766D02*
X0290047Y0043766D01*
X0290047Y0053766D02*
X0284047Y0053766D01*
X0284047Y0063766D02*
X0290047Y0063766D01*
X0290047Y0073766D02*
X0284047Y0073766D01*
X0284047Y0083766D02*
X0290047Y0083766D01*
D17*
X0048150Y0096955D03*
X0048150Y0116640D03*
D18*
X0077244Y0094992D03*
X0084724Y0094992D03*
X0084724Y0058451D03*
X0077244Y0058451D03*
X0171732Y0011207D03*
X0179213Y0011207D03*
D19*
X0193445Y0054514D03*
X0200925Y0054514D03*
X0200925Y0066325D03*
X0193445Y0066325D03*
X0193445Y0078136D03*
X0200925Y0078136D03*
X0084724Y0082751D03*
X0077244Y0082751D03*
X0077244Y0070509D03*
X0084724Y0070509D03*
X0019764Y0083859D03*
X0012283Y0083859D03*
X0077244Y0107234D03*
X0084724Y0107234D03*
X0084724Y0119475D03*
X0077244Y0119475D03*
D20*
X0061689Y0049833D03*
X0061689Y0040735D03*
X0061689Y0031636D03*
D21*
X0037287Y0040735D03*
D22*
X0043681Y0017113D03*
X0055295Y0017113D03*
X0055295Y0064357D03*
X0043681Y0064357D03*
D23*
X0189469Y0037087D03*
X0194469Y0037087D03*
X0199469Y0037087D03*
X0204469Y0037087D03*
X0209469Y0037087D03*
X0214469Y0037087D03*
X0219469Y0037087D03*
X0224469Y0037087D03*
X0224469Y0012887D03*
X0219469Y0012887D03*
X0214469Y0012887D03*
X0209469Y0012887D03*
X0204469Y0012887D03*
X0199469Y0012887D03*
X0194469Y0012887D03*
X0189469Y0012887D03*
D24*
X0242402Y0112175D03*
D25*
X0242402Y0047446D03*
D26*
X0020157Y0094777D03*
X0011890Y0094777D03*
D27*
X0191220Y0094081D03*
X0197126Y0094081D03*
X0203031Y0094081D03*
X0203031Y0105499D03*
X0197126Y0105499D03*
X0191220Y0105499D03*
D28*
X0191220Y0099790D03*
D29*
X0191028Y0099598D02*
X0191413Y0099598D01*
X0191413Y0099982D01*
X0193505Y0099982D01*
X0193505Y0101142D01*
X0193416Y0101473D01*
X0193245Y0101769D01*
X0193003Y0102011D01*
X0192706Y0102183D01*
X0192376Y0102271D01*
X0191413Y0102271D01*
X0191413Y0099982D01*
X0191028Y0099982D01*
X0191028Y0099598D01*
X0188936Y0099598D01*
X0188936Y0098438D01*
X0189025Y0098107D01*
X0189196Y0097811D01*
X0189438Y0097569D01*
X0189734Y0097398D01*
X0190065Y0097309D01*
X0191028Y0097309D01*
X0191028Y0099598D01*
X0191028Y0099521D02*
X0191413Y0099521D01*
X0191413Y0099598D02*
X0191413Y0097309D01*
X0192376Y0097309D01*
X0192706Y0097398D01*
X0193003Y0097569D01*
X0193245Y0097811D01*
X0193416Y0098107D01*
X0193505Y0098438D01*
X0193505Y0099598D01*
X0191413Y0099598D01*
X0191413Y0100119D02*
X0191028Y0100119D01*
X0191028Y0099982D02*
X0191028Y0102271D01*
X0190065Y0102271D01*
X0189734Y0102183D01*
X0189438Y0102011D01*
X0189196Y0101769D01*
X0189025Y0101473D01*
X0188936Y0101142D01*
X0188936Y0099982D01*
X0191028Y0099982D01*
X0191028Y0100718D02*
X0191413Y0100718D01*
X0191413Y0101316D02*
X0191028Y0101316D01*
X0191028Y0101915D02*
X0191413Y0101915D01*
X0190743Y0103110D02*
X0191229Y0103597D01*
X0191279Y0103614D01*
X0192774Y0103614D01*
X0193302Y0104142D01*
X0193302Y0106347D01*
X0195045Y0106347D01*
X0195045Y0104142D01*
X0195339Y0103848D01*
X0195339Y0098607D01*
X0193095Y0096363D01*
X0192698Y0095966D01*
X0189667Y0095966D01*
X0189139Y0095438D01*
X0189139Y0092724D01*
X0189667Y0092197D01*
X0192222Y0092197D01*
X0192222Y0085231D01*
X0190603Y0085231D01*
X0190915Y0085543D01*
X0190915Y0087282D01*
X0189684Y0088512D01*
X0188858Y0088512D01*
X0184837Y0092533D01*
X0184837Y0099173D01*
X0187901Y0102236D01*
X0189869Y0102236D01*
X0190743Y0103110D01*
X0190745Y0103112D02*
X0195339Y0103112D01*
X0195339Y0103710D02*
X0192870Y0103710D01*
X0193302Y0104309D02*
X0195045Y0104309D01*
X0195045Y0104907D02*
X0193302Y0104907D01*
X0193302Y0105506D02*
X0195045Y0105506D01*
X0195045Y0106104D02*
X0193302Y0106104D01*
X0195339Y0102513D02*
X0190146Y0102513D01*
X0189341Y0101915D02*
X0187579Y0101915D01*
X0186981Y0101316D02*
X0188983Y0101316D01*
X0188936Y0100718D02*
X0186382Y0100718D01*
X0185784Y0100119D02*
X0188936Y0100119D01*
X0188936Y0099521D02*
X0185185Y0099521D01*
X0184837Y0098922D02*
X0188936Y0098922D01*
X0188967Y0098324D02*
X0184837Y0098324D01*
X0184837Y0097725D02*
X0189282Y0097725D01*
X0191028Y0097725D02*
X0191413Y0097725D01*
X0191413Y0098324D02*
X0191028Y0098324D01*
X0191028Y0098922D02*
X0191413Y0098922D01*
X0193505Y0098922D02*
X0195339Y0098922D01*
X0195339Y0099521D02*
X0193505Y0099521D01*
X0193505Y0100119D02*
X0195339Y0100119D01*
X0195339Y0100718D02*
X0193505Y0100718D01*
X0193458Y0101316D02*
X0195339Y0101316D01*
X0195339Y0101915D02*
X0193100Y0101915D01*
X0193474Y0098324D02*
X0195056Y0098324D01*
X0194457Y0097725D02*
X0193159Y0097725D01*
X0193859Y0097127D02*
X0184837Y0097127D01*
X0184837Y0096528D02*
X0193260Y0096528D01*
X0189631Y0095930D02*
X0184837Y0095930D01*
X0184837Y0095331D02*
X0189139Y0095331D01*
X0189139Y0094733D02*
X0184837Y0094733D01*
X0184837Y0094134D02*
X0189139Y0094134D01*
X0189139Y0093536D02*
X0184837Y0093536D01*
X0184837Y0092937D02*
X0189139Y0092937D01*
X0189525Y0092339D02*
X0185032Y0092339D01*
X0185630Y0091740D02*
X0192222Y0091740D01*
X0192222Y0091142D02*
X0186229Y0091142D01*
X0186827Y0090543D02*
X0192222Y0090543D01*
X0192222Y0089945D02*
X0187426Y0089945D01*
X0188024Y0089346D02*
X0192222Y0089346D01*
X0192222Y0088747D02*
X0188623Y0088747D01*
X0190048Y0088149D02*
X0192222Y0088149D01*
X0192222Y0087550D02*
X0190646Y0087550D01*
X0190915Y0086952D02*
X0192222Y0086952D01*
X0192222Y0086353D02*
X0190915Y0086353D01*
X0190915Y0085755D02*
X0192222Y0085755D01*
X0208065Y0085755D02*
X0208342Y0085755D01*
X0208065Y0085478D02*
X0208065Y0098325D01*
X0202775Y0103614D01*
X0204585Y0103614D01*
X0205113Y0104142D01*
X0205113Y0106856D01*
X0204585Y0107383D01*
X0201831Y0107383D01*
X0201831Y0108121D01*
X0200940Y0109011D01*
X0199836Y0110115D01*
X0183136Y0110115D01*
X0174104Y0101083D01*
X0174104Y0126049D01*
X0296220Y0126049D01*
X0296220Y0002665D01*
X0153929Y0002665D01*
X0154238Y0002974D01*
X0156909Y0005645D01*
X0156909Y0008317D01*
X0165387Y0016795D01*
X0173661Y0016795D01*
X0173372Y0016506D01*
X0173372Y0015460D01*
X0172032Y0015460D01*
X0172032Y0011507D01*
X0175591Y0011507D01*
X0175591Y0012853D01*
X0175754Y0012691D01*
X0175754Y0007882D01*
X0176281Y0007355D01*
X0182144Y0007355D01*
X0182672Y0007882D01*
X0182672Y0009277D01*
X0182691Y0009277D01*
X0185594Y0006373D01*
X0186698Y0005269D01*
X0192267Y0005269D01*
X0194158Y0007160D01*
X0194945Y0006373D01*
X0196049Y0005269D01*
X0227443Y0005269D01*
X0242138Y0019963D01*
X0243241Y0021067D01*
X0243241Y0030418D01*
X0249499Y0036676D01*
X0249818Y0036782D01*
X0250030Y0037207D01*
X0250366Y0037542D01*
X0250366Y0037878D01*
X0250475Y0038097D01*
X0250811Y0038433D01*
X0250811Y0038768D01*
X0250961Y0039069D01*
X0250811Y0039519D01*
X0250811Y0056024D01*
X0249707Y0057127D01*
X0248371Y0058463D01*
X0244364Y0058463D01*
X0242329Y0060498D01*
X0243169Y0060498D01*
X0244588Y0061085D01*
X0245673Y0062171D01*
X0246261Y0063589D01*
X0246261Y0064595D01*
X0268629Y0042227D01*
X0280464Y0042227D01*
X0280741Y0041557D01*
X0281838Y0040460D01*
X0283271Y0039866D01*
X0290823Y0039866D01*
X0292256Y0040460D01*
X0293353Y0041557D01*
X0293947Y0042991D01*
X0293947Y0044542D01*
X0293353Y0045976D01*
X0292256Y0047073D01*
X0290823Y0047666D01*
X0283271Y0047666D01*
X0281838Y0047073D01*
X0280761Y0045996D01*
X0270190Y0045996D01*
X0234336Y0081850D01*
X0233490Y0082696D01*
X0266120Y0082696D01*
X0281791Y0067025D01*
X0280741Y0065976D01*
X0280147Y0064542D01*
X0280147Y0062991D01*
X0280741Y0061557D01*
X0281838Y0060460D01*
X0283271Y0059866D01*
X0290823Y0059866D01*
X0292256Y0060460D01*
X0293353Y0061557D01*
X0293947Y0062991D01*
X0293947Y0064542D01*
X0293353Y0065976D01*
X0292256Y0067073D01*
X0290823Y0067666D01*
X0285365Y0067666D01*
X0283090Y0069941D01*
X0283271Y0069866D01*
X0290823Y0069866D01*
X0292256Y0070460D01*
X0293353Y0071557D01*
X0293947Y0072991D01*
X0293947Y0074542D01*
X0293353Y0075976D01*
X0292256Y0077073D01*
X0290823Y0077666D01*
X0283271Y0077666D01*
X0281838Y0077073D01*
X0280741Y0075976D01*
X0280147Y0074542D01*
X0280147Y0072991D01*
X0280222Y0072810D01*
X0267355Y0085677D01*
X0211222Y0085677D01*
X0210612Y0086286D01*
X0208873Y0086286D01*
X0208065Y0085478D01*
X0208065Y0086353D02*
X0281119Y0086353D01*
X0280741Y0085976D02*
X0281838Y0087073D01*
X0283271Y0087666D01*
X0290823Y0087666D01*
X0292256Y0087073D01*
X0293353Y0085976D01*
X0293947Y0084542D01*
X0293947Y0082991D01*
X0293353Y0081557D01*
X0292256Y0080460D01*
X0290823Y0079866D01*
X0283271Y0079866D01*
X0281838Y0080460D01*
X0280741Y0081557D01*
X0280147Y0082991D01*
X0280147Y0084542D01*
X0280741Y0085976D01*
X0280650Y0085755D02*
X0211144Y0085755D01*
X0208065Y0086952D02*
X0281717Y0086952D01*
X0282992Y0087550D02*
X0208065Y0087550D01*
X0208065Y0088149D02*
X0296220Y0088149D01*
X0296220Y0088747D02*
X0208065Y0088747D01*
X0208065Y0089346D02*
X0296220Y0089346D01*
X0296220Y0089945D02*
X0208065Y0089945D01*
X0208065Y0090543D02*
X0296220Y0090543D01*
X0296220Y0091142D02*
X0244281Y0091142D01*
X0244253Y0091114D02*
X0245172Y0092033D01*
X0245670Y0093234D01*
X0245670Y0094535D01*
X0245172Y0095736D01*
X0244253Y0096655D01*
X0243052Y0097153D01*
X0241751Y0097153D01*
X0240550Y0096655D01*
X0239631Y0095736D01*
X0239133Y0094535D01*
X0239133Y0093234D01*
X0239631Y0092033D01*
X0240550Y0091114D01*
X0241751Y0090616D01*
X0243052Y0090616D01*
X0244253Y0091114D01*
X0244879Y0091740D02*
X0296220Y0091740D01*
X0296220Y0092339D02*
X0245299Y0092339D01*
X0245547Y0092937D02*
X0296220Y0092937D01*
X0296220Y0093536D02*
X0245670Y0093536D01*
X0245670Y0094134D02*
X0296220Y0094134D01*
X0296220Y0094733D02*
X0245588Y0094733D01*
X0245340Y0095331D02*
X0296220Y0095331D01*
X0296220Y0095930D02*
X0244979Y0095930D01*
X0244380Y0096528D02*
X0296220Y0096528D01*
X0296220Y0097127D02*
X0243115Y0097127D01*
X0241688Y0097127D02*
X0208065Y0097127D01*
X0208065Y0097725D02*
X0296220Y0097725D01*
X0296220Y0098324D02*
X0208065Y0098324D01*
X0207467Y0098922D02*
X0296220Y0098922D01*
X0296220Y0099521D02*
X0206869Y0099521D01*
X0206270Y0100119D02*
X0296220Y0100119D01*
X0296220Y0100718D02*
X0205672Y0100718D01*
X0205073Y0101316D02*
X0296220Y0101316D01*
X0296220Y0101915D02*
X0204475Y0101915D01*
X0203876Y0102513D02*
X0237348Y0102513D01*
X0237372Y0102499D02*
X0237703Y0102410D01*
X0242102Y0102410D01*
X0242102Y0111875D01*
X0242702Y0111875D01*
X0242702Y0112475D01*
X0248229Y0112475D01*
X0248229Y0120811D01*
X0248141Y0121141D01*
X0247969Y0121438D01*
X0247727Y0121680D01*
X0247431Y0121851D01*
X0247100Y0121940D01*
X0242702Y0121940D01*
X0242702Y0112475D01*
X0242102Y0112475D01*
X0242102Y0121940D01*
X0237703Y0121940D01*
X0237372Y0121851D01*
X0237076Y0121680D01*
X0236834Y0121438D01*
X0236663Y0121141D01*
X0236574Y0120811D01*
X0236574Y0112475D01*
X0242102Y0112475D01*
X0242102Y0111875D01*
X0236574Y0111875D01*
X0236574Y0103539D01*
X0236663Y0103209D01*
X0236834Y0102912D01*
X0237076Y0102670D01*
X0237372Y0102499D01*
X0236719Y0103112D02*
X0203278Y0103112D01*
X0204681Y0103710D02*
X0236574Y0103710D01*
X0236574Y0104309D02*
X0205113Y0104309D01*
X0205113Y0104907D02*
X0236574Y0104907D01*
X0236574Y0105506D02*
X0205113Y0105506D01*
X0205113Y0106104D02*
X0236574Y0106104D01*
X0236574Y0106703D02*
X0205113Y0106703D01*
X0204667Y0107301D02*
X0236574Y0107301D01*
X0236574Y0107900D02*
X0201831Y0107900D01*
X0201453Y0108498D02*
X0236574Y0108498D01*
X0236574Y0109097D02*
X0200855Y0109097D01*
X0200256Y0109695D02*
X0236574Y0109695D01*
X0236574Y0110294D02*
X0174104Y0110294D01*
X0174104Y0110892D02*
X0236574Y0110892D01*
X0236574Y0111491D02*
X0174104Y0111491D01*
X0174104Y0112089D02*
X0242102Y0112089D01*
X0242102Y0111491D02*
X0242702Y0111491D01*
X0242702Y0111875D02*
X0242702Y0102410D01*
X0247100Y0102410D01*
X0247431Y0102499D01*
X0247727Y0102670D01*
X0247969Y0102912D01*
X0248141Y0103209D01*
X0248229Y0103539D01*
X0248229Y0111875D01*
X0242702Y0111875D01*
X0242702Y0112089D02*
X0274566Y0112089D01*
X0274566Y0111491D02*
X0248229Y0111491D01*
X0248229Y0110892D02*
X0274566Y0110892D01*
X0274566Y0110294D02*
X0248229Y0110294D01*
X0248229Y0109695D02*
X0274762Y0109695D01*
X0274566Y0110168D02*
X0275663Y0107519D01*
X0277690Y0105493D01*
X0280338Y0104396D01*
X0283205Y0104396D01*
X0285853Y0105493D01*
X0287880Y0107519D01*
X0288977Y0110168D01*
X0288977Y0113034D01*
X0287880Y0115683D01*
X0285853Y0117710D01*
X0283205Y0118807D01*
X0280338Y0118807D01*
X0277690Y0117710D01*
X0275663Y0115683D01*
X0274566Y0113034D01*
X0274566Y0110168D01*
X0275010Y0109097D02*
X0248229Y0109097D01*
X0248229Y0108498D02*
X0275258Y0108498D01*
X0275506Y0107900D02*
X0248229Y0107900D01*
X0248229Y0107301D02*
X0275881Y0107301D01*
X0276480Y0106703D02*
X0248229Y0106703D01*
X0248229Y0106104D02*
X0277078Y0106104D01*
X0277677Y0105506D02*
X0248229Y0105506D01*
X0248229Y0104907D02*
X0279103Y0104907D01*
X0284440Y0104907D02*
X0296220Y0104907D01*
X0296220Y0104309D02*
X0248229Y0104309D01*
X0248229Y0103710D02*
X0296220Y0103710D01*
X0296220Y0103112D02*
X0248085Y0103112D01*
X0247455Y0102513D02*
X0296220Y0102513D01*
X0296220Y0105506D02*
X0285867Y0105506D01*
X0286465Y0106104D02*
X0296220Y0106104D01*
X0296220Y0106703D02*
X0287064Y0106703D01*
X0287662Y0107301D02*
X0296220Y0107301D01*
X0296220Y0107900D02*
X0288038Y0107900D01*
X0288286Y0108498D02*
X0296220Y0108498D01*
X0296220Y0109097D02*
X0288534Y0109097D01*
X0288781Y0109695D02*
X0296220Y0109695D01*
X0296220Y0110294D02*
X0288977Y0110294D01*
X0288977Y0110892D02*
X0296220Y0110892D01*
X0296220Y0111491D02*
X0288977Y0111491D01*
X0288977Y0112089D02*
X0296220Y0112089D01*
X0296220Y0112688D02*
X0288977Y0112688D01*
X0288873Y0113286D02*
X0296220Y0113286D01*
X0296220Y0113885D02*
X0288625Y0113885D01*
X0288377Y0114483D02*
X0296220Y0114483D01*
X0296220Y0115082D02*
X0288129Y0115082D01*
X0287881Y0115680D02*
X0296220Y0115680D01*
X0296220Y0116279D02*
X0287284Y0116279D01*
X0286685Y0116878D02*
X0296220Y0116878D01*
X0296220Y0117476D02*
X0286087Y0117476D01*
X0284972Y0118075D02*
X0296220Y0118075D01*
X0296220Y0118673D02*
X0283527Y0118673D01*
X0280016Y0118673D02*
X0248229Y0118673D01*
X0248229Y0118075D02*
X0278571Y0118075D01*
X0277457Y0117476D02*
X0248229Y0117476D01*
X0248229Y0116878D02*
X0276858Y0116878D01*
X0276259Y0116279D02*
X0248229Y0116279D01*
X0248229Y0115680D02*
X0275662Y0115680D01*
X0275414Y0115082D02*
X0248229Y0115082D01*
X0248229Y0114483D02*
X0275166Y0114483D01*
X0274918Y0113885D02*
X0248229Y0113885D01*
X0248229Y0113286D02*
X0274671Y0113286D01*
X0274566Y0112688D02*
X0248229Y0112688D01*
X0242702Y0112688D02*
X0242102Y0112688D01*
X0242102Y0113286D02*
X0242702Y0113286D01*
X0242702Y0113885D02*
X0242102Y0113885D01*
X0242102Y0114483D02*
X0242702Y0114483D01*
X0242702Y0115082D02*
X0242102Y0115082D01*
X0242102Y0115680D02*
X0242702Y0115680D01*
X0242702Y0116279D02*
X0242102Y0116279D01*
X0242102Y0116878D02*
X0242702Y0116878D01*
X0242702Y0117476D02*
X0242102Y0117476D01*
X0242102Y0118075D02*
X0242702Y0118075D01*
X0242702Y0118673D02*
X0242102Y0118673D01*
X0242102Y0119272D02*
X0242702Y0119272D01*
X0242702Y0119870D02*
X0242102Y0119870D01*
X0242102Y0120469D02*
X0242702Y0120469D01*
X0242702Y0121067D02*
X0242102Y0121067D01*
X0242102Y0121666D02*
X0242702Y0121666D01*
X0247742Y0121666D02*
X0296220Y0121666D01*
X0296220Y0122264D02*
X0174104Y0122264D01*
X0174104Y0121666D02*
X0237062Y0121666D01*
X0236643Y0121067D02*
X0174104Y0121067D01*
X0174104Y0120469D02*
X0236574Y0120469D01*
X0236574Y0119870D02*
X0174104Y0119870D01*
X0174104Y0119272D02*
X0236574Y0119272D01*
X0236574Y0118673D02*
X0174104Y0118673D01*
X0174104Y0118075D02*
X0236574Y0118075D01*
X0236574Y0117476D02*
X0174104Y0117476D01*
X0174104Y0116878D02*
X0236574Y0116878D01*
X0236574Y0116279D02*
X0174104Y0116279D01*
X0174104Y0115680D02*
X0236574Y0115680D01*
X0236574Y0115082D02*
X0174104Y0115082D01*
X0174104Y0114483D02*
X0236574Y0114483D01*
X0236574Y0113885D02*
X0174104Y0113885D01*
X0174104Y0113286D02*
X0236574Y0113286D01*
X0236574Y0112688D02*
X0174104Y0112688D01*
X0174104Y0109695D02*
X0182716Y0109695D01*
X0182118Y0109097D02*
X0174104Y0109097D01*
X0174104Y0108498D02*
X0181519Y0108498D01*
X0180921Y0107900D02*
X0174104Y0107900D01*
X0174104Y0107301D02*
X0180322Y0107301D01*
X0179724Y0106703D02*
X0174104Y0106703D01*
X0174104Y0106104D02*
X0179125Y0106104D01*
X0178527Y0105506D02*
X0174104Y0105506D01*
X0174104Y0104907D02*
X0177928Y0104907D01*
X0177330Y0104309D02*
X0174104Y0104309D01*
X0174104Y0103710D02*
X0176731Y0103710D01*
X0176133Y0103112D02*
X0174104Y0103112D01*
X0174104Y0102513D02*
X0175534Y0102513D01*
X0174936Y0101915D02*
X0174104Y0101915D01*
X0174104Y0101316D02*
X0174337Y0101316D01*
X0164454Y0095215D02*
X0164454Y0094137D01*
X0140423Y0094137D01*
X0140259Y0094301D01*
X0138519Y0094301D01*
X0137289Y0093071D01*
X0137289Y0091331D01*
X0138519Y0090101D01*
X0140259Y0090101D01*
X0141314Y0091156D01*
X0164454Y0091156D01*
X0164454Y0090129D01*
X0164152Y0090129D01*
X0163279Y0089256D01*
X0162389Y0088366D01*
X0162389Y0081342D01*
X0163262Y0080469D01*
X0164454Y0079277D01*
X0164454Y0075154D01*
X0163455Y0075154D01*
X0162224Y0073924D01*
X0162224Y0073062D01*
X0159700Y0070537D01*
X0113498Y0070537D01*
X0113498Y0071856D01*
X0112971Y0072383D01*
X0102087Y0072383D01*
X0103436Y0073733D01*
X0112971Y0073733D01*
X0113498Y0074260D01*
X0113498Y0079730D01*
X0112971Y0080257D01*
X0103125Y0080257D01*
X0101775Y0081607D01*
X0112971Y0081607D01*
X0113498Y0082134D01*
X0113498Y0086150D01*
X0116080Y0083569D01*
X0116080Y0074979D01*
X0115470Y0074369D01*
X0115470Y0072630D01*
X0116701Y0071399D01*
X0118440Y0071399D01*
X0119670Y0072630D01*
X0119670Y0074369D01*
X0119061Y0074979D01*
X0119061Y0084803D01*
X0118188Y0085677D01*
X0113498Y0090366D01*
X0113498Y0095215D01*
X0164454Y0095215D01*
X0164454Y0094733D02*
X0113498Y0094733D01*
X0113498Y0094134D02*
X0138352Y0094134D01*
X0137754Y0093536D02*
X0113498Y0093536D01*
X0113498Y0092937D02*
X0137289Y0092937D01*
X0137289Y0092339D02*
X0113498Y0092339D01*
X0113498Y0091740D02*
X0137289Y0091740D01*
X0137479Y0091142D02*
X0113498Y0091142D01*
X0113498Y0090543D02*
X0138077Y0090543D01*
X0140701Y0090543D02*
X0164454Y0090543D01*
X0164454Y0091142D02*
X0141299Y0091142D01*
X0162389Y0088149D02*
X0115716Y0088149D01*
X0116314Y0087550D02*
X0162389Y0087550D01*
X0162389Y0086952D02*
X0116913Y0086952D01*
X0117511Y0086353D02*
X0162389Y0086353D01*
X0162389Y0085755D02*
X0118110Y0085755D01*
X0118708Y0085156D02*
X0162389Y0085156D01*
X0162389Y0084558D02*
X0119061Y0084558D01*
X0119061Y0083959D02*
X0162389Y0083959D01*
X0162389Y0083361D02*
X0119061Y0083361D01*
X0119061Y0082762D02*
X0162389Y0082762D01*
X0162389Y0082164D02*
X0119061Y0082164D01*
X0119061Y0081565D02*
X0162389Y0081565D01*
X0162764Y0080967D02*
X0119061Y0080967D01*
X0119061Y0080368D02*
X0163363Y0080368D01*
X0163961Y0079770D02*
X0119061Y0079770D01*
X0119061Y0079171D02*
X0164454Y0079171D01*
X0164454Y0078573D02*
X0119061Y0078573D01*
X0119061Y0077974D02*
X0164454Y0077974D01*
X0164454Y0077376D02*
X0119061Y0077376D01*
X0119061Y0076777D02*
X0164454Y0076777D01*
X0164454Y0076179D02*
X0119061Y0076179D01*
X0119061Y0075580D02*
X0164454Y0075580D01*
X0163282Y0074982D02*
X0119061Y0074982D01*
X0119657Y0074383D02*
X0162684Y0074383D01*
X0162224Y0073785D02*
X0119670Y0073785D01*
X0119670Y0073186D02*
X0162224Y0073186D01*
X0161750Y0072588D02*
X0119629Y0072588D01*
X0119030Y0071989D02*
X0161151Y0071989D01*
X0160553Y0071391D02*
X0113498Y0071391D01*
X0113498Y0070792D02*
X0159954Y0070792D01*
X0190305Y0071445D02*
X0190305Y0074295D01*
X0190513Y0074087D01*
X0195470Y0074087D01*
X0198011Y0071546D01*
X0198884Y0070673D01*
X0203501Y0070673D01*
X0203203Y0070375D01*
X0197993Y0070375D01*
X0197466Y0069848D01*
X0197466Y0062803D01*
X0197993Y0062276D01*
X0203857Y0062276D01*
X0204384Y0062803D01*
X0204384Y0065922D01*
X0205854Y0067392D01*
X0206160Y0067392D01*
X0206471Y0067703D01*
X0206471Y0054525D01*
X0204784Y0052838D01*
X0204784Y0054214D01*
X0201225Y0054214D01*
X0201225Y0050065D01*
X0202011Y0050065D01*
X0195767Y0043821D01*
X0191759Y0043821D01*
X0189926Y0041987D01*
X0187796Y0041987D01*
X0187269Y0041460D01*
X0187269Y0038477D01*
X0180182Y0038477D01*
X0178465Y0036761D01*
X0178465Y0037325D01*
X0171560Y0037325D01*
X0171560Y0037925D01*
X0170960Y0037925D01*
X0170960Y0041287D01*
X0165183Y0041287D01*
X0164853Y0041198D01*
X0164556Y0041027D01*
X0164314Y0040785D01*
X0164143Y0040489D01*
X0164054Y0040158D01*
X0164054Y0037925D01*
X0170960Y0037925D01*
X0170960Y0037325D01*
X0164054Y0037325D01*
X0164054Y0035091D01*
X0164143Y0034761D01*
X0164314Y0034464D01*
X0164556Y0034222D01*
X0164853Y0034051D01*
X0165183Y0033962D01*
X0170960Y0033962D01*
X0170960Y0037325D01*
X0171560Y0037325D01*
X0171560Y0033962D01*
X0175667Y0033962D01*
X0155002Y0013298D01*
X0155002Y0014983D01*
X0154409Y0016417D01*
X0153312Y0017514D01*
X0151878Y0018107D01*
X0150327Y0018107D01*
X0149340Y0017699D01*
X0149340Y0022551D01*
X0154703Y0022551D01*
X0155231Y0023079D01*
X0155231Y0035635D01*
X0154703Y0036162D01*
X0150914Y0036162D01*
X0162715Y0047964D01*
X0164454Y0047964D01*
X0164454Y0042764D01*
X0164982Y0042236D01*
X0177538Y0042236D01*
X0178065Y0042764D01*
X0178065Y0045058D01*
X0178283Y0045275D01*
X0185870Y0052862D01*
X0189986Y0052862D01*
X0189986Y0050992D01*
X0190513Y0050465D01*
X0196377Y0050465D01*
X0196904Y0050992D01*
X0196904Y0058037D01*
X0196377Y0058564D01*
X0190513Y0058564D01*
X0189986Y0058037D01*
X0189986Y0055843D01*
X0186179Y0055843D01*
X0192612Y0062276D01*
X0196377Y0062276D01*
X0196904Y0062803D01*
X0196904Y0069848D01*
X0196377Y0070375D01*
X0191375Y0070375D01*
X0190305Y0071445D01*
X0190360Y0071391D02*
X0198166Y0071391D01*
X0198011Y0071546D02*
X0198011Y0071546D01*
X0197568Y0071989D02*
X0190305Y0071989D01*
X0190305Y0072588D02*
X0196969Y0072588D01*
X0196371Y0073186D02*
X0190305Y0073186D01*
X0190305Y0073785D02*
X0195772Y0073785D01*
X0198765Y0070792D02*
X0190958Y0070792D01*
X0196558Y0070194D02*
X0197812Y0070194D01*
X0197466Y0069595D02*
X0196904Y0069595D01*
X0196904Y0068997D02*
X0197466Y0068997D01*
X0197466Y0068398D02*
X0196904Y0068398D01*
X0196904Y0067800D02*
X0197466Y0067800D01*
X0197466Y0067201D02*
X0196904Y0067201D01*
X0196904Y0066603D02*
X0197466Y0066603D01*
X0197466Y0066004D02*
X0196904Y0066004D01*
X0196904Y0065406D02*
X0197466Y0065406D01*
X0197466Y0064807D02*
X0196904Y0064807D01*
X0196904Y0064209D02*
X0197466Y0064209D01*
X0197466Y0063610D02*
X0196904Y0063610D01*
X0196904Y0063011D02*
X0197466Y0063011D01*
X0197856Y0062413D02*
X0196514Y0062413D01*
X0192150Y0061814D02*
X0206471Y0061814D01*
X0206471Y0061216D02*
X0191552Y0061216D01*
X0190953Y0060617D02*
X0206471Y0060617D01*
X0206471Y0060019D02*
X0190355Y0060019D01*
X0189756Y0059420D02*
X0206471Y0059420D01*
X0206471Y0058822D02*
X0204079Y0058822D01*
X0203986Y0058875D02*
X0203655Y0058964D01*
X0201225Y0058964D01*
X0201225Y0054814D01*
X0204784Y0054814D01*
X0204784Y0057835D01*
X0204696Y0058166D01*
X0204524Y0058462D01*
X0204282Y0058704D01*
X0203986Y0058875D01*
X0204662Y0058223D02*
X0206471Y0058223D01*
X0206471Y0057625D02*
X0204784Y0057625D01*
X0204784Y0057026D02*
X0206471Y0057026D01*
X0206471Y0056428D02*
X0204784Y0056428D01*
X0204784Y0055829D02*
X0206471Y0055829D01*
X0206471Y0055231D02*
X0204784Y0055231D01*
X0204784Y0054034D02*
X0205980Y0054034D01*
X0206471Y0054632D02*
X0201225Y0054632D01*
X0201225Y0054814D02*
X0201225Y0054214D01*
X0200625Y0054214D01*
X0200625Y0050065D01*
X0198195Y0050065D01*
X0197864Y0050153D01*
X0197568Y0050325D01*
X0197326Y0050567D01*
X0197155Y0050863D01*
X0197066Y0051194D01*
X0197066Y0054214D01*
X0200625Y0054214D01*
X0200625Y0054814D01*
X0197066Y0054814D01*
X0197066Y0057835D01*
X0197155Y0058166D01*
X0197326Y0058462D01*
X0197568Y0058704D01*
X0197864Y0058875D01*
X0198195Y0058964D01*
X0200625Y0058964D01*
X0200625Y0054814D01*
X0201225Y0054814D01*
X0201225Y0055231D02*
X0200625Y0055231D01*
X0200625Y0055829D02*
X0201225Y0055829D01*
X0201225Y0056428D02*
X0200625Y0056428D01*
X0200625Y0057026D02*
X0201225Y0057026D01*
X0201225Y0057625D02*
X0200625Y0057625D01*
X0200625Y0058223D02*
X0201225Y0058223D01*
X0201225Y0058822D02*
X0200625Y0058822D01*
X0197772Y0058822D02*
X0189158Y0058822D01*
X0188559Y0058223D02*
X0190172Y0058223D01*
X0189986Y0057625D02*
X0187961Y0057625D01*
X0187362Y0057026D02*
X0189986Y0057026D01*
X0189986Y0056428D02*
X0186764Y0056428D01*
X0185844Y0052837D02*
X0189986Y0052837D01*
X0189986Y0052238D02*
X0185246Y0052238D01*
X0184647Y0051640D02*
X0189986Y0051640D01*
X0189986Y0051041D02*
X0184049Y0051041D01*
X0183450Y0050443D02*
X0197450Y0050443D01*
X0197107Y0051041D02*
X0196904Y0051041D01*
X0196904Y0051640D02*
X0197066Y0051640D01*
X0197066Y0052238D02*
X0196904Y0052238D01*
X0196904Y0052837D02*
X0197066Y0052837D01*
X0197066Y0053435D02*
X0196904Y0053435D01*
X0196904Y0054034D02*
X0197066Y0054034D01*
X0196904Y0054632D02*
X0200625Y0054632D01*
X0200625Y0054034D02*
X0201225Y0054034D01*
X0201225Y0053435D02*
X0200625Y0053435D01*
X0200625Y0052837D02*
X0201225Y0052837D01*
X0201225Y0052238D02*
X0200625Y0052238D01*
X0200625Y0051640D02*
X0201225Y0051640D01*
X0201225Y0051041D02*
X0200625Y0051041D01*
X0200625Y0050443D02*
X0201225Y0050443D01*
X0201790Y0049844D02*
X0182852Y0049844D01*
X0182253Y0049246D02*
X0201192Y0049246D01*
X0200593Y0048647D02*
X0181655Y0048647D01*
X0181056Y0048049D02*
X0199995Y0048049D01*
X0199396Y0047450D02*
X0180458Y0047450D01*
X0179859Y0046852D02*
X0198798Y0046852D01*
X0198199Y0046253D02*
X0179261Y0046253D01*
X0178662Y0045655D02*
X0197601Y0045655D01*
X0197002Y0045056D02*
X0178065Y0045056D01*
X0178065Y0044458D02*
X0196404Y0044458D01*
X0195805Y0043859D02*
X0178065Y0043859D01*
X0178065Y0043261D02*
X0191199Y0043261D01*
X0190601Y0042662D02*
X0177964Y0042662D01*
X0177667Y0041198D02*
X0177337Y0041287D01*
X0171560Y0041287D01*
X0171560Y0037925D01*
X0178465Y0037925D01*
X0178465Y0040158D01*
X0178377Y0040489D01*
X0178206Y0040785D01*
X0177964Y0041027D01*
X0177667Y0041198D01*
X0178124Y0040867D02*
X0187269Y0040867D01*
X0187274Y0041465D02*
X0156216Y0041465D01*
X0155618Y0040867D02*
X0164396Y0040867D01*
X0164084Y0040268D02*
X0155019Y0040268D01*
X0154421Y0039670D02*
X0164054Y0039670D01*
X0164054Y0039071D02*
X0153822Y0039071D01*
X0153224Y0038473D02*
X0164054Y0038473D01*
X0164054Y0037276D02*
X0152027Y0037276D01*
X0152625Y0037874D02*
X0170960Y0037874D01*
X0170960Y0037276D02*
X0171560Y0037276D01*
X0171560Y0037874D02*
X0179579Y0037874D01*
X0180177Y0038473D02*
X0178465Y0038473D01*
X0178465Y0039071D02*
X0187269Y0039071D01*
X0187269Y0039670D02*
X0178465Y0039670D01*
X0178436Y0040268D02*
X0187269Y0040268D01*
X0190002Y0042064D02*
X0156815Y0042064D01*
X0157413Y0042662D02*
X0164556Y0042662D01*
X0164454Y0043261D02*
X0158012Y0043261D01*
X0158611Y0043859D02*
X0164454Y0043859D01*
X0164454Y0044458D02*
X0159209Y0044458D01*
X0159808Y0045056D02*
X0164454Y0045056D01*
X0164454Y0045655D02*
X0160406Y0045655D01*
X0161005Y0046253D02*
X0164454Y0046253D01*
X0164454Y0046852D02*
X0161603Y0046852D01*
X0162202Y0047450D02*
X0164454Y0047450D01*
X0160380Y0049844D02*
X0140551Y0049844D01*
X0141149Y0050443D02*
X0160978Y0050443D01*
X0161481Y0050945D02*
X0147232Y0036696D01*
X0146698Y0036162D01*
X0141359Y0036162D01*
X0140832Y0035635D01*
X0140832Y0023079D01*
X0141359Y0022551D01*
X0146359Y0022551D01*
X0146359Y0018903D01*
X0144141Y0016685D01*
X0143312Y0017514D01*
X0141878Y0018107D01*
X0140327Y0018107D01*
X0138893Y0017514D01*
X0137796Y0016417D01*
X0137202Y0014983D01*
X0137202Y0007432D01*
X0137796Y0005998D01*
X0138893Y0004901D01*
X0140327Y0004307D01*
X0141878Y0004307D01*
X0143312Y0004901D01*
X0144409Y0005998D01*
X0144485Y0006183D01*
X0148003Y0002665D01*
X0125097Y0002665D01*
X0128113Y0005681D01*
X0128893Y0004901D01*
X0130327Y0004307D01*
X0131878Y0004307D01*
X0133312Y0004901D01*
X0134409Y0005998D01*
X0135002Y0007432D01*
X0135002Y0014983D01*
X0134409Y0016417D01*
X0133312Y0017514D01*
X0131878Y0018107D01*
X0130327Y0018107D01*
X0128893Y0017514D01*
X0127796Y0016417D01*
X0127202Y0014983D01*
X0127202Y0010099D01*
X0125402Y0008299D01*
X0125402Y0010907D01*
X0121402Y0010907D01*
X0121402Y0011507D01*
X0125402Y0011507D01*
X0125402Y0014546D01*
X0125296Y0015214D01*
X0125087Y0015858D01*
X0124780Y0016461D01*
X0124382Y0017009D01*
X0123904Y0017487D01*
X0123356Y0017885D01*
X0122753Y0018192D01*
X0122109Y0018401D01*
X0122033Y0018414D01*
X0125740Y0022121D01*
X0125740Y0022551D01*
X0131081Y0022551D01*
X0131609Y0023079D01*
X0131609Y0035635D01*
X0131081Y0036162D01*
X0126869Y0036162D01*
X0142233Y0051526D01*
X0164454Y0051526D01*
X0164454Y0050945D01*
X0161481Y0050945D01*
X0159781Y0049246D02*
X0139952Y0049246D01*
X0139354Y0048647D02*
X0159183Y0048647D01*
X0158584Y0048049D02*
X0138755Y0048049D01*
X0138157Y0047450D02*
X0157986Y0047450D01*
X0157387Y0046852D02*
X0137558Y0046852D01*
X0136960Y0046253D02*
X0156789Y0046253D01*
X0156190Y0045655D02*
X0136361Y0045655D01*
X0135763Y0045056D02*
X0155592Y0045056D01*
X0154993Y0044458D02*
X0135164Y0044458D01*
X0134566Y0043859D02*
X0154395Y0043859D01*
X0153796Y0043261D02*
X0133967Y0043261D01*
X0133369Y0042662D02*
X0153198Y0042662D01*
X0152599Y0042064D02*
X0132770Y0042064D01*
X0132172Y0041465D02*
X0152001Y0041465D01*
X0151402Y0040867D02*
X0131573Y0040867D01*
X0130975Y0040268D02*
X0150804Y0040268D01*
X0150205Y0039670D02*
X0130376Y0039670D01*
X0129778Y0039071D02*
X0149607Y0039071D01*
X0149008Y0038473D02*
X0129179Y0038473D01*
X0128581Y0037874D02*
X0148410Y0037874D01*
X0147811Y0037276D02*
X0127982Y0037276D01*
X0127383Y0036677D02*
X0147212Y0036677D01*
X0151428Y0036677D02*
X0164054Y0036677D01*
X0164054Y0036078D02*
X0162661Y0036078D01*
X0162578Y0036162D02*
X0163105Y0035635D01*
X0163105Y0023079D01*
X0162578Y0022551D01*
X0157108Y0022551D01*
X0156580Y0023079D01*
X0156580Y0035635D01*
X0157108Y0036162D01*
X0162578Y0036162D01*
X0163105Y0035480D02*
X0164054Y0035480D01*
X0164111Y0034881D02*
X0163105Y0034881D01*
X0163105Y0034283D02*
X0164495Y0034283D01*
X0163105Y0033684D02*
X0175389Y0033684D01*
X0174791Y0033086D02*
X0163105Y0033086D01*
X0163105Y0032487D02*
X0174192Y0032487D01*
X0173594Y0031889D02*
X0163105Y0031889D01*
X0163105Y0031290D02*
X0172995Y0031290D01*
X0172397Y0030692D02*
X0163105Y0030692D01*
X0163105Y0030093D02*
X0171798Y0030093D01*
X0171200Y0029495D02*
X0163105Y0029495D01*
X0163105Y0028896D02*
X0170601Y0028896D01*
X0170003Y0028298D02*
X0163105Y0028298D01*
X0163105Y0027699D02*
X0169404Y0027699D01*
X0168806Y0027101D02*
X0163105Y0027101D01*
X0163105Y0026502D02*
X0168207Y0026502D01*
X0167609Y0025904D02*
X0163105Y0025904D01*
X0163105Y0025305D02*
X0167010Y0025305D01*
X0166412Y0024707D02*
X0163105Y0024707D01*
X0163105Y0024108D02*
X0165813Y0024108D01*
X0165215Y0023510D02*
X0163105Y0023510D01*
X0162937Y0022911D02*
X0164616Y0022911D01*
X0164018Y0022313D02*
X0149340Y0022313D01*
X0149340Y0021714D02*
X0163419Y0021714D01*
X0162820Y0021116D02*
X0149340Y0021116D01*
X0149340Y0020517D02*
X0162222Y0020517D01*
X0161623Y0019919D02*
X0149340Y0019919D01*
X0149340Y0019320D02*
X0161025Y0019320D01*
X0160426Y0018722D02*
X0149340Y0018722D01*
X0149340Y0018123D02*
X0159828Y0018123D01*
X0159229Y0017525D02*
X0153285Y0017525D01*
X0153899Y0016926D02*
X0158631Y0016926D01*
X0158032Y0016328D02*
X0154445Y0016328D01*
X0154693Y0015729D02*
X0157434Y0015729D01*
X0156835Y0015131D02*
X0154941Y0015131D01*
X0155002Y0014532D02*
X0156237Y0014532D01*
X0155638Y0013934D02*
X0155002Y0013934D01*
X0155002Y0013335D02*
X0155040Y0013335D01*
X0158935Y0010342D02*
X0167873Y0010342D01*
X0167873Y0010907D02*
X0167873Y0008083D01*
X0167962Y0007753D01*
X0168133Y0007456D01*
X0168375Y0007214D01*
X0168671Y0007043D01*
X0169002Y0006955D01*
X0171432Y0006955D01*
X0171432Y0010907D01*
X0172032Y0010907D01*
X0172032Y0006955D01*
X0174462Y0006955D01*
X0174793Y0007043D01*
X0175090Y0007214D01*
X0175332Y0007456D01*
X0175503Y0007753D01*
X0175591Y0008083D01*
X0175591Y0010907D01*
X0172032Y0010907D01*
X0172032Y0011507D01*
X0171432Y0011507D01*
X0171432Y0010907D01*
X0167873Y0010907D01*
X0167873Y0011507D02*
X0171432Y0011507D01*
X0171432Y0015460D01*
X0169002Y0015460D01*
X0168671Y0015371D01*
X0168375Y0015200D01*
X0168133Y0014958D01*
X0167962Y0014662D01*
X0167873Y0014331D01*
X0167873Y0011507D01*
X0167873Y0011540D02*
X0160132Y0011540D01*
X0160730Y0012138D02*
X0167873Y0012138D01*
X0167873Y0012737D02*
X0161329Y0012737D01*
X0161927Y0013335D02*
X0167873Y0013335D01*
X0167873Y0013934D02*
X0162526Y0013934D01*
X0163124Y0014532D02*
X0167927Y0014532D01*
X0168305Y0015131D02*
X0163723Y0015131D01*
X0164321Y0015729D02*
X0173372Y0015729D01*
X0173372Y0016328D02*
X0164920Y0016328D01*
X0171432Y0015131D02*
X0172032Y0015131D01*
X0172032Y0014532D02*
X0171432Y0014532D01*
X0171432Y0013934D02*
X0172032Y0013934D01*
X0172032Y0013335D02*
X0171432Y0013335D01*
X0171432Y0012737D02*
X0172032Y0012737D01*
X0172032Y0012138D02*
X0171432Y0012138D01*
X0171432Y0011540D02*
X0172032Y0011540D01*
X0172032Y0010941D02*
X0175754Y0010941D01*
X0175754Y0010342D02*
X0175591Y0010342D01*
X0175591Y0009744D02*
X0175754Y0009744D01*
X0175754Y0009145D02*
X0175591Y0009145D01*
X0175591Y0008547D02*
X0175754Y0008547D01*
X0175754Y0007948D02*
X0175555Y0007948D01*
X0175225Y0007350D02*
X0184617Y0007350D01*
X0184019Y0007948D02*
X0182672Y0007948D01*
X0182672Y0008547D02*
X0183420Y0008547D01*
X0182822Y0009145D02*
X0182672Y0009145D01*
X0185216Y0006751D02*
X0156909Y0006751D01*
X0156909Y0006153D02*
X0185814Y0006153D01*
X0186413Y0005554D02*
X0156818Y0005554D01*
X0156220Y0004956D02*
X0296220Y0004956D01*
X0296220Y0005554D02*
X0227729Y0005554D01*
X0228327Y0006153D02*
X0296220Y0006153D01*
X0296220Y0006751D02*
X0228926Y0006751D01*
X0229524Y0007350D02*
X0296220Y0007350D01*
X0296220Y0007948D02*
X0230123Y0007948D01*
X0230721Y0008547D02*
X0296220Y0008547D01*
X0296220Y0009145D02*
X0231320Y0009145D01*
X0231918Y0009744D02*
X0296220Y0009744D01*
X0296220Y0010342D02*
X0284255Y0010342D01*
X0283205Y0009907D02*
X0285853Y0011004D01*
X0287880Y0013031D01*
X0288977Y0015680D01*
X0288977Y0018546D01*
X0287880Y0021194D01*
X0285853Y0023221D01*
X0283205Y0024318D01*
X0280338Y0024318D01*
X0277690Y0023221D01*
X0275663Y0021194D01*
X0274566Y0018546D01*
X0274566Y0015680D01*
X0275663Y0013031D01*
X0277690Y0011004D01*
X0280338Y0009907D01*
X0283205Y0009907D01*
X0285700Y0010941D02*
X0296220Y0010941D01*
X0296220Y0011540D02*
X0286388Y0011540D01*
X0286987Y0012138D02*
X0296220Y0012138D01*
X0296220Y0012737D02*
X0287585Y0012737D01*
X0288006Y0013335D02*
X0296220Y0013335D01*
X0296220Y0013934D02*
X0288254Y0013934D01*
X0288502Y0014532D02*
X0296220Y0014532D01*
X0296220Y0015131D02*
X0288750Y0015131D01*
X0288977Y0015729D02*
X0296220Y0015729D01*
X0296220Y0016328D02*
X0288977Y0016328D01*
X0288977Y0016926D02*
X0296220Y0016926D01*
X0296220Y0017525D02*
X0288977Y0017525D01*
X0288977Y0018123D02*
X0296220Y0018123D01*
X0296220Y0018722D02*
X0288904Y0018722D01*
X0288657Y0019320D02*
X0296220Y0019320D01*
X0296220Y0019919D02*
X0288409Y0019919D01*
X0288161Y0020517D02*
X0296220Y0020517D01*
X0296220Y0021116D02*
X0287913Y0021116D01*
X0287360Y0021714D02*
X0296220Y0021714D01*
X0296220Y0022313D02*
X0286762Y0022313D01*
X0286163Y0022911D02*
X0296220Y0022911D01*
X0296220Y0023510D02*
X0285157Y0023510D01*
X0283712Y0024108D02*
X0296220Y0024108D01*
X0296220Y0024707D02*
X0243241Y0024707D01*
X0243241Y0025305D02*
X0296220Y0025305D01*
X0296220Y0025904D02*
X0243241Y0025904D01*
X0243241Y0026502D02*
X0296220Y0026502D01*
X0296220Y0027101D02*
X0243241Y0027101D01*
X0243241Y0027699D02*
X0296220Y0027699D01*
X0296220Y0028298D02*
X0243241Y0028298D01*
X0243241Y0028896D02*
X0296220Y0028896D01*
X0296220Y0029495D02*
X0243241Y0029495D01*
X0243241Y0030093D02*
X0296220Y0030093D01*
X0296220Y0030692D02*
X0243515Y0030692D01*
X0244114Y0031290D02*
X0296220Y0031290D01*
X0296220Y0031889D02*
X0244712Y0031889D01*
X0245311Y0032487D02*
X0296220Y0032487D01*
X0296220Y0033086D02*
X0245909Y0033086D01*
X0246508Y0033684D02*
X0296220Y0033684D01*
X0296220Y0034283D02*
X0247106Y0034283D01*
X0247705Y0034881D02*
X0296220Y0034881D01*
X0296220Y0035480D02*
X0248303Y0035480D01*
X0248902Y0036078D02*
X0296220Y0036078D01*
X0296220Y0036677D02*
X0249503Y0036677D01*
X0250099Y0037276D02*
X0296220Y0037276D01*
X0296220Y0037874D02*
X0250366Y0037874D01*
X0250811Y0038473D02*
X0296220Y0038473D01*
X0296220Y0039071D02*
X0250960Y0039071D01*
X0250811Y0039670D02*
X0296220Y0039670D01*
X0296220Y0040268D02*
X0291793Y0040268D01*
X0292663Y0040867D02*
X0296220Y0040867D01*
X0296220Y0041465D02*
X0293261Y0041465D01*
X0293563Y0042064D02*
X0296220Y0042064D01*
X0296220Y0042662D02*
X0293811Y0042662D01*
X0293947Y0043261D02*
X0296220Y0043261D01*
X0296220Y0043859D02*
X0293947Y0043859D01*
X0293947Y0044458D02*
X0296220Y0044458D01*
X0296220Y0045056D02*
X0293734Y0045056D01*
X0293486Y0045655D02*
X0296220Y0045655D01*
X0296220Y0046253D02*
X0293076Y0046253D01*
X0292477Y0046852D02*
X0296220Y0046852D01*
X0296220Y0047450D02*
X0291345Y0047450D01*
X0291054Y0049572D02*
X0291698Y0049781D01*
X0292301Y0050089D01*
X0292848Y0050487D01*
X0293327Y0050965D01*
X0293725Y0051513D01*
X0294032Y0052116D01*
X0294241Y0052759D01*
X0294347Y0053428D01*
X0294347Y0053466D01*
X0287347Y0053466D01*
X0287347Y0049466D01*
X0290386Y0049466D01*
X0291054Y0049572D01*
X0291821Y0049844D02*
X0296220Y0049844D01*
X0296220Y0049246D02*
X0266940Y0049246D01*
X0267538Y0048647D02*
X0296220Y0048647D01*
X0296220Y0048049D02*
X0268137Y0048049D01*
X0268735Y0047450D02*
X0282750Y0047450D01*
X0281617Y0046852D02*
X0269334Y0046852D01*
X0269932Y0046253D02*
X0281019Y0046253D01*
X0282397Y0049781D02*
X0283040Y0049572D01*
X0283709Y0049466D01*
X0286747Y0049466D01*
X0286747Y0053466D01*
X0287347Y0053466D01*
X0287347Y0054066D01*
X0294347Y0054066D01*
X0294347Y0054105D01*
X0294241Y0054773D01*
X0294032Y0055417D01*
X0293725Y0056020D01*
X0293327Y0056568D01*
X0292848Y0057046D01*
X0292301Y0057444D01*
X0291698Y0057751D01*
X0291054Y0057961D01*
X0290386Y0058066D01*
X0287347Y0058066D01*
X0287347Y0054066D01*
X0286747Y0054066D01*
X0286747Y0053466D01*
X0279747Y0053466D01*
X0279747Y0053428D01*
X0279853Y0052759D01*
X0280062Y0052116D01*
X0280370Y0051513D01*
X0280767Y0050965D01*
X0281246Y0050487D01*
X0281794Y0050089D01*
X0282397Y0049781D01*
X0282273Y0049844D02*
X0266341Y0049844D01*
X0265743Y0050443D02*
X0281306Y0050443D01*
X0280712Y0051041D02*
X0265144Y0051041D01*
X0264546Y0051640D02*
X0280305Y0051640D01*
X0280022Y0052238D02*
X0263947Y0052238D01*
X0263349Y0052837D02*
X0279841Y0052837D01*
X0279747Y0053435D02*
X0262750Y0053435D01*
X0262152Y0054034D02*
X0286747Y0054034D01*
X0286747Y0054066D02*
X0279747Y0054066D01*
X0279747Y0054105D01*
X0279853Y0054773D01*
X0280062Y0055417D01*
X0280370Y0056020D01*
X0280767Y0056568D01*
X0281246Y0057046D01*
X0281794Y0057444D01*
X0282397Y0057751D01*
X0283040Y0057961D01*
X0283709Y0058066D01*
X0286747Y0058066D01*
X0286747Y0054066D01*
X0286747Y0054632D02*
X0287347Y0054632D01*
X0287347Y0054034D02*
X0296220Y0054034D01*
X0296220Y0054632D02*
X0294264Y0054632D01*
X0294093Y0055231D02*
X0296220Y0055231D01*
X0296220Y0055829D02*
X0293822Y0055829D01*
X0293429Y0056428D02*
X0296220Y0056428D01*
X0296220Y0057026D02*
X0292868Y0057026D01*
X0291946Y0057625D02*
X0296220Y0057625D01*
X0296220Y0058223D02*
X0257962Y0058223D01*
X0258561Y0057625D02*
X0282148Y0057625D01*
X0281226Y0057026D02*
X0259159Y0057026D01*
X0259758Y0056428D02*
X0280666Y0056428D01*
X0280272Y0055829D02*
X0260356Y0055829D01*
X0260955Y0055231D02*
X0280002Y0055231D01*
X0279831Y0054632D02*
X0261553Y0054632D01*
X0258019Y0052837D02*
X0250811Y0052837D01*
X0250811Y0053435D02*
X0257421Y0053435D01*
X0256822Y0054034D02*
X0250811Y0054034D01*
X0250811Y0054632D02*
X0256224Y0054632D01*
X0255625Y0055231D02*
X0250811Y0055231D01*
X0250811Y0055829D02*
X0255027Y0055829D01*
X0254428Y0056428D02*
X0250407Y0056428D01*
X0249808Y0057026D02*
X0253830Y0057026D01*
X0253231Y0057625D02*
X0249210Y0057625D01*
X0248611Y0058223D02*
X0252633Y0058223D01*
X0252034Y0058822D02*
X0244005Y0058822D01*
X0243407Y0059420D02*
X0251436Y0059420D01*
X0250837Y0060019D02*
X0242808Y0060019D01*
X0243458Y0060617D02*
X0250239Y0060617D01*
X0249640Y0061216D02*
X0244718Y0061216D01*
X0245317Y0061814D02*
X0249042Y0061814D01*
X0248443Y0062413D02*
X0245773Y0062413D01*
X0246021Y0063011D02*
X0247845Y0063011D01*
X0247246Y0063610D02*
X0246261Y0063610D01*
X0246261Y0064209D02*
X0246647Y0064209D01*
X0250780Y0065406D02*
X0280505Y0065406D01*
X0280257Y0064807D02*
X0251378Y0064807D01*
X0251977Y0064209D02*
X0280147Y0064209D01*
X0280147Y0063610D02*
X0252575Y0063610D01*
X0253174Y0063011D02*
X0280147Y0063011D01*
X0280387Y0062413D02*
X0253772Y0062413D01*
X0254371Y0061814D02*
X0280634Y0061814D01*
X0281082Y0061216D02*
X0254969Y0061216D01*
X0255568Y0060617D02*
X0281681Y0060617D01*
X0282903Y0060019D02*
X0256167Y0060019D01*
X0256765Y0059420D02*
X0296220Y0059420D01*
X0296220Y0058822D02*
X0257364Y0058822D01*
X0258618Y0052238D02*
X0250811Y0052238D01*
X0250811Y0051640D02*
X0259216Y0051640D01*
X0259815Y0051041D02*
X0250811Y0051041D01*
X0250811Y0050443D02*
X0260413Y0050443D01*
X0261012Y0049844D02*
X0250811Y0049844D01*
X0250811Y0049246D02*
X0261610Y0049246D01*
X0262209Y0048647D02*
X0250811Y0048647D01*
X0250811Y0048049D02*
X0262807Y0048049D01*
X0263406Y0047450D02*
X0250811Y0047450D01*
X0250811Y0046852D02*
X0264004Y0046852D01*
X0264603Y0046253D02*
X0250811Y0046253D01*
X0250811Y0045655D02*
X0265201Y0045655D01*
X0265800Y0045056D02*
X0250811Y0045056D01*
X0250811Y0044458D02*
X0266398Y0044458D01*
X0266997Y0043859D02*
X0250811Y0043859D01*
X0250811Y0043261D02*
X0267595Y0043261D01*
X0268194Y0042662D02*
X0250811Y0042662D01*
X0250811Y0042064D02*
X0280531Y0042064D01*
X0280833Y0041465D02*
X0250811Y0041465D01*
X0250811Y0040867D02*
X0281432Y0040867D01*
X0282302Y0040268D02*
X0250811Y0040268D01*
X0246835Y0039341D02*
X0239473Y0031979D01*
X0239473Y0022628D01*
X0227068Y0010224D01*
X0227068Y0012587D01*
X0224769Y0012587D01*
X0224769Y0013187D01*
X0227068Y0013187D01*
X0227068Y0017058D01*
X0226980Y0017389D01*
X0226809Y0017685D01*
X0226567Y0017927D01*
X0226270Y0018098D01*
X0225940Y0018187D01*
X0224768Y0018187D01*
X0224768Y0013187D01*
X0224169Y0013187D01*
X0224169Y0018187D01*
X0222997Y0018187D01*
X0222667Y0018098D01*
X0222370Y0017927D01*
X0222128Y0017685D01*
X0221968Y0017408D01*
X0221809Y0017685D01*
X0221567Y0017927D01*
X0221270Y0018098D01*
X0220940Y0018187D01*
X0219768Y0018187D01*
X0219768Y0013187D01*
X0219169Y0013187D01*
X0219169Y0018187D01*
X0217997Y0018187D01*
X0217667Y0018098D01*
X0217370Y0017927D01*
X0217128Y0017685D01*
X0216969Y0017408D01*
X0216809Y0017685D01*
X0216567Y0017927D01*
X0216270Y0018098D01*
X0215940Y0018187D01*
X0214768Y0018187D01*
X0214768Y0013187D01*
X0214169Y0013187D01*
X0214169Y0018187D01*
X0212997Y0018187D01*
X0212667Y0018098D01*
X0212370Y0017927D01*
X0212128Y0017685D01*
X0211968Y0017408D01*
X0211809Y0017685D01*
X0211567Y0017927D01*
X0211270Y0018098D01*
X0210940Y0018187D01*
X0209768Y0018187D01*
X0209768Y0013187D01*
X0209169Y0013187D01*
X0209169Y0018187D01*
X0207997Y0018187D01*
X0207667Y0018098D01*
X0207370Y0017927D01*
X0207128Y0017685D01*
X0206957Y0017389D01*
X0206869Y0017058D01*
X0206869Y0013187D01*
X0209168Y0013187D01*
X0209168Y0012587D01*
X0206869Y0012587D01*
X0206869Y0009038D01*
X0206668Y0009038D01*
X0206668Y0017260D01*
X0206141Y0017787D01*
X0204779Y0017787D01*
X0203828Y0018739D01*
X0203828Y0019600D01*
X0202597Y0020831D01*
X0200858Y0020831D01*
X0200546Y0020519D01*
X0200546Y0022020D01*
X0194031Y0028535D01*
X0194031Y0029396D01*
X0192801Y0030627D01*
X0192577Y0030627D01*
X0194137Y0032187D01*
X0196141Y0032187D01*
X0196668Y0032714D01*
X0196668Y0040840D01*
X0197002Y0040840D01*
X0197269Y0041106D01*
X0197269Y0032714D01*
X0197796Y0032187D01*
X0201141Y0032187D01*
X0201668Y0032714D01*
X0201668Y0041201D01*
X0201921Y0041453D01*
X0201869Y0041258D01*
X0201869Y0037387D01*
X0204168Y0037387D01*
X0204168Y0036787D01*
X0201869Y0036787D01*
X0201869Y0032916D01*
X0201957Y0032585D01*
X0202128Y0032289D01*
X0202370Y0032047D01*
X0202667Y0031875D01*
X0202997Y0031787D01*
X0204169Y0031787D01*
X0204169Y0036787D01*
X0204768Y0036787D01*
X0204768Y0031787D01*
X0205940Y0031787D01*
X0206270Y0031875D01*
X0206567Y0032047D01*
X0206809Y0032289D01*
X0206968Y0032565D01*
X0207128Y0032289D01*
X0207370Y0032047D01*
X0207667Y0031875D01*
X0207997Y0031787D01*
X0209169Y0031787D01*
X0209169Y0036787D01*
X0209768Y0036787D01*
X0209768Y0031787D01*
X0210940Y0031787D01*
X0211270Y0031875D01*
X0211567Y0032047D01*
X0211809Y0032289D01*
X0211969Y0032565D01*
X0212128Y0032289D01*
X0212370Y0032047D01*
X0212667Y0031875D01*
X0212997Y0031787D01*
X0214169Y0031787D01*
X0214169Y0036787D01*
X0214768Y0036787D01*
X0214768Y0031787D01*
X0215940Y0031787D01*
X0216270Y0031875D01*
X0216567Y0032047D01*
X0216809Y0032289D01*
X0216968Y0032565D01*
X0217128Y0032289D01*
X0217370Y0032047D01*
X0217667Y0031875D01*
X0217997Y0031787D01*
X0219169Y0031787D01*
X0219169Y0036787D01*
X0219768Y0036787D01*
X0219768Y0031787D01*
X0220940Y0031787D01*
X0221270Y0031875D01*
X0221567Y0032047D01*
X0221809Y0032289D01*
X0221968Y0032565D01*
X0222128Y0032289D01*
X0222370Y0032047D01*
X0222667Y0031875D01*
X0222997Y0031787D01*
X0224169Y0031787D01*
X0224169Y0036787D01*
X0224768Y0036787D01*
X0224768Y0031787D01*
X0225940Y0031787D01*
X0226270Y0031875D01*
X0226567Y0032047D01*
X0226809Y0032289D01*
X0226980Y0032585D01*
X0227068Y0032916D01*
X0227068Y0036787D01*
X0224769Y0036787D01*
X0224769Y0037387D01*
X0227068Y0037387D01*
X0227068Y0041258D01*
X0226980Y0041589D01*
X0226809Y0041885D01*
X0226567Y0042127D01*
X0226270Y0042298D01*
X0225940Y0042387D01*
X0224768Y0042387D01*
X0224768Y0037387D01*
X0224169Y0037387D01*
X0224169Y0042387D01*
X0222997Y0042387D01*
X0222667Y0042298D01*
X0222370Y0042127D01*
X0222128Y0041885D01*
X0221968Y0041608D01*
X0221809Y0041885D01*
X0221567Y0042127D01*
X0221270Y0042298D01*
X0220940Y0042387D01*
X0219768Y0042387D01*
X0219768Y0037387D01*
X0219169Y0037387D01*
X0219169Y0042387D01*
X0217997Y0042387D01*
X0217667Y0042298D01*
X0217370Y0042127D01*
X0217128Y0041885D01*
X0216968Y0041608D01*
X0216809Y0041885D01*
X0216567Y0042127D01*
X0216270Y0042298D01*
X0215940Y0042387D01*
X0214768Y0042387D01*
X0214768Y0037387D01*
X0214169Y0037387D01*
X0214169Y0042387D01*
X0212997Y0042387D01*
X0212667Y0042298D01*
X0212370Y0042127D01*
X0212128Y0041885D01*
X0211969Y0041608D01*
X0211809Y0041885D01*
X0211567Y0042127D01*
X0211270Y0042298D01*
X0210940Y0042387D01*
X0209768Y0042387D01*
X0209768Y0037387D01*
X0209169Y0037387D01*
X0209169Y0042387D01*
X0207997Y0042387D01*
X0207667Y0042298D01*
X0207370Y0042127D01*
X0207128Y0041885D01*
X0206968Y0041608D01*
X0206809Y0041885D01*
X0206567Y0042127D01*
X0206270Y0042298D01*
X0205940Y0042387D01*
X0204768Y0042387D01*
X0204768Y0037387D01*
X0204169Y0037387D01*
X0204169Y0042387D01*
X0202997Y0042387D01*
X0202802Y0042335D01*
X0205617Y0045150D01*
X0236974Y0045150D01*
X0236974Y0039868D01*
X0237501Y0039341D01*
X0246835Y0039341D01*
X0246565Y0039071D02*
X0227068Y0039071D01*
X0227068Y0038473D02*
X0245967Y0038473D01*
X0245368Y0037874D02*
X0227068Y0037874D01*
X0227068Y0036677D02*
X0244171Y0036677D01*
X0243573Y0036078D02*
X0227068Y0036078D01*
X0227068Y0035480D02*
X0242974Y0035480D01*
X0242376Y0034881D02*
X0227068Y0034881D01*
X0227068Y0034283D02*
X0241777Y0034283D01*
X0241179Y0033684D02*
X0227068Y0033684D01*
X0227068Y0033086D02*
X0240580Y0033086D01*
X0239981Y0032487D02*
X0226923Y0032487D01*
X0226294Y0031889D02*
X0239473Y0031889D01*
X0239473Y0031290D02*
X0193241Y0031290D01*
X0192642Y0030692D02*
X0239473Y0030692D01*
X0239473Y0030093D02*
X0193335Y0030093D01*
X0193933Y0029495D02*
X0239473Y0029495D01*
X0239473Y0028896D02*
X0194031Y0028896D01*
X0194268Y0028298D02*
X0239473Y0028298D01*
X0239473Y0027699D02*
X0194867Y0027699D01*
X0195465Y0027101D02*
X0239473Y0027101D01*
X0239473Y0026502D02*
X0196064Y0026502D01*
X0196662Y0025904D02*
X0239473Y0025904D01*
X0239473Y0025305D02*
X0197261Y0025305D01*
X0197859Y0024707D02*
X0239473Y0024707D01*
X0239473Y0024108D02*
X0198458Y0024108D01*
X0199056Y0023510D02*
X0239473Y0023510D01*
X0239473Y0022911D02*
X0199655Y0022911D01*
X0200253Y0022313D02*
X0239158Y0022313D01*
X0238559Y0021714D02*
X0200546Y0021714D01*
X0200546Y0021116D02*
X0237961Y0021116D01*
X0237362Y0020517D02*
X0202911Y0020517D01*
X0203509Y0019919D02*
X0236764Y0019919D01*
X0236165Y0019320D02*
X0203828Y0019320D01*
X0203844Y0018722D02*
X0235567Y0018722D01*
X0234968Y0018123D02*
X0226177Y0018123D01*
X0226901Y0017525D02*
X0234370Y0017525D01*
X0233771Y0016926D02*
X0227068Y0016926D01*
X0227068Y0016328D02*
X0233172Y0016328D01*
X0232574Y0015729D02*
X0227068Y0015729D01*
X0227068Y0015131D02*
X0231975Y0015131D01*
X0231377Y0014532D02*
X0227068Y0014532D01*
X0227068Y0013934D02*
X0230778Y0013934D01*
X0230180Y0013335D02*
X0227068Y0013335D01*
X0227068Y0012138D02*
X0228983Y0012138D01*
X0229581Y0012737D02*
X0224769Y0012737D01*
X0224768Y0013335D02*
X0224169Y0013335D01*
X0224168Y0013187D02*
X0224168Y0012587D01*
X0221869Y0012587D01*
X0219769Y0012587D01*
X0219769Y0013187D01*
X0224168Y0013187D01*
X0224168Y0012737D02*
X0219769Y0012737D01*
X0219768Y0013335D02*
X0219169Y0013335D01*
X0219168Y0013187D02*
X0219168Y0012587D01*
X0217068Y0012587D01*
X0214769Y0012587D01*
X0214769Y0013187D01*
X0219168Y0013187D01*
X0219168Y0012737D02*
X0214769Y0012737D01*
X0214768Y0013335D02*
X0214169Y0013335D01*
X0214168Y0013187D02*
X0214168Y0012587D01*
X0211869Y0012587D01*
X0209769Y0012587D01*
X0209769Y0013187D01*
X0214168Y0013187D01*
X0214168Y0012737D02*
X0209769Y0012737D01*
X0209768Y0013335D02*
X0209169Y0013335D01*
X0209168Y0012737D02*
X0206668Y0012737D01*
X0206668Y0013335D02*
X0206869Y0013335D01*
X0206869Y0013934D02*
X0206668Y0013934D01*
X0206668Y0014532D02*
X0206869Y0014532D01*
X0206869Y0015131D02*
X0206668Y0015131D01*
X0206668Y0015729D02*
X0206869Y0015729D01*
X0206869Y0016328D02*
X0206668Y0016328D01*
X0206668Y0016926D02*
X0206869Y0016926D01*
X0207036Y0017525D02*
X0206404Y0017525D01*
X0207760Y0018123D02*
X0204443Y0018123D01*
X0209169Y0018123D02*
X0209768Y0018123D01*
X0209768Y0017525D02*
X0209169Y0017525D01*
X0209169Y0016926D02*
X0209768Y0016926D01*
X0209768Y0016328D02*
X0209169Y0016328D01*
X0209169Y0015729D02*
X0209768Y0015729D01*
X0209768Y0015131D02*
X0209169Y0015131D01*
X0209169Y0014532D02*
X0209768Y0014532D01*
X0209768Y0013934D02*
X0209169Y0013934D01*
X0206869Y0012138D02*
X0206668Y0012138D01*
X0206668Y0011540D02*
X0206869Y0011540D01*
X0206869Y0010941D02*
X0206668Y0010941D01*
X0206668Y0010342D02*
X0206869Y0010342D01*
X0206869Y0009744D02*
X0206668Y0009744D01*
X0206668Y0009145D02*
X0206869Y0009145D01*
X0214169Y0013934D02*
X0214768Y0013934D01*
X0214768Y0014532D02*
X0214169Y0014532D01*
X0214169Y0015131D02*
X0214768Y0015131D01*
X0214768Y0015729D02*
X0214169Y0015729D01*
X0214169Y0016328D02*
X0214768Y0016328D01*
X0214768Y0016926D02*
X0214169Y0016926D01*
X0214169Y0017525D02*
X0214768Y0017525D01*
X0214768Y0018123D02*
X0214169Y0018123D01*
X0212760Y0018123D02*
X0211177Y0018123D01*
X0211901Y0017525D02*
X0212036Y0017525D01*
X0216177Y0018123D02*
X0217760Y0018123D01*
X0217036Y0017525D02*
X0216901Y0017525D01*
X0219169Y0017525D02*
X0219768Y0017525D01*
X0219768Y0018123D02*
X0219169Y0018123D01*
X0219169Y0016926D02*
X0219768Y0016926D01*
X0219768Y0016328D02*
X0219169Y0016328D01*
X0219169Y0015729D02*
X0219768Y0015729D01*
X0219768Y0015131D02*
X0219169Y0015131D01*
X0219169Y0014532D02*
X0219768Y0014532D01*
X0219768Y0013934D02*
X0219169Y0013934D01*
X0224169Y0013934D02*
X0224768Y0013934D01*
X0224768Y0014532D02*
X0224169Y0014532D01*
X0224169Y0015131D02*
X0224768Y0015131D01*
X0224768Y0015729D02*
X0224169Y0015729D01*
X0224169Y0016328D02*
X0224768Y0016328D01*
X0224768Y0016926D02*
X0224169Y0016926D01*
X0224169Y0017525D02*
X0224768Y0017525D01*
X0224768Y0018123D02*
X0224169Y0018123D01*
X0222760Y0018123D02*
X0221177Y0018123D01*
X0221901Y0017525D02*
X0222036Y0017525D01*
X0234312Y0012138D02*
X0276556Y0012138D01*
X0275958Y0012737D02*
X0234911Y0012737D01*
X0235509Y0013335D02*
X0275537Y0013335D01*
X0275289Y0013934D02*
X0236108Y0013934D01*
X0236706Y0014532D02*
X0275041Y0014532D01*
X0274794Y0015131D02*
X0237305Y0015131D01*
X0237903Y0015729D02*
X0274566Y0015729D01*
X0274566Y0016328D02*
X0238502Y0016328D01*
X0239100Y0016926D02*
X0274566Y0016926D01*
X0274566Y0017525D02*
X0239699Y0017525D01*
X0240297Y0018123D02*
X0274566Y0018123D01*
X0274639Y0018722D02*
X0240896Y0018722D01*
X0241494Y0019320D02*
X0274887Y0019320D01*
X0275135Y0019919D02*
X0242093Y0019919D01*
X0242691Y0020517D02*
X0275383Y0020517D01*
X0275631Y0021116D02*
X0243241Y0021116D01*
X0243241Y0021714D02*
X0276183Y0021714D01*
X0276781Y0022313D02*
X0243241Y0022313D01*
X0243241Y0022911D02*
X0277380Y0022911D01*
X0278386Y0023510D02*
X0243241Y0023510D01*
X0243241Y0024108D02*
X0279831Y0024108D01*
X0277155Y0011540D02*
X0233714Y0011540D01*
X0233115Y0010941D02*
X0277843Y0010941D01*
X0279288Y0010342D02*
X0232517Y0010342D01*
X0228384Y0011540D02*
X0227068Y0011540D01*
X0227068Y0010941D02*
X0227786Y0010941D01*
X0227187Y0010342D02*
X0227068Y0010342D01*
X0195764Y0005554D02*
X0192552Y0005554D01*
X0193150Y0006153D02*
X0195165Y0006153D01*
X0194567Y0006751D02*
X0193749Y0006751D01*
X0175754Y0011540D02*
X0175591Y0011540D01*
X0175591Y0012138D02*
X0175754Y0012138D01*
X0175708Y0012737D02*
X0175591Y0012737D01*
X0172032Y0010342D02*
X0171432Y0010342D01*
X0171432Y0009744D02*
X0172032Y0009744D01*
X0172032Y0009145D02*
X0171432Y0009145D01*
X0171432Y0008547D02*
X0172032Y0008547D01*
X0172032Y0007948D02*
X0171432Y0007948D01*
X0171432Y0007350D02*
X0172032Y0007350D01*
X0168239Y0007350D02*
X0156909Y0007350D01*
X0156909Y0007948D02*
X0167909Y0007948D01*
X0167873Y0008547D02*
X0157139Y0008547D01*
X0157738Y0009145D02*
X0167873Y0009145D01*
X0167873Y0009744D02*
X0158336Y0009744D01*
X0159533Y0010941D02*
X0171432Y0010941D01*
X0155621Y0004357D02*
X0296220Y0004357D01*
X0296220Y0003759D02*
X0155023Y0003759D01*
X0154424Y0003160D02*
X0296220Y0003160D01*
X0224768Y0031889D02*
X0224169Y0031889D01*
X0224169Y0032487D02*
X0224768Y0032487D01*
X0224768Y0033086D02*
X0224169Y0033086D01*
X0224169Y0033684D02*
X0224768Y0033684D01*
X0224768Y0034283D02*
X0224169Y0034283D01*
X0224169Y0034881D02*
X0224768Y0034881D01*
X0224768Y0035480D02*
X0224169Y0035480D01*
X0224169Y0036078D02*
X0224768Y0036078D01*
X0224768Y0036677D02*
X0224169Y0036677D01*
X0224168Y0036787D02*
X0221869Y0036787D01*
X0219769Y0036787D01*
X0219769Y0037387D01*
X0224168Y0037387D01*
X0224168Y0036787D01*
X0224168Y0037276D02*
X0219769Y0037276D01*
X0219768Y0037874D02*
X0219169Y0037874D01*
X0219168Y0037387D02*
X0219168Y0036787D01*
X0216869Y0036787D01*
X0214769Y0036787D01*
X0214769Y0037387D01*
X0219168Y0037387D01*
X0219168Y0037276D02*
X0214769Y0037276D01*
X0214768Y0037874D02*
X0214169Y0037874D01*
X0214168Y0037387D02*
X0214168Y0036787D01*
X0212068Y0036787D01*
X0209769Y0036787D01*
X0209769Y0037387D01*
X0214168Y0037387D01*
X0214168Y0037276D02*
X0209769Y0037276D01*
X0209768Y0037874D02*
X0209169Y0037874D01*
X0209168Y0037387D02*
X0209168Y0036787D01*
X0206869Y0036787D01*
X0204769Y0036787D01*
X0204769Y0037387D01*
X0209168Y0037387D01*
X0209168Y0037276D02*
X0204769Y0037276D01*
X0204768Y0037874D02*
X0204169Y0037874D01*
X0204168Y0037276D02*
X0201668Y0037276D01*
X0201668Y0037874D02*
X0201869Y0037874D01*
X0201869Y0038473D02*
X0201668Y0038473D01*
X0201668Y0039071D02*
X0201869Y0039071D01*
X0201869Y0039670D02*
X0201668Y0039670D01*
X0201668Y0040268D02*
X0201869Y0040268D01*
X0201869Y0040867D02*
X0201668Y0040867D01*
X0204169Y0040867D02*
X0204768Y0040867D01*
X0204768Y0041465D02*
X0204169Y0041465D01*
X0204169Y0042064D02*
X0204768Y0042064D01*
X0203728Y0043261D02*
X0236974Y0043261D01*
X0236974Y0043859D02*
X0204327Y0043859D01*
X0204925Y0044458D02*
X0236974Y0044458D01*
X0236974Y0045056D02*
X0205524Y0045056D01*
X0203509Y0047258D02*
X0198239Y0041987D01*
X0198149Y0041987D01*
X0209452Y0053290D01*
X0209452Y0071000D01*
X0208579Y0071873D01*
X0207946Y0072506D01*
X0224992Y0072506D01*
X0241699Y0055799D01*
X0241947Y0055550D01*
X0237501Y0055550D01*
X0236974Y0055023D01*
X0236974Y0048131D01*
X0204383Y0048131D01*
X0203509Y0047258D01*
X0203612Y0047450D02*
X0203702Y0047450D01*
X0204211Y0048049D02*
X0204300Y0048049D01*
X0204809Y0048647D02*
X0236974Y0048647D01*
X0236974Y0049246D02*
X0205408Y0049246D01*
X0206006Y0049844D02*
X0236974Y0049844D01*
X0236974Y0050443D02*
X0206605Y0050443D01*
X0207203Y0051041D02*
X0236974Y0051041D01*
X0236974Y0051640D02*
X0207802Y0051640D01*
X0208400Y0052238D02*
X0236974Y0052238D01*
X0236974Y0052837D02*
X0208999Y0052837D01*
X0209452Y0053435D02*
X0236974Y0053435D01*
X0236974Y0054034D02*
X0209452Y0054034D01*
X0209452Y0054632D02*
X0236974Y0054632D01*
X0237182Y0055231D02*
X0209452Y0055231D01*
X0209452Y0055829D02*
X0241668Y0055829D01*
X0241070Y0056428D02*
X0209452Y0056428D01*
X0209452Y0057026D02*
X0240471Y0057026D01*
X0239873Y0057625D02*
X0209452Y0057625D01*
X0209452Y0058223D02*
X0239274Y0058223D01*
X0238676Y0058822D02*
X0209452Y0058822D01*
X0209452Y0059420D02*
X0238077Y0059420D01*
X0237479Y0060019D02*
X0209452Y0060019D01*
X0209452Y0060617D02*
X0236880Y0060617D01*
X0236282Y0061216D02*
X0209452Y0061216D01*
X0209452Y0061814D02*
X0235683Y0061814D01*
X0235085Y0062413D02*
X0209452Y0062413D01*
X0209452Y0063011D02*
X0234486Y0063011D01*
X0233888Y0063610D02*
X0209452Y0063610D01*
X0209452Y0064209D02*
X0233289Y0064209D01*
X0232691Y0064807D02*
X0209452Y0064807D01*
X0209452Y0065406D02*
X0232092Y0065406D01*
X0231494Y0066004D02*
X0209452Y0066004D01*
X0209452Y0066603D02*
X0230895Y0066603D01*
X0230297Y0067201D02*
X0209452Y0067201D01*
X0209452Y0067800D02*
X0229698Y0067800D01*
X0229100Y0068398D02*
X0209452Y0068398D01*
X0209452Y0068997D02*
X0228501Y0068997D01*
X0227903Y0069595D02*
X0209452Y0069595D01*
X0209452Y0070194D02*
X0227304Y0070194D01*
X0226706Y0070792D02*
X0209452Y0070792D01*
X0209061Y0071391D02*
X0226107Y0071391D01*
X0225509Y0071989D02*
X0208463Y0071989D01*
X0206471Y0067201D02*
X0205664Y0067201D01*
X0205065Y0066603D02*
X0206471Y0066603D01*
X0206471Y0066004D02*
X0204467Y0066004D01*
X0204384Y0065406D02*
X0206471Y0065406D01*
X0206471Y0064807D02*
X0204384Y0064807D01*
X0204384Y0064209D02*
X0206471Y0064209D01*
X0206471Y0063610D02*
X0204384Y0063610D01*
X0204384Y0063011D02*
X0206471Y0063011D01*
X0206471Y0062413D02*
X0203994Y0062413D01*
X0197188Y0058223D02*
X0196717Y0058223D01*
X0196904Y0057625D02*
X0197066Y0057625D01*
X0197066Y0057026D02*
X0196904Y0057026D01*
X0196904Y0056428D02*
X0197066Y0056428D01*
X0197066Y0055829D02*
X0196904Y0055829D01*
X0196904Y0055231D02*
X0197066Y0055231D01*
X0204784Y0053435D02*
X0205381Y0053435D01*
X0203103Y0046852D02*
X0203014Y0046852D01*
X0202505Y0046253D02*
X0202415Y0046253D01*
X0201906Y0045655D02*
X0201817Y0045655D01*
X0201308Y0045056D02*
X0201218Y0045056D01*
X0200709Y0044458D02*
X0200620Y0044458D01*
X0200111Y0043859D02*
X0200021Y0043859D01*
X0199512Y0043261D02*
X0199423Y0043261D01*
X0198914Y0042662D02*
X0198824Y0042662D01*
X0198315Y0042064D02*
X0198226Y0042064D01*
X0197269Y0040867D02*
X0197029Y0040867D01*
X0197269Y0040268D02*
X0196668Y0040268D01*
X0196668Y0039670D02*
X0197269Y0039670D01*
X0197269Y0039071D02*
X0196668Y0039071D01*
X0196668Y0038473D02*
X0197269Y0038473D01*
X0197269Y0037874D02*
X0196668Y0037874D01*
X0196668Y0037276D02*
X0197269Y0037276D01*
X0197269Y0036677D02*
X0196668Y0036677D01*
X0196668Y0036078D02*
X0197269Y0036078D01*
X0197269Y0035480D02*
X0196668Y0035480D01*
X0196668Y0034881D02*
X0197269Y0034881D01*
X0197269Y0034283D02*
X0196668Y0034283D01*
X0196668Y0033684D02*
X0197269Y0033684D01*
X0197269Y0033086D02*
X0196668Y0033086D01*
X0196442Y0032487D02*
X0197495Y0032487D01*
X0193839Y0031889D02*
X0202643Y0031889D01*
X0202013Y0032487D02*
X0201442Y0032487D01*
X0201668Y0033086D02*
X0201869Y0033086D01*
X0201869Y0033684D02*
X0201668Y0033684D01*
X0201668Y0034283D02*
X0201869Y0034283D01*
X0201869Y0034881D02*
X0201668Y0034881D01*
X0201668Y0035480D02*
X0201869Y0035480D01*
X0201869Y0036078D02*
X0201668Y0036078D01*
X0201668Y0036677D02*
X0201869Y0036677D01*
X0204169Y0036677D02*
X0204768Y0036677D01*
X0204768Y0036078D02*
X0204169Y0036078D01*
X0204169Y0035480D02*
X0204768Y0035480D01*
X0204768Y0034881D02*
X0204169Y0034881D01*
X0204169Y0034283D02*
X0204768Y0034283D01*
X0204768Y0033684D02*
X0204169Y0033684D01*
X0204169Y0033086D02*
X0204768Y0033086D01*
X0204768Y0032487D02*
X0204169Y0032487D01*
X0204169Y0031889D02*
X0204768Y0031889D01*
X0206294Y0031889D02*
X0207643Y0031889D01*
X0207013Y0032487D02*
X0206923Y0032487D01*
X0209169Y0032487D02*
X0209768Y0032487D01*
X0209768Y0031889D02*
X0209169Y0031889D01*
X0209169Y0033086D02*
X0209768Y0033086D01*
X0209768Y0033684D02*
X0209169Y0033684D01*
X0209169Y0034283D02*
X0209768Y0034283D01*
X0209768Y0034881D02*
X0209169Y0034881D01*
X0209169Y0035480D02*
X0209768Y0035480D01*
X0209768Y0036078D02*
X0209169Y0036078D01*
X0209169Y0036677D02*
X0209768Y0036677D01*
X0209768Y0038473D02*
X0209169Y0038473D01*
X0209169Y0039071D02*
X0209768Y0039071D01*
X0209768Y0039670D02*
X0209169Y0039670D01*
X0209169Y0040268D02*
X0209768Y0040268D01*
X0209768Y0040867D02*
X0209169Y0040867D01*
X0209169Y0041465D02*
X0209768Y0041465D01*
X0209768Y0042064D02*
X0209169Y0042064D01*
X0207307Y0042064D02*
X0206630Y0042064D01*
X0204768Y0040268D02*
X0204169Y0040268D01*
X0204169Y0039670D02*
X0204768Y0039670D01*
X0204768Y0039071D02*
X0204169Y0039071D01*
X0204169Y0038473D02*
X0204768Y0038473D01*
X0211630Y0042064D02*
X0212307Y0042064D01*
X0214169Y0042064D02*
X0214768Y0042064D01*
X0214768Y0041465D02*
X0214169Y0041465D01*
X0214169Y0040867D02*
X0214768Y0040867D01*
X0214768Y0040268D02*
X0214169Y0040268D01*
X0214169Y0039670D02*
X0214768Y0039670D01*
X0214768Y0039071D02*
X0214169Y0039071D01*
X0214169Y0038473D02*
X0214768Y0038473D01*
X0214768Y0036677D02*
X0214169Y0036677D01*
X0214169Y0036078D02*
X0214768Y0036078D01*
X0214768Y0035480D02*
X0214169Y0035480D01*
X0214169Y0034881D02*
X0214768Y0034881D01*
X0214768Y0034283D02*
X0214169Y0034283D01*
X0214169Y0033684D02*
X0214768Y0033684D01*
X0214768Y0033086D02*
X0214169Y0033086D01*
X0214169Y0032487D02*
X0214768Y0032487D01*
X0214768Y0031889D02*
X0214169Y0031889D01*
X0212643Y0031889D02*
X0211294Y0031889D01*
X0211923Y0032487D02*
X0212013Y0032487D01*
X0216294Y0031889D02*
X0217643Y0031889D01*
X0217013Y0032487D02*
X0216923Y0032487D01*
X0219169Y0032487D02*
X0219768Y0032487D01*
X0219768Y0031889D02*
X0219169Y0031889D01*
X0219169Y0033086D02*
X0219768Y0033086D01*
X0219768Y0033684D02*
X0219169Y0033684D01*
X0219169Y0034283D02*
X0219768Y0034283D01*
X0219768Y0034881D02*
X0219169Y0034881D01*
X0219169Y0035480D02*
X0219768Y0035480D01*
X0219768Y0036078D02*
X0219169Y0036078D01*
X0219169Y0036677D02*
X0219768Y0036677D01*
X0219768Y0038473D02*
X0219169Y0038473D01*
X0219169Y0039071D02*
X0219768Y0039071D01*
X0219768Y0039670D02*
X0219169Y0039670D01*
X0219169Y0040268D02*
X0219768Y0040268D01*
X0219768Y0040867D02*
X0219169Y0040867D01*
X0219169Y0041465D02*
X0219768Y0041465D01*
X0219768Y0042064D02*
X0219169Y0042064D01*
X0217307Y0042064D02*
X0216630Y0042064D01*
X0221630Y0042064D02*
X0222307Y0042064D01*
X0224169Y0042064D02*
X0224768Y0042064D01*
X0224768Y0041465D02*
X0224169Y0041465D01*
X0224169Y0040867D02*
X0224768Y0040867D01*
X0224768Y0040268D02*
X0224169Y0040268D01*
X0224169Y0039670D02*
X0224768Y0039670D01*
X0224768Y0039071D02*
X0224169Y0039071D01*
X0224169Y0038473D02*
X0224768Y0038473D01*
X0224768Y0037874D02*
X0224169Y0037874D01*
X0224769Y0037276D02*
X0244770Y0037276D01*
X0237172Y0039670D02*
X0227068Y0039670D01*
X0227068Y0040268D02*
X0236974Y0040268D01*
X0236974Y0040867D02*
X0227068Y0040867D01*
X0227013Y0041465D02*
X0236974Y0041465D01*
X0236974Y0042064D02*
X0226630Y0042064D01*
X0236974Y0042662D02*
X0203130Y0042662D01*
X0187269Y0035496D02*
X0181417Y0035496D01*
X0165697Y0019776D01*
X0177511Y0019776D01*
X0189922Y0032187D01*
X0187796Y0032187D01*
X0187269Y0032714D01*
X0187269Y0035496D01*
X0187269Y0035480D02*
X0181401Y0035480D01*
X0180802Y0034881D02*
X0187269Y0034881D01*
X0187269Y0034283D02*
X0180204Y0034283D01*
X0179605Y0033684D02*
X0187269Y0033684D01*
X0187269Y0033086D02*
X0179007Y0033086D01*
X0178408Y0032487D02*
X0187495Y0032487D01*
X0189025Y0031290D02*
X0177211Y0031290D01*
X0176613Y0030692D02*
X0188427Y0030692D01*
X0187828Y0030093D02*
X0176014Y0030093D01*
X0175416Y0029495D02*
X0187230Y0029495D01*
X0186631Y0028896D02*
X0174817Y0028896D01*
X0174219Y0028298D02*
X0186033Y0028298D01*
X0185434Y0027699D02*
X0173620Y0027699D01*
X0173021Y0027101D02*
X0184836Y0027101D01*
X0184237Y0026502D02*
X0172423Y0026502D01*
X0171824Y0025904D02*
X0183639Y0025904D01*
X0183040Y0025305D02*
X0171226Y0025305D01*
X0170627Y0024707D02*
X0182441Y0024707D01*
X0181843Y0024108D02*
X0170029Y0024108D01*
X0169430Y0023510D02*
X0181244Y0023510D01*
X0180646Y0022911D02*
X0168832Y0022911D01*
X0168233Y0022313D02*
X0180047Y0022313D01*
X0179449Y0021714D02*
X0167635Y0021714D01*
X0167036Y0021116D02*
X0178850Y0021116D01*
X0178252Y0020517D02*
X0166438Y0020517D01*
X0165839Y0019919D02*
X0177653Y0019919D01*
X0156748Y0022911D02*
X0155063Y0022911D01*
X0155231Y0023510D02*
X0156580Y0023510D01*
X0156580Y0024108D02*
X0155231Y0024108D01*
X0155231Y0024707D02*
X0156580Y0024707D01*
X0156580Y0025305D02*
X0155231Y0025305D01*
X0155231Y0025904D02*
X0156580Y0025904D01*
X0156580Y0026502D02*
X0155231Y0026502D01*
X0155231Y0027101D02*
X0156580Y0027101D01*
X0156580Y0027699D02*
X0155231Y0027699D01*
X0155231Y0028298D02*
X0156580Y0028298D01*
X0156580Y0028896D02*
X0155231Y0028896D01*
X0155231Y0029495D02*
X0156580Y0029495D01*
X0156580Y0030093D02*
X0155231Y0030093D01*
X0155231Y0030692D02*
X0156580Y0030692D01*
X0156580Y0031290D02*
X0155231Y0031290D01*
X0155231Y0031889D02*
X0156580Y0031889D01*
X0156580Y0032487D02*
X0155231Y0032487D01*
X0155231Y0033086D02*
X0156580Y0033086D01*
X0156580Y0033684D02*
X0155231Y0033684D01*
X0155231Y0034283D02*
X0156580Y0034283D01*
X0156580Y0034881D02*
X0155231Y0034881D01*
X0155231Y0035480D02*
X0156580Y0035480D01*
X0157024Y0036078D02*
X0154787Y0036078D01*
X0141276Y0036078D02*
X0139039Y0036078D01*
X0138955Y0036162D02*
X0139483Y0035635D01*
X0139483Y0023079D01*
X0138955Y0022551D01*
X0133485Y0022551D01*
X0132958Y0023079D01*
X0132958Y0035635D01*
X0133485Y0036162D01*
X0138955Y0036162D01*
X0139483Y0035480D02*
X0140832Y0035480D01*
X0140832Y0034881D02*
X0139483Y0034881D01*
X0139483Y0034283D02*
X0140832Y0034283D01*
X0140832Y0033684D02*
X0139483Y0033684D01*
X0139483Y0033086D02*
X0140832Y0033086D01*
X0140832Y0032487D02*
X0139483Y0032487D01*
X0139483Y0031889D02*
X0140832Y0031889D01*
X0140832Y0031290D02*
X0139483Y0031290D01*
X0139483Y0030692D02*
X0140832Y0030692D01*
X0140832Y0030093D02*
X0139483Y0030093D01*
X0139483Y0029495D02*
X0140832Y0029495D01*
X0140832Y0028896D02*
X0139483Y0028896D01*
X0139483Y0028298D02*
X0140832Y0028298D01*
X0140832Y0027699D02*
X0139483Y0027699D01*
X0139483Y0027101D02*
X0140832Y0027101D01*
X0140832Y0026502D02*
X0139483Y0026502D01*
X0139483Y0025904D02*
X0140832Y0025904D01*
X0140832Y0025305D02*
X0139483Y0025305D01*
X0139483Y0024707D02*
X0140832Y0024707D01*
X0140832Y0024108D02*
X0139483Y0024108D01*
X0139483Y0023510D02*
X0140832Y0023510D01*
X0141000Y0022911D02*
X0139315Y0022911D01*
X0133126Y0022911D02*
X0131441Y0022911D01*
X0131609Y0023510D02*
X0132958Y0023510D01*
X0132958Y0024108D02*
X0131609Y0024108D01*
X0131609Y0024707D02*
X0132958Y0024707D01*
X0132958Y0025305D02*
X0131609Y0025305D01*
X0131609Y0025904D02*
X0132958Y0025904D01*
X0132958Y0026502D02*
X0131609Y0026502D01*
X0131609Y0027101D02*
X0132958Y0027101D01*
X0132958Y0027699D02*
X0131609Y0027699D01*
X0131609Y0028298D02*
X0132958Y0028298D01*
X0132958Y0028896D02*
X0131609Y0028896D01*
X0131609Y0029495D02*
X0132958Y0029495D01*
X0132958Y0030093D02*
X0131609Y0030093D01*
X0131609Y0030692D02*
X0132958Y0030692D01*
X0132958Y0031290D02*
X0131609Y0031290D01*
X0131609Y0031889D02*
X0132958Y0031889D01*
X0132958Y0032487D02*
X0131609Y0032487D01*
X0131609Y0033086D02*
X0132958Y0033086D01*
X0132958Y0033684D02*
X0131609Y0033684D01*
X0131609Y0034283D02*
X0132958Y0034283D01*
X0132958Y0034881D02*
X0131609Y0034881D01*
X0131609Y0035480D02*
X0132958Y0035480D01*
X0133402Y0036078D02*
X0131165Y0036078D01*
X0125740Y0022313D02*
X0146359Y0022313D01*
X0146359Y0021714D02*
X0125334Y0021714D01*
X0124735Y0021116D02*
X0146359Y0021116D01*
X0146359Y0020517D02*
X0124137Y0020517D01*
X0123538Y0019919D02*
X0146359Y0019919D01*
X0146359Y0019320D02*
X0122940Y0019320D01*
X0122341Y0018722D02*
X0146178Y0018722D01*
X0145579Y0018123D02*
X0122889Y0018123D01*
X0123852Y0017525D02*
X0128920Y0017525D01*
X0128306Y0016926D02*
X0124442Y0016926D01*
X0124848Y0016328D02*
X0127759Y0016328D01*
X0127511Y0015729D02*
X0125129Y0015729D01*
X0125310Y0015131D02*
X0127263Y0015131D01*
X0127202Y0014532D02*
X0125402Y0014532D01*
X0125402Y0013934D02*
X0127202Y0013934D01*
X0127202Y0013335D02*
X0125402Y0013335D01*
X0125402Y0012737D02*
X0127202Y0012737D01*
X0127202Y0012138D02*
X0125402Y0012138D01*
X0125402Y0011540D02*
X0127202Y0011540D01*
X0127202Y0010941D02*
X0121402Y0010941D01*
X0120802Y0010941D02*
X0110998Y0010941D01*
X0110400Y0010342D02*
X0116802Y0010342D01*
X0116802Y0010907D02*
X0116802Y0007869D01*
X0116908Y0007200D01*
X0117117Y0006557D01*
X0117425Y0005954D01*
X0117772Y0005475D01*
X0105533Y0005475D01*
X0106148Y0006091D01*
X0117297Y0017240D01*
X0118054Y0017240D01*
X0117823Y0017009D01*
X0117425Y0016461D01*
X0117117Y0015858D01*
X0116908Y0015214D01*
X0116802Y0014546D01*
X0116802Y0011507D01*
X0120802Y0011507D01*
X0120802Y0010907D01*
X0116802Y0010907D01*
X0116802Y0011540D02*
X0111597Y0011540D01*
X0112195Y0012138D02*
X0116802Y0012138D01*
X0116802Y0012737D02*
X0112794Y0012737D01*
X0113392Y0013335D02*
X0116802Y0013335D01*
X0116802Y0013934D02*
X0113991Y0013934D01*
X0114589Y0014532D02*
X0116802Y0014532D01*
X0116895Y0015131D02*
X0115188Y0015131D01*
X0115786Y0015729D02*
X0117076Y0015729D01*
X0117357Y0016328D02*
X0116385Y0016328D01*
X0116983Y0016926D02*
X0117763Y0016926D01*
X0125402Y0010342D02*
X0127202Y0010342D01*
X0126847Y0009744D02*
X0125402Y0009744D01*
X0125402Y0009145D02*
X0126249Y0009145D01*
X0125650Y0008547D02*
X0125402Y0008547D01*
X0127987Y0005554D02*
X0128240Y0005554D01*
X0128838Y0004956D02*
X0127388Y0004956D01*
X0126790Y0004357D02*
X0130206Y0004357D01*
X0131999Y0004357D02*
X0140206Y0004357D01*
X0138838Y0004956D02*
X0133366Y0004956D01*
X0133965Y0005554D02*
X0138240Y0005554D01*
X0137732Y0006153D02*
X0134473Y0006153D01*
X0134721Y0006751D02*
X0137484Y0006751D01*
X0137236Y0007350D02*
X0134969Y0007350D01*
X0135002Y0007948D02*
X0137202Y0007948D01*
X0137202Y0008547D02*
X0135002Y0008547D01*
X0135002Y0009145D02*
X0137202Y0009145D01*
X0137202Y0009744D02*
X0135002Y0009744D01*
X0135002Y0010342D02*
X0137202Y0010342D01*
X0137202Y0010941D02*
X0135002Y0010941D01*
X0135002Y0011540D02*
X0137202Y0011540D01*
X0137202Y0012138D02*
X0135002Y0012138D01*
X0135002Y0012737D02*
X0137202Y0012737D01*
X0137202Y0013335D02*
X0135002Y0013335D01*
X0135002Y0013934D02*
X0137202Y0013934D01*
X0137202Y0014532D02*
X0135002Y0014532D01*
X0134941Y0015131D02*
X0137263Y0015131D01*
X0137511Y0015729D02*
X0134693Y0015729D01*
X0134445Y0016328D02*
X0137759Y0016328D01*
X0138306Y0016926D02*
X0133899Y0016926D01*
X0133285Y0017525D02*
X0138920Y0017525D01*
X0143285Y0017525D02*
X0144981Y0017525D01*
X0144382Y0016926D02*
X0143899Y0016926D01*
X0144473Y0006153D02*
X0144515Y0006153D01*
X0143965Y0005554D02*
X0145114Y0005554D01*
X0145712Y0004956D02*
X0143366Y0004956D01*
X0141999Y0004357D02*
X0146311Y0004357D01*
X0146909Y0003759D02*
X0126191Y0003759D01*
X0125593Y0003160D02*
X0147508Y0003160D01*
X0117715Y0005554D02*
X0105612Y0005554D01*
X0106210Y0006153D02*
X0117323Y0006153D01*
X0117054Y0006751D02*
X0106809Y0006751D01*
X0107407Y0007350D02*
X0116885Y0007350D01*
X0116802Y0007948D02*
X0108006Y0007948D01*
X0108604Y0008547D02*
X0116802Y0008547D01*
X0116802Y0009145D02*
X0109203Y0009145D01*
X0109801Y0009744D02*
X0116802Y0009744D01*
X0086692Y0022748D02*
X0084411Y0025029D01*
X0081180Y0025029D01*
X0078895Y0022744D01*
X0078895Y0019566D01*
X0076896Y0017567D01*
X0076896Y0008762D01*
X0077769Y0007889D01*
X0080183Y0005475D01*
X0059575Y0005475D01*
X0052780Y0012270D01*
X0054995Y0012270D01*
X0054995Y0016813D01*
X0049763Y0016813D01*
X0049763Y0015287D01*
X0048813Y0016237D01*
X0048813Y0021029D01*
X0048286Y0021556D01*
X0045539Y0021556D01*
X0045539Y0033089D01*
X0045661Y0033212D01*
X0046086Y0033424D01*
X0046192Y0033743D01*
X0051114Y0038665D01*
X0056389Y0038665D01*
X0056389Y0037963D01*
X0056917Y0037435D01*
X0066461Y0037435D01*
X0066989Y0037963D01*
X0066989Y0042962D01*
X0077831Y0053804D01*
X0078625Y0054599D01*
X0080176Y0054599D01*
X0080703Y0055126D01*
X0080703Y0061777D01*
X0080176Y0062304D01*
X0079380Y0062304D01*
X0079380Y0066460D01*
X0080176Y0066460D01*
X0080703Y0066987D01*
X0080703Y0074032D01*
X0080176Y0074559D01*
X0079380Y0074559D01*
X0079380Y0078701D01*
X0080176Y0078701D01*
X0080703Y0079228D01*
X0080703Y0086273D01*
X0080176Y0086800D01*
X0074312Y0086800D01*
X0073785Y0086273D01*
X0073785Y0085180D01*
X0056012Y0085180D01*
X0047893Y0093299D01*
X0048877Y0093299D01*
X0050221Y0093856D01*
X0051249Y0094884D01*
X0051549Y0095609D01*
X0072770Y0095609D01*
X0073385Y0096224D01*
X0073385Y0095292D01*
X0076944Y0095292D01*
X0076944Y0094692D01*
X0077544Y0094692D01*
X0077544Y0090739D01*
X0079974Y0090739D01*
X0080305Y0090828D01*
X0080601Y0090999D01*
X0080843Y0091241D01*
X0081015Y0091538D01*
X0081103Y0091868D01*
X0081103Y0094692D01*
X0077544Y0094692D01*
X0077544Y0095292D01*
X0081103Y0095292D01*
X0081103Y0097835D01*
X0081265Y0097835D01*
X0081265Y0091667D01*
X0081793Y0091139D01*
X0087656Y0091139D01*
X0088183Y0091667D01*
X0088183Y0093382D01*
X0093799Y0093382D01*
X0099887Y0087293D01*
X0099887Y0083494D01*
X0099486Y0083896D01*
X0088183Y0083896D01*
X0088183Y0086273D01*
X0087656Y0086800D01*
X0081793Y0086800D01*
X0081265Y0086273D01*
X0081265Y0079228D01*
X0081793Y0078701D01*
X0087656Y0078701D01*
X0088183Y0079228D01*
X0088183Y0080914D01*
X0098251Y0080914D01*
X0099887Y0079279D01*
X0099887Y0074400D01*
X0092926Y0067438D01*
X0092926Y0065492D01*
X0092614Y0065803D01*
X0091752Y0065803D01*
X0088183Y0069372D01*
X0088183Y0074032D01*
X0087656Y0074559D01*
X0081793Y0074559D01*
X0081265Y0074032D01*
X0081265Y0066987D01*
X0081793Y0066460D01*
X0086880Y0066460D01*
X0089644Y0063695D01*
X0089644Y0062834D01*
X0090875Y0061603D01*
X0092614Y0061603D01*
X0092926Y0061915D01*
X0092926Y0039831D01*
X0086692Y0033597D01*
X0086692Y0022748D01*
X0086692Y0022911D02*
X0086528Y0022911D01*
X0086692Y0023510D02*
X0085930Y0023510D01*
X0085331Y0024108D02*
X0086692Y0024108D01*
X0086692Y0024707D02*
X0084733Y0024707D01*
X0086692Y0025305D02*
X0074700Y0025305D01*
X0074576Y0025429D02*
X0073095Y0025429D01*
X0073095Y0021429D01*
X0072495Y0021429D01*
X0072495Y0025429D01*
X0071014Y0025429D01*
X0068495Y0022910D01*
X0068495Y0021429D01*
X0072495Y0021429D01*
X0072495Y0020829D01*
X0068495Y0020829D01*
X0068495Y0019347D01*
X0071014Y0016829D01*
X0072495Y0016829D01*
X0072495Y0020829D01*
X0073095Y0020829D01*
X0073095Y0021429D01*
X0077095Y0021429D01*
X0077095Y0022910D01*
X0074576Y0025429D01*
X0075298Y0024707D02*
X0080858Y0024707D01*
X0080260Y0024108D02*
X0075897Y0024108D01*
X0076495Y0023510D02*
X0079661Y0023510D01*
X0079062Y0022911D02*
X0077094Y0022911D01*
X0077095Y0022313D02*
X0078895Y0022313D01*
X0078895Y0021714D02*
X0077095Y0021714D01*
X0077095Y0020829D02*
X0073095Y0020829D01*
X0073095Y0016829D01*
X0074576Y0016829D01*
X0077095Y0019347D01*
X0077095Y0020829D01*
X0077095Y0020517D02*
X0078895Y0020517D01*
X0078895Y0019919D02*
X0077095Y0019919D01*
X0077068Y0019320D02*
X0078649Y0019320D01*
X0078050Y0018722D02*
X0076469Y0018722D01*
X0075871Y0018123D02*
X0077452Y0018123D01*
X0076896Y0017525D02*
X0075272Y0017525D01*
X0074674Y0016926D02*
X0076896Y0016926D01*
X0076896Y0016328D02*
X0060828Y0016328D01*
X0060828Y0016813D02*
X0055595Y0016813D01*
X0055595Y0012270D01*
X0059699Y0012270D01*
X0060029Y0012358D01*
X0060326Y0012529D01*
X0060568Y0012771D01*
X0060739Y0013068D01*
X0060828Y0013398D01*
X0060828Y0016813D01*
X0060828Y0017413D02*
X0060828Y0020827D01*
X0060739Y0021158D01*
X0060568Y0021454D01*
X0060326Y0021696D01*
X0060029Y0021868D01*
X0059699Y0021956D01*
X0055595Y0021956D01*
X0055595Y0017413D01*
X0054995Y0017413D01*
X0054995Y0016813D01*
X0055595Y0016813D01*
X0055595Y0017413D01*
X0060828Y0017413D01*
X0060828Y0017525D02*
X0070318Y0017525D01*
X0069720Y0018123D02*
X0060828Y0018123D01*
X0060828Y0018722D02*
X0069121Y0018722D01*
X0068523Y0019320D02*
X0060828Y0019320D01*
X0060828Y0019919D02*
X0068495Y0019919D01*
X0068495Y0020517D02*
X0060828Y0020517D01*
X0060750Y0021116D02*
X0072495Y0021116D01*
X0072495Y0021714D02*
X0073095Y0021714D01*
X0073095Y0021116D02*
X0078895Y0021116D01*
X0073095Y0020517D02*
X0072495Y0020517D01*
X0072495Y0019919D02*
X0073095Y0019919D01*
X0073095Y0019320D02*
X0072495Y0019320D01*
X0072495Y0018722D02*
X0073095Y0018722D01*
X0073095Y0018123D02*
X0072495Y0018123D01*
X0072495Y0017525D02*
X0073095Y0017525D01*
X0073095Y0016926D02*
X0072495Y0016926D01*
X0070917Y0016926D02*
X0055595Y0016926D01*
X0055595Y0016328D02*
X0054995Y0016328D01*
X0054995Y0016926D02*
X0048813Y0016926D01*
X0048813Y0016328D02*
X0049763Y0016328D01*
X0049763Y0015729D02*
X0049321Y0015729D01*
X0049763Y0017413D02*
X0054995Y0017413D01*
X0054995Y0021956D01*
X0050892Y0021956D01*
X0050561Y0021868D01*
X0050265Y0021696D01*
X0050023Y0021454D01*
X0049852Y0021158D01*
X0049763Y0020827D01*
X0049763Y0017413D01*
X0049763Y0017525D02*
X0048813Y0017525D01*
X0048813Y0018123D02*
X0049763Y0018123D01*
X0049763Y0018722D02*
X0048813Y0018722D01*
X0048813Y0019320D02*
X0049763Y0019320D01*
X0049763Y0019919D02*
X0048813Y0019919D01*
X0048813Y0020517D02*
X0049763Y0020517D01*
X0049840Y0021116D02*
X0048727Y0021116D01*
X0050296Y0021714D02*
X0045539Y0021714D01*
X0045539Y0022313D02*
X0068495Y0022313D01*
X0068497Y0022911D02*
X0045539Y0022911D01*
X0045539Y0023510D02*
X0069095Y0023510D01*
X0069694Y0024108D02*
X0045539Y0024108D01*
X0045539Y0024707D02*
X0070292Y0024707D01*
X0070891Y0025305D02*
X0045539Y0025305D01*
X0045539Y0025904D02*
X0086692Y0025904D01*
X0086692Y0026502D02*
X0045539Y0026502D01*
X0045539Y0027101D02*
X0086692Y0027101D01*
X0086692Y0027699D02*
X0045539Y0027699D01*
X0045539Y0028298D02*
X0056390Y0028298D01*
X0056491Y0028197D02*
X0056788Y0028025D01*
X0057118Y0027937D01*
X0061389Y0027937D01*
X0061389Y0031336D01*
X0061989Y0031336D01*
X0061989Y0027937D01*
X0066260Y0027937D01*
X0066590Y0028025D01*
X0066887Y0028197D01*
X0067129Y0028439D01*
X0067300Y0028735D01*
X0067389Y0029066D01*
X0067389Y0031336D01*
X0061989Y0031336D01*
X0061989Y0031936D01*
X0067389Y0031936D01*
X0067389Y0034207D01*
X0067300Y0034538D01*
X0067129Y0034834D01*
X0066887Y0035076D01*
X0066590Y0035247D01*
X0066260Y0035336D01*
X0061989Y0035336D01*
X0061989Y0031937D01*
X0061389Y0031937D01*
X0061389Y0035336D01*
X0057118Y0035336D01*
X0056788Y0035247D01*
X0056491Y0035076D01*
X0056249Y0034834D01*
X0056078Y0034538D01*
X0055989Y0034207D01*
X0055989Y0031936D01*
X0061389Y0031936D01*
X0061389Y0031336D01*
X0055989Y0031336D01*
X0055989Y0029066D01*
X0056078Y0028735D01*
X0056249Y0028439D01*
X0056491Y0028197D01*
X0056035Y0028896D02*
X0045539Y0028896D01*
X0045539Y0029495D02*
X0055989Y0029495D01*
X0055989Y0030093D02*
X0045539Y0030093D01*
X0045539Y0030692D02*
X0055989Y0030692D01*
X0055989Y0031290D02*
X0045539Y0031290D01*
X0045539Y0031889D02*
X0061389Y0031889D01*
X0061389Y0032487D02*
X0061989Y0032487D01*
X0061989Y0031889D02*
X0086692Y0031889D01*
X0086692Y0032487D02*
X0067389Y0032487D01*
X0067389Y0033086D02*
X0086692Y0033086D01*
X0086779Y0033684D02*
X0067389Y0033684D01*
X0067368Y0034283D02*
X0087378Y0034283D01*
X0087976Y0034881D02*
X0067082Y0034881D01*
X0066900Y0037874D02*
X0090969Y0037874D01*
X0091567Y0038473D02*
X0066989Y0038473D01*
X0066989Y0039071D02*
X0092166Y0039071D01*
X0092764Y0039670D02*
X0066989Y0039670D01*
X0066989Y0040268D02*
X0092926Y0040268D01*
X0092926Y0040867D02*
X0066989Y0040867D01*
X0066989Y0041465D02*
X0092926Y0041465D01*
X0092926Y0042064D02*
X0066989Y0042064D01*
X0066989Y0042662D02*
X0092926Y0042662D01*
X0092926Y0043261D02*
X0067287Y0043261D01*
X0067886Y0043859D02*
X0092926Y0043859D01*
X0092926Y0044458D02*
X0068484Y0044458D01*
X0069083Y0045056D02*
X0092926Y0045056D01*
X0092926Y0045655D02*
X0069681Y0045655D01*
X0070280Y0046253D02*
X0092926Y0046253D01*
X0092926Y0046852D02*
X0070878Y0046852D01*
X0071477Y0047450D02*
X0092926Y0047450D01*
X0092926Y0048049D02*
X0072075Y0048049D01*
X0072674Y0048647D02*
X0092926Y0048647D01*
X0092926Y0049246D02*
X0073272Y0049246D01*
X0073871Y0049844D02*
X0092926Y0049844D01*
X0092926Y0050443D02*
X0074469Y0050443D01*
X0075068Y0051041D02*
X0092926Y0051041D01*
X0092926Y0051640D02*
X0075666Y0051640D01*
X0076265Y0052238D02*
X0092926Y0052238D01*
X0092926Y0052837D02*
X0076863Y0052837D01*
X0077462Y0053435D02*
X0092926Y0053435D01*
X0092926Y0054034D02*
X0078060Y0054034D01*
X0080210Y0054632D02*
X0081193Y0054632D01*
X0081125Y0054700D02*
X0081367Y0054458D01*
X0081664Y0054287D01*
X0081994Y0054199D01*
X0084424Y0054199D01*
X0084424Y0058151D01*
X0085024Y0058151D01*
X0085024Y0054199D01*
X0087455Y0054199D01*
X0087785Y0054287D01*
X0088082Y0054458D01*
X0088324Y0054700D01*
X0088495Y0054997D01*
X0088583Y0055328D01*
X0088583Y0058151D01*
X0085024Y0058151D01*
X0085024Y0058751D01*
X0088583Y0058751D01*
X0088583Y0061575D01*
X0088495Y0061906D01*
X0088324Y0062202D01*
X0088082Y0062444D01*
X0087785Y0062616D01*
X0087455Y0062704D01*
X0085024Y0062704D01*
X0085024Y0058751D01*
X0084424Y0058751D01*
X0084424Y0058151D01*
X0080865Y0058151D01*
X0080865Y0055328D01*
X0080954Y0054997D01*
X0081125Y0054700D01*
X0080891Y0055231D02*
X0080703Y0055231D01*
X0080703Y0055829D02*
X0080865Y0055829D01*
X0080865Y0056428D02*
X0080703Y0056428D01*
X0080703Y0057026D02*
X0080865Y0057026D01*
X0080865Y0057625D02*
X0080703Y0057625D01*
X0080703Y0058223D02*
X0084424Y0058223D01*
X0084424Y0058751D02*
X0080865Y0058751D01*
X0080865Y0061575D01*
X0080954Y0061906D01*
X0081125Y0062202D01*
X0081367Y0062444D01*
X0081664Y0062616D01*
X0081994Y0062704D01*
X0084424Y0062704D01*
X0084424Y0058751D01*
X0084424Y0058822D02*
X0085024Y0058822D01*
X0085024Y0059420D02*
X0084424Y0059420D01*
X0084424Y0060019D02*
X0085024Y0060019D01*
X0085024Y0060617D02*
X0084424Y0060617D01*
X0084424Y0061216D02*
X0085024Y0061216D01*
X0085024Y0061814D02*
X0084424Y0061814D01*
X0084424Y0062413D02*
X0085024Y0062413D01*
X0088113Y0062413D02*
X0090065Y0062413D01*
X0089644Y0063011D02*
X0079380Y0063011D01*
X0079380Y0062413D02*
X0081336Y0062413D01*
X0080929Y0061814D02*
X0080666Y0061814D01*
X0080703Y0061216D02*
X0080865Y0061216D01*
X0080865Y0060617D02*
X0080703Y0060617D01*
X0080703Y0060019D02*
X0080865Y0060019D01*
X0080865Y0059420D02*
X0080703Y0059420D01*
X0080703Y0058822D02*
X0080865Y0058822D01*
X0084424Y0057625D02*
X0085024Y0057625D01*
X0085024Y0058223D02*
X0092926Y0058223D01*
X0092926Y0057625D02*
X0088583Y0057625D01*
X0088583Y0057026D02*
X0092926Y0057026D01*
X0092926Y0056428D02*
X0088583Y0056428D01*
X0088583Y0055829D02*
X0092926Y0055829D01*
X0092926Y0055231D02*
X0088558Y0055231D01*
X0088256Y0054632D02*
X0092926Y0054632D01*
X0092926Y0058822D02*
X0088583Y0058822D01*
X0088583Y0059420D02*
X0092926Y0059420D01*
X0092926Y0060019D02*
X0088583Y0060019D01*
X0088583Y0060617D02*
X0092926Y0060617D01*
X0092926Y0061216D02*
X0088583Y0061216D01*
X0088519Y0061814D02*
X0090664Y0061814D01*
X0089644Y0063610D02*
X0079380Y0063610D01*
X0079380Y0064209D02*
X0089131Y0064209D01*
X0088533Y0064807D02*
X0079380Y0064807D01*
X0079380Y0065406D02*
X0087934Y0065406D01*
X0087336Y0066004D02*
X0079380Y0066004D01*
X0080319Y0066603D02*
X0081650Y0066603D01*
X0081265Y0067201D02*
X0080703Y0067201D01*
X0080703Y0067800D02*
X0081265Y0067800D01*
X0081265Y0068398D02*
X0080703Y0068398D01*
X0080703Y0068997D02*
X0081265Y0068997D01*
X0081265Y0069595D02*
X0080703Y0069595D01*
X0080703Y0070194D02*
X0081265Y0070194D01*
X0081265Y0070792D02*
X0080703Y0070792D01*
X0080703Y0071391D02*
X0081265Y0071391D01*
X0081265Y0071989D02*
X0080703Y0071989D01*
X0080703Y0072588D02*
X0081265Y0072588D01*
X0081265Y0073186D02*
X0080703Y0073186D01*
X0080703Y0073785D02*
X0081265Y0073785D01*
X0081617Y0074383D02*
X0080352Y0074383D01*
X0079380Y0074982D02*
X0099887Y0074982D01*
X0099887Y0075580D02*
X0079380Y0075580D01*
X0079380Y0076179D02*
X0099887Y0076179D01*
X0099887Y0076777D02*
X0079380Y0076777D01*
X0079380Y0077376D02*
X0099887Y0077376D01*
X0099887Y0077974D02*
X0079380Y0077974D01*
X0079380Y0078573D02*
X0099887Y0078573D01*
X0099887Y0079171D02*
X0088126Y0079171D01*
X0088183Y0079770D02*
X0099396Y0079770D01*
X0098798Y0080368D02*
X0088183Y0080368D01*
X0081265Y0080368D02*
X0080703Y0080368D01*
X0080703Y0079770D02*
X0081265Y0079770D01*
X0081323Y0079171D02*
X0080646Y0079171D01*
X0080703Y0080967D02*
X0081265Y0080967D01*
X0081265Y0081565D02*
X0080703Y0081565D01*
X0080703Y0082164D02*
X0081265Y0082164D01*
X0081265Y0082762D02*
X0080703Y0082762D01*
X0080703Y0083361D02*
X0081265Y0083361D01*
X0081265Y0083959D02*
X0080703Y0083959D01*
X0080703Y0084558D02*
X0081265Y0084558D01*
X0081265Y0085156D02*
X0080703Y0085156D01*
X0080703Y0085755D02*
X0081265Y0085755D01*
X0081346Y0086353D02*
X0080623Y0086353D01*
X0073865Y0086353D02*
X0054839Y0086353D01*
X0055437Y0085755D02*
X0073785Y0085755D01*
X0073785Y0081411D02*
X0073785Y0079228D01*
X0074312Y0078701D01*
X0075611Y0078701D01*
X0075611Y0074559D01*
X0074312Y0074559D01*
X0073785Y0074032D01*
X0073785Y0067584D01*
X0073509Y0067584D01*
X0072279Y0066354D01*
X0072279Y0066049D01*
X0059581Y0053352D01*
X0059581Y0053133D01*
X0057780Y0053133D01*
X0051400Y0059514D01*
X0054995Y0059514D01*
X0054995Y0064057D01*
X0049763Y0064057D01*
X0049763Y0061150D01*
X0048813Y0062100D01*
X0048813Y0068273D01*
X0048286Y0068800D01*
X0039076Y0068800D01*
X0038549Y0068273D01*
X0038549Y0061707D01*
X0037531Y0060690D01*
X0025996Y0060690D01*
X0026476Y0061170D01*
X0026989Y0062408D01*
X0026989Y0063747D01*
X0026476Y0064985D01*
X0025529Y0065932D01*
X0024292Y0066444D01*
X0022952Y0066444D01*
X0021715Y0065932D01*
X0020768Y0064985D01*
X0020255Y0063747D01*
X0020255Y0062408D01*
X0020768Y0061170D01*
X0021602Y0060336D01*
X0018997Y0060336D01*
X0018470Y0059808D01*
X0018470Y0057488D01*
X0018589Y0057369D01*
X0018470Y0057249D01*
X0018470Y0054929D01*
X0018589Y0054810D01*
X0018470Y0054690D01*
X0018470Y0052370D01*
X0018589Y0052251D01*
X0018470Y0052131D01*
X0018470Y0050138D01*
X0018330Y0049998D01*
X0018159Y0049701D01*
X0018070Y0049371D01*
X0018070Y0048506D01*
X0022721Y0048506D01*
X0022721Y0048318D01*
X0018070Y0048318D01*
X0018070Y0047454D01*
X0018159Y0047123D01*
X0018330Y0046826D01*
X0018572Y0046584D01*
X0018868Y0046413D01*
X0019199Y0046325D01*
X0021202Y0046325D01*
X0020768Y0045890D01*
X0020255Y0044653D01*
X0020255Y0043313D01*
X0020768Y0042076D01*
X0021715Y0041129D01*
X0022952Y0040616D01*
X0024292Y0040616D01*
X0025529Y0041129D01*
X0026476Y0042076D01*
X0026989Y0043313D01*
X0026989Y0044653D01*
X0026476Y0045890D01*
X0026042Y0046325D01*
X0026431Y0046325D01*
X0026762Y0046413D01*
X0027058Y0046584D01*
X0027300Y0046826D01*
X0027471Y0047123D01*
X0027560Y0047454D01*
X0027560Y0048318D01*
X0022909Y0048318D01*
X0022909Y0048506D01*
X0027560Y0048506D01*
X0027560Y0049371D01*
X0027471Y0049701D01*
X0027300Y0049998D01*
X0027160Y0050138D01*
X0027160Y0052131D01*
X0027040Y0052251D01*
X0027160Y0052370D01*
X0027160Y0054690D01*
X0027040Y0054810D01*
X0027160Y0054929D01*
X0027160Y0056921D01*
X0039092Y0056921D01*
X0042084Y0059914D01*
X0045670Y0059914D01*
X0056389Y0049195D01*
X0056389Y0047061D01*
X0056917Y0046534D01*
X0065231Y0046534D01*
X0062732Y0044034D01*
X0056917Y0044034D01*
X0056389Y0043507D01*
X0056389Y0042433D01*
X0049553Y0042433D01*
X0043877Y0036757D01*
X0042518Y0038117D01*
X0042518Y0048194D01*
X0041991Y0048722D01*
X0032584Y0048722D01*
X0032057Y0048194D01*
X0032057Y0033275D01*
X0032584Y0032748D01*
X0041770Y0032748D01*
X0041770Y0021556D01*
X0039076Y0021556D01*
X0038549Y0021029D01*
X0038549Y0013197D01*
X0039076Y0012670D01*
X0047051Y0012670D01*
X0056910Y0002811D01*
X0057056Y0002665D01*
X0003544Y0002665D01*
X0003544Y0126049D01*
X0104006Y0126049D01*
X0104006Y0099541D01*
X0104358Y0099190D01*
X0105114Y0099190D01*
X0103893Y0097969D01*
X0103893Y0097745D01*
X0086556Y0115082D01*
X0104006Y0115082D01*
X0104006Y0115680D02*
X0087911Y0115680D01*
X0087656Y0115425D02*
X0088183Y0115953D01*
X0088183Y0122997D01*
X0087656Y0123525D01*
X0081793Y0123525D01*
X0081265Y0122997D01*
X0081265Y0115953D01*
X0081793Y0115425D01*
X0083575Y0115425D01*
X0083575Y0113847D01*
X0086139Y0111283D01*
X0081793Y0111283D01*
X0081265Y0110756D01*
X0081265Y0103711D01*
X0081793Y0103184D01*
X0083130Y0103184D01*
X0083130Y0100816D01*
X0073761Y0100816D01*
X0072888Y0099943D01*
X0071535Y0098590D01*
X0051430Y0098590D01*
X0051249Y0099026D01*
X0050221Y0100055D01*
X0048877Y0100611D01*
X0048051Y0100611D01*
X0049546Y0102107D01*
X0049546Y0113262D01*
X0050221Y0113541D01*
X0051249Y0114570D01*
X0051805Y0115913D01*
X0051805Y0117279D01*
X0052005Y0117479D01*
X0073785Y0117479D01*
X0073785Y0115953D01*
X0074312Y0115425D01*
X0080176Y0115425D01*
X0080703Y0115953D01*
X0080703Y0122997D01*
X0080176Y0123525D01*
X0074312Y0123525D01*
X0073785Y0122997D01*
X0073785Y0121247D01*
X0050444Y0121247D01*
X0049313Y0120116D01*
X0048877Y0120296D01*
X0047422Y0120296D01*
X0046079Y0119740D01*
X0045050Y0118711D01*
X0044494Y0117368D01*
X0044494Y0115913D01*
X0045050Y0114570D01*
X0045778Y0113842D01*
X0045778Y0103668D01*
X0042874Y0100764D01*
X0041770Y0099661D01*
X0041770Y0096098D01*
X0041648Y0095976D01*
X0041223Y0095764D01*
X0041117Y0095445D01*
X0031742Y0086070D01*
X0023223Y0086070D01*
X0023223Y0087381D01*
X0022696Y0087908D01*
X0016832Y0087908D01*
X0016305Y0087381D01*
X0016305Y0080336D01*
X0016832Y0079809D01*
X0022696Y0079809D01*
X0023223Y0080336D01*
X0023223Y0082302D01*
X0033303Y0082302D01*
X0043432Y0092431D01*
X0053348Y0082515D01*
X0054451Y0081411D01*
X0073785Y0081411D01*
X0073785Y0080967D02*
X0023223Y0080967D01*
X0023223Y0081565D02*
X0054297Y0081565D01*
X0053699Y0082164D02*
X0023223Y0082164D01*
X0023223Y0080368D02*
X0073785Y0080368D01*
X0073785Y0079770D02*
X0003544Y0079770D01*
X0003544Y0080368D02*
X0008824Y0080368D01*
X0008824Y0080336D02*
X0009352Y0079809D01*
X0015215Y0079809D01*
X0015743Y0080336D01*
X0015743Y0087381D01*
X0015215Y0087908D01*
X0013531Y0087908D01*
X0013531Y0091515D01*
X0014625Y0091515D01*
X0015152Y0092042D01*
X0015152Y0097512D01*
X0014625Y0098039D01*
X0009155Y0098039D01*
X0008628Y0097512D01*
X0008628Y0092042D01*
X0009155Y0091515D01*
X0010550Y0091515D01*
X0010550Y0087908D01*
X0009352Y0087908D01*
X0008824Y0087381D01*
X0008824Y0080336D01*
X0008824Y0080967D02*
X0003544Y0080967D01*
X0003544Y0081565D02*
X0008824Y0081565D01*
X0008824Y0082164D02*
X0003544Y0082164D01*
X0003544Y0082762D02*
X0008824Y0082762D01*
X0008824Y0083361D02*
X0003544Y0083361D01*
X0003544Y0083959D02*
X0008824Y0083959D01*
X0008824Y0084558D02*
X0003544Y0084558D01*
X0003544Y0085156D02*
X0008824Y0085156D01*
X0008824Y0085755D02*
X0003544Y0085755D01*
X0003544Y0086353D02*
X0008824Y0086353D01*
X0008824Y0086952D02*
X0003544Y0086952D01*
X0003544Y0087550D02*
X0008994Y0087550D01*
X0010550Y0088149D02*
X0003544Y0088149D01*
X0003544Y0088747D02*
X0010550Y0088747D01*
X0010550Y0089346D02*
X0003544Y0089346D01*
X0003544Y0089945D02*
X0010550Y0089945D01*
X0010550Y0090543D02*
X0003544Y0090543D01*
X0003544Y0091142D02*
X0010550Y0091142D01*
X0008930Y0091740D02*
X0003544Y0091740D01*
X0003544Y0092339D02*
X0008628Y0092339D01*
X0008628Y0092937D02*
X0003544Y0092937D01*
X0003544Y0093536D02*
X0008628Y0093536D01*
X0008628Y0094134D02*
X0003544Y0094134D01*
X0003544Y0094733D02*
X0008628Y0094733D01*
X0008628Y0095331D02*
X0003544Y0095331D01*
X0003544Y0095930D02*
X0008628Y0095930D01*
X0008628Y0096528D02*
X0003544Y0096528D01*
X0003544Y0097127D02*
X0008628Y0097127D01*
X0008841Y0097725D02*
X0003544Y0097725D01*
X0003544Y0098324D02*
X0017247Y0098324D01*
X0017293Y0098351D02*
X0016997Y0098180D01*
X0016755Y0097937D01*
X0016584Y0097641D01*
X0016495Y0097310D01*
X0016495Y0095077D01*
X0019857Y0095077D01*
X0019857Y0094477D01*
X0016495Y0094477D01*
X0016495Y0092244D01*
X0016584Y0091913D01*
X0016755Y0091617D01*
X0016997Y0091375D01*
X0017293Y0091203D01*
X0017624Y0091115D01*
X0019857Y0091115D01*
X0019857Y0094477D01*
X0020457Y0094477D01*
X0020457Y0091115D01*
X0022691Y0091115D01*
X0023021Y0091203D01*
X0023318Y0091375D01*
X0023560Y0091617D01*
X0023731Y0091913D01*
X0023820Y0092244D01*
X0023820Y0094477D01*
X0020458Y0094477D01*
X0020458Y0095077D01*
X0023820Y0095077D01*
X0023820Y0097310D01*
X0023731Y0097641D01*
X0023560Y0097937D01*
X0023318Y0098180D01*
X0023021Y0098351D01*
X0022691Y0098439D01*
X0020457Y0098439D01*
X0020457Y0095077D01*
X0019857Y0095077D01*
X0019857Y0098439D01*
X0017624Y0098439D01*
X0017293Y0098351D01*
X0016632Y0097725D02*
X0014939Y0097725D01*
X0015152Y0097127D02*
X0016495Y0097127D01*
X0016495Y0096528D02*
X0015152Y0096528D01*
X0015152Y0095930D02*
X0016495Y0095930D01*
X0016495Y0095331D02*
X0015152Y0095331D01*
X0015152Y0094733D02*
X0019857Y0094733D01*
X0019857Y0095331D02*
X0020457Y0095331D01*
X0020458Y0094733D02*
X0040405Y0094733D01*
X0041003Y0095331D02*
X0023820Y0095331D01*
X0023820Y0095930D02*
X0041555Y0095930D01*
X0041770Y0096528D02*
X0023820Y0096528D01*
X0023820Y0097127D02*
X0041770Y0097127D01*
X0041770Y0097725D02*
X0023683Y0097725D01*
X0023068Y0098324D02*
X0041770Y0098324D01*
X0041770Y0098922D02*
X0003544Y0098922D01*
X0003544Y0099521D02*
X0041770Y0099521D01*
X0042229Y0100119D02*
X0003544Y0100119D01*
X0003544Y0100718D02*
X0042828Y0100718D01*
X0043426Y0101316D02*
X0003544Y0101316D01*
X0003544Y0101915D02*
X0044025Y0101915D01*
X0044623Y0102513D02*
X0003544Y0102513D01*
X0003544Y0103112D02*
X0045222Y0103112D01*
X0045778Y0103710D02*
X0003544Y0103710D01*
X0003544Y0104309D02*
X0045778Y0104309D01*
X0045778Y0104907D02*
X0020661Y0104907D01*
X0019425Y0104396D02*
X0022074Y0105493D01*
X0024101Y0107519D01*
X0025198Y0110168D01*
X0025198Y0113034D01*
X0024101Y0115683D01*
X0022074Y0117710D01*
X0019425Y0118807D01*
X0016559Y0118807D01*
X0013911Y0117710D01*
X0011884Y0115683D01*
X0010787Y0113034D01*
X0010787Y0110168D01*
X0011884Y0107519D01*
X0013911Y0105493D01*
X0016559Y0104396D01*
X0019425Y0104396D01*
X0022087Y0105506D02*
X0045778Y0105506D01*
X0045778Y0106104D02*
X0022686Y0106104D01*
X0023284Y0106703D02*
X0045778Y0106703D01*
X0045778Y0107301D02*
X0023883Y0107301D01*
X0024258Y0107900D02*
X0045778Y0107900D01*
X0045778Y0108498D02*
X0024506Y0108498D01*
X0024754Y0109097D02*
X0045778Y0109097D01*
X0045778Y0109695D02*
X0025002Y0109695D01*
X0025198Y0110294D02*
X0045778Y0110294D01*
X0045778Y0110892D02*
X0025198Y0110892D01*
X0025198Y0111491D02*
X0045778Y0111491D01*
X0045778Y0112089D02*
X0025198Y0112089D01*
X0025198Y0112688D02*
X0045778Y0112688D01*
X0045778Y0113286D02*
X0025093Y0113286D01*
X0024845Y0113885D02*
X0045735Y0113885D01*
X0045136Y0114483D02*
X0024597Y0114483D01*
X0024349Y0115082D02*
X0044838Y0115082D01*
X0044590Y0115680D02*
X0024102Y0115680D01*
X0023504Y0116279D02*
X0044494Y0116279D01*
X0044494Y0116878D02*
X0022906Y0116878D01*
X0022307Y0117476D02*
X0044539Y0117476D01*
X0044787Y0118075D02*
X0021193Y0118075D01*
X0019748Y0118673D02*
X0045034Y0118673D01*
X0045611Y0119272D02*
X0003544Y0119272D01*
X0003544Y0119870D02*
X0046393Y0119870D01*
X0049665Y0120469D02*
X0003544Y0120469D01*
X0003544Y0121067D02*
X0050264Y0121067D01*
X0052002Y0117476D02*
X0073785Y0117476D01*
X0073785Y0116878D02*
X0051805Y0116878D01*
X0051805Y0116279D02*
X0073785Y0116279D01*
X0074057Y0115680D02*
X0051709Y0115680D01*
X0051461Y0115082D02*
X0083575Y0115082D01*
X0083575Y0114483D02*
X0051163Y0114483D01*
X0050564Y0113885D02*
X0083575Y0113885D01*
X0084136Y0113286D02*
X0049606Y0113286D01*
X0049546Y0112688D02*
X0084734Y0112688D01*
X0085333Y0112089D02*
X0049546Y0112089D01*
X0049546Y0111491D02*
X0074004Y0111491D01*
X0073887Y0111423D02*
X0073645Y0111181D01*
X0073474Y0110885D01*
X0073385Y0110554D01*
X0073385Y0107534D01*
X0076944Y0107534D01*
X0076944Y0111683D01*
X0074514Y0111683D01*
X0074183Y0111595D01*
X0073887Y0111423D01*
X0073478Y0110892D02*
X0049546Y0110892D01*
X0049546Y0110294D02*
X0073385Y0110294D01*
X0073385Y0109695D02*
X0049546Y0109695D01*
X0049546Y0109097D02*
X0073385Y0109097D01*
X0073385Y0108498D02*
X0049546Y0108498D01*
X0049546Y0107900D02*
X0073385Y0107900D01*
X0073385Y0106934D02*
X0073385Y0103913D01*
X0073474Y0103582D01*
X0073645Y0103286D01*
X0073887Y0103044D01*
X0074183Y0102873D01*
X0074514Y0102784D01*
X0076944Y0102784D01*
X0076944Y0106934D01*
X0073385Y0106934D01*
X0073385Y0106703D02*
X0049546Y0106703D01*
X0049546Y0107301D02*
X0076944Y0107301D01*
X0076944Y0107534D02*
X0076944Y0106934D01*
X0077544Y0106934D01*
X0077544Y0107534D01*
X0076944Y0107534D01*
X0076944Y0107900D02*
X0077544Y0107900D01*
X0077544Y0107534D02*
X0077544Y0111683D01*
X0079974Y0111683D01*
X0080305Y0111595D01*
X0080601Y0111423D01*
X0080843Y0111181D01*
X0081015Y0110885D01*
X0081103Y0110554D01*
X0081103Y0107534D01*
X0077544Y0107534D01*
X0077544Y0107301D02*
X0081265Y0107301D01*
X0081103Y0106934D02*
X0077544Y0106934D01*
X0077544Y0102784D01*
X0079974Y0102784D01*
X0080305Y0102873D01*
X0080601Y0103044D01*
X0080843Y0103286D01*
X0081015Y0103582D01*
X0081103Y0103913D01*
X0081103Y0106934D01*
X0081103Y0106703D02*
X0081265Y0106703D01*
X0081265Y0106104D02*
X0081103Y0106104D01*
X0081103Y0105506D02*
X0081265Y0105506D01*
X0081265Y0104907D02*
X0081103Y0104907D01*
X0081103Y0104309D02*
X0081265Y0104309D01*
X0081266Y0103710D02*
X0081049Y0103710D01*
X0080669Y0103112D02*
X0083130Y0103112D01*
X0083130Y0102513D02*
X0049546Y0102513D01*
X0049546Y0103112D02*
X0073819Y0103112D01*
X0073439Y0103710D02*
X0049546Y0103710D01*
X0049546Y0104309D02*
X0073385Y0104309D01*
X0073385Y0104907D02*
X0049546Y0104907D01*
X0049546Y0105506D02*
X0073385Y0105506D01*
X0073385Y0106104D02*
X0049546Y0106104D01*
X0049354Y0101915D02*
X0083130Y0101915D01*
X0083130Y0101316D02*
X0048755Y0101316D01*
X0048157Y0100718D02*
X0073663Y0100718D01*
X0073065Y0100119D02*
X0050065Y0100119D01*
X0050755Y0099521D02*
X0072466Y0099521D01*
X0071868Y0098922D02*
X0051292Y0098922D01*
X0051434Y0095331D02*
X0073385Y0095331D01*
X0073385Y0095930D02*
X0073091Y0095930D01*
X0073385Y0094692D02*
X0073385Y0091868D01*
X0073474Y0091538D01*
X0073645Y0091241D01*
X0073887Y0090999D01*
X0074183Y0090828D01*
X0074514Y0090739D01*
X0076944Y0090739D01*
X0076944Y0094692D01*
X0073385Y0094692D01*
X0073385Y0094134D02*
X0050499Y0094134D01*
X0051097Y0094733D02*
X0076944Y0094733D01*
X0076944Y0094134D02*
X0077544Y0094134D01*
X0077544Y0093536D02*
X0076944Y0093536D01*
X0076944Y0092937D02*
X0077544Y0092937D01*
X0077544Y0092339D02*
X0076944Y0092339D01*
X0076944Y0091740D02*
X0077544Y0091740D01*
X0077544Y0091142D02*
X0076944Y0091142D01*
X0073745Y0091142D02*
X0050051Y0091142D01*
X0049452Y0091740D02*
X0073419Y0091740D01*
X0073385Y0092339D02*
X0048854Y0092339D01*
X0048255Y0092937D02*
X0073385Y0092937D01*
X0073385Y0093536D02*
X0049447Y0093536D01*
X0050649Y0090543D02*
X0096638Y0090543D01*
X0097236Y0089945D02*
X0051248Y0089945D01*
X0051846Y0089346D02*
X0097835Y0089346D01*
X0098433Y0088747D02*
X0052445Y0088747D01*
X0053043Y0088149D02*
X0099032Y0088149D01*
X0099630Y0087550D02*
X0053642Y0087550D01*
X0054240Y0086952D02*
X0099887Y0086952D01*
X0099887Y0086353D02*
X0088103Y0086353D01*
X0088183Y0085755D02*
X0099887Y0085755D01*
X0099887Y0085156D02*
X0088183Y0085156D01*
X0088183Y0084558D02*
X0099887Y0084558D01*
X0099887Y0083959D02*
X0088183Y0083959D01*
X0075611Y0078573D02*
X0003544Y0078573D01*
X0003544Y0079171D02*
X0073842Y0079171D01*
X0075611Y0077974D02*
X0003544Y0077974D01*
X0003544Y0077376D02*
X0075611Y0077376D01*
X0075611Y0076777D02*
X0003544Y0076777D01*
X0003544Y0076179D02*
X0075611Y0076179D01*
X0075611Y0075580D02*
X0003544Y0075580D01*
X0003544Y0074982D02*
X0075611Y0074982D01*
X0074136Y0074383D02*
X0017236Y0074383D01*
X0017195Y0074407D02*
X0016864Y0074496D01*
X0011993Y0074496D01*
X0011993Y0068496D01*
X0011393Y0068496D01*
X0011393Y0074496D01*
X0006522Y0074496D01*
X0006191Y0074407D01*
X0005895Y0074236D01*
X0005653Y0073994D01*
X0005482Y0073697D01*
X0005393Y0073367D01*
X0005393Y0068496D01*
X0011393Y0068496D01*
X0011393Y0067896D01*
X0005393Y0067896D01*
X0005393Y0063024D01*
X0005482Y0062694D01*
X0005653Y0062397D01*
X0005895Y0062155D01*
X0006191Y0061984D01*
X0006522Y0061896D01*
X0011393Y0061896D01*
X0011393Y0067895D01*
X0011993Y0067895D01*
X0011993Y0061896D01*
X0016864Y0061896D01*
X0017195Y0061984D01*
X0017491Y0062155D01*
X0017733Y0062397D01*
X0017904Y0062694D01*
X0017993Y0063024D01*
X0017993Y0067896D01*
X0011993Y0067896D01*
X0011993Y0068496D01*
X0017993Y0068496D01*
X0017993Y0073367D01*
X0017904Y0073697D01*
X0017733Y0073994D01*
X0017491Y0074236D01*
X0017195Y0074407D01*
X0017854Y0073785D02*
X0073785Y0073785D01*
X0073785Y0073186D02*
X0017993Y0073186D01*
X0017993Y0072588D02*
X0073785Y0072588D01*
X0073785Y0071989D02*
X0017993Y0071989D01*
X0017993Y0071391D02*
X0073785Y0071391D01*
X0073785Y0070792D02*
X0017993Y0070792D01*
X0017993Y0070194D02*
X0073785Y0070194D01*
X0073785Y0069595D02*
X0017993Y0069595D01*
X0017993Y0068997D02*
X0050362Y0068997D01*
X0050265Y0068941D02*
X0050023Y0068698D01*
X0049852Y0068402D01*
X0049763Y0068071D01*
X0049763Y0064657D01*
X0054995Y0064657D01*
X0054995Y0064057D01*
X0055595Y0064057D01*
X0055595Y0059514D01*
X0059699Y0059514D01*
X0060029Y0059602D01*
X0060326Y0059773D01*
X0060568Y0060015D01*
X0060739Y0060312D01*
X0060828Y0060642D01*
X0060828Y0064057D01*
X0055595Y0064057D01*
X0055595Y0064657D01*
X0054995Y0064657D01*
X0054995Y0069200D01*
X0050892Y0069200D01*
X0050561Y0069112D01*
X0050265Y0068941D01*
X0049851Y0068398D02*
X0048688Y0068398D01*
X0048813Y0067800D02*
X0049763Y0067800D01*
X0049763Y0067201D02*
X0048813Y0067201D01*
X0048813Y0066603D02*
X0049763Y0066603D01*
X0049763Y0066004D02*
X0048813Y0066004D01*
X0048813Y0065406D02*
X0049763Y0065406D01*
X0049763Y0064807D02*
X0048813Y0064807D01*
X0048813Y0064209D02*
X0054995Y0064209D01*
X0054995Y0064807D02*
X0055595Y0064807D01*
X0055595Y0064657D02*
X0055595Y0069200D01*
X0059699Y0069200D01*
X0060029Y0069112D01*
X0060326Y0068941D01*
X0060568Y0068698D01*
X0060739Y0068402D01*
X0060828Y0068071D01*
X0060828Y0064657D01*
X0055595Y0064657D01*
X0055595Y0064209D02*
X0070438Y0064209D01*
X0071037Y0064807D02*
X0060828Y0064807D01*
X0060828Y0065406D02*
X0071635Y0065406D01*
X0072234Y0066004D02*
X0060828Y0066004D01*
X0060828Y0066603D02*
X0072527Y0066603D01*
X0073125Y0067201D02*
X0060828Y0067201D01*
X0060828Y0067800D02*
X0073785Y0067800D01*
X0073785Y0068398D02*
X0060740Y0068398D01*
X0060229Y0068997D02*
X0073785Y0068997D01*
X0069840Y0063610D02*
X0060828Y0063610D01*
X0060828Y0063011D02*
X0069241Y0063011D01*
X0068642Y0062413D02*
X0060828Y0062413D01*
X0060828Y0061814D02*
X0068044Y0061814D01*
X0067445Y0061216D02*
X0060828Y0061216D01*
X0060821Y0060617D02*
X0066847Y0060617D01*
X0066248Y0060019D02*
X0060570Y0060019D01*
X0064453Y0058223D02*
X0052690Y0058223D01*
X0053289Y0057625D02*
X0063854Y0057625D01*
X0063256Y0057026D02*
X0053887Y0057026D01*
X0054486Y0056428D02*
X0062657Y0056428D01*
X0062059Y0055829D02*
X0055084Y0055829D01*
X0055683Y0055231D02*
X0061460Y0055231D01*
X0060862Y0054632D02*
X0056281Y0054632D01*
X0056880Y0054034D02*
X0060263Y0054034D01*
X0059665Y0053435D02*
X0057478Y0053435D01*
X0053944Y0051640D02*
X0027160Y0051640D01*
X0027160Y0051041D02*
X0054543Y0051041D01*
X0055141Y0050443D02*
X0027160Y0050443D01*
X0027389Y0049844D02*
X0055740Y0049844D01*
X0056338Y0049246D02*
X0027560Y0049246D01*
X0027560Y0048647D02*
X0032510Y0048647D01*
X0032057Y0048049D02*
X0027560Y0048049D01*
X0027559Y0047450D02*
X0032057Y0047450D01*
X0032057Y0046852D02*
X0027315Y0046852D01*
X0026113Y0046253D02*
X0032057Y0046253D01*
X0032057Y0045655D02*
X0026574Y0045655D01*
X0026822Y0045056D02*
X0032057Y0045056D01*
X0032057Y0044458D02*
X0026989Y0044458D01*
X0026989Y0043859D02*
X0032057Y0043859D01*
X0032057Y0043261D02*
X0026967Y0043261D01*
X0026719Y0042662D02*
X0032057Y0042662D01*
X0032057Y0042064D02*
X0026464Y0042064D01*
X0025866Y0041465D02*
X0032057Y0041465D01*
X0032057Y0040867D02*
X0024897Y0040867D01*
X0022347Y0040867D02*
X0017993Y0040867D01*
X0017993Y0041465D02*
X0021378Y0041465D01*
X0020780Y0042064D02*
X0017993Y0042064D01*
X0017993Y0042662D02*
X0020525Y0042662D01*
X0020277Y0043261D02*
X0017993Y0043261D01*
X0017993Y0043859D02*
X0020255Y0043859D01*
X0020255Y0044458D02*
X0017852Y0044458D01*
X0017904Y0044367D02*
X0017733Y0044663D01*
X0017491Y0044905D01*
X0017195Y0045076D01*
X0016864Y0045165D01*
X0011993Y0045165D01*
X0011993Y0039165D01*
X0011393Y0039165D01*
X0011393Y0045165D01*
X0006522Y0045165D01*
X0006191Y0045076D01*
X0005895Y0044905D01*
X0005653Y0044663D01*
X0005482Y0044367D01*
X0005393Y0044036D01*
X0005393Y0039165D01*
X0011393Y0039165D01*
X0011393Y0038565D01*
X0005393Y0038565D01*
X0005393Y0033694D01*
X0005482Y0033363D01*
X0005653Y0033067D01*
X0005895Y0032825D01*
X0006191Y0032653D01*
X0006522Y0032565D01*
X0011393Y0032565D01*
X0011393Y0038565D01*
X0011993Y0038565D01*
X0011993Y0039165D01*
X0017993Y0039165D01*
X0017993Y0044036D01*
X0017904Y0044367D01*
X0017229Y0045056D02*
X0020422Y0045056D01*
X0020670Y0045655D02*
X0003544Y0045655D01*
X0003544Y0046253D02*
X0021131Y0046253D01*
X0018315Y0046852D02*
X0003544Y0046852D01*
X0003544Y0047450D02*
X0018071Y0047450D01*
X0018070Y0048049D02*
X0003544Y0048049D01*
X0003544Y0048647D02*
X0018070Y0048647D01*
X0018070Y0049246D02*
X0003544Y0049246D01*
X0003544Y0049844D02*
X0018241Y0049844D01*
X0018470Y0050443D02*
X0003544Y0050443D01*
X0003544Y0051041D02*
X0018470Y0051041D01*
X0018470Y0051640D02*
X0003544Y0051640D01*
X0003544Y0052238D02*
X0018577Y0052238D01*
X0018470Y0052837D02*
X0003544Y0052837D01*
X0003544Y0053435D02*
X0018470Y0053435D01*
X0018470Y0054034D02*
X0003544Y0054034D01*
X0003544Y0054632D02*
X0018470Y0054632D01*
X0018470Y0055231D02*
X0003544Y0055231D01*
X0003544Y0055829D02*
X0018470Y0055829D01*
X0018470Y0056428D02*
X0003544Y0056428D01*
X0003544Y0057026D02*
X0018470Y0057026D01*
X0018470Y0057625D02*
X0003544Y0057625D01*
X0003544Y0058223D02*
X0018470Y0058223D01*
X0018470Y0058822D02*
X0003544Y0058822D01*
X0003544Y0059420D02*
X0018470Y0059420D01*
X0018681Y0060019D02*
X0003544Y0060019D01*
X0003544Y0060617D02*
X0021320Y0060617D01*
X0020749Y0061216D02*
X0003544Y0061216D01*
X0003544Y0061814D02*
X0020501Y0061814D01*
X0020255Y0062413D02*
X0017742Y0062413D01*
X0017989Y0063011D02*
X0020255Y0063011D01*
X0020255Y0063610D02*
X0017993Y0063610D01*
X0017993Y0064209D02*
X0020446Y0064209D01*
X0020694Y0064807D02*
X0017993Y0064807D01*
X0017993Y0065406D02*
X0021189Y0065406D01*
X0021889Y0066004D02*
X0017993Y0066004D01*
X0017993Y0066603D02*
X0038549Y0066603D01*
X0038549Y0067201D02*
X0017993Y0067201D01*
X0017993Y0067800D02*
X0038549Y0067800D01*
X0038674Y0068398D02*
X0011993Y0068398D01*
X0011993Y0067800D02*
X0011393Y0067800D01*
X0011393Y0068398D02*
X0003544Y0068398D01*
X0003544Y0067800D02*
X0005393Y0067800D01*
X0005393Y0067201D02*
X0003544Y0067201D01*
X0003544Y0066603D02*
X0005393Y0066603D01*
X0005393Y0066004D02*
X0003544Y0066004D01*
X0003544Y0065406D02*
X0005393Y0065406D01*
X0005393Y0064807D02*
X0003544Y0064807D01*
X0003544Y0064209D02*
X0005393Y0064209D01*
X0005393Y0063610D02*
X0003544Y0063610D01*
X0003544Y0063011D02*
X0005396Y0063011D01*
X0005644Y0062413D02*
X0003544Y0062413D01*
X0011393Y0062413D02*
X0011993Y0062413D01*
X0011993Y0063011D02*
X0011393Y0063011D01*
X0011393Y0063610D02*
X0011993Y0063610D01*
X0011993Y0064209D02*
X0011393Y0064209D01*
X0011393Y0064807D02*
X0011993Y0064807D01*
X0011993Y0065406D02*
X0011393Y0065406D01*
X0011393Y0066004D02*
X0011993Y0066004D01*
X0011993Y0066603D02*
X0011393Y0066603D01*
X0011393Y0067201D02*
X0011993Y0067201D01*
X0011993Y0068997D02*
X0011393Y0068997D01*
X0011393Y0069595D02*
X0011993Y0069595D01*
X0011993Y0070194D02*
X0011393Y0070194D01*
X0011393Y0070792D02*
X0011993Y0070792D01*
X0011993Y0071391D02*
X0011393Y0071391D01*
X0011393Y0071989D02*
X0011993Y0071989D01*
X0011993Y0072588D02*
X0011393Y0072588D01*
X0011393Y0073186D02*
X0011993Y0073186D01*
X0011993Y0073785D02*
X0011393Y0073785D01*
X0011393Y0074383D02*
X0011993Y0074383D01*
X0006150Y0074383D02*
X0003544Y0074383D01*
X0003544Y0073785D02*
X0005532Y0073785D01*
X0005393Y0073186D02*
X0003544Y0073186D01*
X0003544Y0072588D02*
X0005393Y0072588D01*
X0005393Y0071989D02*
X0003544Y0071989D01*
X0003544Y0071391D02*
X0005393Y0071391D01*
X0005393Y0070792D02*
X0003544Y0070792D01*
X0003544Y0070194D02*
X0005393Y0070194D01*
X0005393Y0069595D02*
X0003544Y0069595D01*
X0003544Y0068997D02*
X0005393Y0068997D01*
X0025355Y0066004D02*
X0038549Y0066004D01*
X0038549Y0065406D02*
X0026055Y0065406D01*
X0026550Y0064807D02*
X0038549Y0064807D01*
X0038549Y0064209D02*
X0026798Y0064209D01*
X0026989Y0063610D02*
X0038549Y0063610D01*
X0038549Y0063011D02*
X0026989Y0063011D01*
X0026989Y0062413D02*
X0038549Y0062413D01*
X0038549Y0061814D02*
X0026743Y0061814D01*
X0026495Y0061216D02*
X0038057Y0061216D01*
X0041591Y0059420D02*
X0046164Y0059420D01*
X0046762Y0058822D02*
X0040993Y0058822D01*
X0040394Y0058223D02*
X0047361Y0058223D01*
X0047959Y0057625D02*
X0039796Y0057625D01*
X0039197Y0057026D02*
X0048558Y0057026D01*
X0049156Y0056428D02*
X0027160Y0056428D01*
X0027160Y0055829D02*
X0049755Y0055829D01*
X0050353Y0055231D02*
X0027160Y0055231D01*
X0027160Y0054632D02*
X0050952Y0054632D01*
X0051550Y0054034D02*
X0027160Y0054034D01*
X0027160Y0053435D02*
X0052149Y0053435D01*
X0052747Y0052837D02*
X0027160Y0052837D01*
X0027053Y0052238D02*
X0053346Y0052238D01*
X0056389Y0048647D02*
X0042065Y0048647D01*
X0042518Y0048049D02*
X0056389Y0048049D01*
X0056389Y0047450D02*
X0042518Y0047450D01*
X0042518Y0046852D02*
X0056599Y0046852D01*
X0056741Y0043859D02*
X0042518Y0043859D01*
X0042518Y0043261D02*
X0056389Y0043261D01*
X0056389Y0042662D02*
X0042518Y0042662D01*
X0042518Y0042064D02*
X0049184Y0042064D01*
X0048585Y0041465D02*
X0042518Y0041465D01*
X0042518Y0040867D02*
X0047987Y0040867D01*
X0047388Y0040268D02*
X0042518Y0040268D01*
X0042518Y0039670D02*
X0046790Y0039670D01*
X0046191Y0039071D02*
X0042518Y0039071D01*
X0042518Y0038473D02*
X0045593Y0038473D01*
X0044994Y0037874D02*
X0042761Y0037874D01*
X0043359Y0037276D02*
X0044396Y0037276D01*
X0047331Y0034881D02*
X0056296Y0034881D01*
X0056010Y0034283D02*
X0046732Y0034283D01*
X0046173Y0033684D02*
X0055989Y0033684D01*
X0055989Y0033086D02*
X0045539Y0033086D01*
X0045539Y0032487D02*
X0055989Y0032487D01*
X0061389Y0033086D02*
X0061989Y0033086D01*
X0061989Y0033684D02*
X0061389Y0033684D01*
X0061389Y0034283D02*
X0061989Y0034283D01*
X0061989Y0034881D02*
X0061389Y0034881D01*
X0056478Y0037874D02*
X0050324Y0037874D01*
X0050922Y0038473D02*
X0056389Y0038473D01*
X0049725Y0037276D02*
X0090370Y0037276D01*
X0089772Y0036677D02*
X0049126Y0036677D01*
X0048528Y0036078D02*
X0089173Y0036078D01*
X0088575Y0035480D02*
X0047929Y0035480D01*
X0041770Y0032487D02*
X0003544Y0032487D01*
X0003544Y0031889D02*
X0041770Y0031889D01*
X0041770Y0031290D02*
X0003544Y0031290D01*
X0003544Y0030692D02*
X0041770Y0030692D01*
X0041770Y0030093D02*
X0003544Y0030093D01*
X0003544Y0029495D02*
X0041770Y0029495D01*
X0041770Y0028896D02*
X0003544Y0028896D01*
X0003544Y0028298D02*
X0041770Y0028298D01*
X0041770Y0027699D02*
X0003544Y0027699D01*
X0003544Y0027101D02*
X0041770Y0027101D01*
X0041770Y0026502D02*
X0003544Y0026502D01*
X0003544Y0025904D02*
X0041770Y0025904D01*
X0041770Y0025305D02*
X0003544Y0025305D01*
X0003544Y0024707D02*
X0041770Y0024707D01*
X0041770Y0024108D02*
X0019933Y0024108D01*
X0019425Y0024318D02*
X0016559Y0024318D01*
X0013911Y0023221D01*
X0011884Y0021194D01*
X0010787Y0018546D01*
X0010787Y0015680D01*
X0011884Y0013031D01*
X0013911Y0011004D01*
X0016559Y0009907D01*
X0019425Y0009907D01*
X0022074Y0011004D01*
X0024101Y0013031D01*
X0025198Y0015680D01*
X0025198Y0018546D01*
X0024101Y0021194D01*
X0022074Y0023221D01*
X0019425Y0024318D01*
X0021378Y0023510D02*
X0041770Y0023510D01*
X0041770Y0022911D02*
X0022384Y0022911D01*
X0022982Y0022313D02*
X0041770Y0022313D01*
X0041770Y0021714D02*
X0023581Y0021714D01*
X0024133Y0021116D02*
X0038636Y0021116D01*
X0038549Y0020517D02*
X0024381Y0020517D01*
X0024629Y0019919D02*
X0038549Y0019919D01*
X0038549Y0019320D02*
X0024877Y0019320D01*
X0025125Y0018722D02*
X0038549Y0018722D01*
X0038549Y0018123D02*
X0025198Y0018123D01*
X0025198Y0017525D02*
X0038549Y0017525D01*
X0038549Y0016926D02*
X0025198Y0016926D01*
X0025198Y0016328D02*
X0038549Y0016328D01*
X0038549Y0015729D02*
X0025198Y0015729D01*
X0024970Y0015131D02*
X0038549Y0015131D01*
X0038549Y0014532D02*
X0024722Y0014532D01*
X0024474Y0013934D02*
X0038549Y0013934D01*
X0038549Y0013335D02*
X0024226Y0013335D01*
X0023806Y0012737D02*
X0039009Y0012737D01*
X0047583Y0012138D02*
X0023207Y0012138D01*
X0022609Y0011540D02*
X0048181Y0011540D01*
X0048780Y0010941D02*
X0021921Y0010941D01*
X0020476Y0010342D02*
X0049378Y0010342D01*
X0049977Y0009744D02*
X0003544Y0009744D01*
X0003544Y0010342D02*
X0015508Y0010342D01*
X0014063Y0010941D02*
X0003544Y0010941D01*
X0003544Y0011540D02*
X0013375Y0011540D01*
X0012777Y0012138D02*
X0003544Y0012138D01*
X0003544Y0012737D02*
X0012178Y0012737D01*
X0011758Y0013335D02*
X0003544Y0013335D01*
X0003544Y0013934D02*
X0011510Y0013934D01*
X0011262Y0014532D02*
X0003544Y0014532D01*
X0003544Y0015131D02*
X0011014Y0015131D01*
X0010787Y0015729D02*
X0003544Y0015729D01*
X0003544Y0016328D02*
X0010787Y0016328D01*
X0010787Y0016926D02*
X0003544Y0016926D01*
X0003544Y0017525D02*
X0010787Y0017525D01*
X0010787Y0018123D02*
X0003544Y0018123D01*
X0003544Y0018722D02*
X0010859Y0018722D01*
X0011107Y0019320D02*
X0003544Y0019320D01*
X0003544Y0019919D02*
X0011355Y0019919D01*
X0011603Y0020517D02*
X0003544Y0020517D01*
X0003544Y0021116D02*
X0011851Y0021116D01*
X0012403Y0021714D02*
X0003544Y0021714D01*
X0003544Y0022313D02*
X0013002Y0022313D01*
X0013600Y0022911D02*
X0003544Y0022911D01*
X0003544Y0023510D02*
X0014607Y0023510D01*
X0016052Y0024108D02*
X0003544Y0024108D01*
X0003544Y0033086D02*
X0005641Y0033086D01*
X0005395Y0033684D02*
X0003544Y0033684D01*
X0003544Y0034283D02*
X0005393Y0034283D01*
X0005393Y0034881D02*
X0003544Y0034881D01*
X0003544Y0035480D02*
X0005393Y0035480D01*
X0005393Y0036078D02*
X0003544Y0036078D01*
X0003544Y0036677D02*
X0005393Y0036677D01*
X0005393Y0037276D02*
X0003544Y0037276D01*
X0003544Y0037874D02*
X0005393Y0037874D01*
X0005393Y0038473D02*
X0003544Y0038473D01*
X0003544Y0039071D02*
X0011393Y0039071D01*
X0011393Y0038473D02*
X0011993Y0038473D01*
X0011993Y0038565D02*
X0011993Y0032565D01*
X0016864Y0032565D01*
X0017195Y0032653D01*
X0017491Y0032825D01*
X0017733Y0033067D01*
X0017904Y0033363D01*
X0017993Y0033694D01*
X0017993Y0038565D01*
X0011993Y0038565D01*
X0011993Y0039071D02*
X0032057Y0039071D01*
X0032057Y0038473D02*
X0017993Y0038473D01*
X0017993Y0037874D02*
X0032057Y0037874D01*
X0032057Y0037276D02*
X0017993Y0037276D01*
X0017993Y0036677D02*
X0032057Y0036677D01*
X0032057Y0036078D02*
X0017993Y0036078D01*
X0017993Y0035480D02*
X0032057Y0035480D01*
X0032057Y0034881D02*
X0017993Y0034881D01*
X0017993Y0034283D02*
X0032057Y0034283D01*
X0032057Y0033684D02*
X0017990Y0033684D01*
X0017744Y0033086D02*
X0032246Y0033086D01*
X0032057Y0039670D02*
X0017993Y0039670D01*
X0017993Y0040268D02*
X0032057Y0040268D01*
X0042518Y0044458D02*
X0063155Y0044458D01*
X0063753Y0045056D02*
X0042518Y0045056D01*
X0042518Y0045655D02*
X0064352Y0045655D01*
X0064950Y0046253D02*
X0042518Y0046253D01*
X0052091Y0058822D02*
X0065051Y0058822D01*
X0065650Y0059420D02*
X0051493Y0059420D01*
X0049763Y0061216D02*
X0049697Y0061216D01*
X0049763Y0061814D02*
X0049099Y0061814D01*
X0048813Y0062413D02*
X0049763Y0062413D01*
X0049763Y0063011D02*
X0048813Y0063011D01*
X0048813Y0063610D02*
X0049763Y0063610D01*
X0054995Y0063610D02*
X0055595Y0063610D01*
X0055595Y0063011D02*
X0054995Y0063011D01*
X0054995Y0062413D02*
X0055595Y0062413D01*
X0055595Y0061814D02*
X0054995Y0061814D01*
X0054995Y0061216D02*
X0055595Y0061216D01*
X0055595Y0060617D02*
X0054995Y0060617D01*
X0054995Y0060019D02*
X0055595Y0060019D01*
X0055595Y0065406D02*
X0054995Y0065406D01*
X0054995Y0066004D02*
X0055595Y0066004D01*
X0055595Y0066603D02*
X0054995Y0066603D01*
X0054995Y0067201D02*
X0055595Y0067201D01*
X0055595Y0067800D02*
X0054995Y0067800D01*
X0054995Y0068398D02*
X0055595Y0068398D01*
X0055595Y0068997D02*
X0054995Y0068997D01*
X0084424Y0057026D02*
X0085024Y0057026D01*
X0085024Y0056428D02*
X0084424Y0056428D01*
X0084424Y0055829D02*
X0085024Y0055829D01*
X0085024Y0055231D02*
X0084424Y0055231D01*
X0084424Y0054632D02*
X0085024Y0054632D01*
X0092825Y0061814D02*
X0092926Y0061814D01*
X0092926Y0066004D02*
X0091552Y0066004D01*
X0090953Y0066603D02*
X0092926Y0066603D01*
X0092926Y0067201D02*
X0090355Y0067201D01*
X0089756Y0067800D02*
X0093287Y0067800D01*
X0093886Y0068398D02*
X0089158Y0068398D01*
X0088559Y0068997D02*
X0094484Y0068997D01*
X0095083Y0069595D02*
X0088183Y0069595D01*
X0088183Y0070194D02*
X0095681Y0070194D01*
X0096280Y0070792D02*
X0088183Y0070792D01*
X0088183Y0071391D02*
X0096879Y0071391D01*
X0097477Y0071989D02*
X0088183Y0071989D01*
X0088183Y0072588D02*
X0098076Y0072588D01*
X0098674Y0073186D02*
X0088183Y0073186D01*
X0088183Y0073785D02*
X0099273Y0073785D01*
X0099871Y0074383D02*
X0087832Y0074383D01*
X0102291Y0072588D02*
X0115512Y0072588D01*
X0115470Y0073186D02*
X0102890Y0073186D01*
X0113023Y0073785D02*
X0115470Y0073785D01*
X0115484Y0074383D02*
X0113498Y0074383D01*
X0113498Y0074982D02*
X0116080Y0074982D01*
X0116080Y0075580D02*
X0113498Y0075580D01*
X0113498Y0076179D02*
X0116080Y0076179D01*
X0116080Y0076777D02*
X0113498Y0076777D01*
X0113498Y0077376D02*
X0116080Y0077376D01*
X0116080Y0077974D02*
X0113498Y0077974D01*
X0113498Y0078573D02*
X0116080Y0078573D01*
X0116080Y0079171D02*
X0113498Y0079171D01*
X0113458Y0079770D02*
X0116080Y0079770D01*
X0116080Y0080368D02*
X0103013Y0080368D01*
X0102415Y0080967D02*
X0116080Y0080967D01*
X0116080Y0081565D02*
X0101816Y0081565D01*
X0113498Y0082164D02*
X0116080Y0082164D01*
X0116080Y0082762D02*
X0113498Y0082762D01*
X0113498Y0083361D02*
X0116080Y0083361D01*
X0115689Y0083959D02*
X0113498Y0083959D01*
X0113498Y0084558D02*
X0115091Y0084558D01*
X0114492Y0085156D02*
X0113498Y0085156D01*
X0113498Y0085755D02*
X0113894Y0085755D01*
X0115117Y0088747D02*
X0162770Y0088747D01*
X0163369Y0089346D02*
X0114519Y0089346D01*
X0113920Y0089945D02*
X0163967Y0089945D01*
X0208065Y0091142D02*
X0240522Y0091142D01*
X0239924Y0091740D02*
X0208065Y0091740D01*
X0208065Y0092339D02*
X0239504Y0092339D01*
X0239256Y0092937D02*
X0208065Y0092937D01*
X0208065Y0093536D02*
X0239133Y0093536D01*
X0239133Y0094134D02*
X0208065Y0094134D01*
X0208065Y0094733D02*
X0239215Y0094733D01*
X0239463Y0095331D02*
X0208065Y0095331D01*
X0208065Y0095930D02*
X0239824Y0095930D01*
X0240423Y0096528D02*
X0208065Y0096528D01*
X0234022Y0082164D02*
X0266652Y0082164D01*
X0267251Y0081565D02*
X0234620Y0081565D01*
X0235219Y0080967D02*
X0267849Y0080967D01*
X0268448Y0080368D02*
X0235817Y0080368D01*
X0236416Y0079770D02*
X0269046Y0079770D01*
X0269645Y0079171D02*
X0237014Y0079171D01*
X0237613Y0078573D02*
X0270243Y0078573D01*
X0270842Y0077974D02*
X0238211Y0077974D01*
X0238810Y0077376D02*
X0271440Y0077376D01*
X0272039Y0076777D02*
X0239408Y0076777D01*
X0240007Y0076179D02*
X0272637Y0076179D01*
X0273236Y0075580D02*
X0240605Y0075580D01*
X0241204Y0074982D02*
X0273834Y0074982D01*
X0274433Y0074383D02*
X0241802Y0074383D01*
X0242401Y0073785D02*
X0275031Y0073785D01*
X0275630Y0073186D02*
X0242999Y0073186D01*
X0243598Y0072588D02*
X0276228Y0072588D01*
X0276827Y0071989D02*
X0244196Y0071989D01*
X0244795Y0071391D02*
X0277425Y0071391D01*
X0278024Y0070792D02*
X0245393Y0070792D01*
X0245992Y0070194D02*
X0278622Y0070194D01*
X0279221Y0069595D02*
X0246590Y0069595D01*
X0247189Y0068997D02*
X0279819Y0068997D01*
X0280418Y0068398D02*
X0247787Y0068398D01*
X0248386Y0067800D02*
X0281016Y0067800D01*
X0281615Y0067201D02*
X0248984Y0067201D01*
X0249583Y0066603D02*
X0281368Y0066603D01*
X0280769Y0066004D02*
X0250181Y0066004D01*
X0275058Y0077974D02*
X0296220Y0077974D01*
X0296220Y0077376D02*
X0291525Y0077376D01*
X0292552Y0076777D02*
X0296220Y0076777D01*
X0296220Y0076179D02*
X0293150Y0076179D01*
X0293517Y0075580D02*
X0296220Y0075580D01*
X0296220Y0074982D02*
X0293765Y0074982D01*
X0293947Y0074383D02*
X0296220Y0074383D01*
X0296220Y0073785D02*
X0293947Y0073785D01*
X0293947Y0073186D02*
X0296220Y0073186D01*
X0296220Y0072588D02*
X0293780Y0072588D01*
X0293532Y0071989D02*
X0296220Y0071989D01*
X0296220Y0071391D02*
X0293187Y0071391D01*
X0292588Y0070792D02*
X0296220Y0070792D01*
X0296220Y0070194D02*
X0291613Y0070194D01*
X0291946Y0067201D02*
X0296220Y0067201D01*
X0296220Y0066603D02*
X0292727Y0066603D01*
X0293325Y0066004D02*
X0296220Y0066004D01*
X0296220Y0065406D02*
X0293590Y0065406D01*
X0293838Y0064807D02*
X0296220Y0064807D01*
X0296220Y0064209D02*
X0293947Y0064209D01*
X0293947Y0063610D02*
X0296220Y0063610D01*
X0296220Y0063011D02*
X0293947Y0063011D01*
X0293708Y0062413D02*
X0296220Y0062413D01*
X0296220Y0061814D02*
X0293460Y0061814D01*
X0293012Y0061216D02*
X0296220Y0061216D01*
X0296220Y0060617D02*
X0292414Y0060617D01*
X0291191Y0060019D02*
X0296220Y0060019D01*
X0287347Y0057625D02*
X0286747Y0057625D01*
X0286747Y0057026D02*
X0287347Y0057026D01*
X0287347Y0056428D02*
X0286747Y0056428D01*
X0286747Y0055829D02*
X0287347Y0055829D01*
X0287347Y0055231D02*
X0286747Y0055231D01*
X0286747Y0053435D02*
X0287347Y0053435D01*
X0287347Y0052837D02*
X0286747Y0052837D01*
X0286747Y0052238D02*
X0287347Y0052238D01*
X0287347Y0051640D02*
X0286747Y0051640D01*
X0286747Y0051041D02*
X0287347Y0051041D01*
X0287347Y0050443D02*
X0286747Y0050443D01*
X0286747Y0049844D02*
X0287347Y0049844D01*
X0292788Y0050443D02*
X0296220Y0050443D01*
X0296220Y0051041D02*
X0293382Y0051041D01*
X0293790Y0051640D02*
X0296220Y0051640D01*
X0296220Y0052238D02*
X0294072Y0052238D01*
X0294254Y0052837D02*
X0296220Y0052837D01*
X0296220Y0053435D02*
X0294347Y0053435D01*
X0296220Y0067800D02*
X0285232Y0067800D01*
X0284634Y0068398D02*
X0296220Y0068398D01*
X0296220Y0068997D02*
X0284035Y0068997D01*
X0283437Y0069595D02*
X0296220Y0069595D01*
X0281543Y0076777D02*
X0276255Y0076777D01*
X0276853Y0076179D02*
X0280944Y0076179D01*
X0280577Y0075580D02*
X0277452Y0075580D01*
X0278050Y0074982D02*
X0280329Y0074982D01*
X0280147Y0074383D02*
X0278649Y0074383D01*
X0279247Y0073785D02*
X0280147Y0073785D01*
X0280147Y0073186D02*
X0279846Y0073186D01*
X0282570Y0077376D02*
X0275656Y0077376D01*
X0274459Y0078573D02*
X0296220Y0078573D01*
X0296220Y0079171D02*
X0273861Y0079171D01*
X0273262Y0079770D02*
X0296220Y0079770D01*
X0296220Y0080368D02*
X0292035Y0080368D01*
X0292763Y0080967D02*
X0296220Y0080967D01*
X0296220Y0081565D02*
X0293357Y0081565D01*
X0293605Y0082164D02*
X0296220Y0082164D01*
X0296220Y0082762D02*
X0293853Y0082762D01*
X0293947Y0083361D02*
X0296220Y0083361D01*
X0296220Y0083959D02*
X0293947Y0083959D01*
X0293941Y0084558D02*
X0296220Y0084558D01*
X0296220Y0085156D02*
X0293693Y0085156D01*
X0293445Y0085755D02*
X0296220Y0085755D01*
X0296220Y0086353D02*
X0292976Y0086353D01*
X0292377Y0086952D02*
X0296220Y0086952D01*
X0296220Y0087550D02*
X0291103Y0087550D01*
X0280402Y0085156D02*
X0267875Y0085156D01*
X0268474Y0084558D02*
X0280154Y0084558D01*
X0280147Y0083959D02*
X0269072Y0083959D01*
X0269671Y0083361D02*
X0280147Y0083361D01*
X0280242Y0082762D02*
X0270269Y0082762D01*
X0270868Y0082164D02*
X0280490Y0082164D01*
X0280738Y0081565D02*
X0271466Y0081565D01*
X0272065Y0080967D02*
X0281331Y0080967D01*
X0282060Y0080368D02*
X0272663Y0080368D01*
X0242702Y0102513D02*
X0242102Y0102513D01*
X0242102Y0103112D02*
X0242702Y0103112D01*
X0242702Y0103710D02*
X0242102Y0103710D01*
X0242102Y0104309D02*
X0242702Y0104309D01*
X0242702Y0104907D02*
X0242102Y0104907D01*
X0242102Y0105506D02*
X0242702Y0105506D01*
X0242702Y0106104D02*
X0242102Y0106104D01*
X0242102Y0106703D02*
X0242702Y0106703D01*
X0242702Y0107301D02*
X0242102Y0107301D01*
X0242102Y0107900D02*
X0242702Y0107900D01*
X0242702Y0108498D02*
X0242102Y0108498D01*
X0242102Y0109097D02*
X0242702Y0109097D01*
X0242702Y0109695D02*
X0242102Y0109695D01*
X0242102Y0110294D02*
X0242702Y0110294D01*
X0242702Y0110892D02*
X0242102Y0110892D01*
X0248229Y0119272D02*
X0296220Y0119272D01*
X0296220Y0119870D02*
X0248229Y0119870D01*
X0248229Y0120469D02*
X0296220Y0120469D01*
X0296220Y0121067D02*
X0248160Y0121067D01*
X0296220Y0122863D02*
X0174104Y0122863D01*
X0174104Y0123461D02*
X0296220Y0123461D01*
X0296220Y0124060D02*
X0174104Y0124060D01*
X0174104Y0124658D02*
X0296220Y0124658D01*
X0296220Y0125257D02*
X0174104Y0125257D01*
X0174104Y0125855D02*
X0296220Y0125855D01*
X0164454Y0051041D02*
X0141748Y0051041D01*
X0170960Y0040867D02*
X0171560Y0040867D01*
X0171560Y0040268D02*
X0170960Y0040268D01*
X0170960Y0039670D02*
X0171560Y0039670D01*
X0171560Y0039071D02*
X0170960Y0039071D01*
X0170960Y0038473D02*
X0171560Y0038473D01*
X0171560Y0036677D02*
X0170960Y0036677D01*
X0170960Y0036078D02*
X0171560Y0036078D01*
X0171560Y0035480D02*
X0170960Y0035480D01*
X0170960Y0034881D02*
X0171560Y0034881D01*
X0171560Y0034283D02*
X0170960Y0034283D01*
X0177810Y0031889D02*
X0189624Y0031889D01*
X0178980Y0037276D02*
X0178465Y0037276D01*
X0221294Y0031889D02*
X0222643Y0031889D01*
X0222013Y0032487D02*
X0221923Y0032487D01*
X0116111Y0071989D02*
X0113365Y0071989D01*
X0096039Y0091142D02*
X0087658Y0091142D01*
X0088183Y0091740D02*
X0095441Y0091740D01*
X0094842Y0092339D02*
X0088183Y0092339D01*
X0088183Y0092937D02*
X0094244Y0092937D01*
X0102716Y0098922D02*
X0104847Y0098922D01*
X0104248Y0098324D02*
X0103314Y0098324D01*
X0104027Y0099521D02*
X0102117Y0099521D01*
X0101519Y0100119D02*
X0104006Y0100119D01*
X0104006Y0100718D02*
X0100920Y0100718D01*
X0100322Y0101316D02*
X0104006Y0101316D01*
X0104006Y0101915D02*
X0099723Y0101915D01*
X0099125Y0102513D02*
X0104006Y0102513D01*
X0104006Y0103112D02*
X0098526Y0103112D01*
X0097928Y0103710D02*
X0104006Y0103710D01*
X0104006Y0104309D02*
X0097329Y0104309D01*
X0096731Y0104907D02*
X0104006Y0104907D01*
X0104006Y0105506D02*
X0096132Y0105506D01*
X0095534Y0106104D02*
X0104006Y0106104D01*
X0104006Y0106703D02*
X0094935Y0106703D01*
X0094337Y0107301D02*
X0104006Y0107301D01*
X0104006Y0107900D02*
X0093738Y0107900D01*
X0093140Y0108498D02*
X0104006Y0108498D01*
X0104006Y0109097D02*
X0092541Y0109097D01*
X0091943Y0109695D02*
X0104006Y0109695D01*
X0104006Y0110294D02*
X0091344Y0110294D01*
X0090746Y0110892D02*
X0104006Y0110892D01*
X0104006Y0111491D02*
X0090147Y0111491D01*
X0089549Y0112089D02*
X0104006Y0112089D01*
X0104006Y0112688D02*
X0088950Y0112688D01*
X0088352Y0113286D02*
X0104006Y0113286D01*
X0104006Y0113885D02*
X0087753Y0113885D01*
X0087155Y0114483D02*
X0104006Y0114483D01*
X0104006Y0116279D02*
X0088183Y0116279D01*
X0088183Y0116878D02*
X0104006Y0116878D01*
X0104006Y0117476D02*
X0088183Y0117476D01*
X0088183Y0118075D02*
X0104006Y0118075D01*
X0104006Y0118673D02*
X0088183Y0118673D01*
X0088183Y0119272D02*
X0104006Y0119272D01*
X0104006Y0119870D02*
X0088183Y0119870D01*
X0088183Y0120469D02*
X0104006Y0120469D01*
X0104006Y0121067D02*
X0088183Y0121067D01*
X0088183Y0121666D02*
X0104006Y0121666D01*
X0104006Y0122264D02*
X0088183Y0122264D01*
X0088183Y0122863D02*
X0104006Y0122863D01*
X0104006Y0123461D02*
X0087720Y0123461D01*
X0081729Y0123461D02*
X0080239Y0123461D01*
X0080703Y0122863D02*
X0081265Y0122863D01*
X0081265Y0122264D02*
X0080703Y0122264D01*
X0080703Y0121666D02*
X0081265Y0121666D01*
X0081265Y0121067D02*
X0080703Y0121067D01*
X0080703Y0120469D02*
X0081265Y0120469D01*
X0081265Y0119870D02*
X0080703Y0119870D01*
X0080703Y0119272D02*
X0081265Y0119272D01*
X0081265Y0118673D02*
X0080703Y0118673D01*
X0080703Y0118075D02*
X0081265Y0118075D01*
X0081265Y0117476D02*
X0080703Y0117476D01*
X0080703Y0116878D02*
X0081265Y0116878D01*
X0081265Y0116279D02*
X0080703Y0116279D01*
X0080431Y0115680D02*
X0081537Y0115680D01*
X0086556Y0115425D02*
X0087656Y0115425D01*
X0086556Y0115425D02*
X0086556Y0115082D01*
X0085931Y0111491D02*
X0080485Y0111491D01*
X0081010Y0110892D02*
X0081402Y0110892D01*
X0081265Y0110294D02*
X0081103Y0110294D01*
X0081103Y0109695D02*
X0081265Y0109695D01*
X0081265Y0109097D02*
X0081103Y0109097D01*
X0081103Y0108498D02*
X0081265Y0108498D01*
X0081265Y0107900D02*
X0081103Y0107900D01*
X0077544Y0108498D02*
X0076944Y0108498D01*
X0076944Y0109097D02*
X0077544Y0109097D01*
X0077544Y0109695D02*
X0076944Y0109695D01*
X0076944Y0110294D02*
X0077544Y0110294D01*
X0077544Y0110892D02*
X0076944Y0110892D01*
X0076944Y0111491D02*
X0077544Y0111491D01*
X0077544Y0106703D02*
X0076944Y0106703D01*
X0076944Y0106104D02*
X0077544Y0106104D01*
X0077544Y0105506D02*
X0076944Y0105506D01*
X0076944Y0104907D02*
X0077544Y0104907D01*
X0077544Y0104309D02*
X0076944Y0104309D01*
X0076944Y0103710D02*
X0077544Y0103710D01*
X0077544Y0103112D02*
X0076944Y0103112D01*
X0081103Y0097725D02*
X0081265Y0097725D01*
X0081265Y0097127D02*
X0081103Y0097127D01*
X0081103Y0096528D02*
X0081265Y0096528D01*
X0081265Y0095930D02*
X0081103Y0095930D01*
X0081103Y0095331D02*
X0081265Y0095331D01*
X0081265Y0094733D02*
X0077544Y0094733D01*
X0081103Y0094134D02*
X0081265Y0094134D01*
X0081265Y0093536D02*
X0081103Y0093536D01*
X0081103Y0092937D02*
X0081265Y0092937D01*
X0081265Y0092339D02*
X0081103Y0092339D01*
X0081069Y0091740D02*
X0081265Y0091740D01*
X0080744Y0091142D02*
X0081791Y0091142D01*
X0053100Y0082762D02*
X0033764Y0082762D01*
X0034362Y0083361D02*
X0052502Y0083361D01*
X0051903Y0083959D02*
X0034961Y0083959D01*
X0035559Y0084558D02*
X0051305Y0084558D01*
X0050706Y0085156D02*
X0036158Y0085156D01*
X0036756Y0085755D02*
X0050108Y0085755D01*
X0049509Y0086353D02*
X0037355Y0086353D01*
X0037953Y0086952D02*
X0048911Y0086952D01*
X0048312Y0087550D02*
X0038552Y0087550D01*
X0039150Y0088149D02*
X0047714Y0088149D01*
X0047115Y0088747D02*
X0039749Y0088747D01*
X0040347Y0089346D02*
X0046517Y0089346D01*
X0045918Y0089945D02*
X0040946Y0089945D01*
X0041544Y0090543D02*
X0045320Y0090543D01*
X0044721Y0091142D02*
X0042143Y0091142D01*
X0042741Y0091740D02*
X0044123Y0091740D01*
X0043524Y0092339D02*
X0043340Y0092339D01*
X0039208Y0093536D02*
X0023820Y0093536D01*
X0023820Y0094134D02*
X0039806Y0094134D01*
X0038609Y0092937D02*
X0023820Y0092937D01*
X0023820Y0092339D02*
X0038011Y0092339D01*
X0037412Y0091740D02*
X0023631Y0091740D01*
X0022790Y0091142D02*
X0036814Y0091142D01*
X0036215Y0090543D02*
X0013531Y0090543D01*
X0013531Y0089945D02*
X0035617Y0089945D01*
X0035018Y0089346D02*
X0013531Y0089346D01*
X0013531Y0088747D02*
X0034420Y0088747D01*
X0033821Y0088149D02*
X0013531Y0088149D01*
X0015573Y0087550D02*
X0016474Y0087550D01*
X0016305Y0086952D02*
X0015743Y0086952D01*
X0015743Y0086353D02*
X0016305Y0086353D01*
X0016305Y0085755D02*
X0015743Y0085755D01*
X0015743Y0085156D02*
X0016305Y0085156D01*
X0016305Y0084558D02*
X0015743Y0084558D01*
X0015743Y0083959D02*
X0016305Y0083959D01*
X0016305Y0083361D02*
X0015743Y0083361D01*
X0015743Y0082762D02*
X0016305Y0082762D01*
X0016305Y0082164D02*
X0015743Y0082164D01*
X0015743Y0081565D02*
X0016305Y0081565D01*
X0016305Y0080967D02*
X0015743Y0080967D01*
X0015743Y0080368D02*
X0016305Y0080368D01*
X0023223Y0086353D02*
X0032025Y0086353D01*
X0032624Y0086952D02*
X0023223Y0086952D01*
X0023053Y0087550D02*
X0033222Y0087550D01*
X0020457Y0091142D02*
X0019857Y0091142D01*
X0019857Y0091740D02*
X0020457Y0091740D01*
X0020457Y0092339D02*
X0019857Y0092339D01*
X0019857Y0092937D02*
X0020457Y0092937D01*
X0020457Y0093536D02*
X0019857Y0093536D01*
X0019857Y0094134D02*
X0020457Y0094134D01*
X0020457Y0095930D02*
X0019857Y0095930D01*
X0019857Y0096528D02*
X0020457Y0096528D01*
X0020457Y0097127D02*
X0019857Y0097127D01*
X0019857Y0097725D02*
X0020457Y0097725D01*
X0020457Y0098324D02*
X0019857Y0098324D01*
X0016495Y0094134D02*
X0015152Y0094134D01*
X0015152Y0093536D02*
X0016495Y0093536D01*
X0016495Y0092937D02*
X0015152Y0092937D01*
X0015152Y0092339D02*
X0016495Y0092339D01*
X0016684Y0091740D02*
X0014850Y0091740D01*
X0013531Y0091142D02*
X0017525Y0091142D01*
X0015323Y0104907D02*
X0003544Y0104907D01*
X0003544Y0105506D02*
X0013897Y0105506D01*
X0013299Y0106104D02*
X0003544Y0106104D01*
X0003544Y0106703D02*
X0012700Y0106703D01*
X0012102Y0107301D02*
X0003544Y0107301D01*
X0003544Y0107900D02*
X0011726Y0107900D01*
X0011478Y0108498D02*
X0003544Y0108498D01*
X0003544Y0109097D02*
X0011230Y0109097D01*
X0010982Y0109695D02*
X0003544Y0109695D01*
X0003544Y0110294D02*
X0010787Y0110294D01*
X0010787Y0110892D02*
X0003544Y0110892D01*
X0003544Y0111491D02*
X0010787Y0111491D01*
X0010787Y0112089D02*
X0003544Y0112089D01*
X0003544Y0112688D02*
X0010787Y0112688D01*
X0010891Y0113286D02*
X0003544Y0113286D01*
X0003544Y0113885D02*
X0011139Y0113885D01*
X0011387Y0114483D02*
X0003544Y0114483D01*
X0003544Y0115082D02*
X0011635Y0115082D01*
X0011883Y0115680D02*
X0003544Y0115680D01*
X0003544Y0116279D02*
X0012480Y0116279D01*
X0013078Y0116878D02*
X0003544Y0116878D01*
X0003544Y0117476D02*
X0013677Y0117476D01*
X0014792Y0118075D02*
X0003544Y0118075D01*
X0003544Y0118673D02*
X0016237Y0118673D01*
X0003544Y0121666D02*
X0073785Y0121666D01*
X0073785Y0122264D02*
X0003544Y0122264D01*
X0003544Y0122863D02*
X0073785Y0122863D01*
X0074249Y0123461D02*
X0003544Y0123461D01*
X0003544Y0124060D02*
X0104006Y0124060D01*
X0104006Y0124658D02*
X0003544Y0124658D01*
X0003544Y0125257D02*
X0104006Y0125257D01*
X0104006Y0125855D02*
X0003544Y0125855D01*
X0003544Y0045056D02*
X0006156Y0045056D01*
X0005534Y0044458D02*
X0003544Y0044458D01*
X0003544Y0043859D02*
X0005393Y0043859D01*
X0005393Y0043261D02*
X0003544Y0043261D01*
X0003544Y0042662D02*
X0005393Y0042662D01*
X0005393Y0042064D02*
X0003544Y0042064D01*
X0003544Y0041465D02*
X0005393Y0041465D01*
X0005393Y0040867D02*
X0003544Y0040867D01*
X0003544Y0040268D02*
X0005393Y0040268D01*
X0005393Y0039670D02*
X0003544Y0039670D01*
X0011393Y0039670D02*
X0011993Y0039670D01*
X0011993Y0040268D02*
X0011393Y0040268D01*
X0011393Y0040867D02*
X0011993Y0040867D01*
X0011993Y0041465D02*
X0011393Y0041465D01*
X0011393Y0042064D02*
X0011993Y0042064D01*
X0011993Y0042662D02*
X0011393Y0042662D01*
X0011393Y0043261D02*
X0011993Y0043261D01*
X0011993Y0043859D02*
X0011393Y0043859D01*
X0011393Y0044458D02*
X0011993Y0044458D01*
X0011993Y0045056D02*
X0011393Y0045056D01*
X0011393Y0037874D02*
X0011993Y0037874D01*
X0011993Y0037276D02*
X0011393Y0037276D01*
X0011393Y0036677D02*
X0011993Y0036677D01*
X0011993Y0036078D02*
X0011393Y0036078D01*
X0011393Y0035480D02*
X0011993Y0035480D01*
X0011993Y0034881D02*
X0011393Y0034881D01*
X0011393Y0034283D02*
X0011993Y0034283D01*
X0011993Y0033684D02*
X0011393Y0033684D01*
X0011393Y0033086D02*
X0011993Y0033086D01*
X0054995Y0021714D02*
X0055595Y0021714D01*
X0055595Y0021116D02*
X0054995Y0021116D01*
X0054995Y0020517D02*
X0055595Y0020517D01*
X0055595Y0019919D02*
X0054995Y0019919D01*
X0054995Y0019320D02*
X0055595Y0019320D01*
X0055595Y0018722D02*
X0054995Y0018722D01*
X0054995Y0018123D02*
X0055595Y0018123D01*
X0055595Y0017525D02*
X0054995Y0017525D01*
X0054995Y0015729D02*
X0055595Y0015729D01*
X0055595Y0015131D02*
X0054995Y0015131D01*
X0054995Y0014532D02*
X0055595Y0014532D01*
X0055595Y0013934D02*
X0054995Y0013934D01*
X0054995Y0013335D02*
X0055595Y0013335D01*
X0055595Y0012737D02*
X0054995Y0012737D01*
X0053510Y0011540D02*
X0068895Y0011540D01*
X0068895Y0012138D02*
X0052912Y0012138D01*
X0054109Y0010941D02*
X0068895Y0010941D01*
X0068895Y0010342D02*
X0054708Y0010342D01*
X0055306Y0009744D02*
X0068895Y0009744D01*
X0068895Y0009513D02*
X0071180Y0007229D01*
X0074411Y0007229D01*
X0076695Y0009513D01*
X0076695Y0012744D01*
X0074411Y0015029D01*
X0071180Y0015029D01*
X0068895Y0012744D01*
X0068895Y0009513D01*
X0069263Y0009145D02*
X0055905Y0009145D01*
X0056503Y0008547D02*
X0069861Y0008547D01*
X0070460Y0007948D02*
X0057102Y0007948D01*
X0057700Y0007350D02*
X0071059Y0007350D01*
X0074532Y0007350D02*
X0078308Y0007350D01*
X0077710Y0007948D02*
X0075131Y0007948D01*
X0075729Y0008547D02*
X0077111Y0008547D01*
X0076896Y0009145D02*
X0076328Y0009145D01*
X0076695Y0009744D02*
X0076896Y0009744D01*
X0076896Y0010342D02*
X0076695Y0010342D01*
X0076695Y0010941D02*
X0076896Y0010941D01*
X0076896Y0011540D02*
X0076695Y0011540D01*
X0076695Y0012138D02*
X0076896Y0012138D01*
X0076896Y0012737D02*
X0076695Y0012737D01*
X0076896Y0013335D02*
X0076104Y0013335D01*
X0075506Y0013934D02*
X0076896Y0013934D01*
X0076896Y0014532D02*
X0074907Y0014532D01*
X0076896Y0015131D02*
X0060828Y0015131D01*
X0060828Y0015729D02*
X0076896Y0015729D01*
X0070683Y0014532D02*
X0060828Y0014532D01*
X0060828Y0013934D02*
X0070085Y0013934D01*
X0069486Y0013335D02*
X0060811Y0013335D01*
X0060533Y0012737D02*
X0068895Y0012737D01*
X0078907Y0006751D02*
X0058299Y0006751D01*
X0058897Y0006153D02*
X0079505Y0006153D01*
X0080104Y0005554D02*
X0059496Y0005554D01*
X0055363Y0004357D02*
X0003544Y0004357D01*
X0003544Y0003759D02*
X0055962Y0003759D01*
X0056560Y0003160D02*
X0003544Y0003160D01*
X0003544Y0004956D02*
X0054765Y0004956D01*
X0054166Y0005554D02*
X0003544Y0005554D01*
X0003544Y0006153D02*
X0053568Y0006153D01*
X0052969Y0006751D02*
X0003544Y0006751D01*
X0003544Y0007350D02*
X0052371Y0007350D01*
X0051772Y0007948D02*
X0003544Y0007948D01*
X0003544Y0008547D02*
X0051174Y0008547D01*
X0050575Y0009145D02*
X0003544Y0009145D01*
X0060295Y0021714D02*
X0068495Y0021714D01*
X0072495Y0022313D02*
X0073095Y0022313D01*
X0073095Y0022911D02*
X0072495Y0022911D01*
X0072495Y0023510D02*
X0073095Y0023510D01*
X0073095Y0024108D02*
X0072495Y0024108D01*
X0072495Y0024707D02*
X0073095Y0024707D01*
X0073095Y0025305D02*
X0072495Y0025305D01*
X0066988Y0028298D02*
X0086692Y0028298D01*
X0086692Y0028896D02*
X0067343Y0028896D01*
X0067389Y0029495D02*
X0086692Y0029495D01*
X0086692Y0030093D02*
X0067389Y0030093D01*
X0067389Y0030692D02*
X0086692Y0030692D01*
X0086692Y0031290D02*
X0067389Y0031290D01*
X0061989Y0031290D02*
X0061389Y0031290D01*
X0061389Y0030692D02*
X0061989Y0030692D01*
X0061989Y0030093D02*
X0061389Y0030093D01*
X0061389Y0029495D02*
X0061989Y0029495D01*
X0061989Y0028896D02*
X0061389Y0028896D01*
X0061389Y0028298D02*
X0061989Y0028298D01*
D30*
X0055394Y0024987D03*
X0063268Y0064357D03*
X0118386Y0091916D03*
X0161693Y0076168D03*
X0205000Y0060420D03*
X0210906Y0060420D03*
X0205000Y0042703D03*
X0181378Y0032861D03*
X0161693Y0038766D03*
X0165630Y0007270D03*
X0071142Y0093885D03*
X0071142Y0107664D03*
X0187283Y0099790D03*
D31*
X0197126Y0094081D02*
X0197275Y0093982D01*
X0200837Y0093982D01*
X0200837Y0078398D01*
X0200925Y0078136D01*
X0201728Y0077952D01*
X0204844Y0074835D01*
X0206626Y0074835D01*
X0207516Y0074390D01*
X0225772Y0074390D01*
X0243583Y0056579D01*
X0247591Y0056579D01*
X0248927Y0055243D01*
X0248927Y0039213D01*
X0248481Y0038323D01*
X0241357Y0031198D01*
X0241357Y0021848D01*
X0226663Y0007153D01*
X0196830Y0007153D01*
X0195048Y0008935D01*
X0194469Y0012887D01*
X0193713Y0009380D01*
X0191486Y0007153D01*
X0187479Y0007153D01*
X0183471Y0011161D01*
X0179464Y0011161D01*
X0179213Y0011207D01*
X0178425Y0012684D01*
X0175472Y0015636D01*
X0179019Y0012051D02*
X0179213Y0011207D01*
X0194469Y0012887D02*
X0194603Y0012497D01*
X0194603Y0009825D01*
X0131374Y0011161D02*
X0131102Y0011207D01*
X0130483Y0010716D01*
X0123359Y0003591D01*
X0058794Y0003591D01*
X0045436Y0016949D01*
X0044545Y0016949D01*
X0043681Y0017113D01*
X0043655Y0017395D01*
X0043655Y0034315D01*
X0044545Y0034760D01*
X0050334Y0040549D01*
X0061466Y0040549D01*
X0061689Y0040735D01*
X0063247Y0041885D01*
X0077050Y0055688D01*
X0077050Y0058360D01*
X0077244Y0058451D01*
X0077496Y0059251D01*
X0077496Y0069492D01*
X0077244Y0070509D01*
X0077496Y0071273D01*
X0077496Y0082405D01*
X0077244Y0082751D01*
X0076605Y0083296D01*
X0055232Y0083296D01*
X0043655Y0094873D01*
X0042764Y0094427D01*
X0032523Y0084186D01*
X0020055Y0084186D01*
X0019764Y0083859D01*
X0043655Y0094873D02*
X0043655Y0098880D01*
X0047662Y0102888D01*
X0047662Y0115801D01*
X0048150Y0116640D01*
X0048553Y0116691D01*
X0051224Y0119363D01*
X0077050Y0119363D01*
X0077244Y0119475D01*
X0105993Y0097099D02*
X0172785Y0097099D01*
X0183917Y0108231D01*
X0199056Y0108231D01*
X0199946Y0107340D01*
X0199946Y0103778D01*
X0206180Y0097544D01*
X0206180Y0083741D01*
X0208852Y0081069D01*
X0232452Y0081069D01*
X0269409Y0044111D01*
X0286775Y0044111D01*
X0287047Y0043766D01*
X0205290Y0069492D02*
X0202173Y0066375D01*
X0201282Y0066375D01*
X0200925Y0066325D01*
X0200837Y0093982D02*
X0202618Y0093982D01*
X0203031Y0094081D01*
X0077496Y0070383D02*
X0077244Y0070509D01*
X0074379Y0065485D02*
X0061466Y0052572D01*
X0061466Y0051681D01*
X0061689Y0049833D01*
X0061466Y0050790D01*
X0061466Y0049900D02*
X0058349Y0049900D01*
X0044545Y0063703D01*
X0043681Y0064357D01*
X0043655Y0064149D01*
X0038311Y0058805D01*
X0023172Y0058805D01*
X0022815Y0058648D01*
X0061466Y0049900D02*
X0061689Y0049833D01*
X0062356Y0041440D02*
X0061689Y0040735D01*
X0043655Y0034315D02*
X0037421Y0040549D01*
X0037287Y0040735D01*
X0097978Y0023183D02*
X0097978Y0015614D01*
X0102431Y0011161D01*
X0102795Y0011129D01*
X0097978Y0023183D02*
X0106439Y0031644D01*
X0106439Y0037432D01*
X0106693Y0037625D01*
D32*
X0097088Y0058360D03*
X0091744Y0063703D03*
X0074379Y0065485D03*
X0117570Y0073499D03*
X0157200Y0059696D03*
X0160762Y0059696D03*
X0180800Y0065039D03*
X0164324Y0073054D03*
X0180800Y0077062D03*
X0188815Y0081069D03*
X0188815Y0086412D03*
X0209743Y0084186D03*
X0206626Y0074835D03*
X0205290Y0069492D03*
X0139389Y0092201D03*
X0105993Y0097099D03*
X0191931Y0028527D03*
X0201728Y0018731D03*
X0175472Y0015636D03*
D33*
X0178128Y0018285D02*
X0164770Y0018285D01*
X0155419Y0008935D01*
X0155419Y0006263D01*
X0152747Y0003591D01*
X0149185Y0003591D01*
X0141615Y0011161D01*
X0141102Y0011207D01*
X0141170Y0011606D01*
X0147849Y0018285D01*
X0147849Y0035206D01*
X0162098Y0049455D01*
X0177683Y0049455D01*
X0193267Y0065039D01*
X0193267Y0065930D01*
X0193445Y0066325D01*
X0193267Y0066375D01*
X0188815Y0070828D01*
X0188815Y0081069D01*
X0187924Y0083741D02*
X0193713Y0083741D01*
X0193713Y0094873D01*
X0196830Y0097990D01*
X0196830Y0105114D01*
X0197126Y0105499D01*
X0191220Y0105499D02*
X0191041Y0105114D01*
X0191220Y0105499D02*
X0191220Y0105696D01*
X0189252Y0103727D01*
X0187283Y0103727D01*
X0183346Y0099790D01*
X0183346Y0091916D01*
X0189252Y0086010D01*
X0188815Y0086412D01*
X0187924Y0083741D02*
X0183026Y0088639D01*
X0164770Y0088639D01*
X0163879Y0087748D01*
X0163879Y0081960D01*
X0168777Y0077062D01*
X0171004Y0077062D01*
X0171260Y0076995D01*
X0164324Y0073054D02*
X0160317Y0069047D01*
X0106884Y0069047D01*
X0106693Y0069121D01*
X0104212Y0076616D02*
X0094416Y0066820D01*
X0094416Y0039213D01*
X0088182Y0032979D01*
X0088182Y0020512D01*
X0082839Y0015168D01*
X0082839Y0011161D01*
X0082795Y0011129D01*
X0078386Y0009380D02*
X0078386Y0016949D01*
X0082394Y0020957D01*
X0082795Y0021129D01*
X0092795Y0021129D02*
X0093080Y0021402D01*
X0093080Y0034315D01*
X0100205Y0041440D01*
X0121133Y0041440D01*
X0136272Y0056579D01*
X0161207Y0056579D01*
X0165660Y0061032D01*
X0171004Y0061032D01*
X0171260Y0061247D01*
X0177237Y0057024D02*
X0164324Y0057024D01*
X0162098Y0054798D01*
X0137163Y0054798D01*
X0118906Y0036542D01*
X0117570Y0036542D01*
X0102431Y0021402D01*
X0102795Y0021129D01*
X0116680Y0018731D02*
X0104657Y0006708D01*
X0081058Y0006708D01*
X0078386Y0009380D01*
X0116680Y0018731D02*
X0120242Y0018731D01*
X0124250Y0022738D01*
X0124250Y0035651D01*
X0141615Y0053017D01*
X0171004Y0053017D01*
X0171260Y0053373D01*
X0177237Y0057024D02*
X0183471Y0063258D01*
X0183471Y0077952D01*
X0176792Y0084631D01*
X0171449Y0084631D01*
X0171260Y0084869D01*
X0180800Y0077062D02*
X0180800Y0076171D01*
X0174120Y0069492D01*
X0171449Y0069492D01*
X0171260Y0069121D01*
X0180800Y0065039D02*
X0136717Y0065039D01*
X0133155Y0061477D01*
X0106884Y0061477D01*
X0106693Y0061247D01*
X0099314Y0058360D02*
X0104212Y0053462D01*
X0106439Y0053462D01*
X0106693Y0053373D01*
X0106884Y0053907D01*
X0128257Y0053907D01*
X0136717Y0062368D01*
X0158091Y0062368D01*
X0160762Y0059696D01*
X0157200Y0059696D02*
X0136717Y0059696D01*
X0122914Y0045892D01*
X0106884Y0045892D01*
X0106693Y0045499D01*
X0099314Y0058360D02*
X0097088Y0058360D01*
X0091744Y0063703D02*
X0085065Y0070383D01*
X0084724Y0070509D01*
X0098869Y0082405D02*
X0104212Y0077062D01*
X0106439Y0077062D01*
X0106693Y0076995D01*
X0104212Y0076616D01*
X0098869Y0082405D02*
X0085065Y0082405D01*
X0084724Y0082751D01*
X0094416Y0094873D02*
X0104212Y0085077D01*
X0106439Y0085077D01*
X0106693Y0084869D01*
X0109556Y0092201D02*
X0117570Y0084186D01*
X0117570Y0073499D01*
X0109556Y0092201D02*
X0106884Y0092201D01*
X0106693Y0092743D01*
X0106439Y0093092D01*
X0085065Y0114465D01*
X0085065Y0119363D01*
X0084724Y0119475D01*
X0084724Y0107234D02*
X0084620Y0106895D01*
X0084620Y0099325D01*
X0074379Y0099325D01*
X0072152Y0097099D01*
X0048553Y0097099D01*
X0048150Y0096955D01*
X0012040Y0094427D02*
X0012040Y0084186D01*
X0012283Y0083859D01*
X0012040Y0094427D02*
X0011890Y0094777D01*
X0084620Y0095318D02*
X0084724Y0094992D01*
X0085065Y0094873D01*
X0094416Y0094873D01*
X0084620Y0095318D02*
X0084620Y0099325D01*
X0139389Y0092201D02*
X0139834Y0092646D01*
X0171004Y0092646D01*
X0171260Y0092743D01*
X0193713Y0083741D02*
X0193713Y0078398D01*
X0193445Y0078136D01*
X0193713Y0077952D01*
X0199501Y0072164D01*
X0206180Y0072164D01*
X0207961Y0070383D01*
X0207961Y0053907D01*
X0196384Y0042330D01*
X0192377Y0042330D01*
X0189705Y0039659D01*
X0189705Y0037432D01*
X0189469Y0037087D01*
X0189260Y0036987D01*
X0180800Y0036987D01*
X0155419Y0011606D01*
X0151411Y0011606D01*
X0151102Y0011207D01*
X0178128Y0018285D02*
X0194158Y0034315D01*
X0194469Y0037087D01*
X0194158Y0036987D01*
X0194158Y0034760D01*
X0199469Y0037087D02*
X0199501Y0037432D01*
X0199501Y0039213D01*
X0199094Y0038766D02*
X0199469Y0037087D01*
X0199094Y0038766D02*
X0199094Y0040735D01*
X0205000Y0046640D01*
X0242402Y0046640D01*
X0242402Y0047446D01*
X0242248Y0047228D01*
X0266738Y0084186D02*
X0286775Y0064149D01*
X0287047Y0063766D01*
X0266738Y0084186D02*
X0209743Y0084186D01*
X0193445Y0054514D02*
X0193267Y0054353D01*
X0185252Y0054353D01*
X0176792Y0045892D01*
X0171449Y0045892D01*
X0171260Y0045499D01*
X0191931Y0028527D02*
X0199056Y0021402D01*
X0199056Y0012942D01*
X0199469Y0012887D01*
X0204399Y0012942D02*
X0204399Y0016059D01*
X0201728Y0018731D01*
X0204399Y0012942D02*
X0204469Y0012887D01*
M02*
