G75*
%MOIN*%
%OFA0B0*%
%FSLAX25Y25*%
%IPPOS*%
%LPD*%
%AMOC8*
5,1,8,0,0,1.08239X$1,22.5*
%
%ADD10C,0.00000*%
%ADD11C,0.00600*%
%ADD12C,0.00500*%
%ADD13C,0.02400*%
%ADD14C,0.00400*%
%ADD15C,0.00800*%
%ADD16C,0.00060*%
%ADD17C,0.00200*%
%ADD18C,0.00787*%
%ADD19R,0.00787X0.00787*%
%ADD20R,0.03000X0.01000*%
D10*
X0002244Y0001365D02*
X0002244Y0127349D01*
X0297520Y0127349D01*
X0297520Y0001365D01*
X0002244Y0001365D01*
X0012086Y0017113D02*
X0012088Y0017266D01*
X0012094Y0017420D01*
X0012104Y0017573D01*
X0012118Y0017725D01*
X0012136Y0017878D01*
X0012158Y0018029D01*
X0012183Y0018180D01*
X0012213Y0018331D01*
X0012247Y0018481D01*
X0012284Y0018629D01*
X0012325Y0018777D01*
X0012370Y0018923D01*
X0012419Y0019069D01*
X0012472Y0019213D01*
X0012528Y0019355D01*
X0012588Y0019496D01*
X0012652Y0019636D01*
X0012719Y0019774D01*
X0012790Y0019910D01*
X0012865Y0020044D01*
X0012942Y0020176D01*
X0013024Y0020306D01*
X0013108Y0020434D01*
X0013196Y0020560D01*
X0013287Y0020683D01*
X0013381Y0020804D01*
X0013479Y0020922D01*
X0013579Y0021038D01*
X0013683Y0021151D01*
X0013789Y0021262D01*
X0013898Y0021370D01*
X0014010Y0021475D01*
X0014124Y0021576D01*
X0014242Y0021675D01*
X0014361Y0021771D01*
X0014483Y0021864D01*
X0014608Y0021953D01*
X0014735Y0022040D01*
X0014864Y0022122D01*
X0014995Y0022202D01*
X0015128Y0022278D01*
X0015263Y0022351D01*
X0015400Y0022420D01*
X0015539Y0022485D01*
X0015679Y0022547D01*
X0015821Y0022605D01*
X0015964Y0022660D01*
X0016109Y0022711D01*
X0016255Y0022758D01*
X0016402Y0022801D01*
X0016550Y0022840D01*
X0016699Y0022876D01*
X0016849Y0022907D01*
X0017000Y0022935D01*
X0017151Y0022959D01*
X0017304Y0022979D01*
X0017456Y0022995D01*
X0017609Y0023007D01*
X0017762Y0023015D01*
X0017915Y0023019D01*
X0018069Y0023019D01*
X0018222Y0023015D01*
X0018375Y0023007D01*
X0018528Y0022995D01*
X0018680Y0022979D01*
X0018833Y0022959D01*
X0018984Y0022935D01*
X0019135Y0022907D01*
X0019285Y0022876D01*
X0019434Y0022840D01*
X0019582Y0022801D01*
X0019729Y0022758D01*
X0019875Y0022711D01*
X0020020Y0022660D01*
X0020163Y0022605D01*
X0020305Y0022547D01*
X0020445Y0022485D01*
X0020584Y0022420D01*
X0020721Y0022351D01*
X0020856Y0022278D01*
X0020989Y0022202D01*
X0021120Y0022122D01*
X0021249Y0022040D01*
X0021376Y0021953D01*
X0021501Y0021864D01*
X0021623Y0021771D01*
X0021742Y0021675D01*
X0021860Y0021576D01*
X0021974Y0021475D01*
X0022086Y0021370D01*
X0022195Y0021262D01*
X0022301Y0021151D01*
X0022405Y0021038D01*
X0022505Y0020922D01*
X0022603Y0020804D01*
X0022697Y0020683D01*
X0022788Y0020560D01*
X0022876Y0020434D01*
X0022960Y0020306D01*
X0023042Y0020176D01*
X0023119Y0020044D01*
X0023194Y0019910D01*
X0023265Y0019774D01*
X0023332Y0019636D01*
X0023396Y0019496D01*
X0023456Y0019355D01*
X0023512Y0019213D01*
X0023565Y0019069D01*
X0023614Y0018923D01*
X0023659Y0018777D01*
X0023700Y0018629D01*
X0023737Y0018481D01*
X0023771Y0018331D01*
X0023801Y0018180D01*
X0023826Y0018029D01*
X0023848Y0017878D01*
X0023866Y0017725D01*
X0023880Y0017573D01*
X0023890Y0017420D01*
X0023896Y0017266D01*
X0023898Y0017113D01*
X0023896Y0016960D01*
X0023890Y0016806D01*
X0023880Y0016653D01*
X0023866Y0016501D01*
X0023848Y0016348D01*
X0023826Y0016197D01*
X0023801Y0016046D01*
X0023771Y0015895D01*
X0023737Y0015745D01*
X0023700Y0015597D01*
X0023659Y0015449D01*
X0023614Y0015303D01*
X0023565Y0015157D01*
X0023512Y0015013D01*
X0023456Y0014871D01*
X0023396Y0014730D01*
X0023332Y0014590D01*
X0023265Y0014452D01*
X0023194Y0014316D01*
X0023119Y0014182D01*
X0023042Y0014050D01*
X0022960Y0013920D01*
X0022876Y0013792D01*
X0022788Y0013666D01*
X0022697Y0013543D01*
X0022603Y0013422D01*
X0022505Y0013304D01*
X0022405Y0013188D01*
X0022301Y0013075D01*
X0022195Y0012964D01*
X0022086Y0012856D01*
X0021974Y0012751D01*
X0021860Y0012650D01*
X0021742Y0012551D01*
X0021623Y0012455D01*
X0021501Y0012362D01*
X0021376Y0012273D01*
X0021249Y0012186D01*
X0021120Y0012104D01*
X0020989Y0012024D01*
X0020856Y0011948D01*
X0020721Y0011875D01*
X0020584Y0011806D01*
X0020445Y0011741D01*
X0020305Y0011679D01*
X0020163Y0011621D01*
X0020020Y0011566D01*
X0019875Y0011515D01*
X0019729Y0011468D01*
X0019582Y0011425D01*
X0019434Y0011386D01*
X0019285Y0011350D01*
X0019135Y0011319D01*
X0018984Y0011291D01*
X0018833Y0011267D01*
X0018680Y0011247D01*
X0018528Y0011231D01*
X0018375Y0011219D01*
X0018222Y0011211D01*
X0018069Y0011207D01*
X0017915Y0011207D01*
X0017762Y0011211D01*
X0017609Y0011219D01*
X0017456Y0011231D01*
X0017304Y0011247D01*
X0017151Y0011267D01*
X0017000Y0011291D01*
X0016849Y0011319D01*
X0016699Y0011350D01*
X0016550Y0011386D01*
X0016402Y0011425D01*
X0016255Y0011468D01*
X0016109Y0011515D01*
X0015964Y0011566D01*
X0015821Y0011621D01*
X0015679Y0011679D01*
X0015539Y0011741D01*
X0015400Y0011806D01*
X0015263Y0011875D01*
X0015128Y0011948D01*
X0014995Y0012024D01*
X0014864Y0012104D01*
X0014735Y0012186D01*
X0014608Y0012273D01*
X0014483Y0012362D01*
X0014361Y0012455D01*
X0014242Y0012551D01*
X0014124Y0012650D01*
X0014010Y0012751D01*
X0013898Y0012856D01*
X0013789Y0012964D01*
X0013683Y0013075D01*
X0013579Y0013188D01*
X0013479Y0013304D01*
X0013381Y0013422D01*
X0013287Y0013543D01*
X0013196Y0013666D01*
X0013108Y0013792D01*
X0013024Y0013920D01*
X0012942Y0014050D01*
X0012865Y0014182D01*
X0012790Y0014316D01*
X0012719Y0014452D01*
X0012652Y0014590D01*
X0012588Y0014730D01*
X0012528Y0014871D01*
X0012472Y0015013D01*
X0012419Y0015157D01*
X0012370Y0015303D01*
X0012325Y0015449D01*
X0012284Y0015597D01*
X0012247Y0015745D01*
X0012213Y0015895D01*
X0012183Y0016046D01*
X0012158Y0016197D01*
X0012136Y0016348D01*
X0012118Y0016501D01*
X0012104Y0016653D01*
X0012094Y0016806D01*
X0012088Y0016960D01*
X0012086Y0017113D01*
X0021555Y0043983D02*
X0021557Y0044074D01*
X0021563Y0044164D01*
X0021573Y0044255D01*
X0021587Y0044344D01*
X0021605Y0044433D01*
X0021626Y0044522D01*
X0021652Y0044609D01*
X0021681Y0044695D01*
X0021715Y0044779D01*
X0021751Y0044862D01*
X0021792Y0044944D01*
X0021836Y0045023D01*
X0021883Y0045101D01*
X0021934Y0045176D01*
X0021988Y0045249D01*
X0022045Y0045319D01*
X0022105Y0045387D01*
X0022168Y0045453D01*
X0022234Y0045515D01*
X0022303Y0045574D01*
X0022374Y0045631D01*
X0022448Y0045684D01*
X0022524Y0045734D01*
X0022602Y0045781D01*
X0022682Y0045824D01*
X0022763Y0045863D01*
X0022847Y0045899D01*
X0022932Y0045931D01*
X0023018Y0045960D01*
X0023105Y0045984D01*
X0023194Y0046005D01*
X0023283Y0046022D01*
X0023373Y0046035D01*
X0023463Y0046044D01*
X0023554Y0046049D01*
X0023645Y0046050D01*
X0023735Y0046047D01*
X0023826Y0046040D01*
X0023916Y0046029D01*
X0024006Y0046014D01*
X0024095Y0045995D01*
X0024183Y0045973D01*
X0024269Y0045946D01*
X0024355Y0045916D01*
X0024439Y0045882D01*
X0024522Y0045844D01*
X0024603Y0045803D01*
X0024682Y0045758D01*
X0024759Y0045709D01*
X0024833Y0045658D01*
X0024906Y0045603D01*
X0024976Y0045545D01*
X0025043Y0045484D01*
X0025107Y0045420D01*
X0025169Y0045354D01*
X0025228Y0045284D01*
X0025283Y0045213D01*
X0025336Y0045138D01*
X0025385Y0045062D01*
X0025431Y0044984D01*
X0025473Y0044903D01*
X0025512Y0044821D01*
X0025547Y0044737D01*
X0025578Y0044652D01*
X0025605Y0044565D01*
X0025629Y0044478D01*
X0025649Y0044389D01*
X0025665Y0044300D01*
X0025677Y0044210D01*
X0025685Y0044119D01*
X0025689Y0044028D01*
X0025689Y0043938D01*
X0025685Y0043847D01*
X0025677Y0043756D01*
X0025665Y0043666D01*
X0025649Y0043577D01*
X0025629Y0043488D01*
X0025605Y0043401D01*
X0025578Y0043314D01*
X0025547Y0043229D01*
X0025512Y0043145D01*
X0025473Y0043063D01*
X0025431Y0042982D01*
X0025385Y0042904D01*
X0025336Y0042828D01*
X0025283Y0042753D01*
X0025228Y0042682D01*
X0025169Y0042612D01*
X0025107Y0042546D01*
X0025043Y0042482D01*
X0024976Y0042421D01*
X0024906Y0042363D01*
X0024833Y0042308D01*
X0024759Y0042257D01*
X0024682Y0042208D01*
X0024603Y0042163D01*
X0024522Y0042122D01*
X0024439Y0042084D01*
X0024355Y0042050D01*
X0024269Y0042020D01*
X0024183Y0041993D01*
X0024095Y0041971D01*
X0024006Y0041952D01*
X0023916Y0041937D01*
X0023826Y0041926D01*
X0023735Y0041919D01*
X0023645Y0041916D01*
X0023554Y0041917D01*
X0023463Y0041922D01*
X0023373Y0041931D01*
X0023283Y0041944D01*
X0023194Y0041961D01*
X0023105Y0041982D01*
X0023018Y0042006D01*
X0022932Y0042035D01*
X0022847Y0042067D01*
X0022763Y0042103D01*
X0022682Y0042142D01*
X0022602Y0042185D01*
X0022524Y0042232D01*
X0022448Y0042282D01*
X0022374Y0042335D01*
X0022303Y0042392D01*
X0022234Y0042451D01*
X0022168Y0042513D01*
X0022105Y0042579D01*
X0022045Y0042647D01*
X0021988Y0042717D01*
X0021934Y0042790D01*
X0021883Y0042865D01*
X0021836Y0042943D01*
X0021792Y0043022D01*
X0021751Y0043104D01*
X0021715Y0043187D01*
X0021681Y0043271D01*
X0021652Y0043357D01*
X0021626Y0043444D01*
X0021605Y0043533D01*
X0021587Y0043622D01*
X0021573Y0043711D01*
X0021563Y0043802D01*
X0021557Y0043892D01*
X0021555Y0043983D01*
X0021555Y0063077D02*
X0021557Y0063168D01*
X0021563Y0063258D01*
X0021573Y0063349D01*
X0021587Y0063438D01*
X0021605Y0063527D01*
X0021626Y0063616D01*
X0021652Y0063703D01*
X0021681Y0063789D01*
X0021715Y0063873D01*
X0021751Y0063956D01*
X0021792Y0064038D01*
X0021836Y0064117D01*
X0021883Y0064195D01*
X0021934Y0064270D01*
X0021988Y0064343D01*
X0022045Y0064413D01*
X0022105Y0064481D01*
X0022168Y0064547D01*
X0022234Y0064609D01*
X0022303Y0064668D01*
X0022374Y0064725D01*
X0022448Y0064778D01*
X0022524Y0064828D01*
X0022602Y0064875D01*
X0022682Y0064918D01*
X0022763Y0064957D01*
X0022847Y0064993D01*
X0022932Y0065025D01*
X0023018Y0065054D01*
X0023105Y0065078D01*
X0023194Y0065099D01*
X0023283Y0065116D01*
X0023373Y0065129D01*
X0023463Y0065138D01*
X0023554Y0065143D01*
X0023645Y0065144D01*
X0023735Y0065141D01*
X0023826Y0065134D01*
X0023916Y0065123D01*
X0024006Y0065108D01*
X0024095Y0065089D01*
X0024183Y0065067D01*
X0024269Y0065040D01*
X0024355Y0065010D01*
X0024439Y0064976D01*
X0024522Y0064938D01*
X0024603Y0064897D01*
X0024682Y0064852D01*
X0024759Y0064803D01*
X0024833Y0064752D01*
X0024906Y0064697D01*
X0024976Y0064639D01*
X0025043Y0064578D01*
X0025107Y0064514D01*
X0025169Y0064448D01*
X0025228Y0064378D01*
X0025283Y0064307D01*
X0025336Y0064232D01*
X0025385Y0064156D01*
X0025431Y0064078D01*
X0025473Y0063997D01*
X0025512Y0063915D01*
X0025547Y0063831D01*
X0025578Y0063746D01*
X0025605Y0063659D01*
X0025629Y0063572D01*
X0025649Y0063483D01*
X0025665Y0063394D01*
X0025677Y0063304D01*
X0025685Y0063213D01*
X0025689Y0063122D01*
X0025689Y0063032D01*
X0025685Y0062941D01*
X0025677Y0062850D01*
X0025665Y0062760D01*
X0025649Y0062671D01*
X0025629Y0062582D01*
X0025605Y0062495D01*
X0025578Y0062408D01*
X0025547Y0062323D01*
X0025512Y0062239D01*
X0025473Y0062157D01*
X0025431Y0062076D01*
X0025385Y0061998D01*
X0025336Y0061922D01*
X0025283Y0061847D01*
X0025228Y0061776D01*
X0025169Y0061706D01*
X0025107Y0061640D01*
X0025043Y0061576D01*
X0024976Y0061515D01*
X0024906Y0061457D01*
X0024833Y0061402D01*
X0024759Y0061351D01*
X0024682Y0061302D01*
X0024603Y0061257D01*
X0024522Y0061216D01*
X0024439Y0061178D01*
X0024355Y0061144D01*
X0024269Y0061114D01*
X0024183Y0061087D01*
X0024095Y0061065D01*
X0024006Y0061046D01*
X0023916Y0061031D01*
X0023826Y0061020D01*
X0023735Y0061013D01*
X0023645Y0061010D01*
X0023554Y0061011D01*
X0023463Y0061016D01*
X0023373Y0061025D01*
X0023283Y0061038D01*
X0023194Y0061055D01*
X0023105Y0061076D01*
X0023018Y0061100D01*
X0022932Y0061129D01*
X0022847Y0061161D01*
X0022763Y0061197D01*
X0022682Y0061236D01*
X0022602Y0061279D01*
X0022524Y0061326D01*
X0022448Y0061376D01*
X0022374Y0061429D01*
X0022303Y0061486D01*
X0022234Y0061545D01*
X0022168Y0061607D01*
X0022105Y0061673D01*
X0022045Y0061741D01*
X0021988Y0061811D01*
X0021934Y0061884D01*
X0021883Y0061959D01*
X0021836Y0062037D01*
X0021792Y0062116D01*
X0021751Y0062198D01*
X0021715Y0062281D01*
X0021681Y0062365D01*
X0021652Y0062451D01*
X0021626Y0062538D01*
X0021605Y0062627D01*
X0021587Y0062716D01*
X0021573Y0062805D01*
X0021563Y0062896D01*
X0021557Y0062986D01*
X0021555Y0063077D01*
X0012086Y0111601D02*
X0012088Y0111754D01*
X0012094Y0111908D01*
X0012104Y0112061D01*
X0012118Y0112213D01*
X0012136Y0112366D01*
X0012158Y0112517D01*
X0012183Y0112668D01*
X0012213Y0112819D01*
X0012247Y0112969D01*
X0012284Y0113117D01*
X0012325Y0113265D01*
X0012370Y0113411D01*
X0012419Y0113557D01*
X0012472Y0113701D01*
X0012528Y0113843D01*
X0012588Y0113984D01*
X0012652Y0114124D01*
X0012719Y0114262D01*
X0012790Y0114398D01*
X0012865Y0114532D01*
X0012942Y0114664D01*
X0013024Y0114794D01*
X0013108Y0114922D01*
X0013196Y0115048D01*
X0013287Y0115171D01*
X0013381Y0115292D01*
X0013479Y0115410D01*
X0013579Y0115526D01*
X0013683Y0115639D01*
X0013789Y0115750D01*
X0013898Y0115858D01*
X0014010Y0115963D01*
X0014124Y0116064D01*
X0014242Y0116163D01*
X0014361Y0116259D01*
X0014483Y0116352D01*
X0014608Y0116441D01*
X0014735Y0116528D01*
X0014864Y0116610D01*
X0014995Y0116690D01*
X0015128Y0116766D01*
X0015263Y0116839D01*
X0015400Y0116908D01*
X0015539Y0116973D01*
X0015679Y0117035D01*
X0015821Y0117093D01*
X0015964Y0117148D01*
X0016109Y0117199D01*
X0016255Y0117246D01*
X0016402Y0117289D01*
X0016550Y0117328D01*
X0016699Y0117364D01*
X0016849Y0117395D01*
X0017000Y0117423D01*
X0017151Y0117447D01*
X0017304Y0117467D01*
X0017456Y0117483D01*
X0017609Y0117495D01*
X0017762Y0117503D01*
X0017915Y0117507D01*
X0018069Y0117507D01*
X0018222Y0117503D01*
X0018375Y0117495D01*
X0018528Y0117483D01*
X0018680Y0117467D01*
X0018833Y0117447D01*
X0018984Y0117423D01*
X0019135Y0117395D01*
X0019285Y0117364D01*
X0019434Y0117328D01*
X0019582Y0117289D01*
X0019729Y0117246D01*
X0019875Y0117199D01*
X0020020Y0117148D01*
X0020163Y0117093D01*
X0020305Y0117035D01*
X0020445Y0116973D01*
X0020584Y0116908D01*
X0020721Y0116839D01*
X0020856Y0116766D01*
X0020989Y0116690D01*
X0021120Y0116610D01*
X0021249Y0116528D01*
X0021376Y0116441D01*
X0021501Y0116352D01*
X0021623Y0116259D01*
X0021742Y0116163D01*
X0021860Y0116064D01*
X0021974Y0115963D01*
X0022086Y0115858D01*
X0022195Y0115750D01*
X0022301Y0115639D01*
X0022405Y0115526D01*
X0022505Y0115410D01*
X0022603Y0115292D01*
X0022697Y0115171D01*
X0022788Y0115048D01*
X0022876Y0114922D01*
X0022960Y0114794D01*
X0023042Y0114664D01*
X0023119Y0114532D01*
X0023194Y0114398D01*
X0023265Y0114262D01*
X0023332Y0114124D01*
X0023396Y0113984D01*
X0023456Y0113843D01*
X0023512Y0113701D01*
X0023565Y0113557D01*
X0023614Y0113411D01*
X0023659Y0113265D01*
X0023700Y0113117D01*
X0023737Y0112969D01*
X0023771Y0112819D01*
X0023801Y0112668D01*
X0023826Y0112517D01*
X0023848Y0112366D01*
X0023866Y0112213D01*
X0023880Y0112061D01*
X0023890Y0111908D01*
X0023896Y0111754D01*
X0023898Y0111601D01*
X0023896Y0111448D01*
X0023890Y0111294D01*
X0023880Y0111141D01*
X0023866Y0110989D01*
X0023848Y0110836D01*
X0023826Y0110685D01*
X0023801Y0110534D01*
X0023771Y0110383D01*
X0023737Y0110233D01*
X0023700Y0110085D01*
X0023659Y0109937D01*
X0023614Y0109791D01*
X0023565Y0109645D01*
X0023512Y0109501D01*
X0023456Y0109359D01*
X0023396Y0109218D01*
X0023332Y0109078D01*
X0023265Y0108940D01*
X0023194Y0108804D01*
X0023119Y0108670D01*
X0023042Y0108538D01*
X0022960Y0108408D01*
X0022876Y0108280D01*
X0022788Y0108154D01*
X0022697Y0108031D01*
X0022603Y0107910D01*
X0022505Y0107792D01*
X0022405Y0107676D01*
X0022301Y0107563D01*
X0022195Y0107452D01*
X0022086Y0107344D01*
X0021974Y0107239D01*
X0021860Y0107138D01*
X0021742Y0107039D01*
X0021623Y0106943D01*
X0021501Y0106850D01*
X0021376Y0106761D01*
X0021249Y0106674D01*
X0021120Y0106592D01*
X0020989Y0106512D01*
X0020856Y0106436D01*
X0020721Y0106363D01*
X0020584Y0106294D01*
X0020445Y0106229D01*
X0020305Y0106167D01*
X0020163Y0106109D01*
X0020020Y0106054D01*
X0019875Y0106003D01*
X0019729Y0105956D01*
X0019582Y0105913D01*
X0019434Y0105874D01*
X0019285Y0105838D01*
X0019135Y0105807D01*
X0018984Y0105779D01*
X0018833Y0105755D01*
X0018680Y0105735D01*
X0018528Y0105719D01*
X0018375Y0105707D01*
X0018222Y0105699D01*
X0018069Y0105695D01*
X0017915Y0105695D01*
X0017762Y0105699D01*
X0017609Y0105707D01*
X0017456Y0105719D01*
X0017304Y0105735D01*
X0017151Y0105755D01*
X0017000Y0105779D01*
X0016849Y0105807D01*
X0016699Y0105838D01*
X0016550Y0105874D01*
X0016402Y0105913D01*
X0016255Y0105956D01*
X0016109Y0106003D01*
X0015964Y0106054D01*
X0015821Y0106109D01*
X0015679Y0106167D01*
X0015539Y0106229D01*
X0015400Y0106294D01*
X0015263Y0106363D01*
X0015128Y0106436D01*
X0014995Y0106512D01*
X0014864Y0106592D01*
X0014735Y0106674D01*
X0014608Y0106761D01*
X0014483Y0106850D01*
X0014361Y0106943D01*
X0014242Y0107039D01*
X0014124Y0107138D01*
X0014010Y0107239D01*
X0013898Y0107344D01*
X0013789Y0107452D01*
X0013683Y0107563D01*
X0013579Y0107676D01*
X0013479Y0107792D01*
X0013381Y0107910D01*
X0013287Y0108031D01*
X0013196Y0108154D01*
X0013108Y0108280D01*
X0013024Y0108408D01*
X0012942Y0108538D01*
X0012865Y0108670D01*
X0012790Y0108804D01*
X0012719Y0108940D01*
X0012652Y0109078D01*
X0012588Y0109218D01*
X0012528Y0109359D01*
X0012472Y0109501D01*
X0012419Y0109645D01*
X0012370Y0109791D01*
X0012325Y0109937D01*
X0012284Y0110085D01*
X0012247Y0110233D01*
X0012213Y0110383D01*
X0012183Y0110534D01*
X0012158Y0110685D01*
X0012136Y0110836D01*
X0012118Y0110989D01*
X0012104Y0111141D01*
X0012094Y0111294D01*
X0012088Y0111448D01*
X0012086Y0111601D01*
X0240433Y0093885D02*
X0240435Y0093973D01*
X0240441Y0094061D01*
X0240451Y0094149D01*
X0240465Y0094237D01*
X0240482Y0094323D01*
X0240504Y0094409D01*
X0240529Y0094493D01*
X0240559Y0094577D01*
X0240591Y0094659D01*
X0240628Y0094739D01*
X0240668Y0094818D01*
X0240712Y0094895D01*
X0240759Y0094970D01*
X0240809Y0095042D01*
X0240863Y0095113D01*
X0240919Y0095180D01*
X0240979Y0095246D01*
X0241041Y0095308D01*
X0241107Y0095368D01*
X0241174Y0095424D01*
X0241245Y0095478D01*
X0241317Y0095528D01*
X0241392Y0095575D01*
X0241469Y0095619D01*
X0241548Y0095659D01*
X0241628Y0095696D01*
X0241710Y0095728D01*
X0241794Y0095758D01*
X0241878Y0095783D01*
X0241964Y0095805D01*
X0242050Y0095822D01*
X0242138Y0095836D01*
X0242226Y0095846D01*
X0242314Y0095852D01*
X0242402Y0095854D01*
X0242490Y0095852D01*
X0242578Y0095846D01*
X0242666Y0095836D01*
X0242754Y0095822D01*
X0242840Y0095805D01*
X0242926Y0095783D01*
X0243010Y0095758D01*
X0243094Y0095728D01*
X0243176Y0095696D01*
X0243256Y0095659D01*
X0243335Y0095619D01*
X0243412Y0095575D01*
X0243487Y0095528D01*
X0243559Y0095478D01*
X0243630Y0095424D01*
X0243697Y0095368D01*
X0243763Y0095308D01*
X0243825Y0095246D01*
X0243885Y0095180D01*
X0243941Y0095113D01*
X0243995Y0095042D01*
X0244045Y0094970D01*
X0244092Y0094895D01*
X0244136Y0094818D01*
X0244176Y0094739D01*
X0244213Y0094659D01*
X0244245Y0094577D01*
X0244275Y0094493D01*
X0244300Y0094409D01*
X0244322Y0094323D01*
X0244339Y0094237D01*
X0244353Y0094149D01*
X0244363Y0094061D01*
X0244369Y0093973D01*
X0244371Y0093885D01*
X0244369Y0093797D01*
X0244363Y0093709D01*
X0244353Y0093621D01*
X0244339Y0093533D01*
X0244322Y0093447D01*
X0244300Y0093361D01*
X0244275Y0093277D01*
X0244245Y0093193D01*
X0244213Y0093111D01*
X0244176Y0093031D01*
X0244136Y0092952D01*
X0244092Y0092875D01*
X0244045Y0092800D01*
X0243995Y0092728D01*
X0243941Y0092657D01*
X0243885Y0092590D01*
X0243825Y0092524D01*
X0243763Y0092462D01*
X0243697Y0092402D01*
X0243630Y0092346D01*
X0243559Y0092292D01*
X0243487Y0092242D01*
X0243412Y0092195D01*
X0243335Y0092151D01*
X0243256Y0092111D01*
X0243176Y0092074D01*
X0243094Y0092042D01*
X0243010Y0092012D01*
X0242926Y0091987D01*
X0242840Y0091965D01*
X0242754Y0091948D01*
X0242666Y0091934D01*
X0242578Y0091924D01*
X0242490Y0091918D01*
X0242402Y0091916D01*
X0242314Y0091918D01*
X0242226Y0091924D01*
X0242138Y0091934D01*
X0242050Y0091948D01*
X0241964Y0091965D01*
X0241878Y0091987D01*
X0241794Y0092012D01*
X0241710Y0092042D01*
X0241628Y0092074D01*
X0241548Y0092111D01*
X0241469Y0092151D01*
X0241392Y0092195D01*
X0241317Y0092242D01*
X0241245Y0092292D01*
X0241174Y0092346D01*
X0241107Y0092402D01*
X0241041Y0092462D01*
X0240979Y0092524D01*
X0240919Y0092590D01*
X0240863Y0092657D01*
X0240809Y0092728D01*
X0240759Y0092800D01*
X0240712Y0092875D01*
X0240668Y0092952D01*
X0240628Y0093031D01*
X0240591Y0093111D01*
X0240559Y0093193D01*
X0240529Y0093277D01*
X0240504Y0093361D01*
X0240482Y0093447D01*
X0240465Y0093533D01*
X0240451Y0093621D01*
X0240441Y0093709D01*
X0240435Y0093797D01*
X0240433Y0093885D01*
X0275866Y0111601D02*
X0275868Y0111754D01*
X0275874Y0111908D01*
X0275884Y0112061D01*
X0275898Y0112213D01*
X0275916Y0112366D01*
X0275938Y0112517D01*
X0275963Y0112668D01*
X0275993Y0112819D01*
X0276027Y0112969D01*
X0276064Y0113117D01*
X0276105Y0113265D01*
X0276150Y0113411D01*
X0276199Y0113557D01*
X0276252Y0113701D01*
X0276308Y0113843D01*
X0276368Y0113984D01*
X0276432Y0114124D01*
X0276499Y0114262D01*
X0276570Y0114398D01*
X0276645Y0114532D01*
X0276722Y0114664D01*
X0276804Y0114794D01*
X0276888Y0114922D01*
X0276976Y0115048D01*
X0277067Y0115171D01*
X0277161Y0115292D01*
X0277259Y0115410D01*
X0277359Y0115526D01*
X0277463Y0115639D01*
X0277569Y0115750D01*
X0277678Y0115858D01*
X0277790Y0115963D01*
X0277904Y0116064D01*
X0278022Y0116163D01*
X0278141Y0116259D01*
X0278263Y0116352D01*
X0278388Y0116441D01*
X0278515Y0116528D01*
X0278644Y0116610D01*
X0278775Y0116690D01*
X0278908Y0116766D01*
X0279043Y0116839D01*
X0279180Y0116908D01*
X0279319Y0116973D01*
X0279459Y0117035D01*
X0279601Y0117093D01*
X0279744Y0117148D01*
X0279889Y0117199D01*
X0280035Y0117246D01*
X0280182Y0117289D01*
X0280330Y0117328D01*
X0280479Y0117364D01*
X0280629Y0117395D01*
X0280780Y0117423D01*
X0280931Y0117447D01*
X0281084Y0117467D01*
X0281236Y0117483D01*
X0281389Y0117495D01*
X0281542Y0117503D01*
X0281695Y0117507D01*
X0281849Y0117507D01*
X0282002Y0117503D01*
X0282155Y0117495D01*
X0282308Y0117483D01*
X0282460Y0117467D01*
X0282613Y0117447D01*
X0282764Y0117423D01*
X0282915Y0117395D01*
X0283065Y0117364D01*
X0283214Y0117328D01*
X0283362Y0117289D01*
X0283509Y0117246D01*
X0283655Y0117199D01*
X0283800Y0117148D01*
X0283943Y0117093D01*
X0284085Y0117035D01*
X0284225Y0116973D01*
X0284364Y0116908D01*
X0284501Y0116839D01*
X0284636Y0116766D01*
X0284769Y0116690D01*
X0284900Y0116610D01*
X0285029Y0116528D01*
X0285156Y0116441D01*
X0285281Y0116352D01*
X0285403Y0116259D01*
X0285522Y0116163D01*
X0285640Y0116064D01*
X0285754Y0115963D01*
X0285866Y0115858D01*
X0285975Y0115750D01*
X0286081Y0115639D01*
X0286185Y0115526D01*
X0286285Y0115410D01*
X0286383Y0115292D01*
X0286477Y0115171D01*
X0286568Y0115048D01*
X0286656Y0114922D01*
X0286740Y0114794D01*
X0286822Y0114664D01*
X0286899Y0114532D01*
X0286974Y0114398D01*
X0287045Y0114262D01*
X0287112Y0114124D01*
X0287176Y0113984D01*
X0287236Y0113843D01*
X0287292Y0113701D01*
X0287345Y0113557D01*
X0287394Y0113411D01*
X0287439Y0113265D01*
X0287480Y0113117D01*
X0287517Y0112969D01*
X0287551Y0112819D01*
X0287581Y0112668D01*
X0287606Y0112517D01*
X0287628Y0112366D01*
X0287646Y0112213D01*
X0287660Y0112061D01*
X0287670Y0111908D01*
X0287676Y0111754D01*
X0287678Y0111601D01*
X0287676Y0111448D01*
X0287670Y0111294D01*
X0287660Y0111141D01*
X0287646Y0110989D01*
X0287628Y0110836D01*
X0287606Y0110685D01*
X0287581Y0110534D01*
X0287551Y0110383D01*
X0287517Y0110233D01*
X0287480Y0110085D01*
X0287439Y0109937D01*
X0287394Y0109791D01*
X0287345Y0109645D01*
X0287292Y0109501D01*
X0287236Y0109359D01*
X0287176Y0109218D01*
X0287112Y0109078D01*
X0287045Y0108940D01*
X0286974Y0108804D01*
X0286899Y0108670D01*
X0286822Y0108538D01*
X0286740Y0108408D01*
X0286656Y0108280D01*
X0286568Y0108154D01*
X0286477Y0108031D01*
X0286383Y0107910D01*
X0286285Y0107792D01*
X0286185Y0107676D01*
X0286081Y0107563D01*
X0285975Y0107452D01*
X0285866Y0107344D01*
X0285754Y0107239D01*
X0285640Y0107138D01*
X0285522Y0107039D01*
X0285403Y0106943D01*
X0285281Y0106850D01*
X0285156Y0106761D01*
X0285029Y0106674D01*
X0284900Y0106592D01*
X0284769Y0106512D01*
X0284636Y0106436D01*
X0284501Y0106363D01*
X0284364Y0106294D01*
X0284225Y0106229D01*
X0284085Y0106167D01*
X0283943Y0106109D01*
X0283800Y0106054D01*
X0283655Y0106003D01*
X0283509Y0105956D01*
X0283362Y0105913D01*
X0283214Y0105874D01*
X0283065Y0105838D01*
X0282915Y0105807D01*
X0282764Y0105779D01*
X0282613Y0105755D01*
X0282460Y0105735D01*
X0282308Y0105719D01*
X0282155Y0105707D01*
X0282002Y0105699D01*
X0281849Y0105695D01*
X0281695Y0105695D01*
X0281542Y0105699D01*
X0281389Y0105707D01*
X0281236Y0105719D01*
X0281084Y0105735D01*
X0280931Y0105755D01*
X0280780Y0105779D01*
X0280629Y0105807D01*
X0280479Y0105838D01*
X0280330Y0105874D01*
X0280182Y0105913D01*
X0280035Y0105956D01*
X0279889Y0106003D01*
X0279744Y0106054D01*
X0279601Y0106109D01*
X0279459Y0106167D01*
X0279319Y0106229D01*
X0279180Y0106294D01*
X0279043Y0106363D01*
X0278908Y0106436D01*
X0278775Y0106512D01*
X0278644Y0106592D01*
X0278515Y0106674D01*
X0278388Y0106761D01*
X0278263Y0106850D01*
X0278141Y0106943D01*
X0278022Y0107039D01*
X0277904Y0107138D01*
X0277790Y0107239D01*
X0277678Y0107344D01*
X0277569Y0107452D01*
X0277463Y0107563D01*
X0277359Y0107676D01*
X0277259Y0107792D01*
X0277161Y0107910D01*
X0277067Y0108031D01*
X0276976Y0108154D01*
X0276888Y0108280D01*
X0276804Y0108408D01*
X0276722Y0108538D01*
X0276645Y0108670D01*
X0276570Y0108804D01*
X0276499Y0108940D01*
X0276432Y0109078D01*
X0276368Y0109218D01*
X0276308Y0109359D01*
X0276252Y0109501D01*
X0276199Y0109645D01*
X0276150Y0109791D01*
X0276105Y0109937D01*
X0276064Y0110085D01*
X0276027Y0110233D01*
X0275993Y0110383D01*
X0275963Y0110534D01*
X0275938Y0110685D01*
X0275916Y0110836D01*
X0275898Y0110989D01*
X0275884Y0111141D01*
X0275874Y0111294D01*
X0275868Y0111448D01*
X0275866Y0111601D01*
X0239843Y0064357D02*
X0239845Y0064458D01*
X0239851Y0064559D01*
X0239861Y0064660D01*
X0239875Y0064760D01*
X0239893Y0064859D01*
X0239915Y0064958D01*
X0239940Y0065056D01*
X0239970Y0065153D01*
X0240003Y0065248D01*
X0240040Y0065342D01*
X0240081Y0065435D01*
X0240125Y0065526D01*
X0240173Y0065615D01*
X0240225Y0065702D01*
X0240280Y0065787D01*
X0240338Y0065869D01*
X0240399Y0065950D01*
X0240464Y0066028D01*
X0240531Y0066103D01*
X0240601Y0066175D01*
X0240675Y0066245D01*
X0240751Y0066312D01*
X0240829Y0066376D01*
X0240910Y0066436D01*
X0240993Y0066493D01*
X0241079Y0066547D01*
X0241167Y0066598D01*
X0241256Y0066645D01*
X0241347Y0066689D01*
X0241440Y0066728D01*
X0241535Y0066765D01*
X0241630Y0066797D01*
X0241727Y0066826D01*
X0241826Y0066850D01*
X0241924Y0066871D01*
X0242024Y0066888D01*
X0242124Y0066901D01*
X0242225Y0066910D01*
X0242326Y0066915D01*
X0242427Y0066916D01*
X0242528Y0066913D01*
X0242629Y0066906D01*
X0242730Y0066895D01*
X0242830Y0066880D01*
X0242929Y0066861D01*
X0243028Y0066838D01*
X0243125Y0066812D01*
X0243222Y0066781D01*
X0243317Y0066747D01*
X0243410Y0066709D01*
X0243503Y0066667D01*
X0243593Y0066622D01*
X0243682Y0066573D01*
X0243768Y0066521D01*
X0243852Y0066465D01*
X0243935Y0066406D01*
X0244014Y0066344D01*
X0244092Y0066279D01*
X0244166Y0066211D01*
X0244238Y0066139D01*
X0244307Y0066066D01*
X0244373Y0065989D01*
X0244436Y0065910D01*
X0244496Y0065828D01*
X0244552Y0065744D01*
X0244605Y0065658D01*
X0244655Y0065570D01*
X0244701Y0065480D01*
X0244744Y0065389D01*
X0244783Y0065295D01*
X0244818Y0065200D01*
X0244849Y0065104D01*
X0244877Y0065007D01*
X0244901Y0064909D01*
X0244921Y0064810D01*
X0244937Y0064710D01*
X0244949Y0064609D01*
X0244957Y0064509D01*
X0244961Y0064408D01*
X0244961Y0064306D01*
X0244957Y0064205D01*
X0244949Y0064105D01*
X0244937Y0064004D01*
X0244921Y0063904D01*
X0244901Y0063805D01*
X0244877Y0063707D01*
X0244849Y0063610D01*
X0244818Y0063514D01*
X0244783Y0063419D01*
X0244744Y0063325D01*
X0244701Y0063234D01*
X0244655Y0063144D01*
X0244605Y0063056D01*
X0244552Y0062970D01*
X0244496Y0062886D01*
X0244436Y0062804D01*
X0244373Y0062725D01*
X0244307Y0062648D01*
X0244238Y0062575D01*
X0244166Y0062503D01*
X0244092Y0062435D01*
X0244014Y0062370D01*
X0243935Y0062308D01*
X0243852Y0062249D01*
X0243768Y0062193D01*
X0243681Y0062141D01*
X0243593Y0062092D01*
X0243503Y0062047D01*
X0243410Y0062005D01*
X0243317Y0061967D01*
X0243222Y0061933D01*
X0243125Y0061902D01*
X0243028Y0061876D01*
X0242929Y0061853D01*
X0242830Y0061834D01*
X0242730Y0061819D01*
X0242629Y0061808D01*
X0242528Y0061801D01*
X0242427Y0061798D01*
X0242326Y0061799D01*
X0242225Y0061804D01*
X0242124Y0061813D01*
X0242024Y0061826D01*
X0241924Y0061843D01*
X0241826Y0061864D01*
X0241727Y0061888D01*
X0241630Y0061917D01*
X0241535Y0061949D01*
X0241440Y0061986D01*
X0241347Y0062025D01*
X0241256Y0062069D01*
X0241167Y0062116D01*
X0241079Y0062167D01*
X0240993Y0062221D01*
X0240910Y0062278D01*
X0240829Y0062338D01*
X0240751Y0062402D01*
X0240675Y0062469D01*
X0240601Y0062539D01*
X0240531Y0062611D01*
X0240464Y0062686D01*
X0240399Y0062764D01*
X0240338Y0062845D01*
X0240280Y0062927D01*
X0240225Y0063012D01*
X0240173Y0063099D01*
X0240125Y0063188D01*
X0240081Y0063279D01*
X0240040Y0063372D01*
X0240003Y0063466D01*
X0239970Y0063561D01*
X0239940Y0063658D01*
X0239915Y0063756D01*
X0239893Y0063855D01*
X0239875Y0063954D01*
X0239861Y0064054D01*
X0239851Y0064155D01*
X0239845Y0064256D01*
X0239843Y0064357D01*
X0275866Y0017113D02*
X0275868Y0017266D01*
X0275874Y0017420D01*
X0275884Y0017573D01*
X0275898Y0017725D01*
X0275916Y0017878D01*
X0275938Y0018029D01*
X0275963Y0018180D01*
X0275993Y0018331D01*
X0276027Y0018481D01*
X0276064Y0018629D01*
X0276105Y0018777D01*
X0276150Y0018923D01*
X0276199Y0019069D01*
X0276252Y0019213D01*
X0276308Y0019355D01*
X0276368Y0019496D01*
X0276432Y0019636D01*
X0276499Y0019774D01*
X0276570Y0019910D01*
X0276645Y0020044D01*
X0276722Y0020176D01*
X0276804Y0020306D01*
X0276888Y0020434D01*
X0276976Y0020560D01*
X0277067Y0020683D01*
X0277161Y0020804D01*
X0277259Y0020922D01*
X0277359Y0021038D01*
X0277463Y0021151D01*
X0277569Y0021262D01*
X0277678Y0021370D01*
X0277790Y0021475D01*
X0277904Y0021576D01*
X0278022Y0021675D01*
X0278141Y0021771D01*
X0278263Y0021864D01*
X0278388Y0021953D01*
X0278515Y0022040D01*
X0278644Y0022122D01*
X0278775Y0022202D01*
X0278908Y0022278D01*
X0279043Y0022351D01*
X0279180Y0022420D01*
X0279319Y0022485D01*
X0279459Y0022547D01*
X0279601Y0022605D01*
X0279744Y0022660D01*
X0279889Y0022711D01*
X0280035Y0022758D01*
X0280182Y0022801D01*
X0280330Y0022840D01*
X0280479Y0022876D01*
X0280629Y0022907D01*
X0280780Y0022935D01*
X0280931Y0022959D01*
X0281084Y0022979D01*
X0281236Y0022995D01*
X0281389Y0023007D01*
X0281542Y0023015D01*
X0281695Y0023019D01*
X0281849Y0023019D01*
X0282002Y0023015D01*
X0282155Y0023007D01*
X0282308Y0022995D01*
X0282460Y0022979D01*
X0282613Y0022959D01*
X0282764Y0022935D01*
X0282915Y0022907D01*
X0283065Y0022876D01*
X0283214Y0022840D01*
X0283362Y0022801D01*
X0283509Y0022758D01*
X0283655Y0022711D01*
X0283800Y0022660D01*
X0283943Y0022605D01*
X0284085Y0022547D01*
X0284225Y0022485D01*
X0284364Y0022420D01*
X0284501Y0022351D01*
X0284636Y0022278D01*
X0284769Y0022202D01*
X0284900Y0022122D01*
X0285029Y0022040D01*
X0285156Y0021953D01*
X0285281Y0021864D01*
X0285403Y0021771D01*
X0285522Y0021675D01*
X0285640Y0021576D01*
X0285754Y0021475D01*
X0285866Y0021370D01*
X0285975Y0021262D01*
X0286081Y0021151D01*
X0286185Y0021038D01*
X0286285Y0020922D01*
X0286383Y0020804D01*
X0286477Y0020683D01*
X0286568Y0020560D01*
X0286656Y0020434D01*
X0286740Y0020306D01*
X0286822Y0020176D01*
X0286899Y0020044D01*
X0286974Y0019910D01*
X0287045Y0019774D01*
X0287112Y0019636D01*
X0287176Y0019496D01*
X0287236Y0019355D01*
X0287292Y0019213D01*
X0287345Y0019069D01*
X0287394Y0018923D01*
X0287439Y0018777D01*
X0287480Y0018629D01*
X0287517Y0018481D01*
X0287551Y0018331D01*
X0287581Y0018180D01*
X0287606Y0018029D01*
X0287628Y0017878D01*
X0287646Y0017725D01*
X0287660Y0017573D01*
X0287670Y0017420D01*
X0287676Y0017266D01*
X0287678Y0017113D01*
X0287676Y0016960D01*
X0287670Y0016806D01*
X0287660Y0016653D01*
X0287646Y0016501D01*
X0287628Y0016348D01*
X0287606Y0016197D01*
X0287581Y0016046D01*
X0287551Y0015895D01*
X0287517Y0015745D01*
X0287480Y0015597D01*
X0287439Y0015449D01*
X0287394Y0015303D01*
X0287345Y0015157D01*
X0287292Y0015013D01*
X0287236Y0014871D01*
X0287176Y0014730D01*
X0287112Y0014590D01*
X0287045Y0014452D01*
X0286974Y0014316D01*
X0286899Y0014182D01*
X0286822Y0014050D01*
X0286740Y0013920D01*
X0286656Y0013792D01*
X0286568Y0013666D01*
X0286477Y0013543D01*
X0286383Y0013422D01*
X0286285Y0013304D01*
X0286185Y0013188D01*
X0286081Y0013075D01*
X0285975Y0012964D01*
X0285866Y0012856D01*
X0285754Y0012751D01*
X0285640Y0012650D01*
X0285522Y0012551D01*
X0285403Y0012455D01*
X0285281Y0012362D01*
X0285156Y0012273D01*
X0285029Y0012186D01*
X0284900Y0012104D01*
X0284769Y0012024D01*
X0284636Y0011948D01*
X0284501Y0011875D01*
X0284364Y0011806D01*
X0284225Y0011741D01*
X0284085Y0011679D01*
X0283943Y0011621D01*
X0283800Y0011566D01*
X0283655Y0011515D01*
X0283509Y0011468D01*
X0283362Y0011425D01*
X0283214Y0011386D01*
X0283065Y0011350D01*
X0282915Y0011319D01*
X0282764Y0011291D01*
X0282613Y0011267D01*
X0282460Y0011247D01*
X0282308Y0011231D01*
X0282155Y0011219D01*
X0282002Y0011211D01*
X0281849Y0011207D01*
X0281695Y0011207D01*
X0281542Y0011211D01*
X0281389Y0011219D01*
X0281236Y0011231D01*
X0281084Y0011247D01*
X0280931Y0011267D01*
X0280780Y0011291D01*
X0280629Y0011319D01*
X0280479Y0011350D01*
X0280330Y0011386D01*
X0280182Y0011425D01*
X0280035Y0011468D01*
X0279889Y0011515D01*
X0279744Y0011566D01*
X0279601Y0011621D01*
X0279459Y0011679D01*
X0279319Y0011741D01*
X0279180Y0011806D01*
X0279043Y0011875D01*
X0278908Y0011948D01*
X0278775Y0012024D01*
X0278644Y0012104D01*
X0278515Y0012186D01*
X0278388Y0012273D01*
X0278263Y0012362D01*
X0278141Y0012455D01*
X0278022Y0012551D01*
X0277904Y0012650D01*
X0277790Y0012751D01*
X0277678Y0012856D01*
X0277569Y0012964D01*
X0277463Y0013075D01*
X0277359Y0013188D01*
X0277259Y0013304D01*
X0277161Y0013422D01*
X0277067Y0013543D01*
X0276976Y0013666D01*
X0276888Y0013792D01*
X0276804Y0013920D01*
X0276722Y0014050D01*
X0276645Y0014182D01*
X0276570Y0014316D01*
X0276499Y0014452D01*
X0276432Y0014590D01*
X0276368Y0014730D01*
X0276308Y0014871D01*
X0276252Y0015013D01*
X0276199Y0015157D01*
X0276150Y0015303D01*
X0276105Y0015449D01*
X0276064Y0015597D01*
X0276027Y0015745D01*
X0275993Y0015895D01*
X0275963Y0016046D01*
X0275938Y0016197D01*
X0275916Y0016348D01*
X0275898Y0016501D01*
X0275884Y0016653D01*
X0275874Y0016806D01*
X0275868Y0016960D01*
X0275866Y0017113D01*
D11*
X0279495Y0010033D02*
X0279495Y0003633D01*
X0277717Y0003633D01*
X0277653Y0003635D01*
X0277588Y0003641D01*
X0277525Y0003650D01*
X0277462Y0003664D01*
X0277400Y0003681D01*
X0277339Y0003702D01*
X0277279Y0003727D01*
X0277221Y0003755D01*
X0277165Y0003787D01*
X0277111Y0003822D01*
X0277059Y0003860D01*
X0277009Y0003901D01*
X0276963Y0003946D01*
X0276918Y0003992D01*
X0276877Y0004042D01*
X0276839Y0004094D01*
X0276804Y0004148D01*
X0276772Y0004204D01*
X0276744Y0004262D01*
X0276719Y0004322D01*
X0276698Y0004383D01*
X0276681Y0004445D01*
X0276667Y0004508D01*
X0276658Y0004571D01*
X0276652Y0004636D01*
X0276650Y0004700D01*
X0276650Y0006833D01*
X0276652Y0006897D01*
X0276658Y0006962D01*
X0276667Y0007025D01*
X0276681Y0007088D01*
X0276698Y0007150D01*
X0276719Y0007211D01*
X0276744Y0007271D01*
X0276772Y0007329D01*
X0276804Y0007385D01*
X0276839Y0007439D01*
X0276877Y0007491D01*
X0276918Y0007541D01*
X0276963Y0007587D01*
X0277009Y0007632D01*
X0277059Y0007673D01*
X0277111Y0007711D01*
X0277165Y0007746D01*
X0277221Y0007778D01*
X0277279Y0007806D01*
X0277339Y0007831D01*
X0277400Y0007852D01*
X0277462Y0007869D01*
X0277525Y0007883D01*
X0277588Y0007892D01*
X0277653Y0007898D01*
X0277717Y0007900D01*
X0279495Y0007900D01*
X0274743Y0007900D02*
X0274743Y0007189D01*
X0274743Y0007900D02*
X0272610Y0007900D01*
X0272610Y0003633D01*
X0269648Y0003633D02*
X0269648Y0006833D01*
X0269648Y0006122D02*
X0268048Y0006122D01*
X0269649Y0006833D02*
X0269647Y0006897D01*
X0269641Y0006962D01*
X0269632Y0007025D01*
X0269618Y0007088D01*
X0269601Y0007150D01*
X0269580Y0007211D01*
X0269555Y0007271D01*
X0269527Y0007329D01*
X0269495Y0007385D01*
X0269460Y0007439D01*
X0269422Y0007491D01*
X0269381Y0007541D01*
X0269336Y0007587D01*
X0269290Y0007632D01*
X0269240Y0007673D01*
X0269188Y0007711D01*
X0269134Y0007746D01*
X0269078Y0007778D01*
X0269020Y0007806D01*
X0268960Y0007831D01*
X0268899Y0007852D01*
X0268837Y0007869D01*
X0268774Y0007883D01*
X0268711Y0007892D01*
X0268646Y0007898D01*
X0268582Y0007900D01*
X0267159Y0007900D01*
X0264344Y0006478D02*
X0264344Y0005056D01*
X0264343Y0005056D02*
X0264341Y0004982D01*
X0264335Y0004907D01*
X0264325Y0004834D01*
X0264312Y0004760D01*
X0264295Y0004688D01*
X0264273Y0004617D01*
X0264249Y0004546D01*
X0264220Y0004478D01*
X0264188Y0004410D01*
X0264152Y0004345D01*
X0264114Y0004282D01*
X0264071Y0004220D01*
X0264026Y0004161D01*
X0263978Y0004104D01*
X0263927Y0004050D01*
X0263873Y0003999D01*
X0263816Y0003951D01*
X0263757Y0003906D01*
X0263695Y0003863D01*
X0263632Y0003825D01*
X0263567Y0003789D01*
X0263499Y0003757D01*
X0263431Y0003728D01*
X0263360Y0003704D01*
X0263289Y0003682D01*
X0263217Y0003665D01*
X0263143Y0003652D01*
X0263070Y0003642D01*
X0262995Y0003636D01*
X0262921Y0003634D01*
X0262847Y0003636D01*
X0262772Y0003642D01*
X0262699Y0003652D01*
X0262625Y0003665D01*
X0262553Y0003682D01*
X0262482Y0003704D01*
X0262411Y0003728D01*
X0262343Y0003757D01*
X0262275Y0003789D01*
X0262210Y0003825D01*
X0262147Y0003863D01*
X0262085Y0003906D01*
X0262026Y0003951D01*
X0261969Y0003999D01*
X0261915Y0004050D01*
X0261864Y0004104D01*
X0261816Y0004161D01*
X0261771Y0004220D01*
X0261728Y0004282D01*
X0261690Y0004345D01*
X0261654Y0004410D01*
X0261622Y0004478D01*
X0261593Y0004546D01*
X0261569Y0004617D01*
X0261547Y0004688D01*
X0261530Y0004760D01*
X0261517Y0004834D01*
X0261507Y0004907D01*
X0261501Y0004982D01*
X0261499Y0005056D01*
X0261499Y0006478D01*
X0261501Y0006552D01*
X0261507Y0006627D01*
X0261517Y0006700D01*
X0261530Y0006774D01*
X0261547Y0006846D01*
X0261569Y0006917D01*
X0261593Y0006988D01*
X0261622Y0007056D01*
X0261654Y0007124D01*
X0261690Y0007189D01*
X0261728Y0007252D01*
X0261771Y0007314D01*
X0261816Y0007373D01*
X0261864Y0007430D01*
X0261915Y0007484D01*
X0261969Y0007535D01*
X0262026Y0007583D01*
X0262085Y0007628D01*
X0262147Y0007671D01*
X0262210Y0007709D01*
X0262275Y0007745D01*
X0262343Y0007777D01*
X0262411Y0007806D01*
X0262482Y0007830D01*
X0262553Y0007852D01*
X0262625Y0007869D01*
X0262699Y0007882D01*
X0262772Y0007892D01*
X0262847Y0007898D01*
X0262921Y0007900D01*
X0262995Y0007898D01*
X0263070Y0007892D01*
X0263143Y0007882D01*
X0263217Y0007869D01*
X0263289Y0007852D01*
X0263360Y0007830D01*
X0263431Y0007806D01*
X0263499Y0007777D01*
X0263567Y0007745D01*
X0263632Y0007709D01*
X0263695Y0007671D01*
X0263757Y0007628D01*
X0263816Y0007583D01*
X0263873Y0007535D01*
X0263927Y0007484D01*
X0263978Y0007430D01*
X0264026Y0007373D01*
X0264071Y0007314D01*
X0264114Y0007252D01*
X0264152Y0007189D01*
X0264188Y0007124D01*
X0264220Y0007056D01*
X0264249Y0006988D01*
X0264273Y0006917D01*
X0264295Y0006846D01*
X0264312Y0006774D01*
X0264325Y0006700D01*
X0264335Y0006627D01*
X0264341Y0006552D01*
X0264343Y0006478D01*
X0268048Y0006122D02*
X0267978Y0006120D01*
X0267909Y0006114D01*
X0267840Y0006104D01*
X0267771Y0006091D01*
X0267704Y0006073D01*
X0267637Y0006052D01*
X0267572Y0006027D01*
X0267508Y0005999D01*
X0267446Y0005967D01*
X0267386Y0005931D01*
X0267328Y0005893D01*
X0267272Y0005851D01*
X0267219Y0005806D01*
X0267168Y0005758D01*
X0267120Y0005707D01*
X0267075Y0005654D01*
X0267033Y0005598D01*
X0266995Y0005540D01*
X0266959Y0005480D01*
X0266927Y0005418D01*
X0266899Y0005354D01*
X0266874Y0005289D01*
X0266853Y0005222D01*
X0266835Y0005155D01*
X0266822Y0005086D01*
X0266812Y0005017D01*
X0266806Y0004948D01*
X0266804Y0004878D01*
X0266806Y0004808D01*
X0266812Y0004739D01*
X0266822Y0004670D01*
X0266835Y0004601D01*
X0266853Y0004534D01*
X0266874Y0004467D01*
X0266899Y0004402D01*
X0266927Y0004338D01*
X0266959Y0004276D01*
X0266995Y0004216D01*
X0267033Y0004158D01*
X0267075Y0004102D01*
X0267120Y0004049D01*
X0267168Y0003998D01*
X0267219Y0003950D01*
X0267272Y0003905D01*
X0267328Y0003863D01*
X0267386Y0003825D01*
X0267446Y0003789D01*
X0267508Y0003757D01*
X0267572Y0003729D01*
X0267637Y0003704D01*
X0267704Y0003683D01*
X0267771Y0003665D01*
X0267840Y0003652D01*
X0267909Y0003642D01*
X0267978Y0003636D01*
X0268048Y0003634D01*
X0268048Y0003633D02*
X0269648Y0003633D01*
X0259039Y0004700D02*
X0259039Y0006833D01*
X0259037Y0006897D01*
X0259031Y0006962D01*
X0259022Y0007025D01*
X0259008Y0007088D01*
X0258991Y0007150D01*
X0258970Y0007211D01*
X0258945Y0007271D01*
X0258917Y0007329D01*
X0258885Y0007385D01*
X0258850Y0007439D01*
X0258812Y0007491D01*
X0258771Y0007541D01*
X0258726Y0007587D01*
X0258680Y0007632D01*
X0258630Y0007673D01*
X0258578Y0007711D01*
X0258524Y0007746D01*
X0258468Y0007778D01*
X0258410Y0007806D01*
X0258350Y0007831D01*
X0258289Y0007852D01*
X0258227Y0007869D01*
X0258164Y0007883D01*
X0258101Y0007892D01*
X0258036Y0007898D01*
X0257972Y0007900D01*
X0256195Y0007900D01*
X0256195Y0010033D02*
X0256195Y0003633D01*
X0257972Y0003633D01*
X0258036Y0003635D01*
X0258101Y0003641D01*
X0258164Y0003650D01*
X0258227Y0003664D01*
X0258289Y0003681D01*
X0258350Y0003702D01*
X0258410Y0003727D01*
X0258468Y0003755D01*
X0258524Y0003787D01*
X0258578Y0003822D01*
X0258630Y0003860D01*
X0258680Y0003901D01*
X0258726Y0003946D01*
X0258771Y0003992D01*
X0258812Y0004042D01*
X0258850Y0004094D01*
X0258885Y0004148D01*
X0258917Y0004204D01*
X0258945Y0004262D01*
X0258970Y0004322D01*
X0258991Y0004383D01*
X0259008Y0004445D01*
X0259022Y0004508D01*
X0259031Y0004571D01*
X0259037Y0004636D01*
X0259039Y0004700D01*
X0250461Y0003633D02*
X0248861Y0006656D01*
X0247617Y0005767D02*
X0250461Y0007900D01*
X0247617Y0010033D02*
X0247617Y0003633D01*
X0245123Y0003633D02*
X0243700Y0003633D01*
X0243636Y0003635D01*
X0243571Y0003641D01*
X0243508Y0003650D01*
X0243445Y0003664D01*
X0243383Y0003681D01*
X0243322Y0003702D01*
X0243262Y0003727D01*
X0243204Y0003755D01*
X0243148Y0003787D01*
X0243094Y0003822D01*
X0243042Y0003860D01*
X0242992Y0003901D01*
X0242946Y0003946D01*
X0242901Y0003992D01*
X0242860Y0004042D01*
X0242822Y0004094D01*
X0242787Y0004148D01*
X0242755Y0004204D01*
X0242727Y0004262D01*
X0242702Y0004322D01*
X0242681Y0004383D01*
X0242664Y0004445D01*
X0242650Y0004508D01*
X0242641Y0004571D01*
X0242635Y0004636D01*
X0242633Y0004700D01*
X0242634Y0004700D02*
X0242634Y0006833D01*
X0242633Y0006833D02*
X0242635Y0006897D01*
X0242641Y0006962D01*
X0242650Y0007025D01*
X0242664Y0007088D01*
X0242681Y0007150D01*
X0242702Y0007211D01*
X0242727Y0007271D01*
X0242755Y0007329D01*
X0242787Y0007385D01*
X0242822Y0007439D01*
X0242860Y0007491D01*
X0242901Y0007541D01*
X0242946Y0007587D01*
X0242992Y0007632D01*
X0243042Y0007673D01*
X0243094Y0007711D01*
X0243148Y0007746D01*
X0243204Y0007778D01*
X0243262Y0007806D01*
X0243322Y0007831D01*
X0243383Y0007852D01*
X0243445Y0007869D01*
X0243508Y0007883D01*
X0243571Y0007892D01*
X0243636Y0007898D01*
X0243700Y0007900D01*
X0245123Y0007900D01*
X0240138Y0006478D02*
X0240138Y0005056D01*
X0240136Y0004982D01*
X0240130Y0004907D01*
X0240120Y0004834D01*
X0240107Y0004760D01*
X0240090Y0004688D01*
X0240068Y0004617D01*
X0240044Y0004546D01*
X0240015Y0004478D01*
X0239983Y0004410D01*
X0239947Y0004345D01*
X0239909Y0004282D01*
X0239866Y0004220D01*
X0239821Y0004161D01*
X0239773Y0004104D01*
X0239722Y0004050D01*
X0239668Y0003999D01*
X0239611Y0003951D01*
X0239552Y0003906D01*
X0239490Y0003863D01*
X0239427Y0003825D01*
X0239362Y0003789D01*
X0239294Y0003757D01*
X0239226Y0003728D01*
X0239155Y0003704D01*
X0239084Y0003682D01*
X0239012Y0003665D01*
X0238938Y0003652D01*
X0238865Y0003642D01*
X0238790Y0003636D01*
X0238716Y0003634D01*
X0238642Y0003636D01*
X0238567Y0003642D01*
X0238494Y0003652D01*
X0238420Y0003665D01*
X0238348Y0003682D01*
X0238277Y0003704D01*
X0238206Y0003728D01*
X0238138Y0003757D01*
X0238070Y0003789D01*
X0238005Y0003825D01*
X0237942Y0003863D01*
X0237880Y0003906D01*
X0237821Y0003951D01*
X0237764Y0003999D01*
X0237710Y0004050D01*
X0237659Y0004104D01*
X0237611Y0004161D01*
X0237566Y0004220D01*
X0237523Y0004282D01*
X0237485Y0004345D01*
X0237449Y0004410D01*
X0237417Y0004478D01*
X0237388Y0004546D01*
X0237364Y0004617D01*
X0237342Y0004688D01*
X0237325Y0004760D01*
X0237312Y0004834D01*
X0237302Y0004907D01*
X0237296Y0004982D01*
X0237294Y0005056D01*
X0237293Y0005056D02*
X0237293Y0006478D01*
X0237294Y0006478D02*
X0237296Y0006552D01*
X0237302Y0006627D01*
X0237312Y0006700D01*
X0237325Y0006774D01*
X0237342Y0006846D01*
X0237364Y0006917D01*
X0237388Y0006988D01*
X0237417Y0007056D01*
X0237449Y0007124D01*
X0237485Y0007189D01*
X0237523Y0007252D01*
X0237566Y0007314D01*
X0237611Y0007373D01*
X0237659Y0007430D01*
X0237710Y0007484D01*
X0237764Y0007535D01*
X0237821Y0007583D01*
X0237880Y0007628D01*
X0237942Y0007671D01*
X0238005Y0007709D01*
X0238070Y0007745D01*
X0238138Y0007777D01*
X0238206Y0007806D01*
X0238277Y0007830D01*
X0238348Y0007852D01*
X0238420Y0007869D01*
X0238494Y0007882D01*
X0238567Y0007892D01*
X0238642Y0007898D01*
X0238716Y0007900D01*
X0238790Y0007898D01*
X0238865Y0007892D01*
X0238938Y0007882D01*
X0239012Y0007869D01*
X0239084Y0007852D01*
X0239155Y0007830D01*
X0239226Y0007806D01*
X0239294Y0007777D01*
X0239362Y0007745D01*
X0239427Y0007709D01*
X0239490Y0007671D01*
X0239552Y0007628D01*
X0239611Y0007583D01*
X0239668Y0007535D01*
X0239722Y0007484D01*
X0239773Y0007430D01*
X0239821Y0007373D01*
X0239866Y0007314D01*
X0239909Y0007252D01*
X0239947Y0007189D01*
X0239983Y0007124D01*
X0240015Y0007056D01*
X0240044Y0006988D01*
X0240068Y0006917D01*
X0240090Y0006846D01*
X0240107Y0006774D01*
X0240120Y0006700D01*
X0240130Y0006627D01*
X0240136Y0006552D01*
X0240138Y0006478D01*
X0235171Y0003633D02*
X0235107Y0003635D01*
X0235042Y0003641D01*
X0234979Y0003650D01*
X0234916Y0003664D01*
X0234854Y0003681D01*
X0234793Y0003702D01*
X0234733Y0003727D01*
X0234675Y0003755D01*
X0234619Y0003787D01*
X0234565Y0003822D01*
X0234513Y0003860D01*
X0234463Y0003901D01*
X0234417Y0003946D01*
X0234372Y0003992D01*
X0234331Y0004042D01*
X0234293Y0004094D01*
X0234258Y0004148D01*
X0234226Y0004204D01*
X0234198Y0004262D01*
X0234173Y0004322D01*
X0234152Y0004383D01*
X0234135Y0004445D01*
X0234121Y0004508D01*
X0234112Y0004571D01*
X0234106Y0004636D01*
X0234104Y0004700D01*
X0234105Y0004700D02*
X0234105Y0010033D01*
X0231766Y0010033D02*
X0230344Y0010033D01*
X0230270Y0010031D01*
X0230195Y0010025D01*
X0230122Y0010015D01*
X0230048Y0010002D01*
X0229976Y0009985D01*
X0229905Y0009963D01*
X0229834Y0009939D01*
X0229766Y0009910D01*
X0229698Y0009878D01*
X0229633Y0009842D01*
X0229570Y0009804D01*
X0229508Y0009761D01*
X0229449Y0009716D01*
X0229392Y0009668D01*
X0229338Y0009617D01*
X0229287Y0009562D01*
X0229239Y0009506D01*
X0229194Y0009447D01*
X0229151Y0009385D01*
X0229113Y0009322D01*
X0229077Y0009257D01*
X0229045Y0009189D01*
X0229016Y0009121D01*
X0228992Y0009050D01*
X0228970Y0008979D01*
X0228953Y0008907D01*
X0228940Y0008833D01*
X0228930Y0008760D01*
X0228924Y0008685D01*
X0228922Y0008611D01*
X0228922Y0005056D01*
X0228924Y0004982D01*
X0228930Y0004907D01*
X0228940Y0004834D01*
X0228953Y0004760D01*
X0228970Y0004688D01*
X0228992Y0004617D01*
X0229016Y0004546D01*
X0229045Y0004478D01*
X0229077Y0004410D01*
X0229113Y0004345D01*
X0229151Y0004282D01*
X0229194Y0004220D01*
X0229239Y0004161D01*
X0229287Y0004104D01*
X0229338Y0004050D01*
X0229392Y0003999D01*
X0229449Y0003951D01*
X0229508Y0003906D01*
X0229570Y0003863D01*
X0229633Y0003825D01*
X0229698Y0003789D01*
X0229766Y0003757D01*
X0229834Y0003728D01*
X0229905Y0003704D01*
X0229976Y0003682D01*
X0230048Y0003665D01*
X0230122Y0003652D01*
X0230195Y0003642D01*
X0230270Y0003636D01*
X0230344Y0003634D01*
X0230344Y0003633D02*
X0231766Y0003633D01*
X0226969Y0018787D02*
X0226969Y0031187D01*
X0186969Y0031187D02*
X0186969Y0018787D01*
X0186969Y0022987D02*
X0187057Y0022989D01*
X0187146Y0022995D01*
X0187234Y0023005D01*
X0187321Y0023018D01*
X0187408Y0023036D01*
X0187494Y0023057D01*
X0187579Y0023082D01*
X0187662Y0023111D01*
X0187745Y0023144D01*
X0187825Y0023180D01*
X0187904Y0023219D01*
X0187982Y0023262D01*
X0188057Y0023309D01*
X0188130Y0023359D01*
X0188201Y0023412D01*
X0188270Y0023468D01*
X0188336Y0023527D01*
X0188399Y0023589D01*
X0188459Y0023653D01*
X0188517Y0023720D01*
X0188571Y0023790D01*
X0188623Y0023862D01*
X0188671Y0023936D01*
X0188716Y0024013D01*
X0188757Y0024091D01*
X0188795Y0024171D01*
X0188829Y0024252D01*
X0188860Y0024335D01*
X0188887Y0024420D01*
X0188910Y0024505D01*
X0188929Y0024591D01*
X0188945Y0024679D01*
X0188957Y0024766D01*
X0188965Y0024854D01*
X0188969Y0024943D01*
X0188969Y0025031D01*
X0188965Y0025120D01*
X0188957Y0025208D01*
X0188945Y0025295D01*
X0188929Y0025383D01*
X0188910Y0025469D01*
X0188887Y0025554D01*
X0188860Y0025639D01*
X0188829Y0025722D01*
X0188795Y0025803D01*
X0188757Y0025883D01*
X0188716Y0025961D01*
X0188671Y0026038D01*
X0188623Y0026112D01*
X0188571Y0026184D01*
X0188517Y0026254D01*
X0188459Y0026321D01*
X0188399Y0026385D01*
X0188336Y0026447D01*
X0188270Y0026506D01*
X0188201Y0026562D01*
X0188130Y0026615D01*
X0188057Y0026665D01*
X0187982Y0026712D01*
X0187904Y0026755D01*
X0187825Y0026794D01*
X0187745Y0026830D01*
X0187662Y0026863D01*
X0187579Y0026892D01*
X0187494Y0026917D01*
X0187408Y0026938D01*
X0187321Y0026956D01*
X0187234Y0026969D01*
X0187146Y0026979D01*
X0187057Y0026985D01*
X0186969Y0026987D01*
X0156102Y0013707D02*
X0153602Y0016207D01*
X0148602Y0016207D01*
X0146102Y0013707D01*
X0143602Y0016207D01*
X0138602Y0016207D01*
X0136102Y0013707D01*
X0136102Y0008707D01*
X0138602Y0006207D01*
X0143602Y0006207D01*
X0146102Y0008707D01*
X0146102Y0013707D01*
X0136102Y0013707D02*
X0133602Y0016207D01*
X0128602Y0016207D01*
X0126102Y0013707D01*
X0123602Y0016207D01*
X0118602Y0016207D01*
X0116102Y0013707D01*
X0116102Y0008707D01*
X0118602Y0006207D01*
X0123602Y0006207D01*
X0126102Y0008707D01*
X0126102Y0013707D01*
X0126102Y0008707D02*
X0128602Y0006207D01*
X0133602Y0006207D01*
X0136102Y0008707D01*
X0146102Y0008707D02*
X0148602Y0006207D01*
X0153602Y0006207D01*
X0156102Y0008707D01*
X0156102Y0013707D01*
X0107795Y0008629D02*
X0107795Y0023629D01*
X0105295Y0026129D01*
X0100295Y0026129D01*
X0097795Y0023629D01*
X0097795Y0008629D01*
X0100295Y0006129D01*
X0105295Y0006129D01*
X0107795Y0008629D01*
X0097795Y0008629D02*
X0095295Y0006129D01*
X0090295Y0006129D01*
X0087795Y0008629D01*
X0087795Y0023629D01*
X0090295Y0026129D01*
X0095295Y0026129D01*
X0097795Y0023629D01*
X0087795Y0023629D02*
X0085295Y0026129D01*
X0080295Y0026129D01*
X0077795Y0023629D01*
X0077795Y0008629D01*
X0080295Y0006129D01*
X0085295Y0006129D01*
X0087795Y0008629D01*
X0077795Y0008629D02*
X0075295Y0006129D01*
X0070295Y0006129D01*
X0067795Y0008629D01*
X0067795Y0023629D01*
X0070295Y0026129D01*
X0075295Y0026129D01*
X0077795Y0023629D01*
X0282047Y0041266D02*
X0282047Y0046266D01*
X0284547Y0048766D01*
X0282047Y0051266D01*
X0282047Y0056266D01*
X0284547Y0058766D01*
X0282047Y0061266D01*
X0282047Y0066266D01*
X0284547Y0068766D01*
X0282047Y0071266D01*
X0282047Y0076266D01*
X0284547Y0078766D01*
X0282047Y0081266D01*
X0282047Y0086266D01*
X0284547Y0088766D01*
X0289547Y0088766D01*
X0292047Y0086266D01*
X0292047Y0081266D01*
X0289547Y0078766D01*
X0292047Y0076266D01*
X0292047Y0071266D01*
X0289547Y0068766D01*
X0284547Y0068766D01*
X0289547Y0068766D02*
X0292047Y0066266D01*
X0292047Y0061266D01*
X0289547Y0058766D01*
X0292047Y0056266D01*
X0292047Y0051266D01*
X0289547Y0048766D01*
X0292047Y0046266D01*
X0292047Y0041266D01*
X0289547Y0038766D01*
X0284547Y0038766D01*
X0282047Y0041266D01*
X0284547Y0048766D02*
X0289547Y0048766D01*
X0289547Y0058766D02*
X0284547Y0058766D01*
X0284547Y0078766D02*
X0289547Y0078766D01*
X0294034Y0008433D02*
X0294032Y0008351D01*
X0294026Y0008269D01*
X0294016Y0008188D01*
X0294003Y0008107D01*
X0293985Y0008027D01*
X0293964Y0007948D01*
X0293939Y0007870D01*
X0293911Y0007794D01*
X0293878Y0007718D01*
X0293843Y0007645D01*
X0293803Y0007573D01*
X0293761Y0007503D01*
X0293715Y0007435D01*
X0293666Y0007370D01*
X0293614Y0007307D01*
X0293558Y0007246D01*
X0293501Y0007188D01*
X0293500Y0007189D02*
X0290478Y0003633D01*
X0294033Y0003633D01*
X0288139Y0007900D02*
X0286717Y0003633D01*
X0285295Y0007900D01*
X0290477Y0008611D02*
X0290506Y0008696D01*
X0290539Y0008779D01*
X0290576Y0008860D01*
X0290616Y0008940D01*
X0290659Y0009017D01*
X0290706Y0009093D01*
X0290756Y0009167D01*
X0290809Y0009239D01*
X0290865Y0009308D01*
X0290924Y0009375D01*
X0290986Y0009439D01*
X0291051Y0009500D01*
X0291118Y0009559D01*
X0291188Y0009614D01*
X0291260Y0009667D01*
X0291334Y0009716D01*
X0291411Y0009762D01*
X0291489Y0009804D01*
X0291569Y0009844D01*
X0291651Y0009879D01*
X0291734Y0009912D01*
X0291818Y0009940D01*
X0291904Y0009965D01*
X0291991Y0009986D01*
X0292078Y0010003D01*
X0292166Y0010017D01*
X0292255Y0010026D01*
X0292344Y0010032D01*
X0292433Y0010034D01*
X0292433Y0010033D02*
X0292512Y0010031D01*
X0292590Y0010025D01*
X0292668Y0010016D01*
X0292745Y0010002D01*
X0292822Y0009985D01*
X0292897Y0009964D01*
X0292972Y0009939D01*
X0293045Y0009911D01*
X0293117Y0009879D01*
X0293187Y0009844D01*
X0293256Y0009805D01*
X0293322Y0009763D01*
X0293386Y0009718D01*
X0293448Y0009670D01*
X0293507Y0009619D01*
X0293564Y0009564D01*
X0293619Y0009507D01*
X0293670Y0009448D01*
X0293718Y0009386D01*
X0293763Y0009322D01*
X0293805Y0009256D01*
X0293844Y0009187D01*
X0293879Y0009117D01*
X0293911Y0009045D01*
X0293939Y0008972D01*
X0293964Y0008897D01*
X0293985Y0008822D01*
X0294002Y0008745D01*
X0294016Y0008668D01*
X0294025Y0008590D01*
X0294031Y0008512D01*
X0294033Y0008433D01*
D12*
X0170472Y0031325D02*
X0163780Y0031325D01*
X0116535Y0031325D02*
X0107480Y0031325D01*
X0024685Y0038766D02*
X0024685Y0040735D01*
X0024685Y0038766D02*
X0005000Y0038766D01*
X0024685Y0066325D02*
X0024685Y0068294D01*
X0005000Y0068294D01*
X0107480Y0097073D02*
X0107480Y0125814D01*
X0170472Y0125814D01*
X0170472Y0097073D01*
X0189252Y0092408D02*
X0205000Y0092408D01*
X0205000Y0107172D01*
X0189252Y0107172D01*
X0189252Y0092408D01*
D13*
X0199681Y0102837D02*
X0199683Y0102881D01*
X0199689Y0102925D01*
X0199699Y0102968D01*
X0199712Y0103010D01*
X0199730Y0103050D01*
X0199751Y0103089D01*
X0199775Y0103126D01*
X0199802Y0103161D01*
X0199833Y0103193D01*
X0199866Y0103222D01*
X0199902Y0103248D01*
X0199940Y0103270D01*
X0199980Y0103289D01*
X0200021Y0103305D01*
X0200064Y0103317D01*
X0200107Y0103325D01*
X0200151Y0103329D01*
X0200195Y0103329D01*
X0200239Y0103325D01*
X0200282Y0103317D01*
X0200325Y0103305D01*
X0200366Y0103289D01*
X0200406Y0103270D01*
X0200444Y0103248D01*
X0200480Y0103222D01*
X0200513Y0103193D01*
X0200544Y0103161D01*
X0200571Y0103126D01*
X0200595Y0103089D01*
X0200616Y0103050D01*
X0200634Y0103010D01*
X0200647Y0102968D01*
X0200657Y0102925D01*
X0200663Y0102881D01*
X0200665Y0102837D01*
X0200663Y0102793D01*
X0200657Y0102749D01*
X0200647Y0102706D01*
X0200634Y0102664D01*
X0200616Y0102624D01*
X0200595Y0102585D01*
X0200571Y0102548D01*
X0200544Y0102513D01*
X0200513Y0102481D01*
X0200480Y0102452D01*
X0200444Y0102426D01*
X0200406Y0102404D01*
X0200366Y0102385D01*
X0200325Y0102369D01*
X0200282Y0102357D01*
X0200239Y0102349D01*
X0200195Y0102345D01*
X0200151Y0102345D01*
X0200107Y0102349D01*
X0200064Y0102357D01*
X0200021Y0102369D01*
X0199980Y0102385D01*
X0199940Y0102404D01*
X0199902Y0102426D01*
X0199866Y0102452D01*
X0199833Y0102481D01*
X0199802Y0102513D01*
X0199775Y0102548D01*
X0199751Y0102585D01*
X0199730Y0102624D01*
X0199712Y0102664D01*
X0199699Y0102706D01*
X0199689Y0102749D01*
X0199683Y0102793D01*
X0199681Y0102837D01*
X0161417Y0122664D02*
X0145669Y0122664D01*
X0145669Y0108885D01*
X0141339Y0108885D01*
X0141339Y0122664D01*
X0137008Y0122664D01*
X0137008Y0108491D01*
X0132283Y0108491D01*
X0132283Y0122664D01*
X0127559Y0122664D01*
X0127559Y0108491D01*
X0123622Y0108491D01*
X0123622Y0123058D01*
X0120079Y0123058D01*
X0120079Y0103766D01*
X0120079Y0103373D02*
X0120079Y0101010D01*
X0145669Y0101010D01*
D14*
X0147042Y0087119D02*
X0147042Y0081919D01*
X0148486Y0081919D02*
X0145597Y0081919D01*
X0150637Y0081919D02*
X0153526Y0081919D01*
X0155854Y0081919D02*
X0155854Y0087119D01*
X0158166Y0087119D01*
X0157588Y0084808D02*
X0155854Y0084808D01*
X0153093Y0084808D02*
X0150637Y0081919D01*
X0155854Y0081919D02*
X0158166Y0081919D01*
X0152226Y0087119D02*
X0152145Y0087117D01*
X0152065Y0087111D01*
X0151985Y0087101D01*
X0151905Y0087088D01*
X0151826Y0087070D01*
X0151748Y0087049D01*
X0151671Y0087024D01*
X0151596Y0086996D01*
X0151522Y0086963D01*
X0151449Y0086927D01*
X0151379Y0086888D01*
X0151310Y0086845D01*
X0151244Y0086800D01*
X0151180Y0086751D01*
X0151118Y0086698D01*
X0151059Y0086643D01*
X0151002Y0086586D01*
X0150949Y0086525D01*
X0150898Y0086462D01*
X0150851Y0086397D01*
X0150807Y0086329D01*
X0150766Y0086259D01*
X0150728Y0086188D01*
X0150694Y0086115D01*
X0150664Y0086040D01*
X0150637Y0085964D01*
X0153093Y0084808D02*
X0153143Y0084858D01*
X0153190Y0084911D01*
X0153235Y0084965D01*
X0153276Y0085022D01*
X0153315Y0085081D01*
X0153351Y0085142D01*
X0153384Y0085205D01*
X0153413Y0085269D01*
X0153439Y0085335D01*
X0153462Y0085402D01*
X0153482Y0085469D01*
X0153497Y0085538D01*
X0153510Y0085608D01*
X0153519Y0085678D01*
X0153524Y0085748D01*
X0153526Y0085819D01*
X0153524Y0085889D01*
X0153518Y0085960D01*
X0153509Y0086029D01*
X0153496Y0086098D01*
X0153479Y0086167D01*
X0153458Y0086234D01*
X0153434Y0086300D01*
X0153406Y0086365D01*
X0153375Y0086428D01*
X0153340Y0086489D01*
X0153302Y0086549D01*
X0153261Y0086606D01*
X0153217Y0086661D01*
X0153170Y0086713D01*
X0153120Y0086763D01*
X0153068Y0086810D01*
X0153013Y0086854D01*
X0152956Y0086895D01*
X0152896Y0086933D01*
X0152835Y0086968D01*
X0152772Y0086999D01*
X0152707Y0087027D01*
X0152641Y0087051D01*
X0152574Y0087072D01*
X0152505Y0087089D01*
X0152436Y0087102D01*
X0152367Y0087111D01*
X0152296Y0087117D01*
X0152226Y0087119D01*
X0147042Y0087119D02*
X0145597Y0085964D01*
X0140711Y0083941D02*
X0137244Y0083941D01*
X0131152Y0084230D02*
X0129708Y0084230D01*
X0131152Y0084231D02*
X0131228Y0084233D01*
X0131303Y0084239D01*
X0131378Y0084249D01*
X0131452Y0084263D01*
X0131526Y0084280D01*
X0131598Y0084302D01*
X0131669Y0084327D01*
X0131739Y0084356D01*
X0131808Y0084388D01*
X0131874Y0084424D01*
X0131938Y0084464D01*
X0132001Y0084507D01*
X0132061Y0084553D01*
X0132118Y0084602D01*
X0132173Y0084654D01*
X0132225Y0084709D01*
X0132274Y0084766D01*
X0132320Y0084826D01*
X0132363Y0084889D01*
X0132403Y0084953D01*
X0132439Y0085019D01*
X0132471Y0085088D01*
X0132500Y0085158D01*
X0132525Y0085229D01*
X0132547Y0085301D01*
X0132564Y0085375D01*
X0132578Y0085449D01*
X0132588Y0085524D01*
X0132594Y0085599D01*
X0132596Y0085675D01*
X0132594Y0085751D01*
X0132588Y0085826D01*
X0132578Y0085901D01*
X0132564Y0085975D01*
X0132547Y0086049D01*
X0132525Y0086121D01*
X0132500Y0086192D01*
X0132471Y0086262D01*
X0132439Y0086331D01*
X0132403Y0086397D01*
X0132363Y0086461D01*
X0132320Y0086524D01*
X0132274Y0086584D01*
X0132225Y0086641D01*
X0132173Y0086696D01*
X0132118Y0086748D01*
X0132061Y0086797D01*
X0132001Y0086843D01*
X0131938Y0086886D01*
X0131874Y0086926D01*
X0131808Y0086962D01*
X0131739Y0086994D01*
X0131669Y0087023D01*
X0131598Y0087048D01*
X0131526Y0087070D01*
X0131452Y0087087D01*
X0131378Y0087101D01*
X0131303Y0087111D01*
X0131228Y0087117D01*
X0131152Y0087119D01*
X0129708Y0087119D01*
X0129708Y0081919D01*
X0127486Y0083075D02*
X0127484Y0083008D01*
X0127478Y0082941D01*
X0127468Y0082874D01*
X0127455Y0082808D01*
X0127437Y0082743D01*
X0127416Y0082680D01*
X0127391Y0082617D01*
X0127363Y0082556D01*
X0127331Y0082497D01*
X0127296Y0082440D01*
X0127257Y0082385D01*
X0127216Y0082332D01*
X0127171Y0082282D01*
X0127123Y0082234D01*
X0127073Y0082189D01*
X0127020Y0082148D01*
X0126965Y0082109D01*
X0126908Y0082074D01*
X0126849Y0082042D01*
X0126788Y0082014D01*
X0126725Y0081989D01*
X0126662Y0081968D01*
X0126597Y0081950D01*
X0126531Y0081937D01*
X0126464Y0081927D01*
X0126397Y0081921D01*
X0126330Y0081919D01*
X0127486Y0083075D02*
X0127484Y0083143D01*
X0127478Y0083210D01*
X0127468Y0083277D01*
X0127455Y0083343D01*
X0127438Y0083409D01*
X0127416Y0083473D01*
X0127392Y0083536D01*
X0127363Y0083598D01*
X0127331Y0083657D01*
X0127296Y0083715D01*
X0127257Y0083771D01*
X0127216Y0083824D01*
X0127171Y0083875D01*
X0127124Y0083923D01*
X0127073Y0083969D01*
X0127021Y0084011D01*
X0126965Y0084050D01*
X0126908Y0084086D01*
X0125319Y0084952D01*
X0125897Y0087120D02*
X0125984Y0087118D01*
X0126071Y0087113D01*
X0126158Y0087104D01*
X0126244Y0087092D01*
X0126330Y0087076D01*
X0126415Y0087057D01*
X0126499Y0087035D01*
X0126582Y0087009D01*
X0126664Y0086980D01*
X0126745Y0086947D01*
X0126825Y0086911D01*
X0126903Y0086872D01*
X0126979Y0086830D01*
X0127054Y0086785D01*
X0127126Y0086737D01*
X0127197Y0086687D01*
X0125319Y0084953D02*
X0125262Y0084989D01*
X0125206Y0085028D01*
X0125154Y0085070D01*
X0125103Y0085116D01*
X0125056Y0085164D01*
X0125011Y0085215D01*
X0124970Y0085268D01*
X0124931Y0085324D01*
X0124896Y0085382D01*
X0124864Y0085441D01*
X0124835Y0085503D01*
X0124811Y0085566D01*
X0124789Y0085630D01*
X0124772Y0085696D01*
X0124759Y0085762D01*
X0124749Y0085829D01*
X0124743Y0085896D01*
X0124741Y0085964D01*
X0124743Y0086031D01*
X0124749Y0086098D01*
X0124759Y0086165D01*
X0124772Y0086231D01*
X0124790Y0086296D01*
X0124811Y0086359D01*
X0124836Y0086422D01*
X0124864Y0086483D01*
X0124896Y0086542D01*
X0124931Y0086599D01*
X0124970Y0086654D01*
X0125011Y0086707D01*
X0125056Y0086757D01*
X0125104Y0086805D01*
X0125154Y0086850D01*
X0125207Y0086891D01*
X0125262Y0086930D01*
X0125319Y0086965D01*
X0125378Y0086997D01*
X0125439Y0087025D01*
X0125502Y0087050D01*
X0125565Y0087071D01*
X0125630Y0087089D01*
X0125696Y0087102D01*
X0125763Y0087112D01*
X0125830Y0087118D01*
X0125897Y0087120D01*
X0122886Y0087119D02*
X0120575Y0087119D01*
X0120575Y0081919D01*
X0122886Y0081919D01*
X0122308Y0084808D02*
X0120575Y0084808D01*
X0124597Y0082641D02*
X0124666Y0082574D01*
X0124738Y0082510D01*
X0124812Y0082448D01*
X0124889Y0082390D01*
X0124967Y0082335D01*
X0125048Y0082282D01*
X0125131Y0082233D01*
X0125216Y0082188D01*
X0125303Y0082146D01*
X0125391Y0082107D01*
X0125481Y0082071D01*
X0125572Y0082040D01*
X0125664Y0082012D01*
X0125757Y0081987D01*
X0125851Y0081966D01*
X0125946Y0081949D01*
X0126042Y0081936D01*
X0126137Y0081927D01*
X0126234Y0081921D01*
X0126330Y0081919D01*
X0057992Y0095184D02*
X0050807Y0095184D01*
X0045591Y0095184D02*
X0038012Y0095184D01*
X0038012Y0118412D01*
X0045394Y0118412D01*
X0050807Y0118412D02*
X0057992Y0118412D01*
X0057992Y0095184D01*
X0037224Y0103255D02*
X0034961Y0102073D01*
X0034961Y0104436D01*
X0037224Y0103255D01*
X0034075Y0103255D01*
X0034961Y0103384D02*
X0036977Y0103384D01*
X0036708Y0102985D02*
X0034961Y0102985D01*
X0034961Y0102587D02*
X0035944Y0102587D01*
X0035180Y0102188D02*
X0034961Y0102188D01*
X0034961Y0103782D02*
X0036213Y0103782D01*
X0035449Y0104181D02*
X0034961Y0104181D01*
X0034961Y0109160D02*
X0037224Y0110341D01*
X0034961Y0111522D01*
X0034961Y0109160D01*
X0034961Y0109361D02*
X0035346Y0109361D01*
X0034961Y0109760D02*
X0036110Y0109760D01*
X0036874Y0110158D02*
X0034961Y0110158D01*
X0034961Y0110557D02*
X0036811Y0110557D01*
X0037224Y0110341D02*
X0034075Y0110341D01*
X0034961Y0110955D02*
X0036047Y0110955D01*
X0035283Y0111354D02*
X0034961Y0111354D01*
D15*
X0047953Y0122743D02*
X0048341Y0122738D01*
X0048729Y0122724D01*
X0049117Y0122700D01*
X0049504Y0122667D01*
X0049890Y0122625D01*
X0050275Y0122573D01*
X0050658Y0122512D01*
X0051040Y0122441D01*
X0051420Y0122362D01*
X0051798Y0122272D01*
X0052174Y0122174D01*
X0052547Y0122067D01*
X0052917Y0121951D01*
X0053285Y0121825D01*
X0053649Y0121691D01*
X0054010Y0121548D01*
X0054367Y0121396D01*
X0054721Y0121235D01*
X0055071Y0121066D01*
X0055416Y0120889D01*
X0055757Y0120703D01*
X0056093Y0120509D01*
X0056425Y0120306D01*
X0056751Y0120096D01*
X0057072Y0119878D01*
X0057388Y0119652D01*
X0057698Y0119418D01*
X0058003Y0119177D01*
X0058301Y0118929D01*
X0058593Y0118673D01*
X0058879Y0118411D01*
X0059159Y0118141D01*
X0059432Y0117865D01*
X0059698Y0117582D01*
X0059957Y0117293D01*
X0060209Y0116998D01*
X0060454Y0116696D01*
X0060691Y0116389D01*
X0060921Y0116076D01*
X0061143Y0115757D01*
X0061357Y0115433D01*
X0061564Y0115104D01*
X0061762Y0114771D01*
X0061952Y0114432D01*
X0062134Y0114089D01*
X0062307Y0113741D01*
X0062472Y0113390D01*
X0062628Y0113034D01*
X0062775Y0112675D01*
X0062914Y0112312D01*
X0063044Y0111946D01*
X0063165Y0111577D01*
X0063277Y0111205D01*
X0063380Y0110831D01*
X0063473Y0110454D01*
X0063558Y0110075D01*
X0063633Y0109694D01*
X0063699Y0109312D01*
X0063755Y0108927D01*
X0063802Y0108542D01*
X0063840Y0108155D01*
X0063868Y0107768D01*
X0063887Y0107380D01*
X0063897Y0106992D01*
X0063897Y0106604D01*
X0063887Y0106216D01*
X0063868Y0105828D01*
X0063840Y0105441D01*
X0063802Y0105054D01*
X0063755Y0104669D01*
X0063699Y0104284D01*
X0063633Y0103902D01*
X0063558Y0103521D01*
X0063473Y0103142D01*
X0063380Y0102765D01*
X0063277Y0102391D01*
X0063165Y0102019D01*
X0063044Y0101650D01*
X0062914Y0101284D01*
X0062775Y0100921D01*
X0062628Y0100562D01*
X0062472Y0100206D01*
X0062307Y0099855D01*
X0062134Y0099507D01*
X0061952Y0099164D01*
X0061762Y0098826D01*
X0061564Y0098492D01*
X0061357Y0098163D01*
X0061143Y0097839D01*
X0060921Y0097520D01*
X0060691Y0097207D01*
X0060454Y0096900D01*
X0060209Y0096598D01*
X0059957Y0096303D01*
X0059698Y0096014D01*
X0059432Y0095731D01*
X0059159Y0095455D01*
X0058879Y0095185D01*
X0058593Y0094923D01*
X0058301Y0094667D01*
X0058003Y0094419D01*
X0057698Y0094178D01*
X0057388Y0093944D01*
X0057072Y0093718D01*
X0056751Y0093500D01*
X0056425Y0093290D01*
X0056093Y0093087D01*
X0055757Y0092893D01*
X0055416Y0092707D01*
X0055071Y0092530D01*
X0054721Y0092361D01*
X0054367Y0092200D01*
X0054010Y0092048D01*
X0053649Y0091905D01*
X0053285Y0091771D01*
X0052917Y0091645D01*
X0052547Y0091529D01*
X0052174Y0091422D01*
X0051798Y0091324D01*
X0051420Y0091234D01*
X0051040Y0091155D01*
X0050658Y0091084D01*
X0050275Y0091023D01*
X0049890Y0090971D01*
X0049504Y0090929D01*
X0049117Y0090896D01*
X0048729Y0090872D01*
X0048341Y0090858D01*
X0047953Y0090853D01*
X0048346Y0090853D02*
X0047958Y0090858D01*
X0047570Y0090872D01*
X0047182Y0090896D01*
X0046795Y0090929D01*
X0046409Y0090971D01*
X0046024Y0091023D01*
X0045641Y0091084D01*
X0045259Y0091155D01*
X0044879Y0091234D01*
X0044501Y0091324D01*
X0044125Y0091422D01*
X0043752Y0091529D01*
X0043382Y0091645D01*
X0043014Y0091771D01*
X0042650Y0091905D01*
X0042289Y0092048D01*
X0041932Y0092200D01*
X0041578Y0092361D01*
X0041228Y0092530D01*
X0040883Y0092707D01*
X0040542Y0092893D01*
X0040206Y0093087D01*
X0039874Y0093290D01*
X0039548Y0093500D01*
X0039227Y0093718D01*
X0038911Y0093944D01*
X0038601Y0094178D01*
X0038296Y0094419D01*
X0037998Y0094667D01*
X0037706Y0094923D01*
X0037420Y0095185D01*
X0037140Y0095455D01*
X0036867Y0095731D01*
X0036601Y0096014D01*
X0036342Y0096303D01*
X0036090Y0096598D01*
X0035845Y0096900D01*
X0035608Y0097207D01*
X0035378Y0097520D01*
X0035156Y0097839D01*
X0034942Y0098163D01*
X0034735Y0098492D01*
X0034537Y0098825D01*
X0034347Y0099164D01*
X0034165Y0099507D01*
X0033992Y0099855D01*
X0033827Y0100206D01*
X0033671Y0100562D01*
X0033524Y0100921D01*
X0033385Y0101284D01*
X0033255Y0101650D01*
X0033134Y0102019D01*
X0033022Y0102391D01*
X0032919Y0102765D01*
X0032826Y0103142D01*
X0032741Y0103521D01*
X0032666Y0103902D01*
X0032600Y0104284D01*
X0032544Y0104669D01*
X0032497Y0105054D01*
X0032459Y0105441D01*
X0032431Y0105828D01*
X0032412Y0106216D01*
X0032402Y0106604D01*
X0032402Y0106992D01*
X0032412Y0107380D01*
X0032431Y0107768D01*
X0032459Y0108155D01*
X0032497Y0108542D01*
X0032544Y0108927D01*
X0032600Y0109312D01*
X0032666Y0109694D01*
X0032741Y0110075D01*
X0032826Y0110454D01*
X0032919Y0110831D01*
X0033022Y0111205D01*
X0033134Y0111577D01*
X0033255Y0111946D01*
X0033385Y0112312D01*
X0033524Y0112675D01*
X0033671Y0113034D01*
X0033827Y0113390D01*
X0033992Y0113741D01*
X0034165Y0114089D01*
X0034347Y0114432D01*
X0034537Y0114770D01*
X0034735Y0115104D01*
X0034942Y0115433D01*
X0035156Y0115757D01*
X0035378Y0116076D01*
X0035608Y0116389D01*
X0035845Y0116696D01*
X0036090Y0116998D01*
X0036342Y0117293D01*
X0036601Y0117582D01*
X0036867Y0117865D01*
X0037140Y0118141D01*
X0037420Y0118411D01*
X0037706Y0118673D01*
X0037998Y0118929D01*
X0038296Y0119177D01*
X0038601Y0119418D01*
X0038911Y0119652D01*
X0039227Y0119878D01*
X0039548Y0120096D01*
X0039874Y0120306D01*
X0040206Y0120509D01*
X0040542Y0120703D01*
X0040883Y0120889D01*
X0041228Y0121066D01*
X0041578Y0121235D01*
X0041932Y0121396D01*
X0042289Y0121548D01*
X0042650Y0121691D01*
X0043014Y0121825D01*
X0043382Y0121951D01*
X0043752Y0122067D01*
X0044125Y0122174D01*
X0044501Y0122272D01*
X0044879Y0122362D01*
X0045259Y0122441D01*
X0045641Y0122512D01*
X0046024Y0122573D01*
X0046409Y0122625D01*
X0046795Y0122667D01*
X0047182Y0122700D01*
X0047570Y0122724D01*
X0047958Y0122738D01*
X0048346Y0122743D01*
X0042488Y0053636D02*
X0042488Y0027833D01*
X0056488Y0027833D01*
X0056488Y0053636D01*
X0042488Y0053636D01*
D16*
X0188440Y0032956D02*
X0188440Y0032416D01*
X0188439Y0032417D02*
X0188370Y0032413D01*
X0188301Y0032405D01*
X0188232Y0032394D01*
X0188165Y0032379D01*
X0188098Y0032360D01*
X0188033Y0032337D01*
X0187969Y0032311D01*
X0187906Y0032281D01*
X0187845Y0032247D01*
X0187787Y0032210D01*
X0187730Y0032170D01*
X0187676Y0032127D01*
X0187624Y0032081D01*
X0187575Y0032032D01*
X0187529Y0031980D01*
X0187486Y0031926D01*
X0187446Y0031869D01*
X0187409Y0031811D01*
X0187375Y0031750D01*
X0187345Y0031687D01*
X0187319Y0031623D01*
X0187296Y0031558D01*
X0187277Y0031491D01*
X0187262Y0031424D01*
X0187251Y0031355D01*
X0187243Y0031286D01*
X0187239Y0031217D01*
X0186700Y0031216D01*
X0186699Y0031217D01*
X0186703Y0031299D01*
X0186710Y0031381D01*
X0186721Y0031463D01*
X0186735Y0031544D01*
X0186754Y0031625D01*
X0186776Y0031704D01*
X0186802Y0031782D01*
X0186832Y0031859D01*
X0186865Y0031935D01*
X0186901Y0032009D01*
X0186941Y0032081D01*
X0186984Y0032151D01*
X0187031Y0032219D01*
X0187081Y0032285D01*
X0187133Y0032348D01*
X0187189Y0032409D01*
X0187247Y0032467D01*
X0187308Y0032523D01*
X0187371Y0032575D01*
X0187437Y0032625D01*
X0187505Y0032672D01*
X0187575Y0032715D01*
X0187647Y0032755D01*
X0187721Y0032791D01*
X0187797Y0032824D01*
X0187874Y0032854D01*
X0187952Y0032880D01*
X0188031Y0032902D01*
X0188112Y0032921D01*
X0188193Y0032935D01*
X0188275Y0032946D01*
X0188357Y0032953D01*
X0188439Y0032957D01*
X0188439Y0032901D01*
X0188359Y0032897D01*
X0188280Y0032891D01*
X0188201Y0032880D01*
X0188122Y0032866D01*
X0188045Y0032848D01*
X0187968Y0032826D01*
X0187892Y0032801D01*
X0187818Y0032772D01*
X0187745Y0032740D01*
X0187673Y0032705D01*
X0187603Y0032666D01*
X0187535Y0032624D01*
X0187470Y0032579D01*
X0187406Y0032531D01*
X0187345Y0032481D01*
X0187286Y0032427D01*
X0187229Y0032370D01*
X0187175Y0032311D01*
X0187125Y0032250D01*
X0187077Y0032186D01*
X0187032Y0032121D01*
X0186990Y0032053D01*
X0186951Y0031983D01*
X0186916Y0031911D01*
X0186884Y0031838D01*
X0186855Y0031764D01*
X0186830Y0031688D01*
X0186808Y0031611D01*
X0186790Y0031534D01*
X0186776Y0031455D01*
X0186765Y0031376D01*
X0186759Y0031297D01*
X0186755Y0031217D01*
X0186811Y0031217D01*
X0186815Y0031296D01*
X0186822Y0031376D01*
X0186833Y0031454D01*
X0186847Y0031532D01*
X0186866Y0031610D01*
X0186888Y0031686D01*
X0186914Y0031761D01*
X0186943Y0031835D01*
X0186976Y0031908D01*
X0187012Y0031978D01*
X0187052Y0032047D01*
X0187095Y0032114D01*
X0187141Y0032179D01*
X0187190Y0032242D01*
X0187242Y0032302D01*
X0187297Y0032359D01*
X0187354Y0032414D01*
X0187414Y0032466D01*
X0187477Y0032515D01*
X0187542Y0032561D01*
X0187609Y0032604D01*
X0187678Y0032644D01*
X0187748Y0032680D01*
X0187821Y0032713D01*
X0187895Y0032742D01*
X0187970Y0032768D01*
X0188046Y0032790D01*
X0188124Y0032809D01*
X0188202Y0032823D01*
X0188280Y0032834D01*
X0188360Y0032841D01*
X0188439Y0032845D01*
X0188439Y0032789D01*
X0188360Y0032785D01*
X0188281Y0032778D01*
X0188203Y0032767D01*
X0188125Y0032752D01*
X0188048Y0032733D01*
X0187972Y0032710D01*
X0187897Y0032683D01*
X0187824Y0032653D01*
X0187752Y0032620D01*
X0187682Y0032583D01*
X0187614Y0032542D01*
X0187548Y0032498D01*
X0187485Y0032451D01*
X0187423Y0032401D01*
X0187365Y0032347D01*
X0187309Y0032291D01*
X0187255Y0032233D01*
X0187205Y0032171D01*
X0187158Y0032108D01*
X0187114Y0032042D01*
X0187073Y0031974D01*
X0187036Y0031904D01*
X0187003Y0031832D01*
X0186973Y0031759D01*
X0186946Y0031684D01*
X0186923Y0031608D01*
X0186904Y0031531D01*
X0186889Y0031453D01*
X0186878Y0031375D01*
X0186871Y0031296D01*
X0186867Y0031217D01*
X0186923Y0031217D01*
X0186927Y0031293D01*
X0186934Y0031369D01*
X0186945Y0031445D01*
X0186959Y0031520D01*
X0186978Y0031594D01*
X0187000Y0031667D01*
X0187025Y0031739D01*
X0187054Y0031810D01*
X0187087Y0031879D01*
X0187122Y0031947D01*
X0187162Y0032012D01*
X0187204Y0032076D01*
X0187249Y0032137D01*
X0187298Y0032196D01*
X0187349Y0032253D01*
X0187403Y0032307D01*
X0187460Y0032358D01*
X0187519Y0032407D01*
X0187580Y0032452D01*
X0187644Y0032494D01*
X0187709Y0032534D01*
X0187777Y0032569D01*
X0187846Y0032602D01*
X0187917Y0032631D01*
X0187989Y0032656D01*
X0188062Y0032678D01*
X0188136Y0032697D01*
X0188211Y0032711D01*
X0188287Y0032722D01*
X0188363Y0032729D01*
X0188439Y0032733D01*
X0188439Y0032677D01*
X0188363Y0032673D01*
X0188287Y0032666D01*
X0188212Y0032655D01*
X0188138Y0032640D01*
X0188064Y0032621D01*
X0187991Y0032598D01*
X0187920Y0032572D01*
X0187850Y0032542D01*
X0187782Y0032509D01*
X0187715Y0032472D01*
X0187651Y0032432D01*
X0187588Y0032389D01*
X0187528Y0032342D01*
X0187471Y0032293D01*
X0187415Y0032241D01*
X0187363Y0032185D01*
X0187314Y0032128D01*
X0187267Y0032068D01*
X0187224Y0032005D01*
X0187184Y0031941D01*
X0187147Y0031874D01*
X0187114Y0031806D01*
X0187084Y0031736D01*
X0187058Y0031665D01*
X0187035Y0031592D01*
X0187016Y0031518D01*
X0187001Y0031444D01*
X0186990Y0031369D01*
X0186983Y0031293D01*
X0186979Y0031217D01*
X0187035Y0031217D01*
X0187039Y0031293D01*
X0187046Y0031368D01*
X0187058Y0031442D01*
X0187073Y0031516D01*
X0187093Y0031590D01*
X0187116Y0031662D01*
X0187143Y0031732D01*
X0187173Y0031801D01*
X0187207Y0031869D01*
X0187245Y0031934D01*
X0187286Y0031998D01*
X0187331Y0032059D01*
X0187378Y0032118D01*
X0187429Y0032174D01*
X0187482Y0032227D01*
X0187538Y0032278D01*
X0187597Y0032325D01*
X0187658Y0032370D01*
X0187722Y0032411D01*
X0187787Y0032449D01*
X0187855Y0032483D01*
X0187924Y0032513D01*
X0187994Y0032540D01*
X0188066Y0032563D01*
X0188140Y0032583D01*
X0188214Y0032598D01*
X0188288Y0032610D01*
X0188363Y0032617D01*
X0188439Y0032621D01*
X0188439Y0032565D01*
X0188367Y0032561D01*
X0188294Y0032554D01*
X0188223Y0032543D01*
X0188152Y0032528D01*
X0188081Y0032509D01*
X0188012Y0032487D01*
X0187945Y0032461D01*
X0187878Y0032432D01*
X0187814Y0032399D01*
X0187751Y0032363D01*
X0187690Y0032323D01*
X0187631Y0032281D01*
X0187575Y0032235D01*
X0187521Y0032187D01*
X0187469Y0032135D01*
X0187421Y0032081D01*
X0187375Y0032025D01*
X0187333Y0031966D01*
X0187293Y0031905D01*
X0187257Y0031842D01*
X0187224Y0031778D01*
X0187195Y0031711D01*
X0187169Y0031644D01*
X0187147Y0031575D01*
X0187128Y0031504D01*
X0187113Y0031433D01*
X0187102Y0031362D01*
X0187095Y0031289D01*
X0187091Y0031217D01*
X0187147Y0031217D01*
X0187151Y0031289D01*
X0187158Y0031361D01*
X0187170Y0031432D01*
X0187185Y0031502D01*
X0187204Y0031571D01*
X0187227Y0031640D01*
X0187253Y0031707D01*
X0187284Y0031772D01*
X0187317Y0031836D01*
X0187354Y0031898D01*
X0187395Y0031957D01*
X0187438Y0032015D01*
X0187485Y0032070D01*
X0187534Y0032122D01*
X0187586Y0032171D01*
X0187641Y0032218D01*
X0187699Y0032261D01*
X0187758Y0032302D01*
X0187820Y0032339D01*
X0187884Y0032372D01*
X0187949Y0032403D01*
X0188016Y0032429D01*
X0188085Y0032452D01*
X0188154Y0032471D01*
X0188224Y0032486D01*
X0188295Y0032498D01*
X0188367Y0032505D01*
X0188439Y0032509D01*
X0188439Y0032453D01*
X0188370Y0032449D01*
X0188302Y0032442D01*
X0188234Y0032431D01*
X0188166Y0032416D01*
X0188100Y0032398D01*
X0188035Y0032376D01*
X0187971Y0032351D01*
X0187908Y0032322D01*
X0187847Y0032290D01*
X0187788Y0032254D01*
X0187731Y0032216D01*
X0187676Y0032174D01*
X0187624Y0032130D01*
X0187574Y0032082D01*
X0187526Y0032032D01*
X0187482Y0031980D01*
X0187440Y0031925D01*
X0187402Y0031868D01*
X0187366Y0031809D01*
X0187334Y0031748D01*
X0187305Y0031685D01*
X0187280Y0031621D01*
X0187258Y0031556D01*
X0187240Y0031490D01*
X0187225Y0031422D01*
X0187214Y0031354D01*
X0187207Y0031286D01*
X0187203Y0031217D01*
X0186700Y0018758D02*
X0187240Y0018758D01*
X0187239Y0018757D02*
X0187243Y0018688D01*
X0187251Y0018619D01*
X0187262Y0018550D01*
X0187277Y0018483D01*
X0187296Y0018416D01*
X0187319Y0018351D01*
X0187345Y0018287D01*
X0187375Y0018224D01*
X0187409Y0018163D01*
X0187446Y0018105D01*
X0187486Y0018048D01*
X0187529Y0017994D01*
X0187575Y0017942D01*
X0187624Y0017893D01*
X0187676Y0017847D01*
X0187730Y0017804D01*
X0187787Y0017764D01*
X0187845Y0017727D01*
X0187906Y0017693D01*
X0187969Y0017663D01*
X0188033Y0017637D01*
X0188098Y0017614D01*
X0188165Y0017595D01*
X0188232Y0017580D01*
X0188301Y0017569D01*
X0188370Y0017561D01*
X0188439Y0017557D01*
X0188440Y0017018D01*
X0188439Y0017017D01*
X0188357Y0017021D01*
X0188275Y0017028D01*
X0188193Y0017039D01*
X0188112Y0017053D01*
X0188031Y0017072D01*
X0187952Y0017094D01*
X0187874Y0017120D01*
X0187797Y0017150D01*
X0187721Y0017183D01*
X0187647Y0017219D01*
X0187575Y0017259D01*
X0187505Y0017302D01*
X0187437Y0017349D01*
X0187371Y0017399D01*
X0187308Y0017451D01*
X0187247Y0017507D01*
X0187189Y0017565D01*
X0187133Y0017626D01*
X0187081Y0017689D01*
X0187031Y0017755D01*
X0186984Y0017823D01*
X0186941Y0017893D01*
X0186901Y0017965D01*
X0186865Y0018039D01*
X0186832Y0018115D01*
X0186802Y0018192D01*
X0186776Y0018270D01*
X0186754Y0018349D01*
X0186735Y0018430D01*
X0186721Y0018511D01*
X0186710Y0018593D01*
X0186703Y0018675D01*
X0186699Y0018757D01*
X0186755Y0018757D01*
X0186759Y0018677D01*
X0186765Y0018598D01*
X0186776Y0018519D01*
X0186790Y0018440D01*
X0186808Y0018363D01*
X0186830Y0018286D01*
X0186855Y0018210D01*
X0186884Y0018136D01*
X0186916Y0018063D01*
X0186951Y0017991D01*
X0186990Y0017921D01*
X0187032Y0017853D01*
X0187077Y0017788D01*
X0187125Y0017724D01*
X0187175Y0017663D01*
X0187229Y0017604D01*
X0187286Y0017547D01*
X0187345Y0017493D01*
X0187406Y0017443D01*
X0187470Y0017395D01*
X0187535Y0017350D01*
X0187603Y0017308D01*
X0187673Y0017269D01*
X0187745Y0017234D01*
X0187818Y0017202D01*
X0187892Y0017173D01*
X0187968Y0017148D01*
X0188045Y0017126D01*
X0188122Y0017108D01*
X0188201Y0017094D01*
X0188280Y0017083D01*
X0188359Y0017077D01*
X0188439Y0017073D01*
X0188439Y0017129D01*
X0188360Y0017133D01*
X0188280Y0017140D01*
X0188202Y0017151D01*
X0188124Y0017165D01*
X0188046Y0017184D01*
X0187970Y0017206D01*
X0187895Y0017232D01*
X0187821Y0017261D01*
X0187748Y0017294D01*
X0187678Y0017330D01*
X0187609Y0017370D01*
X0187542Y0017413D01*
X0187477Y0017459D01*
X0187414Y0017508D01*
X0187354Y0017560D01*
X0187297Y0017615D01*
X0187242Y0017672D01*
X0187190Y0017732D01*
X0187141Y0017795D01*
X0187095Y0017860D01*
X0187052Y0017927D01*
X0187012Y0017996D01*
X0186976Y0018066D01*
X0186943Y0018139D01*
X0186914Y0018213D01*
X0186888Y0018288D01*
X0186866Y0018364D01*
X0186847Y0018442D01*
X0186833Y0018520D01*
X0186822Y0018598D01*
X0186815Y0018678D01*
X0186811Y0018757D01*
X0186867Y0018757D01*
X0186871Y0018678D01*
X0186878Y0018599D01*
X0186889Y0018521D01*
X0186904Y0018443D01*
X0186923Y0018366D01*
X0186946Y0018290D01*
X0186973Y0018215D01*
X0187003Y0018142D01*
X0187036Y0018070D01*
X0187073Y0018000D01*
X0187114Y0017932D01*
X0187158Y0017866D01*
X0187205Y0017803D01*
X0187255Y0017741D01*
X0187309Y0017683D01*
X0187365Y0017627D01*
X0187423Y0017573D01*
X0187485Y0017523D01*
X0187548Y0017476D01*
X0187614Y0017432D01*
X0187682Y0017391D01*
X0187752Y0017354D01*
X0187824Y0017321D01*
X0187897Y0017291D01*
X0187972Y0017264D01*
X0188048Y0017241D01*
X0188125Y0017222D01*
X0188203Y0017207D01*
X0188281Y0017196D01*
X0188360Y0017189D01*
X0188439Y0017185D01*
X0188439Y0017241D01*
X0188363Y0017245D01*
X0188287Y0017252D01*
X0188211Y0017263D01*
X0188136Y0017277D01*
X0188062Y0017296D01*
X0187989Y0017318D01*
X0187917Y0017343D01*
X0187846Y0017372D01*
X0187777Y0017405D01*
X0187709Y0017440D01*
X0187644Y0017480D01*
X0187580Y0017522D01*
X0187519Y0017567D01*
X0187460Y0017616D01*
X0187403Y0017667D01*
X0187349Y0017721D01*
X0187298Y0017778D01*
X0187249Y0017837D01*
X0187204Y0017898D01*
X0187162Y0017962D01*
X0187122Y0018027D01*
X0187087Y0018095D01*
X0187054Y0018164D01*
X0187025Y0018235D01*
X0187000Y0018307D01*
X0186978Y0018380D01*
X0186959Y0018454D01*
X0186945Y0018529D01*
X0186934Y0018605D01*
X0186927Y0018681D01*
X0186923Y0018757D01*
X0186979Y0018757D01*
X0186983Y0018681D01*
X0186990Y0018605D01*
X0187001Y0018530D01*
X0187016Y0018456D01*
X0187035Y0018382D01*
X0187058Y0018309D01*
X0187084Y0018238D01*
X0187114Y0018168D01*
X0187147Y0018100D01*
X0187184Y0018033D01*
X0187224Y0017969D01*
X0187267Y0017906D01*
X0187314Y0017846D01*
X0187363Y0017789D01*
X0187415Y0017733D01*
X0187471Y0017681D01*
X0187528Y0017632D01*
X0187588Y0017585D01*
X0187651Y0017542D01*
X0187715Y0017502D01*
X0187782Y0017465D01*
X0187850Y0017432D01*
X0187920Y0017402D01*
X0187991Y0017376D01*
X0188064Y0017353D01*
X0188138Y0017334D01*
X0188212Y0017319D01*
X0188287Y0017308D01*
X0188363Y0017301D01*
X0188439Y0017297D01*
X0188439Y0017353D01*
X0188363Y0017357D01*
X0188288Y0017364D01*
X0188214Y0017376D01*
X0188140Y0017391D01*
X0188066Y0017411D01*
X0187994Y0017434D01*
X0187924Y0017461D01*
X0187855Y0017491D01*
X0187787Y0017525D01*
X0187722Y0017563D01*
X0187658Y0017604D01*
X0187597Y0017649D01*
X0187538Y0017696D01*
X0187482Y0017747D01*
X0187429Y0017800D01*
X0187378Y0017856D01*
X0187331Y0017915D01*
X0187286Y0017976D01*
X0187245Y0018040D01*
X0187207Y0018105D01*
X0187173Y0018173D01*
X0187143Y0018242D01*
X0187116Y0018312D01*
X0187093Y0018384D01*
X0187073Y0018458D01*
X0187058Y0018532D01*
X0187046Y0018606D01*
X0187039Y0018681D01*
X0187035Y0018757D01*
X0187091Y0018757D01*
X0187095Y0018685D01*
X0187102Y0018612D01*
X0187113Y0018541D01*
X0187128Y0018470D01*
X0187147Y0018399D01*
X0187169Y0018330D01*
X0187195Y0018263D01*
X0187224Y0018196D01*
X0187257Y0018132D01*
X0187293Y0018069D01*
X0187333Y0018008D01*
X0187375Y0017949D01*
X0187421Y0017893D01*
X0187469Y0017839D01*
X0187521Y0017787D01*
X0187575Y0017739D01*
X0187631Y0017693D01*
X0187690Y0017651D01*
X0187751Y0017611D01*
X0187814Y0017575D01*
X0187878Y0017542D01*
X0187945Y0017513D01*
X0188012Y0017487D01*
X0188081Y0017465D01*
X0188152Y0017446D01*
X0188223Y0017431D01*
X0188294Y0017420D01*
X0188367Y0017413D01*
X0188439Y0017409D01*
X0188439Y0017465D01*
X0188367Y0017469D01*
X0188295Y0017476D01*
X0188224Y0017488D01*
X0188154Y0017503D01*
X0188085Y0017522D01*
X0188016Y0017545D01*
X0187949Y0017571D01*
X0187884Y0017602D01*
X0187820Y0017635D01*
X0187758Y0017672D01*
X0187699Y0017713D01*
X0187641Y0017756D01*
X0187586Y0017803D01*
X0187534Y0017852D01*
X0187485Y0017904D01*
X0187438Y0017959D01*
X0187395Y0018017D01*
X0187354Y0018076D01*
X0187317Y0018138D01*
X0187284Y0018202D01*
X0187253Y0018267D01*
X0187227Y0018334D01*
X0187204Y0018403D01*
X0187185Y0018472D01*
X0187170Y0018542D01*
X0187158Y0018613D01*
X0187151Y0018685D01*
X0187147Y0018757D01*
X0187203Y0018757D01*
X0187207Y0018688D01*
X0187214Y0018620D01*
X0187225Y0018552D01*
X0187240Y0018484D01*
X0187258Y0018418D01*
X0187280Y0018353D01*
X0187305Y0018289D01*
X0187334Y0018226D01*
X0187366Y0018165D01*
X0187402Y0018106D01*
X0187440Y0018049D01*
X0187482Y0017994D01*
X0187526Y0017942D01*
X0187574Y0017892D01*
X0187624Y0017844D01*
X0187676Y0017800D01*
X0187731Y0017758D01*
X0187788Y0017720D01*
X0187847Y0017684D01*
X0187908Y0017652D01*
X0187971Y0017623D01*
X0188035Y0017598D01*
X0188100Y0017576D01*
X0188166Y0017558D01*
X0188234Y0017543D01*
X0188302Y0017532D01*
X0188370Y0017525D01*
X0188439Y0017521D01*
X0225498Y0017018D02*
X0225498Y0017558D01*
X0225499Y0017557D02*
X0225568Y0017561D01*
X0225637Y0017569D01*
X0225706Y0017580D01*
X0225773Y0017595D01*
X0225840Y0017614D01*
X0225905Y0017637D01*
X0225969Y0017663D01*
X0226032Y0017693D01*
X0226093Y0017727D01*
X0226151Y0017764D01*
X0226208Y0017804D01*
X0226262Y0017847D01*
X0226314Y0017893D01*
X0226363Y0017942D01*
X0226409Y0017994D01*
X0226452Y0018048D01*
X0226492Y0018105D01*
X0226529Y0018163D01*
X0226563Y0018224D01*
X0226593Y0018287D01*
X0226619Y0018351D01*
X0226642Y0018416D01*
X0226661Y0018483D01*
X0226676Y0018550D01*
X0226687Y0018619D01*
X0226695Y0018688D01*
X0226699Y0018757D01*
X0227238Y0018758D01*
X0227239Y0018757D01*
X0227235Y0018675D01*
X0227228Y0018593D01*
X0227217Y0018511D01*
X0227203Y0018430D01*
X0227184Y0018349D01*
X0227162Y0018270D01*
X0227136Y0018192D01*
X0227106Y0018115D01*
X0227073Y0018039D01*
X0227037Y0017965D01*
X0226997Y0017893D01*
X0226954Y0017823D01*
X0226907Y0017755D01*
X0226857Y0017689D01*
X0226805Y0017626D01*
X0226749Y0017565D01*
X0226691Y0017507D01*
X0226630Y0017451D01*
X0226567Y0017399D01*
X0226501Y0017349D01*
X0226433Y0017302D01*
X0226363Y0017259D01*
X0226291Y0017219D01*
X0226217Y0017183D01*
X0226141Y0017150D01*
X0226064Y0017120D01*
X0225986Y0017094D01*
X0225907Y0017072D01*
X0225826Y0017053D01*
X0225745Y0017039D01*
X0225663Y0017028D01*
X0225581Y0017021D01*
X0225499Y0017017D01*
X0225499Y0017073D01*
X0225579Y0017077D01*
X0225658Y0017083D01*
X0225737Y0017094D01*
X0225816Y0017108D01*
X0225893Y0017126D01*
X0225970Y0017148D01*
X0226046Y0017173D01*
X0226120Y0017202D01*
X0226193Y0017234D01*
X0226265Y0017269D01*
X0226335Y0017308D01*
X0226403Y0017350D01*
X0226468Y0017395D01*
X0226532Y0017443D01*
X0226593Y0017493D01*
X0226652Y0017547D01*
X0226709Y0017604D01*
X0226763Y0017663D01*
X0226813Y0017724D01*
X0226861Y0017788D01*
X0226906Y0017853D01*
X0226948Y0017921D01*
X0226987Y0017991D01*
X0227022Y0018063D01*
X0227054Y0018136D01*
X0227083Y0018210D01*
X0227108Y0018286D01*
X0227130Y0018363D01*
X0227148Y0018440D01*
X0227162Y0018519D01*
X0227173Y0018598D01*
X0227179Y0018677D01*
X0227183Y0018757D01*
X0227127Y0018757D01*
X0227123Y0018678D01*
X0227116Y0018598D01*
X0227105Y0018520D01*
X0227091Y0018442D01*
X0227072Y0018364D01*
X0227050Y0018288D01*
X0227024Y0018213D01*
X0226995Y0018139D01*
X0226962Y0018066D01*
X0226926Y0017996D01*
X0226886Y0017927D01*
X0226843Y0017860D01*
X0226797Y0017795D01*
X0226748Y0017732D01*
X0226696Y0017672D01*
X0226641Y0017615D01*
X0226584Y0017560D01*
X0226524Y0017508D01*
X0226461Y0017459D01*
X0226396Y0017413D01*
X0226329Y0017370D01*
X0226260Y0017330D01*
X0226190Y0017294D01*
X0226117Y0017261D01*
X0226043Y0017232D01*
X0225968Y0017206D01*
X0225892Y0017184D01*
X0225814Y0017165D01*
X0225736Y0017151D01*
X0225658Y0017140D01*
X0225578Y0017133D01*
X0225499Y0017129D01*
X0225499Y0017185D01*
X0225578Y0017189D01*
X0225657Y0017196D01*
X0225735Y0017207D01*
X0225813Y0017222D01*
X0225890Y0017241D01*
X0225966Y0017264D01*
X0226041Y0017291D01*
X0226114Y0017321D01*
X0226186Y0017354D01*
X0226256Y0017391D01*
X0226324Y0017432D01*
X0226390Y0017476D01*
X0226453Y0017523D01*
X0226515Y0017573D01*
X0226573Y0017627D01*
X0226629Y0017683D01*
X0226683Y0017741D01*
X0226733Y0017803D01*
X0226780Y0017866D01*
X0226824Y0017932D01*
X0226865Y0018000D01*
X0226902Y0018070D01*
X0226935Y0018142D01*
X0226965Y0018215D01*
X0226992Y0018290D01*
X0227015Y0018366D01*
X0227034Y0018443D01*
X0227049Y0018521D01*
X0227060Y0018599D01*
X0227067Y0018678D01*
X0227071Y0018757D01*
X0227015Y0018757D01*
X0227011Y0018681D01*
X0227004Y0018605D01*
X0226993Y0018529D01*
X0226979Y0018454D01*
X0226960Y0018380D01*
X0226938Y0018307D01*
X0226913Y0018235D01*
X0226884Y0018164D01*
X0226851Y0018095D01*
X0226816Y0018027D01*
X0226776Y0017962D01*
X0226734Y0017898D01*
X0226689Y0017837D01*
X0226640Y0017778D01*
X0226589Y0017721D01*
X0226535Y0017667D01*
X0226478Y0017616D01*
X0226419Y0017567D01*
X0226358Y0017522D01*
X0226294Y0017480D01*
X0226229Y0017440D01*
X0226161Y0017405D01*
X0226092Y0017372D01*
X0226021Y0017343D01*
X0225949Y0017318D01*
X0225876Y0017296D01*
X0225802Y0017277D01*
X0225727Y0017263D01*
X0225651Y0017252D01*
X0225575Y0017245D01*
X0225499Y0017241D01*
X0225499Y0017297D01*
X0225575Y0017301D01*
X0225651Y0017308D01*
X0225726Y0017319D01*
X0225800Y0017334D01*
X0225874Y0017353D01*
X0225947Y0017376D01*
X0226018Y0017402D01*
X0226088Y0017432D01*
X0226156Y0017465D01*
X0226223Y0017502D01*
X0226287Y0017542D01*
X0226350Y0017585D01*
X0226410Y0017632D01*
X0226467Y0017681D01*
X0226523Y0017733D01*
X0226575Y0017789D01*
X0226624Y0017846D01*
X0226671Y0017906D01*
X0226714Y0017969D01*
X0226754Y0018033D01*
X0226791Y0018100D01*
X0226824Y0018168D01*
X0226854Y0018238D01*
X0226880Y0018309D01*
X0226903Y0018382D01*
X0226922Y0018456D01*
X0226937Y0018530D01*
X0226948Y0018605D01*
X0226955Y0018681D01*
X0226959Y0018757D01*
X0226903Y0018757D01*
X0226899Y0018681D01*
X0226892Y0018606D01*
X0226880Y0018532D01*
X0226865Y0018458D01*
X0226845Y0018384D01*
X0226822Y0018312D01*
X0226795Y0018242D01*
X0226765Y0018173D01*
X0226731Y0018105D01*
X0226693Y0018040D01*
X0226652Y0017976D01*
X0226607Y0017915D01*
X0226560Y0017856D01*
X0226509Y0017800D01*
X0226456Y0017747D01*
X0226400Y0017696D01*
X0226341Y0017649D01*
X0226280Y0017604D01*
X0226216Y0017563D01*
X0226151Y0017525D01*
X0226083Y0017491D01*
X0226014Y0017461D01*
X0225944Y0017434D01*
X0225872Y0017411D01*
X0225798Y0017391D01*
X0225724Y0017376D01*
X0225650Y0017364D01*
X0225575Y0017357D01*
X0225499Y0017353D01*
X0225499Y0017409D01*
X0225571Y0017413D01*
X0225644Y0017420D01*
X0225715Y0017431D01*
X0225786Y0017446D01*
X0225857Y0017465D01*
X0225926Y0017487D01*
X0225993Y0017513D01*
X0226060Y0017542D01*
X0226124Y0017575D01*
X0226187Y0017611D01*
X0226248Y0017651D01*
X0226307Y0017693D01*
X0226363Y0017739D01*
X0226417Y0017787D01*
X0226469Y0017839D01*
X0226517Y0017893D01*
X0226563Y0017949D01*
X0226605Y0018008D01*
X0226645Y0018069D01*
X0226681Y0018132D01*
X0226714Y0018196D01*
X0226743Y0018263D01*
X0226769Y0018330D01*
X0226791Y0018399D01*
X0226810Y0018470D01*
X0226825Y0018541D01*
X0226836Y0018612D01*
X0226843Y0018685D01*
X0226847Y0018757D01*
X0226791Y0018757D01*
X0226787Y0018685D01*
X0226780Y0018613D01*
X0226768Y0018542D01*
X0226753Y0018472D01*
X0226734Y0018403D01*
X0226711Y0018334D01*
X0226685Y0018267D01*
X0226654Y0018202D01*
X0226621Y0018138D01*
X0226584Y0018076D01*
X0226543Y0018017D01*
X0226500Y0017959D01*
X0226453Y0017904D01*
X0226404Y0017852D01*
X0226352Y0017803D01*
X0226297Y0017756D01*
X0226239Y0017713D01*
X0226180Y0017672D01*
X0226118Y0017635D01*
X0226054Y0017602D01*
X0225989Y0017571D01*
X0225922Y0017545D01*
X0225853Y0017522D01*
X0225784Y0017503D01*
X0225714Y0017488D01*
X0225643Y0017476D01*
X0225571Y0017469D01*
X0225499Y0017465D01*
X0225499Y0017521D01*
X0225568Y0017525D01*
X0225636Y0017532D01*
X0225704Y0017543D01*
X0225772Y0017558D01*
X0225838Y0017576D01*
X0225903Y0017598D01*
X0225967Y0017623D01*
X0226030Y0017652D01*
X0226091Y0017684D01*
X0226150Y0017720D01*
X0226207Y0017758D01*
X0226262Y0017800D01*
X0226314Y0017844D01*
X0226364Y0017892D01*
X0226412Y0017942D01*
X0226456Y0017994D01*
X0226498Y0018049D01*
X0226536Y0018106D01*
X0226572Y0018165D01*
X0226604Y0018226D01*
X0226633Y0018289D01*
X0226658Y0018353D01*
X0226680Y0018418D01*
X0226698Y0018484D01*
X0226713Y0018552D01*
X0226724Y0018620D01*
X0226731Y0018688D01*
X0226735Y0018757D01*
X0227238Y0031216D02*
X0226698Y0031216D01*
X0226699Y0031217D02*
X0226695Y0031286D01*
X0226687Y0031355D01*
X0226676Y0031424D01*
X0226661Y0031491D01*
X0226642Y0031558D01*
X0226619Y0031623D01*
X0226593Y0031687D01*
X0226563Y0031750D01*
X0226529Y0031811D01*
X0226492Y0031869D01*
X0226452Y0031926D01*
X0226409Y0031980D01*
X0226363Y0032032D01*
X0226314Y0032081D01*
X0226262Y0032127D01*
X0226208Y0032170D01*
X0226151Y0032210D01*
X0226093Y0032247D01*
X0226032Y0032281D01*
X0225969Y0032311D01*
X0225905Y0032337D01*
X0225840Y0032360D01*
X0225773Y0032379D01*
X0225706Y0032394D01*
X0225637Y0032405D01*
X0225568Y0032413D01*
X0225499Y0032417D01*
X0225498Y0032956D01*
X0225499Y0032957D01*
X0225581Y0032953D01*
X0225663Y0032946D01*
X0225745Y0032935D01*
X0225826Y0032921D01*
X0225907Y0032902D01*
X0225986Y0032880D01*
X0226064Y0032854D01*
X0226141Y0032824D01*
X0226217Y0032791D01*
X0226291Y0032755D01*
X0226363Y0032715D01*
X0226433Y0032672D01*
X0226501Y0032625D01*
X0226567Y0032575D01*
X0226630Y0032523D01*
X0226691Y0032467D01*
X0226749Y0032409D01*
X0226805Y0032348D01*
X0226857Y0032285D01*
X0226907Y0032219D01*
X0226954Y0032151D01*
X0226997Y0032081D01*
X0227037Y0032009D01*
X0227073Y0031935D01*
X0227106Y0031859D01*
X0227136Y0031782D01*
X0227162Y0031704D01*
X0227184Y0031625D01*
X0227203Y0031544D01*
X0227217Y0031463D01*
X0227228Y0031381D01*
X0227235Y0031299D01*
X0227239Y0031217D01*
X0227183Y0031217D01*
X0227179Y0031297D01*
X0227173Y0031376D01*
X0227162Y0031455D01*
X0227148Y0031534D01*
X0227130Y0031611D01*
X0227108Y0031688D01*
X0227083Y0031764D01*
X0227054Y0031838D01*
X0227022Y0031911D01*
X0226987Y0031983D01*
X0226948Y0032053D01*
X0226906Y0032121D01*
X0226861Y0032186D01*
X0226813Y0032250D01*
X0226763Y0032311D01*
X0226709Y0032370D01*
X0226652Y0032427D01*
X0226593Y0032481D01*
X0226532Y0032531D01*
X0226468Y0032579D01*
X0226403Y0032624D01*
X0226335Y0032666D01*
X0226265Y0032705D01*
X0226193Y0032740D01*
X0226120Y0032772D01*
X0226046Y0032801D01*
X0225970Y0032826D01*
X0225893Y0032848D01*
X0225816Y0032866D01*
X0225737Y0032880D01*
X0225658Y0032891D01*
X0225579Y0032897D01*
X0225499Y0032901D01*
X0225499Y0032845D01*
X0225578Y0032841D01*
X0225658Y0032834D01*
X0225736Y0032823D01*
X0225814Y0032809D01*
X0225892Y0032790D01*
X0225968Y0032768D01*
X0226043Y0032742D01*
X0226117Y0032713D01*
X0226190Y0032680D01*
X0226260Y0032644D01*
X0226329Y0032604D01*
X0226396Y0032561D01*
X0226461Y0032515D01*
X0226524Y0032466D01*
X0226584Y0032414D01*
X0226641Y0032359D01*
X0226696Y0032302D01*
X0226748Y0032242D01*
X0226797Y0032179D01*
X0226843Y0032114D01*
X0226886Y0032047D01*
X0226926Y0031978D01*
X0226962Y0031908D01*
X0226995Y0031835D01*
X0227024Y0031761D01*
X0227050Y0031686D01*
X0227072Y0031610D01*
X0227091Y0031532D01*
X0227105Y0031454D01*
X0227116Y0031376D01*
X0227123Y0031296D01*
X0227127Y0031217D01*
X0227071Y0031217D01*
X0227067Y0031296D01*
X0227060Y0031375D01*
X0227049Y0031453D01*
X0227034Y0031531D01*
X0227015Y0031608D01*
X0226992Y0031684D01*
X0226965Y0031759D01*
X0226935Y0031832D01*
X0226902Y0031904D01*
X0226865Y0031974D01*
X0226824Y0032042D01*
X0226780Y0032108D01*
X0226733Y0032171D01*
X0226683Y0032233D01*
X0226629Y0032291D01*
X0226573Y0032347D01*
X0226515Y0032401D01*
X0226453Y0032451D01*
X0226390Y0032498D01*
X0226324Y0032542D01*
X0226256Y0032583D01*
X0226186Y0032620D01*
X0226114Y0032653D01*
X0226041Y0032683D01*
X0225966Y0032710D01*
X0225890Y0032733D01*
X0225813Y0032752D01*
X0225735Y0032767D01*
X0225657Y0032778D01*
X0225578Y0032785D01*
X0225499Y0032789D01*
X0225499Y0032733D01*
X0225575Y0032729D01*
X0225651Y0032722D01*
X0225727Y0032711D01*
X0225802Y0032697D01*
X0225876Y0032678D01*
X0225949Y0032656D01*
X0226021Y0032631D01*
X0226092Y0032602D01*
X0226161Y0032569D01*
X0226229Y0032534D01*
X0226294Y0032494D01*
X0226358Y0032452D01*
X0226419Y0032407D01*
X0226478Y0032358D01*
X0226535Y0032307D01*
X0226589Y0032253D01*
X0226640Y0032196D01*
X0226689Y0032137D01*
X0226734Y0032076D01*
X0226776Y0032012D01*
X0226816Y0031947D01*
X0226851Y0031879D01*
X0226884Y0031810D01*
X0226913Y0031739D01*
X0226938Y0031667D01*
X0226960Y0031594D01*
X0226979Y0031520D01*
X0226993Y0031445D01*
X0227004Y0031369D01*
X0227011Y0031293D01*
X0227015Y0031217D01*
X0226959Y0031217D01*
X0226955Y0031293D01*
X0226948Y0031369D01*
X0226937Y0031444D01*
X0226922Y0031518D01*
X0226903Y0031592D01*
X0226880Y0031665D01*
X0226854Y0031736D01*
X0226824Y0031806D01*
X0226791Y0031874D01*
X0226754Y0031941D01*
X0226714Y0032005D01*
X0226671Y0032068D01*
X0226624Y0032128D01*
X0226575Y0032185D01*
X0226523Y0032241D01*
X0226467Y0032293D01*
X0226410Y0032342D01*
X0226350Y0032389D01*
X0226287Y0032432D01*
X0226223Y0032472D01*
X0226156Y0032509D01*
X0226088Y0032542D01*
X0226018Y0032572D01*
X0225947Y0032598D01*
X0225874Y0032621D01*
X0225800Y0032640D01*
X0225726Y0032655D01*
X0225651Y0032666D01*
X0225575Y0032673D01*
X0225499Y0032677D01*
X0225499Y0032621D01*
X0225575Y0032617D01*
X0225650Y0032610D01*
X0225724Y0032598D01*
X0225798Y0032583D01*
X0225872Y0032563D01*
X0225944Y0032540D01*
X0226014Y0032513D01*
X0226083Y0032483D01*
X0226151Y0032449D01*
X0226216Y0032411D01*
X0226280Y0032370D01*
X0226341Y0032325D01*
X0226400Y0032278D01*
X0226456Y0032227D01*
X0226509Y0032174D01*
X0226560Y0032118D01*
X0226607Y0032059D01*
X0226652Y0031998D01*
X0226693Y0031934D01*
X0226731Y0031869D01*
X0226765Y0031801D01*
X0226795Y0031732D01*
X0226822Y0031662D01*
X0226845Y0031590D01*
X0226865Y0031516D01*
X0226880Y0031442D01*
X0226892Y0031368D01*
X0226899Y0031293D01*
X0226903Y0031217D01*
X0226847Y0031217D01*
X0226843Y0031289D01*
X0226836Y0031362D01*
X0226825Y0031433D01*
X0226810Y0031504D01*
X0226791Y0031575D01*
X0226769Y0031644D01*
X0226743Y0031711D01*
X0226714Y0031778D01*
X0226681Y0031842D01*
X0226645Y0031905D01*
X0226605Y0031966D01*
X0226563Y0032025D01*
X0226517Y0032081D01*
X0226469Y0032135D01*
X0226417Y0032187D01*
X0226363Y0032235D01*
X0226307Y0032281D01*
X0226248Y0032323D01*
X0226187Y0032363D01*
X0226124Y0032399D01*
X0226060Y0032432D01*
X0225993Y0032461D01*
X0225926Y0032487D01*
X0225857Y0032509D01*
X0225786Y0032528D01*
X0225715Y0032543D01*
X0225644Y0032554D01*
X0225571Y0032561D01*
X0225499Y0032565D01*
X0225499Y0032509D01*
X0225571Y0032505D01*
X0225643Y0032498D01*
X0225714Y0032486D01*
X0225784Y0032471D01*
X0225853Y0032452D01*
X0225922Y0032429D01*
X0225989Y0032403D01*
X0226054Y0032372D01*
X0226118Y0032339D01*
X0226180Y0032302D01*
X0226239Y0032261D01*
X0226297Y0032218D01*
X0226352Y0032171D01*
X0226404Y0032122D01*
X0226453Y0032070D01*
X0226500Y0032015D01*
X0226543Y0031957D01*
X0226584Y0031898D01*
X0226621Y0031836D01*
X0226654Y0031772D01*
X0226685Y0031707D01*
X0226711Y0031640D01*
X0226734Y0031571D01*
X0226753Y0031502D01*
X0226768Y0031432D01*
X0226780Y0031361D01*
X0226787Y0031289D01*
X0226791Y0031217D01*
X0226735Y0031217D01*
X0226731Y0031286D01*
X0226724Y0031354D01*
X0226713Y0031422D01*
X0226698Y0031490D01*
X0226680Y0031556D01*
X0226658Y0031621D01*
X0226633Y0031685D01*
X0226604Y0031748D01*
X0226572Y0031809D01*
X0226536Y0031868D01*
X0226498Y0031925D01*
X0226456Y0031980D01*
X0226412Y0032032D01*
X0226364Y0032082D01*
X0226314Y0032130D01*
X0226262Y0032174D01*
X0226207Y0032216D01*
X0226150Y0032254D01*
X0226091Y0032290D01*
X0226030Y0032322D01*
X0225967Y0032351D01*
X0225903Y0032376D01*
X0225838Y0032398D01*
X0225772Y0032416D01*
X0225704Y0032431D01*
X0225636Y0032442D01*
X0225568Y0032449D01*
X0225499Y0032453D01*
D17*
X0226969Y0018687D02*
X0186969Y0018687D01*
D18*
X0224337Y0053498D02*
X0236411Y0050828D01*
X0236411Y0057111D01*
X0216811Y0057111D01*
X0215382Y0053498D02*
X0215294Y0053493D01*
X0215205Y0053492D01*
X0215117Y0053495D01*
X0215028Y0053502D01*
X0214940Y0053513D01*
X0214853Y0053527D01*
X0214766Y0053545D01*
X0214680Y0053567D01*
X0214595Y0053593D01*
X0214512Y0053622D01*
X0214430Y0053655D01*
X0214349Y0053692D01*
X0214270Y0053732D01*
X0214192Y0053775D01*
X0214117Y0053822D01*
X0214044Y0053871D01*
X0213972Y0053924D01*
X0213904Y0053980D01*
X0213837Y0054039D01*
X0213774Y0054101D01*
X0213713Y0054165D01*
X0213655Y0054232D01*
X0213600Y0054302D01*
X0213548Y0054374D01*
X0213499Y0054447D01*
X0213453Y0054523D01*
X0213411Y0054601D01*
X0213372Y0054681D01*
X0213336Y0054762D01*
X0213305Y0054845D01*
X0213276Y0054929D01*
X0213252Y0055014D01*
X0213231Y0055100D01*
X0213214Y0055187D01*
X0213200Y0055275D01*
X0213191Y0055363D01*
X0213185Y0055451D01*
X0213183Y0055540D01*
X0213183Y0058682D01*
X0213183Y0058763D01*
X0213187Y0058843D01*
X0213195Y0058923D01*
X0213206Y0059002D01*
X0213222Y0059081D01*
X0213241Y0059159D01*
X0213263Y0059236D01*
X0213290Y0059312D01*
X0213319Y0059387D01*
X0213353Y0059460D01*
X0213390Y0059532D01*
X0213430Y0059601D01*
X0213473Y0059669D01*
X0213520Y0059734D01*
X0213570Y0059797D01*
X0213622Y0059858D01*
X0213678Y0059916D01*
X0213736Y0059972D01*
X0213797Y0060024D01*
X0213860Y0060074D01*
X0213925Y0060121D01*
X0213993Y0060164D01*
X0214062Y0060204D01*
X0214134Y0060241D01*
X0214207Y0060275D01*
X0214282Y0060304D01*
X0214358Y0060331D01*
X0214435Y0060353D01*
X0214513Y0060372D01*
X0214592Y0060388D01*
X0214671Y0060399D01*
X0214751Y0060407D01*
X0214831Y0060411D01*
X0214912Y0060411D01*
X0215012Y0060410D01*
X0215112Y0060414D01*
X0215213Y0060421D01*
X0215312Y0060433D01*
X0215411Y0060448D01*
X0215510Y0060467D01*
X0215607Y0060491D01*
X0215704Y0060518D01*
X0215800Y0060548D01*
X0215894Y0060583D01*
X0215987Y0060621D01*
X0216078Y0060663D01*
X0216167Y0060708D01*
X0216255Y0060757D01*
X0216341Y0060809D01*
X0216424Y0060865D01*
X0216506Y0060924D01*
X0216584Y0060986D01*
X0216661Y0061051D01*
X0216735Y0061119D01*
X0216806Y0061190D01*
X0216874Y0061263D01*
X0216939Y0061340D01*
X0217001Y0061418D01*
X0217060Y0061500D01*
X0217116Y0061583D01*
X0217168Y0061668D01*
X0217217Y0061756D01*
X0217263Y0061845D01*
X0217305Y0061937D01*
X0217343Y0062029D01*
X0217378Y0062123D01*
X0217409Y0062219D01*
X0217436Y0062316D01*
X0217459Y0062413D01*
X0217479Y0062512D01*
X0217494Y0062611D01*
X0217506Y0062710D01*
X0217514Y0062810D01*
X0217518Y0062911D01*
X0217517Y0063011D01*
X0217513Y0063111D01*
X0217505Y0063211D01*
X0217493Y0063311D01*
X0217477Y0063410D01*
X0217457Y0063508D01*
X0217434Y0063606D01*
X0217406Y0063702D01*
X0217375Y0063798D01*
X0217340Y0063892D01*
X0217301Y0063984D01*
X0217259Y0064075D01*
X0217213Y0064165D01*
X0217163Y0064252D01*
X0217111Y0064337D01*
X0229364Y0059154D02*
X0229419Y0059118D01*
X0229471Y0059079D01*
X0229522Y0059037D01*
X0229570Y0058992D01*
X0229615Y0058944D01*
X0229657Y0058894D01*
X0229696Y0058841D01*
X0229732Y0058786D01*
X0229764Y0058729D01*
X0229793Y0058670D01*
X0229819Y0058610D01*
X0229841Y0058548D01*
X0229859Y0058485D01*
X0229874Y0058421D01*
X0229884Y0058356D01*
X0229891Y0058291D01*
X0229894Y0058225D01*
X0229893Y0058159D01*
X0229888Y0058094D01*
X0229879Y0058029D01*
X0229867Y0057964D01*
X0229850Y0057901D01*
X0229830Y0057838D01*
X0229806Y0057777D01*
X0229779Y0057717D01*
X0229748Y0057659D01*
X0229714Y0057603D01*
X0229676Y0057549D01*
X0229635Y0057498D01*
X0229592Y0057449D01*
X0229545Y0057403D01*
X0229496Y0057359D01*
X0229444Y0057318D01*
X0229391Y0057281D01*
X0229334Y0057247D01*
X0229276Y0057216D01*
X0229217Y0057189D01*
X0229155Y0057165D01*
X0229093Y0057145D01*
X0229029Y0057129D01*
X0228965Y0057116D01*
X0228900Y0057108D01*
X0228834Y0057103D01*
X0228769Y0057102D01*
X0228703Y0057105D01*
X0228638Y0057112D01*
X0228573Y0057123D01*
X0224337Y0053498D02*
X0215383Y0053498D01*
X0248392Y0050828D02*
X0248392Y0057111D01*
X0267992Y0057111D01*
X0269421Y0053498D02*
X0269509Y0053493D01*
X0269598Y0053492D01*
X0269686Y0053495D01*
X0269775Y0053502D01*
X0269863Y0053513D01*
X0269950Y0053527D01*
X0270037Y0053545D01*
X0270123Y0053567D01*
X0270208Y0053593D01*
X0270291Y0053622D01*
X0270373Y0053655D01*
X0270454Y0053692D01*
X0270533Y0053732D01*
X0270611Y0053775D01*
X0270686Y0053822D01*
X0270759Y0053871D01*
X0270831Y0053924D01*
X0270899Y0053980D01*
X0270966Y0054039D01*
X0271029Y0054101D01*
X0271090Y0054165D01*
X0271148Y0054232D01*
X0271203Y0054302D01*
X0271255Y0054374D01*
X0271304Y0054447D01*
X0271350Y0054523D01*
X0271392Y0054601D01*
X0271431Y0054681D01*
X0271467Y0054762D01*
X0271498Y0054845D01*
X0271527Y0054929D01*
X0271551Y0055014D01*
X0271572Y0055100D01*
X0271589Y0055187D01*
X0271603Y0055275D01*
X0271612Y0055363D01*
X0271618Y0055451D01*
X0271620Y0055540D01*
X0271620Y0058682D01*
X0271621Y0058682D02*
X0271621Y0058763D01*
X0271617Y0058843D01*
X0271609Y0058923D01*
X0271598Y0059002D01*
X0271582Y0059081D01*
X0271563Y0059159D01*
X0271541Y0059236D01*
X0271514Y0059312D01*
X0271485Y0059387D01*
X0271451Y0059460D01*
X0271414Y0059532D01*
X0271374Y0059601D01*
X0271331Y0059669D01*
X0271284Y0059734D01*
X0271234Y0059797D01*
X0271182Y0059858D01*
X0271126Y0059916D01*
X0271068Y0059972D01*
X0271007Y0060024D01*
X0270944Y0060074D01*
X0270879Y0060121D01*
X0270811Y0060164D01*
X0270742Y0060204D01*
X0270670Y0060241D01*
X0270597Y0060275D01*
X0270522Y0060304D01*
X0270446Y0060331D01*
X0270369Y0060353D01*
X0270291Y0060372D01*
X0270212Y0060388D01*
X0270133Y0060399D01*
X0270053Y0060407D01*
X0269973Y0060411D01*
X0269892Y0060411D01*
X0269792Y0060410D01*
X0269692Y0060414D01*
X0269591Y0060421D01*
X0269492Y0060433D01*
X0269393Y0060448D01*
X0269294Y0060467D01*
X0269197Y0060491D01*
X0269100Y0060518D01*
X0269004Y0060548D01*
X0268910Y0060583D01*
X0268817Y0060621D01*
X0268726Y0060663D01*
X0268637Y0060708D01*
X0268549Y0060757D01*
X0268463Y0060809D01*
X0268380Y0060865D01*
X0268298Y0060924D01*
X0268220Y0060986D01*
X0268143Y0061051D01*
X0268069Y0061119D01*
X0267998Y0061190D01*
X0267930Y0061263D01*
X0267865Y0061340D01*
X0267803Y0061418D01*
X0267744Y0061500D01*
X0267688Y0061583D01*
X0267636Y0061668D01*
X0267587Y0061756D01*
X0267541Y0061845D01*
X0267499Y0061937D01*
X0267461Y0062029D01*
X0267426Y0062123D01*
X0267395Y0062219D01*
X0267368Y0062316D01*
X0267345Y0062413D01*
X0267325Y0062512D01*
X0267310Y0062611D01*
X0267298Y0062710D01*
X0267290Y0062810D01*
X0267286Y0062911D01*
X0267287Y0063011D01*
X0267291Y0063111D01*
X0267299Y0063211D01*
X0267311Y0063311D01*
X0267327Y0063410D01*
X0267347Y0063508D01*
X0267370Y0063606D01*
X0267398Y0063702D01*
X0267429Y0063798D01*
X0267464Y0063892D01*
X0267503Y0063984D01*
X0267545Y0064075D01*
X0267591Y0064165D01*
X0267641Y0064252D01*
X0267693Y0064337D01*
X0255440Y0059153D02*
X0255385Y0059117D01*
X0255332Y0059078D01*
X0255281Y0059036D01*
X0255233Y0058991D01*
X0255188Y0058943D01*
X0255146Y0058892D01*
X0255107Y0058839D01*
X0255071Y0058784D01*
X0255039Y0058727D01*
X0255010Y0058668D01*
X0254984Y0058607D01*
X0254963Y0058545D01*
X0254945Y0058482D01*
X0254930Y0058418D01*
X0254920Y0058353D01*
X0254914Y0058287D01*
X0254911Y0058221D01*
X0254912Y0058155D01*
X0254918Y0058090D01*
X0254927Y0058025D01*
X0254940Y0057960D01*
X0254957Y0057897D01*
X0254978Y0057834D01*
X0255002Y0057773D01*
X0255030Y0057713D01*
X0255062Y0057656D01*
X0255097Y0057600D01*
X0255135Y0057546D01*
X0255176Y0057495D01*
X0255220Y0057446D01*
X0255268Y0057400D01*
X0255317Y0057357D01*
X0255370Y0057317D01*
X0255424Y0057280D01*
X0255481Y0057247D01*
X0255539Y0057217D01*
X0255600Y0057190D01*
X0255661Y0057168D01*
X0255724Y0057148D01*
X0255788Y0057133D01*
X0255853Y0057122D01*
X0255919Y0057114D01*
X0255984Y0057110D01*
X0256050Y0057111D01*
X0256116Y0057115D01*
X0256181Y0057123D01*
X0260467Y0053498D02*
X0248392Y0050828D01*
X0260467Y0053498D02*
X0269420Y0053498D01*
X0248307Y0068294D02*
X0236496Y0068294D01*
X0236496Y0095853D01*
X0238465Y0095853D01*
X0238465Y0071247D01*
X0241417Y0071247D01*
X0241417Y0078136D01*
X0243386Y0078136D01*
X0243386Y0071247D01*
X0246339Y0071247D01*
X0246339Y0095853D01*
X0248307Y0095853D01*
X0248307Y0068294D01*
X0229363Y0059154D02*
X0228840Y0059482D01*
X0228325Y0059823D01*
X0227819Y0060176D01*
X0227321Y0060541D01*
X0226833Y0060919D01*
X0226353Y0061308D01*
X0225884Y0061709D01*
X0225424Y0062122D01*
X0224975Y0062545D01*
X0224536Y0062979D01*
X0224108Y0063424D01*
X0223691Y0063880D01*
X0223285Y0064345D01*
X0222891Y0064820D01*
X0222508Y0065305D01*
X0222137Y0065798D01*
X0221779Y0066301D01*
X0221433Y0066813D01*
X0221099Y0067332D01*
X0220779Y0067860D01*
X0220471Y0068395D01*
X0220177Y0068938D01*
X0219896Y0069488D01*
X0219628Y0070044D01*
X0219374Y0070607D01*
X0219134Y0071176D01*
X0218908Y0071750D01*
X0218696Y0072330D01*
X0218498Y0072915D01*
X0218315Y0073505D01*
X0218146Y0074099D01*
X0217992Y0074697D01*
X0217852Y0075298D01*
X0217727Y0075903D01*
X0217617Y0076510D01*
X0217522Y0077120D01*
X0217442Y0077733D01*
X0217377Y0078347D01*
X0217326Y0078962D01*
X0217291Y0079578D01*
X0217271Y0080195D01*
X0217266Y0080813D01*
X0217276Y0081430D01*
X0217302Y0082047D01*
X0217342Y0082663D01*
X0217397Y0083278D01*
X0217468Y0083892D01*
X0217553Y0084503D01*
X0217653Y0085112D01*
X0217768Y0085719D01*
X0217898Y0086323D01*
X0218043Y0086923D01*
X0218202Y0087519D01*
X0218376Y0088112D01*
X0218565Y0088700D01*
X0218767Y0089283D01*
X0218984Y0089861D01*
X0219215Y0090434D01*
X0219460Y0091001D01*
X0219718Y0091562D01*
X0219991Y0092116D01*
X0220276Y0092663D01*
X0220575Y0093203D01*
X0220887Y0093736D01*
X0221212Y0094261D01*
X0221550Y0094778D01*
X0221901Y0095286D01*
X0222263Y0095786D01*
X0222638Y0096277D01*
X0223025Y0096758D01*
X0223423Y0097230D01*
X0223833Y0097692D01*
X0224254Y0098144D01*
X0224685Y0098585D01*
X0225128Y0099015D01*
X0225581Y0099435D01*
X0226044Y0099844D01*
X0226517Y0100241D01*
X0226999Y0100626D01*
X0227491Y0100999D01*
X0227991Y0101361D01*
X0228501Y0101710D01*
X0229019Y0102046D01*
X0229544Y0102370D01*
X0230078Y0102680D01*
X0230619Y0102978D01*
X0231167Y0103262D01*
X0231722Y0103533D01*
X0232283Y0103790D01*
X0232851Y0104033D01*
X0233424Y0104263D01*
X0234003Y0104478D01*
X0234587Y0104679D01*
X0235175Y0104866D01*
X0230591Y0102743D02*
X0232559Y0099790D01*
X0228622Y0096837D01*
X0226161Y0099347D01*
X0252244Y0099790D02*
X0256181Y0096837D01*
X0258642Y0099347D01*
X0254213Y0102743D02*
X0252244Y0099790D01*
X0248454Y0110174D02*
X0249169Y0110020D01*
X0249880Y0109848D01*
X0250587Y0109658D01*
X0251288Y0109452D01*
X0251985Y0109229D01*
X0252675Y0108989D01*
X0253360Y0108732D01*
X0254038Y0108458D01*
X0254710Y0108169D01*
X0255374Y0107862D01*
X0256030Y0107540D01*
X0256679Y0107202D01*
X0257319Y0106849D01*
X0257950Y0106479D01*
X0258572Y0106095D01*
X0259185Y0105696D01*
X0259788Y0105282D01*
X0260380Y0104853D01*
X0260962Y0104410D01*
X0261533Y0103953D01*
X0262093Y0103482D01*
X0262641Y0102998D01*
X0263177Y0102501D01*
X0263701Y0101990D01*
X0264212Y0101467D01*
X0264711Y0100932D01*
X0265196Y0100385D01*
X0265668Y0099826D01*
X0266126Y0099256D01*
X0266570Y0098675D01*
X0267000Y0098084D01*
X0267415Y0097482D01*
X0267816Y0096870D01*
X0268201Y0096249D01*
X0268572Y0095618D01*
X0268927Y0094979D01*
X0269266Y0094331D01*
X0269590Y0093675D01*
X0269897Y0093011D01*
X0270188Y0092341D01*
X0270463Y0091663D01*
X0270721Y0090979D01*
X0270963Y0090288D01*
X0271187Y0089592D01*
X0271395Y0088891D01*
X0271586Y0088185D01*
X0271759Y0087475D01*
X0271915Y0086760D01*
X0272054Y0086042D01*
X0272175Y0085321D01*
X0272278Y0084597D01*
X0272364Y0083871D01*
X0272433Y0083143D01*
X0272483Y0082413D01*
X0272516Y0081683D01*
X0272531Y0080951D01*
X0272528Y0080220D01*
X0272508Y0079489D01*
X0272469Y0078759D01*
X0272413Y0078030D01*
X0272339Y0077302D01*
X0272248Y0076576D01*
X0272139Y0075853D01*
X0272012Y0075133D01*
X0271868Y0074416D01*
X0271707Y0073703D01*
X0271528Y0072994D01*
X0271332Y0072289D01*
X0271119Y0071589D01*
X0270889Y0070895D01*
X0270642Y0070207D01*
X0270379Y0069525D01*
X0270099Y0068849D01*
X0269803Y0068180D01*
X0269490Y0067519D01*
X0269162Y0066866D01*
X0268818Y0066221D01*
X0268458Y0065584D01*
X0268083Y0064956D01*
X0267692Y0064338D01*
X0217110Y0064338D02*
X0216721Y0064957D01*
X0216347Y0065585D01*
X0215989Y0066221D01*
X0215646Y0066867D01*
X0215319Y0067520D01*
X0215007Y0068182D01*
X0214712Y0068850D01*
X0214433Y0069526D01*
X0214171Y0070208D01*
X0213925Y0070896D01*
X0213696Y0071590D01*
X0213484Y0072290D01*
X0213289Y0072994D01*
X0213111Y0073703D01*
X0212951Y0074416D01*
X0212808Y0075133D01*
X0212682Y0075853D01*
X0212573Y0076576D01*
X0212483Y0077301D01*
X0212410Y0078028D01*
X0212354Y0078757D01*
X0212316Y0079487D01*
X0212296Y0080217D01*
X0212294Y0080948D01*
X0212310Y0081679D01*
X0212343Y0082409D01*
X0212394Y0083138D01*
X0212462Y0083866D01*
X0212549Y0084592D01*
X0212652Y0085315D01*
X0212774Y0086036D01*
X0212913Y0086753D01*
X0213069Y0087467D01*
X0213242Y0088177D01*
X0213433Y0088883D01*
X0213641Y0089584D01*
X0213865Y0090279D01*
X0214107Y0090969D01*
X0214365Y0091653D01*
X0214639Y0092330D01*
X0214931Y0093001D01*
X0215238Y0093664D01*
X0215561Y0094319D01*
X0215900Y0094967D01*
X0216255Y0095606D01*
X0216625Y0096236D01*
X0217010Y0096857D01*
X0217410Y0097469D01*
X0217825Y0098071D01*
X0218254Y0098662D01*
X0218698Y0099243D01*
X0219155Y0099813D01*
X0219627Y0100371D01*
X0220111Y0100918D01*
X0220609Y0101454D01*
X0221120Y0101976D01*
X0221643Y0102487D01*
X0222179Y0102984D01*
X0222726Y0103469D01*
X0223285Y0103940D01*
X0223855Y0104397D01*
X0224436Y0104840D01*
X0225028Y0105269D01*
X0225630Y0105684D01*
X0226242Y0106083D01*
X0226863Y0106468D01*
X0227494Y0106838D01*
X0228133Y0107192D01*
X0228781Y0107531D01*
X0229436Y0107853D01*
X0230100Y0108160D01*
X0230770Y0108451D01*
X0231448Y0108725D01*
X0232132Y0108983D01*
X0232822Y0109224D01*
X0233517Y0109448D01*
X0234218Y0109655D01*
X0234924Y0109845D01*
X0235634Y0110018D01*
X0236348Y0110174D01*
X0249470Y0104865D02*
X0250055Y0104685D01*
X0250636Y0104490D01*
X0251211Y0104281D01*
X0251782Y0104058D01*
X0252347Y0103822D01*
X0252906Y0103572D01*
X0253458Y0103308D01*
X0254004Y0103031D01*
X0254543Y0102741D01*
X0255076Y0102438D01*
X0255600Y0102122D01*
X0256117Y0101793D01*
X0256625Y0101452D01*
X0257125Y0101099D01*
X0257617Y0100733D01*
X0258099Y0100356D01*
X0258572Y0099967D01*
X0259035Y0099567D01*
X0259489Y0099156D01*
X0259933Y0098733D01*
X0260366Y0098301D01*
X0260788Y0097857D01*
X0261200Y0097404D01*
X0261600Y0096941D01*
X0261989Y0096468D01*
X0262367Y0095986D01*
X0262732Y0095494D01*
X0263086Y0094995D01*
X0263427Y0094486D01*
X0263756Y0093970D01*
X0264072Y0093445D01*
X0264376Y0092914D01*
X0264666Y0092374D01*
X0264944Y0091828D01*
X0265207Y0091276D01*
X0265458Y0090717D01*
X0265695Y0090152D01*
X0265918Y0089582D01*
X0266127Y0089007D01*
X0266322Y0088426D01*
X0266503Y0087841D01*
X0266669Y0087252D01*
X0266821Y0086659D01*
X0266959Y0086062D01*
X0267083Y0085462D01*
X0267191Y0084860D01*
X0267285Y0084255D01*
X0267365Y0083648D01*
X0267429Y0083039D01*
X0267479Y0082428D01*
X0267514Y0081817D01*
X0267534Y0081205D01*
X0267539Y0080593D01*
X0267529Y0079980D01*
X0267505Y0079369D01*
X0267465Y0078758D01*
X0267411Y0078148D01*
X0267342Y0077539D01*
X0267258Y0076933D01*
X0267159Y0076328D01*
X0267046Y0075727D01*
X0266918Y0075128D01*
X0266776Y0074532D01*
X0266619Y0073940D01*
X0266448Y0073352D01*
X0266263Y0072769D01*
X0266064Y0072190D01*
X0265850Y0071616D01*
X0265623Y0071047D01*
X0265382Y0070484D01*
X0265128Y0069927D01*
X0264860Y0069377D01*
X0264578Y0068833D01*
X0264284Y0068296D01*
X0263976Y0067766D01*
X0263656Y0067244D01*
X0263323Y0066730D01*
X0262978Y0066225D01*
X0262621Y0065727D01*
X0262252Y0065239D01*
X0261871Y0064760D01*
X0261478Y0064290D01*
X0261074Y0063829D01*
X0260659Y0063379D01*
X0260233Y0062939D01*
X0259797Y0062509D01*
X0259350Y0062091D01*
X0258894Y0061683D01*
X0258427Y0061286D01*
X0257951Y0060901D01*
X0257466Y0060527D01*
X0256972Y0060165D01*
X0256469Y0059816D01*
X0255958Y0059478D01*
X0255439Y0059154D01*
D19*
X0016417Y0094777D03*
D20*
X0191626Y0090790D03*
M02*
